<svg width="24" height="24" viewBox="0 0 24 24" fill="none" xmlns="http://www.w3.org/2000/svg">
<g clip-path="url(#clip0)">
<path d="M7.55247 16.9983C7.14513 16.5909 7.35747 16.7058 6.37497 16.4428C5.92919 16.3233 5.53731 16.0936 5.18294 15.8184L3.05622 21.0328C2.85044 21.5377 3.23481 22.0861 3.7795 22.0655L6.24935 21.9712L7.9481 23.7656C8.3231 24.1612 8.98122 24.038 9.187 23.5331L11.6268 17.5509C11.1187 17.8341 10.5548 18 9.97169 18C9.05763 18 8.19888 17.6442 7.55247 16.9983V16.9983ZM20.9437 21.0328L18.817 15.8184C18.4626 16.0941 18.0708 16.3233 17.625 16.4428C16.6373 16.7072 16.8539 16.5919 16.4475 16.9983C15.8011 17.6442 14.9418 18 14.0278 18C13.4447 18 12.8808 17.8336 12.3726 17.5509L14.8125 23.5331C15.0183 24.038 15.6768 24.1612 16.0514 23.7656L17.7506 21.9712L20.2204 22.0655C20.7651 22.0861 21.1495 21.5372 20.9437 21.0328V21.0328ZM15.3281 15.9375C16.0443 15.2086 16.1264 15.2714 17.1464 14.9934C17.7975 14.8158 18.3065 14.2978 18.4809 13.635C18.8315 12.3037 18.7406 12.4645 19.6973 11.4905C20.174 11.0053 20.3601 10.298 20.1858 9.63515C19.8356 8.30484 19.8351 8.49046 20.1858 7.15875C20.3601 6.49593 20.174 5.78859 19.6973 5.30343C18.7406 4.32937 18.8315 4.48968 18.4809 3.1589C18.3065 2.49609 17.7975 1.97812 17.1464 1.80047C15.8395 1.44375 15.997 1.53703 15.0393 0.562496C14.5626 0.0773402 13.8675 -0.112504 13.2164 0.0651527C11.91 0.421403 12.0923 0.421871 10.7836 0.0651527C10.1325 -0.112504 9.43731 0.0768715 8.9606 0.562496C8.00388 1.53656 8.16138 1.44375 6.85403 1.80047C6.20294 1.97812 5.69388 2.49609 5.5195 3.1589C5.16935 4.48968 5.25981 4.32937 4.3031 5.30343C3.82638 5.78859 3.63981 6.49593 3.81466 7.15875C4.16481 8.48812 4.16528 8.3025 3.81466 9.63468C3.64028 10.2975 3.82638 11.0048 4.3031 11.4905C5.25981 12.4645 5.16888 12.3037 5.5195 13.635C5.69388 14.2978 6.20294 14.8158 6.85403 14.9934C7.9031 15.2794 7.98138 15.2344 8.67185 15.9375C9.292 16.5689 10.2581 16.6819 11.0034 16.2103C11.3014 16.0211 11.6472 15.9206 12.0002 15.9206C12.3532 15.9206 12.699 16.0211 12.997 16.2103C13.7418 16.6819 14.7079 16.5689 15.3281 15.9375ZM7.57778 8.24812C7.57778 5.76234 9.55778 3.74718 12 3.74718C14.4422 3.74718 16.4222 5.76234 16.4222 8.24812C16.4222 10.7339 14.4422 12.7491 12 12.7491C9.55778 12.7491 7.57778 10.7339 7.57778 8.24812V8.24812Z" fill="black"/>
</g>
<defs>
<clipPath id="clip0">
<rect width="24" height="24" fill="white"/>
</clipPath>
</defs>
</svg>
