<svg width="24" height="24" viewBox="0 0 24 24" fill="none" xmlns="http://www.w3.org/2000/svg">
<path d="M0 10.275V20.2359C0 20.9039 0.544688 21.4664 1.24219 21.5016C3.53062 21.6188 8.44687 22.0922 11.25 23.9953V11.4937C8.50313 9.63281 3.74953 9.13125 1.39875 9C0.637031 8.95781 0 9.54375 0 10.275ZM22.6031 9C20.2552 9.1335 15.5109 9.63141 12.8016 11.4886C12.7547 11.4937 12.75 11.4984 12.75 11.5078V24C15.5644 22.1067 20.4703 21.6206 22.7578 21.5025C23.4562 21.4641 24 20.9016 24 20.2359V10.275C24 9.54375 23.3625 8.95781 22.6031 9ZM16.5 4.5C16.5 2.01562 14.4844 0 12 0C9.51562 0 7.5 2.01562 7.5 4.5C7.5 6.98438 9.51562 9 12 9C14.4844 9 16.5 6.98438 16.5 4.5Z" fill="black"/>
</svg>
