<svg width="24" height="24" viewBox="0 0 24 24" fill="none" xmlns="http://www.w3.org/2000/svg">
<g clip-path="url(#clip0)">
<path d="M7.5 18L13.4578 18V6H7.5V18ZM4.5 0.00013125H1.45781C0.673594 0.00013125 0 0.674062 0 1.5V4.45781L6 4.45778L6.00004 1.49996C6 0.674063 5.325 0.00013125 4.5 0.00013125ZM7.5 22.4578C7.5 23.2838 8.17359 23.9156 9 23.9156H11.9578C12.7838 23.9156 13.4569 23.2425 13.4156 22.4166V19.4156H7.45781L7.5 22.4578ZM0 22.4578C0 23.2838 0.673594 23.9156 1.45781 23.9156H4.45781C5.28375 23.9156 5.91562 23.242 5.91562 22.4578L6 19.5H0V22.4578ZM0 18L6 18V6H0V18ZM19.6828 5.44688L13.8891 6.99563L16.9927 18.5597L22.7911 17.0109L19.6828 5.44688ZM23.9484 21.3422L23.1759 18.4514L17.3822 20.0006L18.158 22.8909C18.3717 23.6869 19.1963 24.1622 19.9941 23.9489L22.8933 23.1745C23.6906 22.9594 24.1641 22.1391 23.9484 21.3422ZM18.5156 1.10813C18.3015 0.312188 17.4773 -0.162188 16.68 0.0510938L13.7841 0.825469C13.6401 0.86392 13.5207 0.941906 13.3998 1.01625C13.196 0.429375 12.6531 0 11.9983 0H9.04045C8.21405 0 7.54045 0.673594 7.54045 1.45781L7.5 4.5L13.2188 4.50007L13.5002 5.54866L19.2892 3.99944L18.5156 1.10813Z" fill="black"/>
</g>
<defs>
<clipPath id="clip0">
<rect width="24" height="24" fill="white"/>
</clipPath>
</defs>
</svg>
