<svg width="24" height="24" viewBox="0 0 24 24" fill="none" xmlns="http://www.w3.org/2000/svg">
<path d="M1.50001 21.75C1.50001 22.9922 2.50782 24 3.75001 24H20.25C21.4922 24 22.5 22.9922 22.5 21.75L22.5 9H1.5L1.50001 21.75ZM7.78594 14.2641L10.3467 13.8891L11.4952 11.5688C11.7061 11.1469 12.2977 11.1527 12.503 11.5688L13.6514 13.8891L16.2178 14.2641C16.6749 14.3344 16.8623 14.8969 16.5284 15.225L14.6719 17.0344L15.1113 19.5952C15.1934 20.058 14.707 20.4037 14.2966 20.1867L12 18.975L9.70875 20.1881C9.3 20.4047 8.8125 20.0484 8.89688 19.5938L9.33633 17.033L7.47656 15.225C7.13906 14.8969 7.32656 14.3344 7.78594 14.2641ZM20.25 3H18V1.45781C18 0.675 17.325 0 16.5 0C15.675 0 15 0.675 15 1.45781V3H9V1.45781C9 0.675 8.325 0 7.5 0C6.675 0 6 0.675 6 1.45781V3H3.75C2.50734 3 1.5 4.00734 1.5 5.25V7.5H22.5L22.5 5.25C22.5 4.00734 21.4922 3 20.25 3Z" fill="black"/>
</svg>
