<svg width="24" height="24" viewBox="0 0 24 24" fill="none" xmlns="http://www.w3.org/2000/svg">
<g clip-path="url(#clip0)">
<path d="M23.9774 18.26C23.6634 17.4961 22.7868 17.1305 22.0229 17.4492L21.1934 17.7961L19.7403 14.0048C21.5354 12.7261 22.1729 10.2473 21.0341 8.27858L17.7858 2.63483C17.4859 2.11471 16.8821 1.89421 16.3196 2.12408L12.0371 3.90046L7.71746 2.09056C7.15496 1.86087 6.51747 2.08118 6.21747 2.60149L2.9681 8.24374C1.83372 10.2125 2.46672 12.6612 4.25997 13.97L2.80685 17.7912L1.97922 17.4462C1.21535 17.1275 0.343473 17.4931 0.0247239 18.257C-0.040901 18.4116 0.0294114 18.5851 0.184099 18.6507L6.27409 21.1771C6.39034 21.2427 6.59749 21.1724 6.66296 21.0178C6.97699 20.2539 6.61609 19.3727 5.85222 19.0539L5.02272 18.7118L6.49909 14.8268C6.66784 14.8455 6.83186 14.8736 6.99109 14.8736C8.93171 14.8736 10.7175 13.6699 11.2436 11.6771L12.003 8.85113L12.7623 11.6771C13.2536 13.6361 15.0731 14.8736 17.0148 14.8736C17.1742 14.8736 17.3382 14.8455 17.5068 14.8268L18.9787 18.7118L18.1492 19.0539C17.3853 19.3726 17.0197 20.2202 17.3384 21.0178C17.4041 21.1724 17.5822 21.2427 17.7322 21.1771L23.8222 18.6507C23.9662 18.5825 24.0412 18.4137 23.9774 18.26ZM10.3462 8.07874L6.14247 6.33499L7.51121 3.95862L11.055 5.42749L10.3462 8.07874ZM13.6537 8.07874L12.9461 5.42599L16.4895 3.95899L17.8582 6.33537L13.6537 8.07874Z" fill="black"/>
</g>
<defs>
<clipPath id="clip0">
<rect width="24" height="24" fill="white"/>
</clipPath>
</defs>
</svg>
