<svg width="24" height="24" viewBox="0 0 24 24" fill="none" xmlns="http://www.w3.org/2000/svg">
<path d="M23.8542 10.9208C21.5958 5.81249 17.1208 2.33333 12 2.33333C6.87917 2.33333 2.40375 5.81666 0.144542 10.9208C0.065125 11.1417 0 11.4583 0 11.6667C0 11.874 0.0650833 12.1917 0.144542 12.3762C2.405 17.5208 6.87917 21 12 21C17.1208 21 21.5958 17.5175 23.8542 12.4125C23.9333 12.1917 24 11.8375 24 11.6667C24 11.4583 23.9333 11.1417 23.8542 10.9208ZM18 11.6667C18 14.9771 15.3138 17.6667 12.0042 17.6667C8.69167 17.6667 6 14.9792 6 11.6667C6 8.35416 8.6875 5.66666 12 5.66666C15.3125 5.66666 18 8.35416 18 11.6667ZM12 7.66666C11.9042 7.66666 11.7667 7.68333 11.6458 7.69999C11.8667 8.08333 12 8.52499 12 8.99999C12 10.4729 10.8063 11.6667 9.33333 11.6667C8.85833 11.6667 8.37917 11.5292 8.02917 11.3125C8.01667 11.4375 8 11.5667 8 11.6667C8 13.8375 9.79167 15.6667 12 15.6667C14.2083 15.6667 16 13.8754 16 11.6671C16 9.45875 14.1708 7.66666 12 7.66666Z" fill="black"/>
</svg>
