<svg width="24" height="24" viewBox="0 0 24 24" fill="none" xmlns="http://www.w3.org/2000/svg">
<path d="M20.6719 4.92188L16.0828 0.328125C15.8719 0.117188 15.5859 0 15.2859 0H15V6H21V5.71406C21 5.41875 20.8828 5.13281 20.6719 4.92188ZM13.5 6.375V0H4.125C3.50156 0 3 0.501562 3 1.125V22.875C3 23.4984 3.50156 24 4.125 24H19.875C20.4984 24 21 23.4984 21 22.875V7.5H14.625C14.0063 7.5 13.5 6.99375 13.5 6.375ZM6 3.375C6 3.16781 6.16781 3 6.375 3H10.125C10.3322 3 10.5 3.16781 10.5 3.375V4.125C10.5 4.33219 10.3322 4.5 10.125 4.5H6.375C6.16781 4.5 6 4.33219 6 4.125V3.375ZM6 7.125V6.375C6 6.16781 6.16781 6 6.375 6H10.125C10.3322 6 10.5 6.16781 10.5 6.375V7.125C10.5 7.33219 10.3322 7.5 10.125 7.5H6.375C6.16781 7.5 6 7.33219 6 7.125ZM12.75 19.4944V20.625C12.75 20.8322 12.5822 21 12.375 21H11.625C11.4178 21 11.25 20.8322 11.25 20.625V19.4864C10.7208 19.4592 10.2061 19.2745 9.77953 18.9544C9.59672 18.817 9.58734 18.5433 9.75281 18.3853L10.3036 17.8598C10.4334 17.7361 10.6266 17.7305 10.7784 17.8256C10.9598 17.9391 11.1656 18 11.3794 18H12.697C13.0017 18 13.2502 17.7225 13.2502 17.3817C13.2502 17.1028 13.0809 16.8572 12.8391 16.785L10.7297 16.1522C9.85828 15.8906 9.24938 15.0544 9.24938 14.1183C9.24938 12.9689 10.1423 12.0352 11.2495 12.0056V10.875C11.2495 10.6678 11.4173 10.5 11.6245 10.5H12.3745C12.5817 10.5 12.7495 10.6678 12.7495 10.875V12.0136C13.2788 12.0408 13.7934 12.225 14.22 12.5456C14.4028 12.683 14.4122 12.9567 14.2467 13.1147L13.6959 13.6402C13.5661 13.7639 13.373 13.7695 13.2211 13.6744C13.0397 13.5605 12.8339 13.5 12.6202 13.5H11.3025C10.9978 13.5 10.7494 13.7775 10.7494 14.1183C10.7494 14.3972 10.9186 14.6428 11.1605 14.715L13.2698 15.3478C14.1412 15.6094 14.7502 16.4456 14.7502 17.3817C14.7502 18.5316 13.8572 19.4648 12.75 19.4944Z" fill="black"/>
</svg>
