<svg width="24" height="24" viewBox="0 0 24 24" fill="none" xmlns="http://www.w3.org/2000/svg">
<path d="M1.5 21C1.5 21.8297 2.17031 22.5 3 22.5H10.5V15H1.5V21ZM13.5 22.5H21C21.8297 22.5 22.5 21.8297 22.5 21V15H13.5V22.5ZM22.5 7.5H20.5266C20.8172 6.93281 21 6.30469 21 5.625C21 3.35156 19.1484 1.5 16.875 1.5C14.925 1.5 13.6641 2.49844 12.0469 4.70156C10.4297 2.49844 9.16875 1.5 7.21875 1.5C4.94531 1.5 3.09375 3.35156 3.09375 5.625C3.09375 6.30469 3.27187 6.93281 3.56719 7.5H1.5C0.670312 7.5 0 8.17031 0 9V12.75C0 13.1625 0.3375 13.5 0.75 13.5H23.25C23.6625 13.5 24 13.1625 24 12.75V9C24 8.17031 23.3297 7.5 22.5 7.5ZM7.21406 7.5C6.17812 7.5 5.33906 6.66094 5.33906 5.625C5.33906 4.58906 6.17812 3.75 7.21406 3.75C8.14687 3.75 8.83594 3.90469 11.25 7.5H7.21406ZM16.875 7.5H12.8391C15.2484 3.91406 15.9188 3.75 16.875 3.75C17.9109 3.75 18.75 4.58906 18.75 5.625C18.75 6.66094 17.9109 7.5 16.875 7.5Z" fill="black"/>
</svg>
