<svg width="24" height="24" viewBox="0 0 24 24" fill="none" xmlns="http://www.w3.org/2000/svg">
<path d="M22 6.33333H19.5775C20.0758 5.37833 20.2029 4.22708 19.5758 2.94166C18.975 1.70791 17.6917 0.999343 16.3125 0.999993C14.5708 1.00064 13.4458 1.88833 12 3.84583C10.5542 1.88833 9.42917 1.00064 7.6875 0.999993C6.30833 0.999343 5.025 1.70791 4.425 2.94166C3.79708 4.22708 3.92417 5.37916 4.42083 6.33333H2C0.895833 6.33333 0 7.22916 0 8.33333V20.3333C0 21.4375 0.895833 22.3333 2 22.3333H22C23.1042 22.3333 24 21.4375 24 20.3333V8.33333C24 7.22916 23.1042 6.33333 22 6.33333ZM16.2542 2.99999C17.1746 2.99999 17.9208 3.74624 17.9208 4.66666C17.9208 5.58708 17.1746 6.33333 16.2542 6.33333H12.6667C14.8125 3.13749 15.425 2.99999 16.2542 2.99999ZM7.74583 2.99999C8.575 2.99999 9.1875 3.13749 11.3333 6.33333H7.74583C6.82542 6.33333 6.07917 5.58708 6.07917 4.66666C6.07917 3.74624 6.825 2.99999 7.74583 2.99999ZM21.3333 19.6667H2.66667V17H21.3333V19.6667ZM21.3333 14.3333H2.66667V8.99999H8.5875L7.625 9.95833C7.23438 10.349 7.23438 10.9817 7.625 11.3725C7.82083 11.5708 8.075 11.6667 8.33333 11.6667C8.59167 11.6667 8.845 11.569 9.04042 11.3737L11.4125 8.99999H12.5842L14.9579 11.3737C15.1542 11.5708 15.4083 11.6667 15.6667 11.6667C15.925 11.6667 16.1783 11.569 16.3738 11.3737C16.7644 10.9831 16.7644 10.3504 16.3738 9.95954L15.4125 8.99999H21.3333V14.3333Z" fill="black"/>
</svg>
