<svg width="24" height="24" viewBox="0 0 24 24" fill="none" xmlns="http://www.w3.org/2000/svg">
<path d="M23.3662 7.13373L12.765 3.33873C12.2501 3.15461 11.6888 3.15461 11.1739 3.33873L0.601875 7.13373C0.241425 7.26498 0 7.60998 0 7.99998C0 8.38998 0.241425 8.73686 0.601875 8.86586L2.85263 9.67248C2.40675 10.265 2.09288 10.9535 1.932 11.6956C1.50188 11.8775 1.2 12.305 1.2 12.8C1.2 13.1732 1.38052 13.4934 1.64775 13.7135L0.716625 19.301C0.6555 19.6662 0.9375 20 1.30838 20H3.49163C3.86239 20 4.1445 19.667 4.08337 19.3014L3.15225 13.7139C3.41963 13.4937 3.6 13.1412 3.6 12.8C3.6 12.4141 3.40598 12.0864 3.123 11.8666C3.28245 11.2006 3.606 10.5984 4.05825 10.103L11.2058 12.6616C11.7206 12.8457 12.282 12.8457 12.7969 12.6616L23.3981 8.86661C23.76 8.73498 24 8.38998 24 7.99998C24 7.60998 23.76 7.26498 23.3662 7.13373ZM13.1663 13.79C12.8138 13.9287 12.4088 14 12 14C11.5905 14 11.1866 13.93 10.8 13.7917L5.355 11.8437L4.8 17.1987C4.8 18.7475 7.99125 20 12 20C15.9413 20 19.2 18.7475 19.2 17.1999L18.6458 11.8411L13.1663 13.79Z" fill="black"/>
</svg>
