<svg width="24" height="24" viewBox="0 0 24 24" fill="none" xmlns="http://www.w3.org/2000/svg">
<path d="M12.5475 10.1525L11.4225 11.1834C9.9 12.5787 8.1675 11.63 7.60875 11.0225C6.6 9.91999 6.67875 8.21374 7.77375 7.20874L10.8413 4.39999H10.5938C8.42625 4.39999 6.34125 5.26062 4.8075 6.79249L1.2 6.80374C0.54 6.80374 0 7.34337 0 8.00299V13.9955C0 14.6551 0.54 15.197 1.16625 15.197L5.4525 15.1947L8.84625 18.263C9.8775 19.1019 11.3869 18.9421 12.2213 17.9159L12.9008 18.4878C13.4963 18.9415 14.3775 18.8815 14.865 18.2865L16.0417 16.839L16.2433 17.0076C16.7589 17.4201 17.5138 17.3452 17.9308 16.8296L18.2899 16.386C18.7054 15.8722 18.6266 15.1203 18.1136 14.7037L12.5475 10.1525ZM22.8 6.80374L19.2 6.79903C17.6632 5.26303 15.579 4.40353 13.4063 4.40353L13.0838 4.39999C12.7838 4.39999 12.498 4.51988 12.273 4.72129L8.5875 8.08624C8.58375 8.09374 8.58 8.10124 8.58 8.10124C7.95 8.69374 7.965 9.62374 8.4975 10.2012C8.85844 10.595 9.81 11.012 10.6024 10.3044C10.6024 10.2997 10.6118 10.2997 10.6164 10.295L13.6164 7.55374C13.8602 7.33358 14.2397 7.34764 14.4647 7.59124C14.6897 7.83484 14.6709 8.21449 14.4272 8.43949L13.4477 9.33462L18.9077 13.7634C19.3622 14.1381 19.6389 14.6442 19.7372 15.1876L22.8 15.1887C23.46 15.1887 24 14.6495 24 13.9895V8.00374C24 7.33999 23.4638 6.80374 22.8 6.80374Z" fill="black"/>
</svg>
