<svg width="24" height="24" viewBox="0 0 24 24" fill="none" xmlns="http://www.w3.org/2000/svg">
<g clip-path="url(#clip0)">
<path d="M11.4666 11.4375C11.7583 11.7448 12.2375 11.7448 12.5291 11.4375L17.0333 6.67916C18.3458 5.29916 18.2716 3.00832 16.7979 1.73332C15.5112 0.61874 13.6 0.820824 12.427 2.05516L11.9625 2.53791L11.5333 2.05332C10.3625 0.818949 8.4458 0.616907 7.12913 1.73166C5.6958 3.00749 5.61246 5.29999 6.9333 6.67916L11.4666 11.4375ZM23.675 15.0125C23.1283 14.2704 22.0858 14.11 21.3445 14.6596L16.357 18.3334H11.332C10.9675 18.3334 10.7029 18.0313 10.7029 17.7042C10.7029 17.3398 11.005 17.075 11.332 17.075H14.5925C15.2216 17.075 15.8737 16.6221 15.9829 15.9659C16.1183 15.17 15.4779 14.4088 14.6654 14.4088H7.96246C6.87496 14.4088 5.74913 14.7942 4.87413 15.5025L2.93663 17.075L0.629549 17.074C0.265049 17.074 0.000381982 17.3771 0.000381982 17.7415L-3.05176e-05 21.6667C-3.05176e-05 22.0333 0.30209 22.3333 0.629132 22.3333H15.05C15.9679 22.3333 16.88 22.0339 17.6208 21.4883L23.25 17.3421C24.0625 16.7958 24.2208 15.7542 23.675 15.0125Z" fill="black"/>
</g>
<defs>
<clipPath id="clip0">
<rect width="24" height="24" fill="white"/>
</clipPath>
</defs>
</svg>
