<svg width="24" height="24" viewBox="0 0 24 24" fill="none" xmlns="http://www.w3.org/2000/svg">
<g clip-path="url(#clip0)">
<path d="M18.2999 9.60005H12.5999V11.7001C12.5999 13.1888 11.3887 14.4001 9.89994 14.4001C8.41119 14.4001 7.19994 13.1888 7.19994 11.7001V7.14004L4.76619 8.60255C4.04244 9.0338 3.59994 9.81755 3.59994 10.6575V12.4313L0.59994 14.1638C0.0261898 14.4938 -0.17256 15.2288 0.16119 15.8026L3.16119 21.0001C3.49119 21.5738 4.22619 21.7688 4.79994 21.4388L8.67744 19.2001H13.7999C15.1237 19.2001 16.1999 18.1238 16.1999 16.8001H16.7999C17.4637 16.8001 17.9999 16.2638 17.9999 15.6001V13.2001H18.2999C18.7987 13.2001 19.1999 12.7988 19.1999 12.3001V10.5C19.1999 10.0013 18.7987 9.60005 18.2999 9.60005ZM23.8387 8.19755L20.8387 3.00004C20.5087 2.42629 19.7737 2.23129 19.1999 2.56129L15.3224 4.80004H11.4899C11.0399 4.80004 10.6012 4.92754 10.2187 5.16379L8.96244 5.94754C8.60994 6.16504 8.39994 6.55129 8.39994 6.96379V11.7001C8.39994 12.5288 9.07119 13.2001 9.89994 13.2001C10.7287 13.2001 11.3999 12.5288 11.3999 11.7001V8.40005H18.2999C19.4587 8.40005 20.3999 9.3413 20.3999 10.5V11.5688L23.3999 9.8363C23.9737 9.50255 24.1687 8.7713 23.8387 8.19755V8.19755Z" fill="black"/>
</g>
<defs>
<clipPath id="clip0">
<rect width="24" height="24" fill="white"/>
</clipPath>
</defs>
</svg>
