<svg width="24" height="24" viewBox="0 0 24 24" fill="none" xmlns="http://www.w3.org/2000/svg">
<path d="M12 12C15.3141 12 18 9.31406 18 6C18 2.68594 15.3141 0 12 0C8.68594 0 6 2.68594 6 6C6 9.31406 8.68594 12 12 12ZM16.4906 13.5281L14.25 22.5L12.75 16.125L14.25 13.5H9.75L11.25 16.125L9.75 22.5L7.50937 13.5281C4.16719 13.6875 1.5 16.4203 1.5 19.8V21.75C1.5 22.9922 2.50781 24 3.75 24H20.25C21.4922 24 22.5 22.9922 22.5 21.75V19.8C22.5 16.4203 19.8328 13.6875 16.4906 13.5281V13.5281Z" fill="black"/>
</svg>
