<svg width="24" height="24" viewBox="0 0 24 24" fill="none" xmlns="http://www.w3.org/2000/svg">
<path d="M3.6 10.8C4.92563 10.8 6 9.72563 6 8.40001C6 7.07438 4.92563 6.00001 3.6 6.00001C2.27438 6.00001 1.2 7.07438 1.2 8.40001C1.2 9.72563 2.27438 10.8 3.6 10.8ZM12 12C13.9883 12 15.6 10.3883 15.6 8.40001V7.80001H8.4V8.40001C8.4 10.3883 10.0118 12 12 12ZM21.6 12H19.2C18.5404 12 17.9438 12.2666 17.5099 12.6971C19.02 13.5244 20.0921 15.0233 20.3273 16.8H22.8C23.4626 16.8 24 16.2626 24 15.6V14.4C24 13.0744 22.9256 12 21.6 12ZM6.49013 12.6971C6.05625 12.2666 5.45963 12 4.8 12H2.4C1.07438 12 0 13.0744 0 14.4V15.6C0 16.2626 0.537375 16.8 1.2 16.8H3.67275C3.90788 15.0233 4.97963 13.5248 6.49013 12.6971V12.6971ZM20.4 10.8C21.7256 10.8 22.8 9.72563 22.8 8.40001C22.8 7.07438 21.7256 6.00001 20.4 6.00001C19.0744 6.00001 18 7.07438 18 8.40001C18 9.72563 19.0744 10.8 20.4 10.8ZM14.88 13.2H14.5684C13.7869 13.5735 12.9225 13.8 12 13.8C11.0775 13.8 10.2135 13.5735 9.43163 13.2H9.12C6.73425 13.2 4.8 15.1343 4.8 17.52V18.6C4.8 19.5941 5.60588 20.4 6.6 20.4H17.4C18.3941 20.4 19.2 19.5941 19.2 18.6V17.52C19.2 15.1343 17.2658 13.2 14.88 13.2ZM15.6 3.60001L13.8 4.50001L12 3.60001L10.2 4.50001L8.4 3.60001V6.60001H15.6V3.60001Z" fill="black"/>
</svg>
