<svg width="875" height="184" viewBox="0 0 875 184" fill="none" xmlns="http://www.w3.org/2000/svg">
<g clip-path="url(#clip0)">
<path d="M35.4869 126.817C33.9106 122.036 33.1287 116.001 33.1287 107.887C33.1287 99.7692 33.9106 93.7218 35.4869 88.9532C39.8905 75.27 51.556 67.7936 66.8308 67.7936C78.1742 67.7936 87.1563 72.4088 93.1485 79.7288C93.6115 80.3606 93.7679 81.3143 92.989 81.9491L83.0685 90.7012C82.2773 91.3421 81.4923 91.1827 80.8575 90.3884C77.0733 86.0951 73.1357 83.7032 66.8338 83.7032C60.0627 83.7032 54.8679 87.0458 52.6569 93.7279C51.4057 97.5551 51.0837 102.005 51.0837 107.89C51.0837 113.774 51.4026 118.387 52.6569 122.208C54.8648 128.724 60.0627 132.067 66.8338 132.067C73.1357 132.067 77.0733 129.678 80.8575 125.394C81.4923 124.587 82.2773 124.587 83.0685 125.225L92.989 133.977C93.7679 134.612 93.6115 135.409 93.1485 136.207C87.1594 143.37 78.1772 147.979 66.8308 147.979C51.556 147.973 39.8905 140.491 35.4869 126.817Z" fill="#204156"/>
<path d="M379.684 126.817C378.107 122.036 377.325 116.001 377.325 107.887C377.325 99.7692 378.107 93.7218 379.684 88.9532C384.097 75.27 395.75 67.7936 411.024 67.7936C422.371 67.7936 431.356 72.4088 437.339 79.7288C437.808 80.3606 437.971 81.3143 437.177 81.9491L427.253 90.7012C426.465 91.3421 425.683 91.1827 425.051 90.3884C421.273 86.0951 417.333 83.7032 411.024 83.7032C404.256 83.7032 399.055 87.0458 396.854 93.7279C395.59 97.5551 395.284 102.005 395.284 107.89C395.284 113.774 395.59 118.387 396.854 122.208C399.055 128.724 404.256 132.067 411.024 132.067C417.333 132.067 421.273 129.678 425.051 125.394C425.683 124.587 426.468 124.587 427.253 125.225L437.177 133.977C437.971 134.612 437.808 135.409 437.339 136.207C431.356 143.37 422.371 147.979 411.024 147.979C395.75 147.973 384.097 140.491 379.684 126.817Z" fill="#204156"/>
<path d="M777.501 146.228C776.556 146.228 775.927 145.597 775.927 144.634V100.41C775.927 90.5448 771.039 83.7001 761.585 83.7001C752.449 83.7001 747.095 90.5417 747.095 100.41V144.634C747.095 145.594 746.46 146.228 745.522 146.228H731.023C730.078 146.228 729.444 145.597 729.444 144.634V100.41C729.444 90.5448 724.562 83.7001 715.123 83.7001C705.981 83.7001 700.621 90.5417 700.621 100.41V144.634C700.621 145.594 699.992 146.228 699.044 146.228H684.551C683.601 146.228 682.978 145.597 682.978 144.634V71.1331C682.978 70.1763 683.601 69.5385 684.551 69.5385H699.044C699.992 69.5385 700.621 70.1763 700.621 71.1331V76.7021H700.78C704.092 71.9274 710.704 67.7936 720.784 67.7936C729.766 67.7936 737.012 71.4459 741.572 77.9717H741.735C747.561 71.6146 755.127 67.7936 765.998 67.7936C783.634 67.7936 793.567 79.8822 793.567 96.2702V144.631C793.567 145.594 792.932 146.228 791.984 146.228H777.501Z" fill="#204156"/>
<path d="M815.453 174.861C814.512 174.861 813.883 174.223 813.883 173.263V160.54C813.883 159.589 814.512 158.942 815.453 158.942H818.293C824.276 158.942 827.278 156.25 829.636 149.88L831.844 143.358L804.116 71.1298C803.797 70.173 804.432 69.5352 805.382 69.5352H820.973C821.917 69.5352 822.549 70.173 822.856 71.1298L840.035 121.244H840.345L856.733 71.1298C857.049 70.173 857.68 69.5352 858.616 69.5352H873.578C874.531 69.5352 875.163 70.173 874.841 71.1298L845.861 150.994C839.25 169.133 832.939 174.855 820.341 174.855L815.453 174.861Z" fill="#204156"/>
<path d="M107.641 126.823C105.909 121.404 105.121 116.316 105.121 107.886C105.121 99.4683 105.909 94.3747 107.641 88.9774C111.895 75.6131 123.542 67.8147 138.976 67.8147C154.248 67.8147 165.901 75.61 170.154 88.9774C171.878 94.3747 172.672 99.4683 172.672 107.886C172.672 116.316 171.878 121.404 170.154 126.823C165.898 140.178 154.248 147.97 138.976 147.97C123.542 147.973 111.895 140.181 107.641 126.823ZM153.147 122.051C154.41 118.08 154.723 114.415 154.723 107.889C154.723 101.382 154.41 97.8767 153.147 93.746C150.945 87.3889 146.06 83.7212 138.976 83.7212C131.895 83.7212 126.848 87.3889 124.649 93.746C123.395 97.8798 123.076 101.382 123.076 107.889C123.076 114.415 123.395 118.08 124.649 122.051C126.848 128.42 131.898 132.066 138.976 132.066C146.06 132.063 150.945 128.417 153.147 122.051Z" fill="#204156"/>
<path d="M479.551 67.7936C467.104 67.7936 458.76 70.8142 452.611 75.27C451.989 75.7545 451.826 76.5396 452.304 77.3338L458.119 87.84C458.606 88.6374 459.539 88.7968 460.333 88.159C463.958 85.3009 469.149 82.9059 477.662 82.9059C490.073 82.9059 494.286 86.6717 494.501 94.9485H494.504V95.0497C494.51 95.2428 494.51 95.4391 494.51 95.6446V120.466C494.51 129.215 488.527 133.502 477.662 133.502C469.149 133.502 464.586 130.328 464.586 123.968C464.586 116.804 469.631 113.615 480.968 113.615L484.415 113.621C485.359 113.621 485.994 112.983 485.994 112.036V101.836C485.994 100.885 485.359 100.251 484.415 100.251H483.658L478.135 100.248C459.391 100.248 447.723 107.896 447.723 124.59C447.723 140.662 459.391 147.976 473.246 147.976C483.949 147.976 491.042 144.321 494.667 139.071H494.82V144.64C494.82 145.597 495.458 146.235 496.399 146.235H509.629C510.576 146.235 511.208 145.6 511.208 144.64V94.5253C511.211 75.7545 502.707 67.7936 479.551 67.7936Z" fill="#204156"/>
<path d="M291.35 100.241C290.939 100.241 290.669 100.514 290.669 100.925V101.379V102.71V111.137V112.269V112.922C290.669 113.333 290.939 113.609 291.35 113.609H291.742H330.357C331.461 113.609 332.093 112.977 332.093 112.029C332.093 99.6096 331.299 94.3565 329.572 88.9531C325.313 75.9077 313.975 67.7965 298.379 67.7965C283.257 67.7965 271.604 75.5888 267.344 88.9531C265.777 93.8842 264.824 99.9316 264.824 107.886C264.824 115.841 265.928 121.723 267.513 126.66C271.763 140.018 283.101 147.973 299.167 147.973C313.181 147.973 323.902 142.564 330.354 134.928C330.98 134.137 330.98 133.342 330.195 132.698L320.909 124.428C320.115 123.793 319.33 123.959 318.539 124.747C314.764 128.887 309.25 132.067 300.743 132.067C292.245 132.067 286.253 127.933 283.732 120.459C283.352 119.414 283.036 118.316 282.837 117.123H282.834C282.26 113.885 281.923 110.732 281.923 106.102C282.046 101.738 282.297 98.9503 282.917 95.4083C282.923 95.3592 282.932 95.3163 282.941 95.2703C282.947 95.2335 282.954 95.2059 282.96 95.1691V95.1722C283.11 94.3381 283.315 93.553 283.57 92.771C285.618 86.5673 291.289 82.9088 298.541 82.9088C305.631 82.9088 311.292 86.5673 313.341 92.771C313.975 94.6907 314.285 96.589 314.285 99.2999C314.285 99.9346 313.972 100.247 313.341 100.247H292.644L292.647 100.244L291.35 100.241Z" fill="#204156"/>
<path d="M250.19 38.051H235.722C234.768 38.051 234.139 38.6858 234.139 39.6303V76.8008V107.541C234.139 107.623 234.139 107.706 234.139 107.786C234.139 107.869 234.139 107.951 234.139 108.031V112.113H234.059C233.891 116.498 233.415 119.381 232.572 122.082C230.527 128.43 225.642 131.923 218.414 131.923C211.336 131.923 206.463 128.43 204.408 122.082C203.31 118.583 202.844 114.775 202.844 107.786C202.844 100.8 203.31 96.9822 204.408 93.4954C206.423 87.2671 211.14 83.7497 217.984 83.6117H224.16C224.461 83.5381 224.657 83.302 224.657 82.9585L224.737 68.4351C224.737 68.064 224.504 67.8156 224.16 67.7727L219.229 67.7543H213.433V67.7573C200.753 67.8923 191.47 74.0746 187.582 86.1724C185.693 92.0572 184.908 97.4667 184.908 107.786C184.908 118.108 185.693 123.511 187.582 129.384C191.513 141.62 200.952 147.814 213.847 147.814C224.078 147.814 230.37 144.009 233.98 138.759H234.133V144.478C234.133 145.435 234.765 146.069 235.715 146.069H250.184C251.128 146.069 251.76 145.438 251.76 144.478V39.6303C251.766 38.6827 251.134 38.051 250.19 38.051Z" fill="#204156"/>
<path d="M629.484 100.241C629.079 100.241 628.803 100.514 628.803 100.925V101.379V102.71V111.137V112.269V112.922C628.803 113.333 629.079 113.609 629.484 113.609H629.883H668.501C669.602 113.609 670.233 112.977 670.233 112.029C670.233 99.6096 669.442 94.3565 667.716 88.9531C663.456 75.9077 652.116 67.7965 636.525 67.7965C621.401 67.7965 609.747 75.5888 605.488 88.9531C603.918 93.8842 602.967 99.9316 602.967 107.886C602.967 115.841 604.071 121.723 605.656 126.66C609.904 140.018 621.244 147.973 637.31 147.973C651.325 147.973 662.045 142.564 668.501 134.928C669.126 134.137 669.126 133.342 668.338 132.698L659.052 124.428C658.261 123.793 657.476 123.959 656.685 124.747C652.91 128.887 647.399 132.067 638.886 132.067C630.389 132.067 624.4 127.933 621.876 120.459C621.499 119.414 621.18 118.316 620.987 117.123H620.983C620.407 113.885 620.07 110.732 620.07 106.102C620.186 101.738 620.438 98.9503 621.06 95.4083C621.072 95.3592 621.078 95.3163 621.085 95.2703C621.091 95.2335 621.097 95.2059 621.103 95.1691V95.1722C621.259 94.3381 621.462 93.553 621.716 92.771C623.762 86.5673 629.435 82.9088 636.688 82.9088C643.778 82.9088 649.439 86.5673 651.487 92.771C652.119 94.6907 652.435 96.589 652.435 99.2999C652.435 99.9346 652.119 100.247 651.487 100.247H630.79V100.244L629.484 100.241Z" fill="#204156"/>
<path d="M589.075 38.051H574.579C573.632 38.051 573 38.6889 573 39.6334V76.856V107.645V107.887V108.135V112.223H572.923C572.752 116.615 572.273 119.5 571.43 122.205C569.382 128.565 564.487 132.067 557.253 132.067C550.169 132.067 545.287 128.565 543.229 122.205C542.135 118.7 541.656 114.888 541.656 107.887C541.656 100.892 542.129 97.065 543.229 93.5752C545.244 87.3377 549.97 83.8479 556.827 83.7099L563.012 83.7129C563.96 83.7129 564.592 83.0781 564.592 82.1306V69.3826C564.592 68.432 563.96 67.7972 563.012 67.7972H562.255L552.905 67.7941C552.831 67.7941 552.757 67.7941 552.687 67.7941C552.616 67.7941 552.552 67.7941 552.485 67.7941H552.27V67.7972C539.574 67.9291 530.276 74.1236 526.385 86.2398C524.492 92.1339 523.707 97.5464 523.707 107.881C523.707 118.219 524.492 123.634 526.385 129.516C530.319 141.764 539.776 147.971 552.69 147.971C562.932 147.971 569.234 144.162 572.853 138.903H573.006V144.628C573.006 145.591 573.638 146.223 574.589 146.223H589.081C590.026 146.223 590.661 145.594 590.661 144.628V39.6334C590.648 38.6858 590.017 38.051 589.075 38.051Z" fill="#204156"/>
<path d="M378.5 167.919V182.415C378.5 183.369 379.132 184 380.08 184H433.794C434.754 184 435.389 183.366 435.389 182.415V167.919C435.389 166.978 434.754 166.343 433.794 166.343H380.08C379.132 166.343 378.5 166.978 378.5 167.919Z" fill="#204156"/>
<path d="M364.863 0.512125C364.838 0.487592 364.823 0.456926 364.802 0.435459C364.798 0.432393 364.795 0.432393 364.795 0.432393C364.519 0.159464 364.127 0 363.661 0H363.642H1.58237C1.46278 0 1.34931 0.0122665 1.23891 0.0306662C1.20825 0.0367994 1.18065 0.0490658 1.14691 0.0551991C1.07638 0.0735988 0.999717 0.0889319 0.935318 0.116531C0.923051 0.119598 0.913851 0.125731 0.904652 0.131864C0.343461 0.361861 0 0.886252 0 1.57931V1.58544V182.393V182.405C0 182.957 0.214663 183.39 0.576524 183.666C0.604123 183.693 0.628656 183.718 0.665456 183.736V183.739C0.916918 183.899 1.22358 183.985 1.58237 183.985H363.639H363.658C364.191 183.985 364.624 183.779 364.897 183.427C365.111 183.163 365.237 182.816 365.237 182.402V182.39V1.58544V1.57931C365.237 1.14691 365.099 0.781987 364.863 0.512125ZM19.2154 166.336C19.102 166.336 18.9916 166.327 18.8934 166.312C18.8628 166.306 18.829 166.29 18.7984 166.281C18.7248 166.266 18.6512 166.25 18.5837 166.223C18.5714 166.22 18.5653 166.211 18.553 166.208C17.9949 165.981 17.6545 165.459 17.6514 164.772V33.7174V19.2277C17.6514 18.5316 17.9949 18.0133 18.553 17.7802C18.5684 17.7772 18.5776 17.768 18.5868 17.7649C18.6512 17.7404 18.8597 17.6882 18.8934 17.679C18.9977 17.6637 19.1081 17.6545 19.2215 17.6545H346.012C346.129 17.6545 346.236 17.6637 346.341 17.679C346.374 17.6882 346.405 17.7005 346.433 17.7097C346.506 17.725 346.58 17.7404 346.647 17.768C346.663 17.771 346.669 17.7802 346.681 17.7833C347.242 18.0133 347.583 18.5346 347.583 19.2307V164.775C347.579 165.465 347.236 165.987 346.684 166.214C346.672 166.217 346.666 166.226 346.65 166.229C346.586 166.253 346.509 166.272 346.439 166.287C346.405 166.296 346.377 166.312 346.344 166.318C346.239 166.336 346.138 166.342 346.025 166.342H19.2154V166.336Z" fill="#204156"/>
</g>
<defs>
<clipPath id="clip0">
<rect width="874.926" height="184" fill="white"/>
</clipPath>
</defs>
</svg>
