<svg width="1355" height="184" viewBox="0 0 1355 184" fill="none" xmlns="http://www.w3.org/2000/svg">
<g clip-path="url(#clip0)">
<path d="M329.371 124.102C326.727 124.089 324.171 125.051 322.191 126.803C312.379 135.073 302.758 139.687 288.495 139.687C262.719 139.687 244.028 118.341 244.028 91.8809V91.4983C244.028 65.2053 262.911 44.0032 288.495 44.0032C300.332 44.0188 311.761 48.325 320.66 56.1222C322.416 57.361 324.474 58.1043 326.616 58.2737C328.759 58.4438 330.909 58.0344 332.838 57.0875C334.768 56.1412 336.407 54.6929 337.582 52.8952C338.757 51.0975 339.427 49.0168 339.519 46.8716C339.527 45.0525 339.115 43.2561 338.313 41.6225C337.512 39.9889 336.344 38.5623 334.9 37.4538C323.173 28.4185 309.484 22.2755 288.686 22.2755C248.001 22.2755 219.282 53.6122 219.282 91.8809V92.2634C219.282 130.938 248.551 161.582 287.825 161.582C309.579 161.582 324.034 154.674 336.742 143.511C337.943 142.449 338.906 141.147 339.569 139.69C340.233 138.232 340.583 136.651 340.596 135.049C340.515 132.126 339.298 129.349 337.203 127.306C335.108 125.262 332.3 124.113 329.371 124.102ZM417.563 81.2201C391.548 75.053 385.397 70.4401 385.397 60.0662V59.6837C385.397 50.8156 393.487 43.7164 407.344 43.7164C417.946 43.7164 427.949 47.1585 438.456 53.8991C440.308 55.0499 442.448 55.6547 444.63 55.644C446.085 55.6598 447.529 55.388 448.878 54.8442C450.227 54.3005 451.455 53.4956 452.492 52.4759C453.529 51.4562 454.353 50.2417 454.918 48.9025C455.483 47.5633 455.776 46.1257 455.783 44.6726C455.833 42.7835 455.378 40.9153 454.465 39.2601C453.552 37.6048 452.214 36.2223 450.589 35.2548C437.96 26.8139 423.04 22.4501 407.846 22.7536C381.089 22.7536 361.848 38.6968 361.848 61.7871V62.1696C361.848 86.9805 378.002 95.4423 406.697 102.374C431.731 108.135 437.115 113.322 437.115 122.954V123.337C437.115 133.328 427.878 140.261 413.183 140.261C399.359 140.254 385.985 135.35 375.441 126.42C373.762 125.219 371.789 124.494 369.73 124.323C367.672 124.151 365.606 124.539 363.751 125.447C361.896 126.353 360.321 127.745 359.193 129.473C358.066 131.202 357.429 133.203 357.348 135.265C357.339 137.03 357.754 138.771 358.557 140.343C359.361 141.915 360.53 143.272 361.967 144.3C376.541 155.303 394.316 161.246 412.585 161.223C440.897 161.223 460.737 146.212 460.737 121.018V120.636C460.809 98.3348 446.042 88.1282 417.563 81.2201ZM536.914 81.2201C510.923 75.053 504.772 70.4401 504.772 60.0662V59.6837C504.772 50.8156 512.862 43.7164 526.719 43.7164C537.297 43.7164 547.325 47.1585 557.831 53.8991C559.684 55.0499 561.826 55.6547 564.008 55.644C565.462 55.6598 566.905 55.388 568.252 54.8442C569.6 54.3005 570.831 53.4956 571.865 52.4759C572.906 51.4562 573.728 50.2417 574.293 48.9025C574.857 47.5633 575.154 46.1257 575.159 44.6726C575.21 42.7835 574.751 40.9153 573.84 39.2601C572.928 37.6048 571.591 36.2223 569.964 35.2548C557.301 26.7903 542.336 22.4255 527.102 22.7536C500.345 22.7536 481.079 38.6968 481.079 61.7871V62.1696C481.079 86.9805 497.258 95.4423 525.953 102.374C550.986 108.135 556.371 113.322 556.371 122.954V123.337C556.371 133.328 547.133 140.261 532.438 140.261C518.623 140.249 505.258 135.345 494.721 126.42C493.039 125.221 491.065 124.498 489.006 124.327C486.947 124.156 484.88 124.544 483.024 125.451C481.168 126.357 479.591 127.747 478.461 129.475C477.331 131.203 476.689 133.203 476.604 135.265C476.601 137.029 477.018 138.768 477.821 140.339C478.624 141.91 479.79 143.268 481.223 144.3C495.808 155.299 513.589 161.24 531.864 161.223C560.177 161.223 579.992 146.212 579.992 121.018V120.636C580.042 98.3348 565.417 88.1282 536.914 81.2201ZM646.092 88.9167H609.885C606.937 89.0515 604.158 90.3155 602.116 92.4452C600.081 94.5754 598.945 97.4081 598.945 100.354C598.945 103.301 600.081 106.133 602.116 108.264C604.158 110.393 606.937 111.657 609.885 111.792H646.092C649.039 111.657 651.824 110.393 653.86 108.264C655.896 106.133 657.037 103.301 657.037 100.354C657.037 97.4081 655.896 94.5754 653.86 92.4452C651.824 90.3155 649.039 89.0515 646.092 88.9167ZM755.177 24.6658H665.717C664.234 24.5965 662.752 24.8287 661.36 25.3483C659.967 25.8678 658.698 26.6639 657.624 27.6884C656.544 28.7129 655.694 29.9445 655.107 31.3087C654.52 32.6729 654.224 34.1414 654.224 35.6253C654.224 37.1092 654.52 38.5776 655.107 39.9419C655.694 41.3061 656.544 42.5377 657.624 43.5622C658.698 44.5867 659.967 45.3828 661.36 45.9023C662.752 46.4218 664.234 46.654 665.717 46.5848H698.434V148.53C698.434 151.7 699.698 154.74 701.94 156.982C704.183 159.223 707.226 160.482 710.402 160.482C713.573 160.482 716.616 159.223 718.864 156.982C721.107 154.74 722.365 151.7 722.365 148.53V46.5848H755.177C758.002 46.4531 760.664 45.2409 762.61 43.2001C764.562 41.1592 765.653 38.4464 765.653 35.6253C765.653 32.8041 764.562 30.0914 762.61 28.0505C760.664 26.0096 758.002 24.7974 755.177 24.6658ZM800.098 24.6658C798.521 24.6399 796.955 24.9314 795.49 25.5229C794.024 26.1143 792.699 26.9937 791.58 28.1087C790.462 29.2237 789.584 30.5515 788.991 32.0132C788.398 33.4749 788.107 35.0406 788.135 36.6173V148.555C788.538 151.403 789.964 154.01 792.14 155.896C794.315 157.782 797.1 158.82 799.981 158.82C802.861 158.82 805.646 157.782 807.822 155.896C809.997 154.01 811.418 151.403 811.826 148.555V112.366H841.669L874.386 154.1C875.633 156.019 877.35 157.591 879.369 158.67C881.394 159.748 883.653 160.298 885.946 160.267C887.411 160.293 888.871 160.029 890.236 159.491C891.606 158.953 892.848 158.152 893.905 157.133C894.962 156.114 895.806 154.898 896.388 153.553C896.975 152.208 897.288 150.761 897.316 149.296C897.182 145.914 895.812 142.698 893.463 140.261L867.664 107.752C885.756 102.183 898.272 89.108 898.272 67.5476V67.165C898.412 61.8285 897.495 56.5165 895.577 51.5335C893.658 46.5503 890.778 41.9934 887.093 38.1231C878.457 29.6615 865.27 24.6658 848.229 24.6658H800.098ZM874.218 68.8865C874.218 82.5349 863.447 91.3786 846.506 91.3786H811.848V46.2023H846.316C863.833 46.2023 874.218 54.0903 874.218 68.5274V68.8865ZM938.719 23.7097C937.153 23.6745 935.598 23.9525 934.144 24.5272C932.696 25.1018 931.37 25.9615 930.251 27.0555C929.139 28.1495 928.255 29.4556 927.651 30.8967C927.053 32.3378 926.745 33.8847 926.75 35.446V148.53C926.89 151.573 928.193 154.446 930.397 156.552C932.6 158.656 935.537 159.831 938.585 159.831C941.633 159.831 944.569 158.656 946.772 156.552C948.976 154.446 950.285 151.573 950.419 148.53V35.4221C950.43 33.8834 950.134 32.358 949.546 30.9342C948.965 29.5105 948.103 28.2166 947.013 27.1275C945.928 26.0383 944.63 25.1754 943.21 24.5888C941.784 24.0021 940.257 23.7033 938.719 23.7097ZM1088.7 124.102C1086.06 124.083 1083.5 125.045 1081.52 126.803C1071.69 135.073 1062.07 139.687 1047.83 139.687C1022.03 139.687 1003.34 118.341 1003.34 91.8809V91.4983C1003.34 65.2053 1022.22 44.0032 1047.83 44.0032C1059.66 44.0202 1071.08 48.3266 1079.97 56.1222C1082.03 57.6943 1084.55 58.5355 1087.14 58.5125C1088.68 58.5444 1090.21 58.2687 1091.63 57.7022C1093.07 57.1356 1094.36 56.2894 1095.46 55.2138C1096.56 54.1379 1097.42 52.854 1098.01 51.4377C1098.6 50.0214 1098.91 48.5014 1098.9 46.9672C1098.89 45.15 1098.48 43.3573 1097.67 41.7253C1096.87 40.0934 1095.71 38.6652 1094.28 37.5495C1082.53 28.5142 1068.86 22.3711 1048.06 22.3711C1007.24 22.3711 978.662 53.7078 978.662 91.9765V92.359C978.662 131.034 1007.91 161.677 1047.2 161.677C1068.96 161.677 1083.39 154.769 1096.1 143.607C1097.29 142.545 1098.26 141.243 1098.92 139.785C1099.59 138.327 1099.94 136.747 1099.95 135.145C1099.9 132.201 1098.69 129.396 1096.58 127.331C1094.48 125.267 1091.65 124.108 1088.7 124.102ZM1186.82 83.8973L1228.8 43.5252C1230.12 42.4471 1231.18 41.094 1231.91 39.5616C1232.64 38.0292 1233.02 36.355 1233.04 34.6572C1233.06 33.2131 1232.78 31.7803 1232.24 30.4433C1231.69 29.1063 1230.88 27.8919 1229.86 26.8718C1228.83 25.8517 1227.62 25.0464 1226.27 24.5034C1224.94 23.9603 1223.5 23.6905 1222.06 23.7097C1220.19 23.6861 1218.34 24.0821 1216.65 24.8683C1214.96 25.6545 1213.47 26.8107 1212.29 28.2513L1148.39 92.359V35.4221C1148.26 32.3792 1146.95 29.5063 1144.74 27.4014C1142.54 25.2965 1139.6 24.1218 1136.56 24.1218C1133.51 24.1218 1130.57 25.2965 1128.37 27.4014C1126.16 29.5063 1124.86 32.3792 1124.72 35.4221V148.507C1124.86 151.549 1126.16 154.422 1128.37 156.527C1130.57 158.633 1133.51 159.807 1136.56 159.807C1139.6 159.807 1142.54 158.633 1144.74 156.527C1146.95 154.422 1148.26 151.549 1148.39 148.507V120.636L1170.34 99.4819L1213.66 154.698C1214.72 156.39 1216.2 157.788 1217.96 158.761C1219.71 159.734 1221.68 160.252 1223.68 160.267C1225.23 160.325 1226.78 160.069 1228.24 159.515C1229.68 158.96 1231.01 158.119 1232.13 157.04C1233.24 155.962 1234.13 154.67 1234.74 153.24C1235.34 151.811 1235.65 150.274 1235.65 148.722C1235.62 145.6 1234.47 142.593 1232.39 140.261L1186.82 83.8973ZM1310.8 81.2201C1284.81 75.053 1278.65 70.4401 1278.65 60.0662V59.6837C1278.65 50.8156 1286.74 43.7164 1300.6 43.7164C1311.2 43.7164 1321.2 47.1585 1331.71 53.8991C1333.56 55.0499 1335.71 55.6547 1337.89 55.644C1339.34 55.6598 1340.78 55.388 1342.14 54.8442C1343.49 54.3005 1344.71 53.4956 1345.75 52.4759C1346.79 51.4562 1347.61 50.2417 1348.18 48.9025C1348.74 47.5633 1349.03 46.1257 1349.04 44.6726C1349.09 42.7905 1348.65 40.927 1347.75 39.2724C1346.85 37.6178 1345.53 36.2313 1343.92 35.2548C1331.29 26.8139 1316.37 22.4501 1301.18 22.7536C1274.42 22.7536 1255.15 38.6968 1255.15 61.7871V62.1696C1255.15 86.9805 1271.33 95.4423 1300.02 102.374C1325.06 108.135 1330.44 113.322 1330.44 122.954V123.337C1330.44 133.328 1321.2 140.261 1306.51 140.261C1292.7 140.249 1279.33 135.345 1268.79 126.42C1267.11 125.221 1265.14 124.498 1263.08 124.327C1261.02 124.156 1258.95 124.544 1257.09 125.451C1255.24 126.357 1253.67 127.747 1252.54 129.475C1251.4 131.203 1250.76 133.203 1250.68 135.265C1250.67 137.031 1251.09 138.773 1251.9 140.346C1252.71 141.918 1253.88 143.273 1255.32 144.3C1269.89 155.303 1287.67 161.246 1305.94 161.223C1334.25 161.223 1354.07 146.212 1354.07 121.018V120.636C1353.99 98.3348 1339.37 88.1282 1310.87 81.2201H1310.8Z" fill="#222222"/>
<path d="M73.902 113.184L32.2386 143.853C27.236 147.197 23.3471 149.428 18.3492 149.428C8.34398 149.428 0.0094373 140.506 0.0094373 130.484C0.0094373 122.121 6.67803 115.988 12.7897 113.198L61.6881 92.0095L12.7803 70.2528C6.11641 67.4631 0 61.3302 0 52.9665C0 42.9311 8.89145 34.5675 18.8778 34.5675C23.8804 34.5675 27.2124 36.2393 32.215 40.1416L73.902 70.8115L68.3423 21.1885C66.6762 9.47656 74.4775 0 85.5684 0C96.6593 0 104.446 8.91774 102.794 20.6296L97.2348 70.8115L138.898 40.1416C143.901 36.2393 147.789 34.5675 152.792 34.5675C157.642 34.6107 162.28 36.5631 165.71 40.0043C169.138 43.4454 171.084 48.1002 171.127 52.9665C171.127 61.8889 165.016 67.4631 158.347 70.2528L109.458 91.9955L158.356 113.184C165.025 115.973 171.137 122.106 171.137 131.029C171.137 141.064 162.245 149.428 152.259 149.428C147.814 149.428 143.924 147.197 138.922 143.853L97.2487 113.184L102.794 162.807C104.446 174.528 96.6828 184 85.5684 184C74.454 184 66.6908 175.077 68.3423 163.37L73.902 113.184Z" fill="url(#paint0_linear)"/>
</g>
<defs>
<linearGradient id="paint0_linear" x1="20.1337" y1="32.997" x2="145.131" y2="157.994" gradientUnits="userSpaceOnUse">
<stop stop-color="#FF7A18"/>
<stop offset="0.401042" stop-color="#AF002D"/>
<stop offset="1" stop-color="#319197"/>
</linearGradient>
<clipPath id="clip0">
<rect width="1354.55" height="184" fill="white"/>
</clipPath>
</defs>
</svg>
