<svg width="372" height="372" viewBox="0 0 372 372" fill="none" xmlns="http://www.w3.org/2000/svg">
<path d="M99.891 146.132C96.6747 143.728 93.4502 142.526 90.2339 142.526H75.7774V229.124H90.2422C93.4585 229.124 96.683 227.922 99.8992 225.518C103.115 223.114 104.724 219.509 104.724 214.692V156.958C104.715 152.15 103.099 148.536 99.891 146.132ZM335.29 0H36.71C16.65 0 0.369804 16.2387 0.320068 36.3071V335.053C0.369804 355.121 16.65 371.36 36.71 371.36H335.29C355.358 371.36 371.63 355.121 371.68 335.053V36.3071C371.63 16.2387 355.35 0 335.29 0ZM128.141 214.85C128.141 230.442 118.517 254.067 88.0538 254.017H49.5916V116.862H88.8662C118.243 116.862 128.124 140.454 128.133 156.054L128.141 214.85ZM211.597 141.357H167.432V173.205H194.43V197.716H167.432V229.555H211.606V254.067H160.063C150.812 254.307 143.12 246.996 142.887 237.745V134.038C142.664 124.795 149.983 117.119 159.226 116.887H211.606L211.597 141.357ZM297.507 236.924C286.566 262.414 266.961 257.341 258.183 236.924L226.244 116.896H253.243L277.87 211.161L302.382 116.896H329.388L297.507 236.924Z" fill="black"/>
</svg>
