<svg width="800" height="185" viewBox="0 0 800 185" fill="none" xmlns="http://www.w3.org/2000/svg">
<g clip-path="url(#clip0)">
<path d="M118.397 138.49C127.327 137.1 134.107 131.9 140.657 125.84C143.873 122.897 146.361 119.246 147.923 115.176C149.485 111.106 150.079 106.729 149.657 102.39C149.027 93.7597 146.297 85.2897 144.427 76.4597C147.657 76.5497 150.487 78.8197 152.767 81.1597C174.697 103.72 182.827 134.71 157.887 163.46C150.457 172.03 141.697 178.81 130.737 182.34C127.957 183.24 125.057 183.75 121.447 184.63C122.727 175.91 125.847 168.03 122.177 159.06C119.127 162.75 116.337 165.76 113.977 169.06C108.207 177.12 99.787 179.73 90.607 180.76C86.737 181.19 86.237 180.35 87.607 176.52C90.607 167.96 89.797 160.52 81.757 154.87C76.757 151.32 72.147 147.16 67.147 143.58C57.387 136.58 52.067 127.37 51.987 115.26C52.0007 113.697 51.705 112.147 51.117 110.7C40.7494 119.766 34.0732 132.325 32.357 145.99C30.357 160.99 38.547 171.87 49.057 182.43C42.917 182.53 38.737 180.07 34.467 178.09C24.6267 173.512 15.9526 166.763 9.09697 158.35C-3.19303 143.51 -2.00303 120.92 6.55697 106.78C15.117 92.6397 25.717 79.9597 36.147 67.2197C49.2589 51.308 57.8399 32.1563 60.987 11.7797C61.437 8.98973 61.657 6.15973 62.137 3.36973C62.767 -0.270268 64.437 -1.00027 67.137 1.36973C89.897 20.9597 110.627 42.2197 122.837 70.2997C129.157 84.7797 133.007 99.7797 128.097 115.45C126.097 121.73 122.667 127.54 119.827 133.54C119.167 134.93 118.267 136.22 117.487 137.54L118.397 138.49Z" fill="url(#paint0_linear)"/>
<path d="M685.728 140.083C680.067 140.083 675.459 135.861 675.459 130.055C675.459 124.25 680.067 120.027 685.728 120.027C691.521 120.027 696.261 124.25 696.261 130.055C696.261 135.861 691.521 140.083 685.728 140.083Z" fill="#393939"/>
<path d="M708.96 77.1444H724.891V138.764H708.96V77.1444Z" fill="#393939"/>
<path d="M716.991 63.0261C711.33 63.0261 706.59 58.9357 706.59 53.262C706.59 47.8522 711.33 43.6299 716.991 43.6299C722.652 43.6299 727.129 47.8522 727.129 53.262C727.129 58.9357 722.652 63.0261 716.991 63.0261Z" fill="#393939"/>
<path fill-rule="evenodd" clip-rule="evenodd" d="M799.248 107.756C799.248 127.152 784.634 139.951 767.256 139.951C749.877 139.951 735.263 127.152 735.263 107.756C735.263 88.228 749.877 75.825 767.256 75.825C784.634 75.825 799.248 88.228 799.248 107.756ZM751.194 107.756C751.194 117.784 758.303 124.25 767.256 124.25C776.208 124.25 783.318 117.784 783.318 107.756C783.318 97.8601 776.208 91.6586 767.256 91.6586C758.303 91.6586 751.194 97.8601 751.194 107.756Z" fill="#393939"/>
<path d="M284.735 138.764V93.4452H253.121V138.764H232.52V93.4452H221.248V78.2524H232.52V76.0449C232.52 56.3073 243.792 46.4385 261.543 46.4385H269.316V66.0462H261.543C256.749 66.0462 253.25 69.1627 253.121 76.0449V78.2524H305.336V138.764H284.735Z" fill="#393939"/>
<path d="M294.97 69.9418C288.233 69.9418 282.532 64.7477 282.532 58.1252C282.532 51.5027 288.233 46.4385 294.97 46.4385C301.837 46.4385 307.279 51.5027 307.279 58.1252C307.279 64.7477 301.837 69.9418 294.97 69.9418Z" fill="#393939"/>
<path d="M349.976 96.3019C342.202 96.3019 337.408 100.717 337.408 118.896V138.764H316.807V78.2524H336.371V93.1855C339.481 81.7584 347.644 76.6942 355.418 76.6942C358.009 76.6942 360.859 76.824 364.358 78.3822L359.305 97.8601C355.029 96.3019 351.919 96.3019 349.976 96.3019Z" fill="#393939"/>
<path fill-rule="evenodd" clip-rule="evenodd" d="M395.835 76.6942C413.067 76.6942 427.19 88.5108 427.19 107.599C427.19 109.157 426.93 112.533 426.801 114.221L383.526 114.222C384.174 119.935 390.782 123.441 397.39 123.441C400.888 123.441 405.423 122.532 408.921 118.377C411.253 120.325 419.804 126.298 423.173 128.635C416.824 137.076 405.423 139.932 395.835 139.932C378.603 139.932 363.703 127.207 363.703 108.119C363.703 88.9003 378.603 76.6942 395.835 76.6942ZM395.576 93.7049C392.596 93.7049 384.951 94.8735 383.526 102.665H407.625C405.552 94.8735 398.815 93.7049 395.576 93.7049Z" fill="#393939"/>
<path d="M463.831 120.714C463.831 118.766 462.924 118.377 458.389 117.208L450.745 115.131C432.076 110.004 432.084 99.4399 432.088 94.9203C432.088 94.8604 432.088 94.8015 432.088 94.7437C432.088 85.7838 443.23 76.6942 456.705 76.6942C469.532 76.6942 483.136 81.8883 483.136 97.6004H463.831C463.831 93.9646 461.758 92.1466 457.742 92.1466C455.15 92.1466 452.689 93.0556 452.689 95.5228C452.689 97.081 453.466 98.5094 457.223 99.4184L467.977 102.405C483.525 106.56 484.821 116.948 484.821 120.714C484.821 134.219 470.309 139.932 457.482 139.932C444.656 139.932 431.181 132.531 431.181 118.507H450.486C450.486 121.104 452.429 124.74 457.482 124.74C460.981 124.74 463.831 123.181 463.831 120.714Z" fill="#393939"/>
<path d="M524.266 96.6915C519.472 96.6915 513.642 99.2885 513.642 106.95V138.764H493.041V46.4385H513.642V87.7316C515.715 80.0703 525.303 76.6942 530.615 76.6942C546.811 76.6942 554.714 87.7316 554.714 106.56V138.764H534.113V107.21C534.113 100.068 528.542 96.6915 524.266 96.6915Z" fill="#393939"/>
<path d="M586.178 138.764H565.577V78.2524H586.178V138.764Z" fill="#393939"/>
<path d="M575.813 69.9418C569.075 69.9418 563.375 64.7477 563.375 58.1252C563.375 51.5027 569.075 46.4385 575.813 46.4385C582.68 46.4385 588.122 51.5027 588.122 58.1252C588.122 64.7477 582.68 69.9418 575.813 69.9418Z" fill="#393939"/>
<path fill-rule="evenodd" clip-rule="evenodd" d="M635.192 139.932C627.937 139.932 622.495 137.465 618.478 133.18V168.63H597.877V78.2524H617.312V86.9525C620.681 79.8106 628.714 76.6942 635.192 76.6942C650.092 76.6942 664.603 88.5108 664.603 108.248C664.603 127.856 650.092 139.932 635.192 139.932ZM631.046 120.714C637.913 120.714 643.614 115.001 643.614 108.119C643.614 101.236 637.913 95.5228 631.046 95.5228C624.179 95.5228 618.478 101.626 618.478 108.508C618.478 115.39 624.179 120.714 631.046 120.714Z" fill="#393939"/>
</g>
<defs>
<linearGradient id="paint0_linear" x1="4.67604e-06" y1="136.5" x2="161" y2="91" gradientUnits="userSpaceOnUse">
<stop stop-color="#EB814E"/>
<stop offset="1" stop-color="#EE4757"/>
</linearGradient>
<clipPath id="clip0">
<rect width="800" height="185" fill="white"/>
</clipPath>
</defs>
</svg>
