<svg width="1240" height="184" viewBox="0 0 1240 184" fill="none" xmlns="http://www.w3.org/2000/svg">
<g clip-path="url(#clip0)">
<path d="M1239.06 0H0.888916V184H1239.06V0Z" fill="#00FF00"/>
<path d="M136.333 15.3334H54.5555V51.1112H43.0555V74.1112H31.5555V109.889H43.0555V132.889H54.5555V168.667H136.333V132.889H147.833V109.889H159.333V98.3889H172.111V85.6112H159.333V74.1112H147.833V51.1112H136.333V15.3334Z" fill="#3C3C3B"/>
<path d="M54.5555 109.889V132.889H77.5555V144.389H113.333V132.889H136.333V109.889H147.833V74.1111H136.333V51.1111H113.333V39.6111H77.5555V51.1111H54.5555V74.1111H43.0555V109.889H54.5555Z" fill="white"/>
<path d="M101.833 97.1111V39.6111H89.0556V97.1111H101.833Z" fill="#3C3C3B"/>
<path d="M213 51.1111H228.333V84.3333H279.444V51.1111H294.778V132.889H279.444V99.6666H228.333V132.889H213V51.1111Z" fill="#3C3C3B"/>
<path fill-rule="evenodd" clip-rule="evenodd" d="M393.167 51.1111H311.389V132.889H326.722V99.6666H377.833V132.889H393.167V51.1111ZM377.833 84.3333V66.4444H326.722V84.3333H377.833Z" fill="#3C3C3B"/>
<path d="M491.556 51.1111V66.4444H425.111V117.556H491.556V132.889H409.778V51.1111H491.556Z" fill="#3C3C3B"/>
<path d="M508.167 132.889H523.5V99.6666H556.722V116.278H573.333V132.889H589.945V116.278H573.333V99.6666H556.722V84.3333H573.333V67.7222H589.945V51.1111H573.333V67.7222H556.722V84.3333H523.5V51.1111H508.167V132.889Z" fill="#3C3C3B"/>
<path d="M688.333 51.1111V66.4444H621.889V84.3333H655.111V99.6666H621.889V117.556H688.333V132.889H606.556V51.1111H688.333Z" fill="#3C3C3B"/>
<path fill-rule="evenodd" clip-rule="evenodd" d="M786.722 51.1111H704.944V132.889H720.278V99.6666H753.5V116.278H770.111V132.889H786.722V116.278H770.111V99.6666H786.722V51.1111ZM720.278 84.3333H771.389V66.4444H720.278V84.3333Z" fill="#3C3C3B"/>
<path d="M885.111 51.1111V132.889H869.778V66.4444H818.667V132.889H803.333V51.1111H885.111Z" fill="#3C3C3B"/>
<path fill-rule="evenodd" clip-rule="evenodd" d="M983.5 51.1111H901.722V132.889H983.5V51.1111ZM968.167 117.556V66.4444H917.056V117.556H968.167Z" fill="#3C3C3B"/>
<path d="M1081.89 51.1111V66.4444H1000.11V51.1111H1081.89Z" fill="#3C3C3B"/>
<path d="M1081.89 117.556V132.889H1000.11V117.556H1081.89Z" fill="#3C3C3B"/>
<path d="M1015.44 132.889H1000.11V51.1111H1015.44V132.889Z" fill="#3C3C3B"/>
<path d="M1081.89 132.889H1066.56V51.1111H1081.89V132.889Z" fill="#3C3C3B"/>
<path d="M1180.28 51.1111V132.889H1164.94V66.4444H1113.83V132.889H1098.5V51.1111H1180.28Z" fill="#3C3C3B"/>
</g>
<defs>
<clipPath id="clip0">
<rect width="1238.17" height="184" fill="white" transform="translate(0.888916)"/>
</clipPath>
</defs>
</svg>
