<svg width="695" height="241" viewBox="0 0 695 241" fill="none" xmlns="http://www.w3.org/2000/svg">
<path fill-rule="evenodd" clip-rule="evenodd" d="M226 12V228H13V12H226ZM238 0H225.798H12.183H0V11.707V228.373V241H12.183H225.798H238V228.373V11.707V0Z" fill="#83D8D8"/>
<path fill-rule="evenodd" clip-rule="evenodd" d="M101 161V63.271V57H94.093H83.42H73V61.82V63.271V167.332V174.642V177.598V182H83.42H94.627H121.842H128V174.642V167.871V161H121.842H101Z" fill="#514762"/>
<path fill-rule="evenodd" clip-rule="evenodd" d="M182.637 94H168V83.71V79H166.079H164.564H155.279H150.87H144V83.71V94H134.849H128V103.096V110.238V118H134.849H144V130.67V133H150.87H155.279H164.564H166.079H168V130.67V118H182.637H183V110.238V103.096V94H182.637Z" fill="#83D8D8"/>
<path fill-rule="evenodd" clip-rule="evenodd" d="M499.688 37H492V44.644V116.867L472 103.27V44.644V37H465.686H456.814H449V44.644V111.265V113.836L452.261 115.438L496.2 146.252L498.277 149H500.133H508.561H512V140.486V44.644V37H508.561H499.688Z" fill="#514762"/>
<path fill-rule="evenodd" clip-rule="evenodd" d="M345 126V44.644V37H343.267H334.395H327V43.438V44.644V131.164V137.24V139.699V146H334.395H343.712H366.34H370V137.24V131.61V126H366.34H345Z" fill="#514762"/>
<path fill-rule="evenodd" clip-rule="evenodd" d="M613 126V44.644V37H607.916H599.044H592V43.438V44.644V131.164V137.24V139.699V146H599.044H608.361H630.988H635V137.24V131.61V126H630.988H613Z" fill="#514762"/>
<path fill-rule="evenodd" clip-rule="evenodd" d="M531 37V146H575V126H548V96H568V79H548V59H575V37H531Z" fill="#514762"/>
<path fill-rule="evenodd" clip-rule="evenodd" d="M403.58 37H394.26H390V44.644V53.072V92.121V100.997V131.164V137.24V146H394.26H403.58H429.451H435V137.24V131.61V126H429.451H409V96H422.96H429V88.457V82.824V79H422.96H409V59H429.451H432.797H435V53.52V44.644V37H429.451H403.58Z" fill="#514762"/>
<path fill-rule="evenodd" clip-rule="evenodd" d="M660.924 65.9209V86.3199C660.924 87.9609 660.672 89.4839 660.176 90.8979C659.682 92.3039 658.928 93.5269 657.912 94.5589C656.898 95.5949 655.631 96.4099 654.105 96.9979C652.579 97.5869 650.793 97.8839 648.734 97.8839C646.795 97.8839 645.082 97.6069 643.589 97.0519C642.103 96.4999 640.861 95.7099 639.86 94.6889C638.858 93.6709 638.099 92.4459 637.585 91.0169C637.065 89.5809 636.808 87.9899 636.808 86.2379V65.9209H643.472V85.7399C643.472 86.9039 643.589 87.9019 643.816 88.7279C644.048 89.5519 644.389 90.2299 644.843 90.7539C645.296 91.2799 645.861 91.6609 646.533 91.9049C647.21 92.1509 648.001 92.2749 648.909 92.2749C650.792 92.2749 652.153 91.7289 652.993 90.6329C653.831 89.5409 654.257 87.8949 654.257 85.6939V65.9199H660.924V65.9209Z" fill="#83D8D8"/>
<path fill-rule="evenodd" clip-rule="evenodd" d="M692.012 75.7539C692.012 77.1329 691.803 78.4569 691.383 79.7229C690.97 80.9879 690.283 82.1019 689.324 83.0649C688.369 84.0289 687.111 84.7989 685.553 85.3729C683.991 85.9509 682.062 86.2389 679.761 86.2389H678.23V97.4519H671.542V65.9219H680.3C682.323 65.9219 684.077 66.1459 685.553 66.5989C687.027 67.0539 688.24 67.6999 689.197 68.5379C690.152 69.3829 690.862 70.4119 691.322 71.6259C691.779 72.8379 692.012 74.2169 692.012 75.7539ZM678.23 80.7579H679.545C681.43 80.7579 682.847 80.3849 683.804 79.6379C684.761 78.8879 685.242 77.6739 685.242 75.9909C685.242 74.4279 684.81 73.2679 683.953 72.5219C683.099 71.7719 681.758 71.3959 679.932 71.3959H678.23V80.7579Z" fill="#83D8D8"/>
<path fill-rule="evenodd" clip-rule="evenodd" d="M672.522 196.639L687.589 190.053L672.522 182.625V176.998L694.832 188.623V191.973L672.522 202.239V196.639Z" fill="#514762"/>
<path fill-rule="evenodd" clip-rule="evenodd" d="M349.715 202.238L327.407 191.972V188.622L349.715 176.997V182.624L334.649 190.052L349.715 196.638V202.238Z" fill="#514762"/>
<path fill-rule="evenodd" clip-rule="evenodd" d="M382.566 207.738H375.475V180.107H367.053V174.187H390.966V180.107H382.566V207.738ZM426.957 174.187V195.896C426.957 197.641 426.693 199.262 426.165 200.762C425.638 202.261 424.834 203.562 423.756 204.663C422.677 205.765 421.327 206.629 419.705 207.256C418.083 207.884 416.179 208.197 413.991 208.197C411.925 208.197 410.101 207.903 408.517 207.314C406.934 206.725 405.611 205.887 404.547 204.801C403.484 203.715 402.677 202.41 402.126 200.888C401.575 199.366 401.3 197.671 401.3 195.805V174.187H408.391V195.277C408.391 196.516 408.514 197.576 408.758 198.455C409.003 199.335 409.367 200.054 409.848 200.613C410.33 201.171 410.931 201.58 411.65 201.84C412.369 202.1 413.211 202.23 414.174 202.23C416.179 202.23 417.628 201.649 418.523 200.486C419.418 199.324 419.866 197.572 419.866 195.231V174.187H426.957ZM452.805 207.738H445.714V180.107H437.291V174.187H461.204V180.107H452.805V207.738ZM498.963 190.917C498.963 193.502 498.661 195.858 498.056 197.985C497.452 200.112 496.53 201.932 495.291 203.447C494.052 204.961 492.487 206.132 490.598 206.958C488.708 207.784 486.478 208.197 483.908 208.197C481.338 208.197 479.108 207.784 477.218 206.958C475.329 206.132 473.768 204.961 472.537 203.447C471.305 201.932 470.387 200.108 469.783 197.973C469.178 195.839 468.876 193.472 468.876 190.871C468.876 188.27 469.178 185.91 469.783 183.791C470.387 181.672 471.309 179.863 472.548 178.363C473.787 176.864 475.352 175.705 477.241 174.886C479.131 174.068 481.368 173.659 483.954 173.659C486.524 173.659 488.75 174.068 490.632 174.886C492.514 175.705 494.071 176.868 495.302 178.375C496.534 179.882 497.452 181.695 498.056 183.814C498.661 185.933 498.963 188.3 498.963 190.917ZM476.197 190.917C476.197 192.676 476.35 194.256 476.656 195.656C476.962 197.055 477.433 198.241 478.067 199.213C478.702 200.184 479.502 200.93 480.466 201.45C481.43 201.97 482.577 202.23 483.908 202.23C485.27 202.23 486.436 201.97 487.408 201.45C488.379 200.93 489.175 200.184 489.794 199.213C490.414 198.241 490.873 197.055 491.171 195.656C491.47 194.256 491.619 192.676 491.619 190.917C491.619 189.157 491.47 187.577 491.171 186.177C490.873 184.778 490.414 183.588 489.794 182.609C489.175 181.63 488.383 180.88 487.419 180.36C486.455 179.84 485.3 179.58 483.954 179.58C482.623 179.58 481.468 179.84 480.489 180.36C479.509 180.88 478.702 181.63 478.067 182.609C477.433 183.588 476.962 184.778 476.656 186.177C476.35 187.577 476.197 189.157 476.197 190.917ZM518.408 189.081H520.335C522.309 189.081 523.724 188.687 524.581 187.899C525.438 187.111 525.866 185.952 525.866 184.422C525.866 182.831 525.407 181.699 524.489 181.025C523.571 180.352 522.148 180.016 520.221 180.016H518.408V189.081ZM518.408 194.864V207.738H511.293V174.187H520.473C524.772 174.187 527.947 175.017 529.997 176.677C532.047 178.337 533.072 180.857 533.072 184.238C533.072 185.386 532.919 186.426 532.613 187.359C532.307 188.293 531.898 189.123 531.385 189.849C530.873 190.576 530.284 191.211 529.618 191.754C528.953 192.297 528.253 192.752 527.518 193.12C529.217 195.843 530.739 198.276 532.085 200.417C532.667 201.335 533.229 202.23 533.772 203.103C534.315 203.975 534.801 204.755 535.229 205.443C535.658 206.132 536.01 206.683 536.285 207.096L536.675 207.738H528.781L521.506 194.864H518.408ZM558.851 207.738H543.59V203.699L547.675 201.817V180.107L543.59 178.226V174.187H558.851V178.226L554.766 180.107V201.817L558.851 203.699V207.738ZM589.128 207.738L586.833 199.752H575.267L572.949 207.738H565.766L576.667 174.049H585.364L596.311 207.738H589.128ZM585.181 193.785L583.024 186.441C582.932 186.166 582.794 185.715 582.61 185.087C582.427 184.46 582.232 183.768 582.025 183.01C581.819 182.253 581.624 181.492 581.44 180.727C581.256 179.962 581.126 179.312 581.05 178.776C580.989 179.113 580.908 179.511 580.809 179.97C580.709 180.429 580.595 180.914 580.465 181.427C580.335 181.94 580.201 182.456 580.063 182.976C579.925 183.496 579.795 183.986 579.673 184.445C579.551 184.904 579.44 185.309 579.34 185.661C579.241 186.013 579.168 186.273 579.122 186.441L576.988 193.785H585.181ZM605.934 207.738V174.187H613.048V201.863H625.257V207.738H605.934ZM654.868 198.421C654.868 199.92 654.612 201.27 654.1 202.471C653.587 203.672 652.837 204.698 651.851 205.547C650.864 206.396 649.655 207.05 648.225 207.509C646.794 207.968 645.153 208.197 643.302 208.197C641.68 208.197 640.116 208.029 638.609 207.692C637.102 207.356 635.706 206.851 634.421 206.178V199.568C635.155 199.92 635.897 200.261 636.647 200.59C637.396 200.919 638.158 201.213 638.93 201.473C639.703 201.733 640.475 201.94 641.248 202.093C642.021 202.246 642.789 202.322 643.554 202.322C644.335 202.322 645.004 202.234 645.563 202.058C646.121 201.882 646.572 201.638 646.917 201.324C647.261 201.01 647.513 200.635 647.674 200.199C647.835 199.763 647.915 199.285 647.915 198.765C647.915 198.138 647.781 197.583 647.513 197.101C647.245 196.619 646.871 196.168 646.389 195.747C645.907 195.327 645.325 194.917 644.645 194.52C643.964 194.122 643.203 193.701 642.361 193.257C641.657 192.89 640.869 192.446 639.997 191.926C639.125 191.406 638.303 190.76 637.53 189.987C636.758 189.214 636.111 188.281 635.591 187.187C635.071 186.093 634.811 184.781 634.811 183.251C634.811 181.752 635.059 180.41 635.557 179.224C636.054 178.038 636.762 177.036 637.679 176.218C638.597 175.399 639.71 174.776 641.019 174.347C642.327 173.919 643.792 173.705 645.413 173.705C646.224 173.705 647.016 173.758 647.789 173.865C648.561 173.972 649.326 174.125 650.084 174.324C650.841 174.523 651.602 174.768 652.367 175.059C653.132 175.349 653.92 175.686 654.731 176.068L652.436 181.599C651.747 181.278 651.105 180.995 650.508 180.75C649.911 180.505 649.33 180.299 648.764 180.13C648.198 179.962 647.643 179.836 647.1 179.752C646.557 179.668 646.01 179.625 645.459 179.625C644.266 179.625 643.352 179.943 642.717 180.578C642.082 181.213 641.764 182.058 641.764 183.114C641.764 183.68 641.86 184.181 642.051 184.617C642.243 185.053 642.549 185.462 642.969 185.845C643.39 186.227 643.933 186.617 644.599 187.015C645.264 187.413 646.071 187.864 647.02 188.369C648.167 188.981 649.223 189.605 650.187 190.24C651.151 190.874 651.981 191.578 652.677 192.351C653.373 193.123 653.912 193.999 654.295 194.979C654.677 195.958 654.868 197.105 654.868 198.421Z" fill="#514762"/>
</svg>
