<svg width="758" height="184" viewBox="0 0 758 184" fill="none" xmlns="http://www.w3.org/2000/svg">
<path opacity="0.05" d="M88.3557 181.877C136.489 181.877 175.508 176.523 175.508 169.917C175.508 163.312 136.489 157.957 88.3557 157.957C40.2227 157.957 1.20337 163.312 1.20337 169.917C1.20337 176.523 40.2227 181.877 88.3557 181.877Z" fill="black"/>
<path d="M112.204 108.099C104.638 102.466 96.295 97.9602 87.435 94.7235C80.7668 92.029 74.4082 88.624 68.4689 84.5682C54.315 74.7075 47.2381 62.4765 47.2381 47.8743C46.954 39.066 49.7717 30.4374 55.1997 23.4944C56.1437 22.3232 57.16 21.2124 58.2427 20.1682L27.9889 27.2451C23.7665 28.2223 20.105 30.8362 17.8091 34.5121C15.5133 38.1881 14.7712 42.6254 15.7458 46.8482L40.7981 155.09C41.8084 159.233 44.3978 162.817 48.0138 165.078C51.6301 167.339 55.9863 168.097 60.1535 167.191L72.5735 164.325L71.6181 164.077C63.2677 161.521 55.2227 158.056 47.6274 153.745L60.5781 124.8C70.9681 133.261 83.9794 137.84 97.3781 137.751C111.532 137.751 118.609 132.691 118.609 122.642C118.681 119.895 118.144 117.167 117.037 114.653C115.929 112.138 114.279 109.9 112.204 108.099Z" fill="#E33A2C"/>
<path d="M180.462 122.643L155.692 14.4011C155.209 12.2992 154.315 10.3137 153.061 8.55889C151.807 6.80414 150.218 5.31483 148.386 4.17683C146.554 3.03878 144.515 2.27451 142.386 1.92803C140.258 1.58155 138.081 1.65972 135.983 2.15802L117.76 6.3688C119.859 6.69904 121.935 7.08827 123.988 7.53649C132.156 9.35515 140.062 12.1965 147.518 15.9934L136.903 44.3012C128.977 37.5074 117.902 34.1103 103.748 34.1103C91.1978 34.0631 84.9231 39.0876 84.9231 49.1843C85.0622 51.3205 85.7012 53.3947 86.7893 55.2386C87.877 57.0825 89.3833 58.6447 91.1862 59.7997C99.5798 65.1226 108.555 69.4678 117.937 72.7505C126.08 75.7397 133.708 79.9778 140.548 85.312C143.163 87.3997 145.537 89.7733 147.625 92.3889C153.672 100.41 156.771 110.269 156.4 120.307C156.692 129.98 153.629 139.456 147.731 147.129L168.36 142.352C170.452 141.857 172.425 140.954 174.166 139.695C175.908 138.435 177.383 136.844 178.508 135.013C179.632 133.181 180.384 131.145 180.719 129.023C181.054 126.9 180.967 124.732 180.462 122.643Z" fill="#E33A2C"/>
<path d="M239.341 118.291H245.427L260.43 157.002L275.363 118.291H281.449V162.416H277.273V124.271L262.341 162.416H258.307L243.446 124.271V162.416H239.341V118.291Z" fill="#756D6B"/>
<path d="M314.923 118.291H319.523L336.508 162.416H332.049L326.777 148.616H307.032L301.831 162.416H297.231L314.923 118.291ZM308.306 145.078H325.538L317.152 122.431L308.306 145.078Z" fill="#756D6B"/>
<path d="M389.655 162.416H386.683L386.152 154.383C384.825 157.199 382.688 159.555 380.017 161.15C377.345 162.744 374.256 163.506 371.149 163.336C357.491 163.336 350.697 152.402 350.697 140.336C350.697 128.27 357.491 117.336 371.149 117.336C375.463 117.035 379.73 118.384 383.088 121.111C386.442 123.837 388.64 127.736 389.231 132.02H385.091C384.489 128.799 382.741 125.904 380.172 123.869C377.603 121.834 374.387 120.795 371.114 120.945C359.649 120.945 354.766 130.711 354.766 140.371C354.766 150.031 359.614 159.797 371.114 159.797C380.703 159.797 386.294 152.933 386.117 143.591H371.361V140.053H389.761L389.655 162.416Z" fill="#756D6B"/>
<path d="M422.421 118.291H427.021L444.041 162.416H439.618L434.346 148.616H414.601L409.364 162.345H404.941L422.421 118.291ZM415.875 145.078H432.931L424.615 122.502L415.875 145.078Z" fill="#756D6B"/>
<path d="M458.018 118.291H489.227V121.83L460.707 158.842H489.864V162.381H456.107V158.842L484.769 121.865H458.16L458.018 118.291Z" fill="#756D6B"/>
<path d="M507.451 118.291H511.591V162.416H507.451V118.291Z" fill="#756D6B"/>
<path d="M532.716 118.291H537.316L562.616 155.693V118.291H566.756V162.416H562.156L536.891 125.085V162.416H532.751L532.716 118.291Z" fill="#756D6B"/>
<path d="M587.703 118.291H617.639V121.83H591.808V137.788H615.976V141.327H591.808V158.771H617.922V162.31H587.668L587.703 118.291Z" fill="#756D6B"/>
<path d="M674.395 56.9338C674.406 48.3371 677.29 39.9906 682.591 33.2226C687.891 26.4546 695.304 21.6533 703.648 19.5827C711.992 17.512 720.788 18.2909 728.637 21.7954C736.488 25.2999 742.939 31.3287 746.969 38.923L732.815 43.523C730.006 39.3526 725.958 36.1711 721.241 34.4271C716.524 32.6832 711.379 32.4654 706.532 33.8044C701.684 35.1434 697.381 37.9715 694.229 41.8893C691.076 45.8067 689.236 50.6162 688.963 55.6373C688.694 60.6584 690.007 65.6377 692.721 69.8718C695.432 74.1056 699.409 77.3801 704.083 79.2325C708.757 81.0848 713.895 81.4217 718.771 80.1949C723.647 78.9685 728.017 76.2403 731.259 72.3969L722.837 73.7769L712.611 63.6922L734.62 60.1538L756.665 56.6153L753.126 78.6245L749.588 100.634L739.362 90.4076L740.352 84.3569C734.97 89.753 728.106 93.432 720.633 94.9277C713.159 96.4237 705.41 95.6693 698.365 92.7603C691.32 89.8514 685.294 84.9184 681.055 78.5853C676.812 72.2521 674.544 64.8033 674.537 57.1815L674.395 56.9338ZM229.08 68.3984C228.9 72.5441 229.763 76.6688 231.592 80.3938C233.277 83.6753 235.699 86.5217 238.669 88.7092C241.773 90.9235 245.266 92.5321 248.966 93.4507C252.913 94.5101 256.982 95.0455 261.068 95.043C265.625 95.1283 270.169 94.5321 274.549 93.2738C278.095 92.3124 281.422 90.6787 284.351 88.4615C286.919 86.4067 288.968 83.7762 290.331 80.783C291.681 77.7675 292.369 74.4976 292.348 71.1938C292.497 67.5492 291.535 63.9456 289.588 60.8615C287.975 58.2681 285.828 56.0485 283.289 54.3507C281.002 52.7863 278.482 51.5925 275.823 50.8122C273.918 50.1813 271.981 49.6499 270.02 49.2199L258.52 46.283C256.185 45.6875 253.902 44.9065 251.691 43.9476C250.394 43.4278 249.267 42.5581 248.435 41.4353C247.833 40.3561 247.539 39.1318 247.586 37.8969C247.534 36.4878 247.904 35.0956 248.648 33.8983C249.319 32.8171 250.197 31.8791 251.231 31.1383C252.318 30.4469 253.515 29.9445 254.769 29.6521C256.084 29.3724 257.424 29.2301 258.768 29.2275C260.645 29.2109 262.519 29.3887 264.359 29.7583C266.003 30.0655 267.575 30.6775 268.994 31.5629C270.35 32.43 271.439 33.6544 272.143 35.1013C273.063 36.8254 273.572 38.7387 273.629 40.6922H289.623C289.749 36.8459 288.884 33.0319 287.111 29.6167C285.554 26.592 283.283 23.9927 280.494 22.0444C277.631 19.9937 274.399 18.5158 270.975 17.6921C267.298 16.7616 263.517 16.2979 259.723 16.3121C256.304 16.318 252.9 16.7822 249.603 17.6921C246.378 18.5771 243.335 20.0267 240.615 21.9736C237.955 23.8404 235.724 26.2531 234.069 29.0506C232.394 32.1162 231.564 35.5721 231.663 39.0646C231.581 42.1236 232.237 45.1578 233.574 47.9107C234.857 50.2542 236.617 52.3033 238.74 53.9261C240.899 55.5856 243.281 56.932 245.817 57.9245C248.503 58.9277 251.244 59.7783 254.026 60.4722C256.751 61.2507 259.475 61.9584 262.129 62.5599C264.538 63.1367 266.902 63.8819 269.206 64.7892C271.085 65.4933 272.805 66.5637 274.266 67.9384C274.934 68.5739 275.459 69.3446 275.807 70.1984C276.155 71.0526 276.317 71.9705 276.283 72.8922C276.411 74.6586 275.91 76.4134 274.868 77.8461C273.906 79.0332 272.699 79.9989 271.329 80.6769C269.829 81.3976 268.232 81.8983 266.588 82.163C265.016 82.3672 263.432 82.4733 261.846 82.4815C259.713 82.4822 257.587 82.2327 255.512 81.7384C253.602 81.2303 251.786 80.4178 250.134 79.3322C248.646 78.1766 247.437 76.7014 246.595 75.0153C245.626 73.0228 245.152 70.8254 245.215 68.6107L229.08 68.3984ZM412.655 36.5522L422.139 64.1522H402.677L412.655 36.5522ZM376.139 92.4599V18.1521H352.855L336.154 69.8845L318.462 18.1875H295.179V93.3446H310.642L310.854 40.5861L329.289 93.3446H342.028L360.675 40.0553V93.3446H392.522L398.431 76.6076H426.526L432.188 93.3446H449.385L421.077 18.1875H404.128L376.139 92.4599ZM444.077 68.4338C443.907 72.5823 444.785 76.7074 446.625 80.4292C448.313 83.7086 450.733 86.5542 453.702 88.7446C456.815 90.9621 460.322 92.571 464.034 93.4861C467.979 94.5459 472.049 95.0812 476.135 95.0784C480.693 95.1594 485.236 94.5632 489.617 93.3092C493.173 92.305 496.503 90.6228 499.419 88.3553C502.002 86.3076 504.065 83.6761 505.434 80.6769C506.779 77.6603 507.454 74.3894 507.415 71.0876C507.582 67.4462 506.63 63.8416 504.691 60.7553C503.067 58.1595 500.908 55.9398 498.357 54.2445C496.071 52.6798 493.552 51.4856 490.891 50.7061C488.987 50.0727 487.048 49.5412 485.088 49.1138L473.623 46.1769C471.277 45.5813 468.981 44.8004 466.759 43.8415C465.463 43.3203 464.335 42.4509 463.503 41.3292C462.902 40.2499 462.608 39.0256 462.654 37.7907C462.601 36.3817 462.972 34.9894 463.715 33.7921C464.409 32.7563 465.297 31.8666 466.334 31.1736C467.42 30.4811 468.616 29.9786 469.872 29.6875C471.277 29.3756 472.714 29.2214 474.154 29.2275C476.029 29.2111 477.905 29.389 479.745 29.7583C481.39 30.0655 482.961 30.6775 484.38 31.5629C485.732 32.4328 486.822 33.6565 487.529 35.1013C488.442 36.8282 488.952 38.7401 489.015 40.6922H505.009C505.14 36.819 504.263 32.9784 502.462 29.5459C500.908 26.5188 498.637 23.9187 495.845 21.9736C492.872 19.9043 489.514 18.4488 485.972 17.6921C482.296 16.7612 478.513 16.2975 474.72 16.3121C471.302 16.318 467.898 16.7822 464.6 17.6921C461.355 18.5476 458.287 19.9734 455.542 21.9029C452.891 23.771 450.673 26.1839 449.031 28.9798C447.357 32.0455 446.526 35.5013 446.625 38.9938C446.54 42.0531 447.194 45.0881 448.535 47.8399C449.82 50.1824 451.579 52.2312 453.702 53.8553C455.864 55.5106 458.245 56.8566 460.779 57.8538C463.464 58.8545 466.206 59.7051 468.988 60.4015C471.712 61.1799 474.437 61.8876 477.091 62.4892C479.501 63.0652 481.864 63.8101 484.168 64.7184C486.047 65.4208 487.766 66.4915 489.228 67.8676C489.886 68.5077 490.406 69.2798 490.746 70.1333C491.089 70.9868 491.245 71.9029 491.209 72.8215C491.262 74.5242 490.739 76.1943 489.723 77.563C488.761 78.7502 487.554 79.7158 486.185 80.3938C484.684 81.1135 483.089 81.6142 481.443 81.8799C479.872 82.0841 478.287 82.1903 476.702 82.1984C474.582 82.197 472.466 81.9475 470.403 81.4553C468.492 80.9483 466.677 80.1358 465.025 79.0492C463.539 77.8903 462.332 76.4155 461.486 74.7322C460.517 72.7394 460.043 70.5423 460.106 68.3276L444.077 68.4338ZM510.175 93.203H526.7V60.9322H557.131V93.3446H573.655V18.1875H557.131V47.0261H526.7V18.1875H510.175V93.203ZM581.192 93.203H597.717V18.1875H581.192V93.203ZM605.289 93.203H620.752L620.965 42.8861L652.245 93.203H668.769V18.1875H653.271L653.059 68.6461L621.708 18.1875H605.289V93.203Z" fill="#E33A2C"/>
</svg>
