<svg width="292" height="32" viewBox="0 0 292 32" fill="none" xmlns="http://www.w3.org/2000/svg">
<path d="M2.23727 24.5521H5.2203C6.4508 24.5521 7.45757 25.5626 7.45757 26.7977V29.7919C7.45757 31.027 6.4508 32.0375 5.2203 32.0375H2.23727C1.00677 32.0375 0 31.027 0 29.7919V26.7977C0 25.5626 1.00677 24.5521 2.23727 24.5521Z" fill="#1A90FF"/>
<path d="M285.569 8.81384H290.976L283.76 31.9624H276.713L271.977 13.3986L267.335 31.9624H260.269L252.961 8.81384H258.405L263.998 27.9951L269.088 8.81384H274.923L279.92 27.9951L285.569 8.81384Z" fill="#1A90FF"/>
<path d="M230.551 8.81384H245.69C248.02 8.81384 249.195 10.0676 249.195 12.5752V21.5016H232.769V27.6583C232.769 28.2945 232.844 28.7062 233.012 28.8747C233.18 29.0431 233.552 29.1366 234.149 29.1366H242.166C242.725 29.1366 243.098 29.0431 243.266 28.8747C243.452 28.7062 243.527 28.2945 243.527 27.6583V25.0384H249.102V28.1823C249.102 30.6899 247.927 31.9437 245.596 31.9437H230.532C228.202 31.9437 227.027 30.6899 227.027 28.1823V12.5752C227.064 10.0676 228.22 8.81384 230.551 8.81384ZM232.769 18.6945H243.62V13.1179C243.62 12.5191 243.527 12.1074 243.359 11.9203C243.191 11.7331 242.819 11.6396 242.259 11.6396H234.149C233.552 11.6396 233.18 11.7331 233.012 11.9203C232.844 12.1074 232.769 12.5004 232.769 13.1179V18.6945Z" fill="#1A90FF"/>
<path d="M219.663 8.75793H223.522V11.8644H218.656C216.624 11.8644 215.598 13.062 215.598 15.4386V31.9439H209.893V8.81407H215.598V11.6772C216.158 9.73103 217.519 8.77665 219.663 8.75793Z" fill="#1A90FF"/>
<path d="M203.853 12.5382H197.868V6.56858C197.868 5.93232 197.793 5.52063 197.626 5.35221C197.458 5.18379 197.085 5.09022 196.488 5.09022H187.8C187.204 5.09022 186.831 5.18379 186.682 5.35221C186.532 5.52063 186.439 5.93232 186.439 6.56858V27.6586C186.439 28.2949 186.514 28.7066 186.682 28.875C186.849 29.0434 187.222 29.137 187.8 29.137H196.488C197.085 29.137 197.458 29.0434 197.626 28.875C197.793 28.7066 197.868 28.2949 197.868 27.6586V21.7078H203.853V28.2013C203.853 30.7089 202.678 31.9627 200.348 31.9627H183.96C181.629 31.9627 180.455 30.7089 180.455 28.2013V6.04461C180.455 3.537 181.629 2.2832 183.96 2.2832H200.348C202.678 2.2832 203.853 3.537 203.853 6.04461V12.5382Z" fill="#1A90FF"/>
<path d="M167.329 27.6772V23.2795C167.329 22.6807 167.236 22.269 167.05 22.0819C166.863 21.8947 166.472 21.8012 165.894 21.8012H155.472C153.029 21.8012 151.817 20.5474 151.817 18.0211V12.5567C151.817 10.0491 153.029 8.79532 155.472 8.77661H169.417C171.86 8.77661 173.072 10.0304 173.072 12.5567V15.476H167.236V13.0433C167.236 12.407 167.143 11.9953 166.956 11.8269C166.77 11.6585 166.378 11.5649 165.8 11.5649H159.219C158.623 11.5649 158.25 11.6585 158.063 11.8269C157.877 11.9953 157.784 12.407 157.784 13.0433V17.5345C157.784 18.1708 157.877 18.5825 158.063 18.7509C158.25 18.9193 158.641 19.0129 159.219 19.0129H169.604C172.046 19.0129 173.258 20.2667 173.258 22.7743V28.1637C173.258 30.6713 172.046 31.9251 169.604 31.9251H155.621C153.178 31.9251 151.967 30.6713 151.967 28.1637V25.2444H157.802V27.6772C157.802 28.276 157.895 28.6877 158.082 28.8749C158.268 29.062 158.66 29.1556 159.238 29.1556H165.912C166.49 29.1556 166.882 29.062 167.068 28.8749C167.255 28.6877 167.329 28.276 167.329 27.6772Z" fill="#292929"/>
<path d="M144.304 8.73926H148.331V11.8457H143.241C141.116 11.8457 140.053 13.0434 140.053 15.42V31.9252H134.087V8.77668H140.053V11.6398C140.631 9.71236 142.048 8.73926 144.304 8.73926Z" fill="#292929"/>
<path d="M107.948 8.77661H123.796C126.238 8.77661 127.45 10.0304 127.45 12.5567V21.483H110.26V27.6398C110.26 28.276 110.353 28.6877 110.521 28.8561C110.689 29.0246 111.08 29.1181 111.696 29.1181H120.085C120.682 29.1181 121.055 29.0246 121.241 28.8561C121.428 28.6877 121.521 28.276 121.521 27.6398V25.0199H127.357V28.1637C127.357 30.6713 126.145 31.9251 123.702 31.9251H107.948C105.506 31.9251 104.294 30.6713 104.294 28.1637V12.5567C104.294 10.0304 105.506 8.77661 107.948 8.77661ZM110.26 18.6573H121.614V13.0807C121.614 12.4819 121.521 12.0702 121.335 11.883C121.148 11.6959 120.757 11.6023 120.179 11.6023H111.696C111.08 11.6023 110.689 11.6959 110.521 11.883C110.353 12.0702 110.26 12.4632 110.26 13.0807V18.6573Z" fill="#292929"/>
<path d="M91.262 0H97.2467V31.9251H91.262V30.4468C90.8891 31.4386 90.0315 31.9251 88.6705 31.9251H78.2112C75.7689 31.9251 74.557 30.6713 74.557 28.1637V12.5567C74.557 10.0491 75.7689 8.79532 78.2112 8.77661H88.6705C90.0315 8.77661 90.8891 9.26316 91.262 10.255V0ZM81.9587 29.1181H89.64C90.2366 29.1181 90.6467 29.0058 90.8891 28.7626C91.1315 28.5193 91.262 28.1263 91.262 27.5462V13.1743C91.262 12.5942 91.1315 12.2012 90.8891 11.9579C90.6467 11.7146 90.2179 11.6023 89.64 11.6023H81.9587C81.3434 11.6023 80.9519 11.6959 80.7841 11.883C80.6163 12.0702 80.5231 12.4632 80.5231 13.0807V27.6398C80.5231 28.276 80.6163 28.6877 80.7841 28.8561C80.9519 29.0246 81.3434 29.1181 81.9587 29.1181Z" fill="#292929"/>
<path d="M48.698 8.77661H64.2097C66.6521 8.77661 67.8639 10.0304 67.8639 12.5567V28.1637C67.8639 30.6713 66.6521 31.9251 64.2097 31.9251H48.698C46.2556 31.9251 45.0437 30.6713 45.0437 28.1637V12.5567C45.0437 10.0304 46.2556 8.77661 48.698 8.77661ZM61.9538 27.6211V13.0807C61.9538 12.4819 61.8606 12.0702 61.6928 11.883C61.525 11.6959 61.1334 11.6023 60.5182 11.6023H52.4081C51.8301 11.6023 51.4386 11.6959 51.2522 11.883C51.0657 12.0702 50.9725 12.4632 50.9725 13.0807V27.6398C50.9725 28.276 51.0657 28.6877 51.2522 28.8561C51.4386 29.0246 51.8301 29.1181 52.4081 29.1181H60.5182C61.1334 29.1181 61.525 29.0246 61.6928 28.8561C61.8606 28.669 61.9538 28.276 61.9538 27.6211Z" fill="#292929"/>
<path d="M39.115 12.5005H32.8693V6.53086C32.8693 5.89461 32.776 5.48291 32.6082 5.31449C32.4404 5.14607 32.0489 5.0525 31.4337 5.0525H22.3541C21.7388 5.0525 21.3473 5.14607 21.1795 5.31449C21.0117 5.48291 20.9185 5.89461 20.9185 6.53086V27.6209C20.9185 28.2572 20.9931 28.6689 21.1795 28.8373C21.366 29.0057 21.7388 29.0993 22.3541 29.0993H31.4337C32.0489 29.0993 32.4404 29.0057 32.6082 28.8373C32.776 28.6689 32.8693 28.2572 32.8693 27.6209V21.6513H39.115V28.1449C39.115 30.6525 37.9031 31.9063 35.4608 31.9063H18.3084C15.866 31.9063 14.6541 30.6525 14.6541 28.1449V6.00689C14.6541 3.49928 15.866 2.24548 18.3084 2.24548H35.4421C37.8845 2.24548 39.0963 3.49928 39.0963 6.00689V12.5005H39.115Z" fill="#292929"/>
</svg>
