<svg width="24" height="24" viewBox="0 0 24 24" fill="none" xmlns="http://www.w3.org/2000/svg">
<path d="M19.5 0H4.5C2.84297 0 1.5 1.34297 1.5 3V21C1.5 22.657 2.84297 24 4.5 24H19.5C21.157 24 22.5 22.657 22.5 21V3C22.5 1.34297 21.1547 0 19.5 0ZM4.5 5.25C4.5 4.84219 4.83984 4.5 5.25 4.5H6.75C7.1625 4.5 7.5 4.84219 7.5 5.25V6.75C7.5 7.1625 7.1625 7.5 6.75 7.5H5.25C4.83984 7.5 4.5 7.1625 4.5 6.75V5.25ZM7.5 18.75C7.5 19.1625 7.1625 19.5 6.75 19.5H5.25C4.83984 19.5 4.5 19.1625 4.5 18.75V17.25C4.5 16.8422 4.83984 16.5 5.25 16.5H6.75C7.1625 16.5 7.5 16.8422 7.5 17.25V18.75ZM9.15469 10.6547L6.52969 13.2797C6.38438 13.425 6.19219 13.5 6 13.5C5.80781 13.5 5.61609 13.425 5.46984 13.2797L4.34484 12.1547C4.05187 11.8617 4.05187 11.3869 4.34484 11.0944C4.63781 10.8019 5.11266 10.8014 5.40516 11.0944L6 11.6906L8.09484 9.59578C8.38781 9.30281 8.86266 9.30281 9.15516 9.59578C9.44766 9.88875 9.45 10.3641 9.15469 10.6547ZM18.75 18.75H11.25C10.8375 18.75 10.5 18.4125 10.5 18C10.5 17.5875 10.8358 17.25 11.25 17.25H18.75C19.1642 17.25 19.5 17.5858 19.5 18C19.5 18.4142 19.1625 18.75 18.75 18.75ZM18.75 12.75H11.25C10.8375 12.75 10.5 12.4125 10.5 12C10.5 11.5875 10.8358 11.25 11.25 11.25H18.75C19.1625 11.25 19.5 11.5875 19.5 12C19.5 12.4125 19.1625 12.75 18.75 12.75ZM18.75 6.75H11.25C10.8375 6.75 10.5 6.4125 10.5 6C10.5 5.5875 10.8358 5.25 11.25 5.25H18.75C19.1625 5.25 19.5 5.5875 19.5 6C19.5 6.4125 19.1625 6.75 18.75 6.75Z" fill="black"/>
</svg>
