<svg width="32" height="32" viewBox="0 0 32 32" fill="none" xmlns="http://www.w3.org/2000/svg">
<path d="M0 13.7V26.9813C0 27.8719 0.72625 28.6219 1.65625 28.6688C4.7075 28.825 11.2625 29.4562 15 31.9937V15.325C11.3375 12.8438 4.99938 12.175 1.865 12C0.849375 11.9438 0 12.725 0 13.7ZM30.1375 12C27.0069 12.178 20.6812 12.8419 17.0688 15.3181C17.0063 15.325 17 15.3313 17 15.3438V32C20.7525 29.4756 27.2938 28.8275 30.3438 28.67C31.275 28.6187 32 27.8688 32 26.9813V13.7C32 12.725 31.15 11.9438 30.1375 12ZM22 6C22 2.6875 19.3125 0 16 0C12.6875 0 10 2.6875 10 6C10 9.3125 12.6875 12 16 12C19.3125 12 22 9.3125 22 6Z" fill="white"/>
</svg>
