<svg width="32" height="32" viewBox="0 0 32 32" fill="none" xmlns="http://www.w3.org/2000/svg">
<path d="M11.5 0C9.69375 0 8.225 1.37313 8.0375 3.13C6.29375 3.5625 5.00063 5.12437 5.00063 7C5.00063 7.39187 5.07375 7.76312 5.17875 8.12062C3.36875 8.5 2 10.075 2 12C2 12.9438 2.34031 13.7994 2.88687 14.4831C1.18562 15.2812 0 16.9937 0 19C0 21.1413 1.3525 22.9538 3.245 23.6663C3.09625 24.0875 3 24.5312 3 25C3 27.2094 4.79063 29 7 29C7.36037 29 7.70312 28.937 8.035 28.8476C8.2125 30.6125 9.63125 32 11.5 32C13.4331 32 15 30.4331 15 28.5V3.5C15 1.56687 13.4312 0 11.5 0ZM32 19C32 16.9969 30.8144 15.2812 29.1131 14.4831C29.6625 13.8 30 12.9438 30 12C30 10.0763 28.6313 8.50125 26.8213 8.12062C26.925 7.7625 26.9438 7.39375 26.9438 7C26.9438 5.12437 25.6488 3.5625 23.9075 3.13C23.775 1.37313 22.3062 0 20.5 0C18.5669 0 17 1.56687 17 3.5V28.5C17 30.4331 18.5669 32 20.5 32C22.3137 32 23.7881 30.615 23.965 28.8475C24.3 28.8813 24.6375 29 25 29C27.2094 29 29 27.2094 29 25C29 24.5299 28.9039 24.0856 28.755 23.6663C30.65 22.9563 32 21.1437 32 19Z" fill="white"/>
</svg>
