<svg width="24" height="24" viewBox="0 0 24 24" fill="none" xmlns="http://www.w3.org/2000/svg">
<path d="M8.625 0C7.27031 0 6.16875 1.02984 6.02813 2.3475C4.72031 2.67188 3.75047 3.84328 3.75047 5.25C3.75047 5.54391 3.80531 5.82234 3.88406 6.09047C2.52656 6.375 1.5 7.55625 1.5 9C1.5 9.70781 1.75523 10.3495 2.16516 10.8623C0.889219 11.4609 0 12.7453 0 14.25C0 15.8559 1.01437 17.2153 2.43375 17.7497C2.32219 18.0656 2.25 18.3984 2.25 18.75C2.25 20.407 3.59297 21.75 5.25 21.75C5.52028 21.75 5.77734 21.7028 6.02625 21.6357C6.15937 22.9594 7.22344 24 8.625 24C10.0748 24 11.25 22.8248 11.25 21.375V2.625C11.25 1.17516 10.0734 0 8.625 0ZM24 14.25C24 12.7477 23.1108 11.4609 21.8348 10.8623C22.2469 10.35 22.5 9.70781 22.5 9C22.5 7.55719 21.4734 6.37594 20.1159 6.09047C20.1938 5.82187 20.2078 5.54531 20.2078 5.25C20.2078 3.84328 19.2366 2.67188 17.9306 2.3475C17.8312 1.02984 16.7297 0 15.375 0C13.9252 0 12.75 1.17516 12.75 2.625V21.375C12.75 22.8248 13.9252 24 15.375 24C16.7353 24 17.8411 22.9613 17.9738 21.6356C18.225 21.6609 18.4781 21.75 18.75 21.75C20.407 21.75 21.75 20.407 21.75 18.75C21.75 18.3975 21.678 18.0642 21.5662 17.7497C22.9875 17.2172 24 15.8578 24 14.25Z" fill="black"/>
</svg>
