<svg width="32" height="32" viewBox="0 0 32 32" fill="none" xmlns="http://www.w3.org/2000/svg">
<g clip-path="url(#clip0)">
<path d="M31.9699 24.3465C31.5512 23.3281 30.3824 22.8406 29.3639 23.2656L28.2579 23.728L26.3204 18.673C28.7139 16.968 29.5639 13.663 28.0454 11.038L23.7144 3.513C23.3145 2.8195 22.5094 2.5255 21.7594 2.832L16.0494 5.2005L10.29 2.7873C9.53995 2.48105 8.68995 2.7748 8.28996 3.46855L3.95746 10.9915C2.44496 13.6165 3.28896 16.8815 5.67996 18.6265L3.74246 23.7215L2.63896 23.2615C1.62046 22.8366 0.457965 23.324 0.0329652 24.3426C-0.0545347 24.5487 0.0392152 24.78 0.245465 24.8675L8.36545 28.2361C8.52045 28.3236 8.79665 28.2298 8.88395 28.0236C9.30265 27.0051 8.82145 25.8301 7.80296 25.4051L6.69696 24.9489L8.66545 19.7689C8.89045 19.7939 9.10915 19.8314 9.32145 19.8314C11.9089 19.8314 14.2899 18.2264 14.9914 15.5694L16.0039 11.8014L17.0164 15.5694C17.6714 18.1814 20.0974 19.8314 22.6864 19.8314C22.8989 19.8314 23.1176 19.7939 23.3424 19.7689L25.3049 24.9489L24.1989 25.4051C23.1804 25.83 22.6929 26.9601 23.1179 28.0236C23.2054 28.2298 23.4429 28.3236 23.6429 28.2361L31.7629 24.8675C31.9549 24.7766 32.0549 24.5515 31.9699 24.3465ZM13.7949 10.7715L8.18995 8.44655L10.015 5.27805L14.7399 7.23655L13.7949 10.7715ZM18.2049 10.7715L17.2614 7.23455L21.9859 5.27855L23.8109 8.44705L18.2049 10.7715Z" fill="white"/>
</g>
<defs>
<clipPath id="clip0">
<rect width="32" height="32" fill="white"/>
</clipPath>
</defs>
</svg>
