<svg width="24" height="24" viewBox="0 0 24 24" fill="none" xmlns="http://www.w3.org/2000/svg">
<path d="M15.6 3.19775C15.6 2.81563 15.3038 2 14.4038 2C13.8795 2 13.3961 2.3402 13.2454 2.86925L8.44538 19.6693C8.41386 19.7793 8.39884 19.8902 8.39884 19.9993C8.36625 20.3862 8.7 21.2 9.6 21.2C10.122 21.2 10.6024 20.8566 10.7531 20.3293L15.5531 3.52925C15.585 3.41788 15.6 3.30688 15.6 3.19775ZM6.6 7.36625C6.6 6.68075 6.03938 6.16625 5.4 6.16625C5.09295 6.16625 4.78575 6.28344 4.55175 6.51785L0.35175 10.7179C0.117188 10.985 0 11.2925 0 11.5663C0 11.84 0.117188 12.215 0.351562 12.4475L4.55156 16.6475C4.785 16.8838 5.0925 16.9663 5.4 16.9663C6.03938 16.9663 6.6 16.4514 6.6 15.7663C6.6 15.4592 6.48281 15.152 6.24844 14.9176L2.89688 11.5663L6.24863 8.2145C6.48375 8.01125 6.6 7.7075 6.6 7.36625ZM24 11.5663C24 11.2592 23.8828 10.952 23.6484 10.7176L19.4484 6.51763C19.215 6.31625 18.9075 6.16625 18.6 6.16625C17.9606 6.16625 17.4 6.68113 17.4 7.36625C17.4 7.6733 17.5172 7.9805 17.7516 8.21488L21.1033 11.5666L17.7516 14.9184C17.5163 15.185 17.4 15.4925 17.4 15.7663C17.4 16.4518 17.9606 16.9663 18.6 16.9663C18.9071 16.9663 19.2143 16.8491 19.4482 16.6147L23.6483 12.4146C23.8838 12.215 24 11.9075 24 11.5663Z" fill="black"/>
</svg>
