<svg width="24" height="24" viewBox="0 0 24 24" fill="none" xmlns="http://www.w3.org/2000/svg">
<path d="M20.2238 7.4H17.745C17.9063 7.0325 18 6.6275 18 6.2C18 4.55562 16.6613 3.2 15.0188 3.2C13.7888 3.2 12.9563 3.7655 12 4.96062C11.0438 3.7655 10.2113 3.2 8.98125 3.2C7.33875 3.2 6 4.55562 6 6.2C6 6.6275 6.09398 7.03212 6.25665 7.4H3.6C1.61175 7.4 0 9.21762 0 12.2C0 15.1824 1.61175 17.6 3.6 17.6L9.6 16.3141V20L12 18.7996L14.4 20V16.3254L20.2238 17.6C22.3088 17.6 24 15.1812 24 12.2C24 9.21875 22.3088 7.4 20.2238 7.4ZM9.6 13.8612L3.5025 15.1677C3.1755 14.975 2.4 13.9887 2.4 12.2C2.4 10.1997 3.37088 9.8 3.6 9.8H9.6V13.8612ZM8.98125 7.38125C8.32875 7.38125 7.8 6.8525 7.8 6.2C7.8 5.5475 8.3295 5.01762 8.98238 5.01762C9.57075 5.01762 10.005 5.11505 11.5271 7.38237H8.98125V7.38125ZM12.4725 7.38125C13.9946 5.114 14.4289 5.0165 15.0173 5.0165C15.6713 5.01762 16.2 5.54712 16.2 6.2C16.2 6.85287 15.6709 7.38237 15.0176 7.38237H12.4725V7.38125ZM20.3588 15.1737L14.4 13.8687V9.8H20.2238C20.6963 9.8 21.6 10.37 21.6 12.2C21.6 13.8687 20.8163 14.9862 20.3588 15.1737Z" fill="black"/>
</svg>
