<svg width="32" height="32" viewBox="0 0 32 32" fill="none" xmlns="http://www.w3.org/2000/svg">
<path d="M31.8056 14.5611C28.7944 7.74997 22.8278 3.11108 16 3.11108C9.17222 3.11108 3.205 7.75553 0.192722 14.5611C0.0868333 14.8555 0 15.2778 0 15.5555C0 15.832 0.0867778 16.2555 0.192722 16.5016C3.20667 23.3611 9.17222 28 16 28C22.8278 28 28.7944 23.3566 31.8056 16.55C31.9111 16.2555 32 15.7833 32 15.5555C32 15.2778 31.9111 14.8555 31.8056 14.5611ZM24 15.5555C24 19.9694 20.4183 23.5555 16.0056 23.5555C11.5889 23.5555 8 19.9722 8 15.5555C8 11.1389 11.5833 7.55553 16 7.55553C20.4167 7.55553 24 11.1389 24 15.5555ZM16 10.2222C15.8722 10.2222 15.6889 10.2444 15.5278 10.2666C15.8222 10.7778 16 11.3666 16 12C16 13.9639 14.4083 15.5555 12.4444 15.5555C11.8111 15.5555 11.1722 15.3722 10.7056 15.0833C10.6889 15.25 10.6667 15.4222 10.6667 15.5555C10.6667 18.45 13.0556 20.8889 16 20.8889C18.9444 20.8889 21.3333 18.5005 21.3333 15.5561C21.3333 12.6116 18.8944 10.2222 16 10.2222Z" fill="white"/>
</svg>
