<svg width="24" height="24" viewBox="0 0 24 24" fill="none" xmlns="http://www.w3.org/2000/svg">
<path d="M14.6667 7.66667C14.2988 7.66667 14 7.96617 14 8.33333V11.6667C14 12.0338 14.2988 12.3333 14.6667 12.3333H18.6667C19.0345 12.3333 19.3333 12.0338 19.3333 11.6667V8.33333C19.3333 7.96667 19.0333 7.66667 18.6667 7.66667H14.6667ZM16 11.3333C15.4475 11.3333 15 10.8854 15 10.3333C15 9.78083 15.4475 9.33333 16 9.33333C16.5525 9.33333 17 9.77917 17 10.3333C17 10.8875 16.5542 11.3333 16 11.3333ZM5.33334 6.33333H9.33334C10.2013 6.33333 10.9346 6.8925 11.2104 7.66667H12.7892C13.0667 6.89167 13.8 6.33333 14.6667 6.33333H18.6667C19.5346 6.33333 20.2679 6.8925 20.5438 7.66667H21.8838C20.3 3.75917 16.475 1 12 1C7.52501 1 3.69918 3.75917 2.11584 7.66667H3.45584C3.73209 6.89167 4.46668 6.33333 5.33334 6.33333ZM22.3167 9H20.6667V11.6667C20.6667 12.7696 19.7696 13.6667 18.6667 13.6667H14.6667C13.5638 13.6667 12.6667 12.7696 12.6667 11.6667V9H11.3333V11.6667C11.3333 12.7696 10.4363 13.6667 9.33334 13.6667H5.33334C4.22918 13.6667 3.33334 12.7708 3.33334 11.6667V9H1.68293C1.46293 9.85417 1.33334 10.7458 1.33334 11.6667C1.33334 17.5583 6.10834 22.3333 12 22.3333C17.8917 22.3333 22.6667 17.5583 22.6667 11.6667C22.6667 10.7458 22.5375 9.85417 22.3167 9ZM16.7833 16.0917C15.5958 17.5167 13.8542 18.2958 12 18.2958C10.1458 18.2958 8.40543 17.4808 7.21668 16.0558C6.65043 15.3767 7.67293 14.5267 8.24043 15.2017C9.17501 16.3583 10.5417 16.9958 12 16.9958C13.4583 16.9958 14.8258 16.3533 15.7583 15.2367C16.3167 14.5625 17.3458 15.4125 16.7833 16.0917ZM5.33334 7.66667C4.96668 7.66667 4.66668 7.96667 4.66668 8.33333V11.6667C4.66668 12.0338 4.96551 12.3333 5.33334 12.3333H9.33334C9.70118 12.3333 10 12.0338 10 11.6667V8.33333C10 7.96667 9.70001 7.66667 9.33334 7.66667H5.33334ZM8.00001 11.3333C7.44584 11.3333 7.00001 10.8875 7.00001 10.3333C7.00001 9.78083 7.44751 9.33333 8.00001 9.33333C8.55251 9.33333 9.00001 9.77917 9.00001 10.3333C9.00001 10.8875 8.55418 11.3333 8.00001 11.3333Z" fill="black"/>
</svg>
