<svg width="32" height="32" viewBox="0 0 32 32" fill="none" xmlns="http://www.w3.org/2000/svg">
<path d="M20 8V0L28 8H20Z" fill="white"/>
<path fill-rule="evenodd" clip-rule="evenodd" d="M18 0V8C18 9.10625 18.8938 10 20.0563 10H28V29C28 30.6569 26.6569 32 25 32H7C5.34312 32 4 30.6562 4 29V3C4 1.34312 5.34312 0 7 0H18ZM19.75 17.25L18.0039 16.5205C17.9277 16.4824 17.875 16.4004 17.875 16.3125C17.875 16.2246 17.9277 16.144 18.003 16.1039L19.75 15.375L20.4788 13.6282C20.519 13.5513 20.5996 13.5 20.6875 13.5C20.7754 13.5 20.8574 13.5513 20.8961 13.6283L21.625 15.375L23.3718 16.1038C23.4487 16.144 23.5 16.2246 23.5 16.3125C23.5 16.4004 23.4502 16.4824 23.372 16.5211L21.625 17.25L20.8962 18.9968C20.856 19.0737 20.7754 19.125 20.6875 19.125C20.5996 19.125 20.5176 19.0752 20.4789 18.997L19.75 17.25ZM21.625 24.75L23.3711 25.4795C23.4502 25.5176 23.5 25.5996 23.5 25.6875C23.5 25.7754 23.4502 25.8574 23.372 25.8961L21.625 26.625L20.8962 28.3718C20.856 28.4487 20.7754 28.5 20.6875 28.5C20.5996 28.5 20.5176 28.4473 20.4789 28.372L19.75 26.625L18.0032 25.8962C17.9263 25.856 17.875 25.7754 17.875 25.6875C17.875 25.5996 17.9277 25.5176 18.003 25.4789L19.75 24.75L20.4788 23.0032C20.519 22.9263 20.5996 22.875 20.6875 22.875C20.7754 22.875 20.8574 22.9277 20.8961 23.003L21.625 24.75ZM19.49 20.567C19.6511 20.6479 19.75 20.8125 19.75 20.9883C19.75 21.1699 19.6504 21.3281 19.4901 21.4085L16.1942 23.06L14.5425 26.3617C14.4654 26.5192 14.3008 26.6221 14.125 26.6221C13.9229 26.6221 13.7852 26.5195 13.7077 26.3628L12.0559 23.061L8.76001 21.4096C8.59888 21.3287 8.5 21.1677 8.5 20.9883C8.5 20.8125 8.59888 20.6484 8.76001 20.5664L12.0566 18.917L13.709 15.6149C13.8663 15.2962 14.3865 15.2962 14.5439 15.6149L16.1941 18.9173L19.49 20.567Z" fill="white"/>
</svg>
