<svg width="24" height="24" viewBox="0 0 24 24" fill="none" xmlns="http://www.w3.org/2000/svg">
<path d="M15 6V0L21 6H15Z" fill="black"/>
<path fill-rule="evenodd" clip-rule="evenodd" d="M13.5 0V6C13.5 6.82969 14.1703 7.5 15.0422 7.5H21V21.75C21 22.9927 19.9927 24 18.75 24H5.25C4.00734 24 3 22.9922 3 21.75V2.25C3 1.00734 4.00734 0 5.25 0H13.5ZM14.8125 12.9375L13.5029 12.3904C13.4458 12.3618 13.4062 12.3003 13.4062 12.2344C13.4062 12.1685 13.4458 12.108 13.5023 12.0779L14.8125 11.5312L15.3591 10.2211C15.3893 10.1635 15.4497 10.125 15.5156 10.125C15.5815 10.125 15.6431 10.1635 15.6721 10.2212L16.2188 11.5312L17.5289 12.0778C17.5865 12.108 17.625 12.1685 17.625 12.2344C17.625 12.3003 17.5876 12.3618 17.529 12.3908L16.2188 12.9375L15.6722 14.2476C15.642 14.3053 15.5815 14.3438 15.5156 14.3438C15.4497 14.3438 15.3882 14.3064 15.3592 14.2477L14.8125 12.9375ZM16.2188 18.5625L17.5283 19.1096C17.5876 19.1382 17.625 19.1997 17.625 19.2656C17.625 19.3315 17.5876 19.3931 17.529 19.4221L16.2188 19.9688L15.6722 21.2789C15.642 21.3365 15.5815 21.375 15.5156 21.375C15.4497 21.375 15.3882 21.3354 15.3592 21.279L14.8125 19.9688L13.5024 19.4222C13.4447 19.392 13.4062 19.3315 13.4062 19.2656C13.4062 19.1997 13.4458 19.1382 13.5023 19.1092L14.8125 18.5625L15.3591 17.2524C15.3893 17.1947 15.4497 17.1562 15.5156 17.1562C15.5815 17.1562 15.6431 17.1958 15.6721 17.2523L16.2188 18.5625ZM14.6175 15.4252C14.7383 15.4859 14.8125 15.6094 14.8125 15.7412C14.8125 15.8774 14.7378 15.9961 14.6176 16.0564L12.1457 17.295L10.9069 19.7713C10.8491 19.8894 10.7256 19.9666 10.5938 19.9666C10.4421 19.9666 10.3389 19.8896 10.2807 19.7721L9.04193 17.2958L6.57001 16.0572C6.44916 15.9965 6.375 15.8758 6.375 15.7412C6.375 15.6094 6.44916 15.4863 6.57001 15.4248L9.04248 14.1877L10.2817 11.7112C10.3997 11.4721 10.7899 11.4721 10.908 11.7112L12.1456 14.188L14.6175 15.4252Z" fill="black"/>
</svg>
