<svg width="32" height="32" viewBox="0 0 32 32" fill="none" xmlns="http://www.w3.org/2000/svg">
<path d="M21.552 3.20312C20.2583 4.40625 19.0833 5.67188 18.0458 6.94375C16.3395 4.60125 14.2208 2.21875 11.8333 0C5.69263 5.695 1.33325 13.125 1.33325 17.6C1.33325 25.5563 7.59575 32 15.3333 32C23.0708 32 29.3333 25.5563 29.3333 17.6C29.3333 14.275 26.0833 7.40625 21.552 3.20312ZM20.3395 24.4937C18.9833 25.4375 17.3208 26 15.5145 26C11.0064 26 7.33325 23.0169 7.33325 18.175C7.33325 15.7606 8.84825 13.635 11.8795 10C12.317 10.5 18.0595 17.8375 18.0595 17.8375L21.7239 13.6575C21.9817 14.0794 22.2156 14.5025 22.4264 14.9012C24.1395 18.1625 23.4208 22.3375 20.3395 24.4937Z" fill="white"/>
</svg>
