<svg width="24" height="24" viewBox="0 0 24 24" fill="none" xmlns="http://www.w3.org/2000/svg">
<path d="M16.1641 2.40234C15.1938 3.30469 14.3125 4.25391 13.5344 5.20781C12.2547 3.45094 10.6656 1.66406 8.875 0C4.26953 4.27125 1 9.84375 1 13.2C1 19.1672 5.69687 24 11.5 24C17.3031 24 22 19.1672 22 13.2C22 10.7063 19.5625 5.55469 16.1641 2.40234ZM15.2547 18.3703C14.2375 19.0781 12.9906 19.5 11.6359 19.5C8.25484 19.5 5.5 17.2627 5.5 13.6312C5.5 11.8205 6.63625 10.2262 8.90969 7.5C9.23781 7.875 13.5447 13.3781 13.5447 13.3781L16.293 10.2431C16.4863 10.5595 16.6617 10.8769 16.8198 11.1759C18.1047 13.6219 17.5656 16.7531 15.2547 18.3703Z" fill="black"/>
</svg>
