<svg width="24" height="24" viewBox="0 0 24 24" fill="none" xmlns="http://www.w3.org/2000/svg">
<path d="M8.75615 1.23C5.58271 2.18438 3.00365 4.50047 1.69209 7.5H6.37818C6.82959 4.87969 7.66865 2.6925 8.75615 1.23ZM7.4999 12C7.4999 13.057 7.55976 14.0559 7.66973 15H16.3322C16.4422 14.0559 16.5021 13.057 16.5021 12C16.5021 10.943 16.4422 9.94406 16.3322 9H7.66865C7.56084 9.94219 7.4999 10.9453 7.4999 12ZM16.1062 7.5C15.3444 3.37313 13.6044 0.75 12.0013 0.75C10.3982 0.75 8.65771 3.37313 7.89365 7.5H16.1062ZM22.3077 7.5C20.9962 4.50047 18.4171 2.18438 15.2437 1.22813C16.3312 2.6925 17.1702 4.87969 17.6202 7.5H22.3077ZM15.2437 22.7719C18.4171 21.8156 20.9952 19.4578 22.3077 16.5H17.6216C17.1702 19.1203 16.3312 21.3094 15.2437 22.7719ZM22.8327 9H17.8358C17.9412 9.96094 17.9992 10.9613 17.9992 12C17.9992 13.0387 17.9412 14.0391 17.8358 15H22.8327C23.0971 14.0437 23.2496 13.0406 23.2496 12C23.2496 10.9594 23.0952 9.95625 22.8327 9ZM7.89365 16.5C8.65537 20.6269 10.3954 23.25 11.9985 23.25C13.6016 23.25 15.3416 20.6269 16.1033 16.5H7.89365ZM5.9999 12C5.9999 10.9613 6.05788 9.96094 6.16326 9H1.16662C0.902196 9.95625 0.749664 10.9594 0.749664 12C0.749664 13.0406 0.902196 14.0437 1.16662 15H6.16396C6.05615 14.0391 5.9999 13.0406 5.9999 12ZM1.69209 16.5C3.00365 19.4995 5.54052 21.8156 8.75615 22.7719C7.66865 21.3094 6.82959 19.1203 6.37959 16.5H1.69209Z" fill="black"/>
</svg>
