<svg width="32" height="32" viewBox="0 0 32 32" fill="none" xmlns="http://www.w3.org/2000/svg">
<path d="M31.155 9.5117L17.02 4.4517C16.3335 4.2062 15.585 4.2062 14.8985 4.4517L0.8025 9.5117C0.3219 9.6867 0 10.1467 0 10.6667C0 11.1867 0.3219 11.6492 0.8025 11.8212L3.8035 12.8967C3.209 13.6867 2.7905 14.6047 2.576 15.5942C2.0025 15.8367 1.6 16.4067 1.6 17.0667C1.6 17.5644 1.8407 17.9912 2.197 18.2847L0.9555 25.7347C0.874 26.2217 1.25 26.6667 1.7445 26.6667H4.6555C5.14985 26.6667 5.526 26.2228 5.4445 25.7352L4.203 18.2852C4.5595 17.9917 4.8 17.5217 4.8 17.0667C4.8 16.5522 4.5413 16.1152 4.164 15.8222C4.3766 14.9342 4.808 14.1312 5.411 13.4707L14.941 16.8822C15.6275 17.1277 16.376 17.1277 17.0625 16.8822L31.1975 11.8222C31.68 11.6467 32 11.1867 32 10.6667C32 10.1467 31.68 9.6867 31.155 9.5117ZM17.555 18.3867C17.085 18.5717 16.545 18.6667 16 18.6667C15.454 18.6667 14.9155 18.5734 14.4 18.389L7.14 15.7917L6.4 22.9317C6.4 24.9967 10.655 26.6667 16 26.6667C21.255 26.6667 25.6 24.9967 25.6 22.9332L24.861 15.7882L17.555 18.3867Z" fill="white"/>
</svg>
