<svg width="32" height="32" viewBox="0 0 32 32" fill="none" xmlns="http://www.w3.org/2000/svg">
<path d="M16.73 13.5367L15.23 14.9112C13.2 16.7717 10.89 15.5067 10.145 14.6967C8.8 13.2267 8.905 10.9517 10.365 9.6117L14.455 5.8667H14.125C11.235 5.8667 8.455 7.0142 6.41 9.0567L1.6 9.0717C0.72 9.0717 0 9.7912 0 10.6707V18.6607C0 19.5402 0.72 20.2627 1.555 20.2627L7.27 20.2597L11.795 24.3507C13.17 25.4692 15.1825 25.2562 16.295 23.8879L17.201 24.6504C17.995 25.2554 19.17 25.1754 19.82 24.382L21.389 22.452L21.6577 22.6769C22.3452 23.2269 23.3517 23.127 23.9077 22.4395L24.3865 21.848C24.9405 21.163 24.8354 20.1605 24.1514 19.605L16.73 13.5367ZM30.4 9.0717L25.6 9.06541C23.551 7.01741 20.772 5.87141 17.875 5.87141L17.445 5.8667C17.045 5.8667 16.664 6.02655 16.364 6.2951L11.45 10.7817C11.445 10.7917 11.44 10.8017 11.44 10.8017C10.6 11.5917 10.62 12.8317 11.33 13.6017C11.8113 14.1267 13.08 14.6827 14.1365 13.7392C14.1365 13.7329 14.149 13.7329 14.1553 13.7267L18.1553 10.0717C18.4803 9.77815 18.9862 9.7969 19.2863 10.1217C19.5863 10.4465 19.5613 10.9527 19.2362 11.2527L17.9303 12.4462L25.2102 18.3512C25.8162 18.8508 26.1853 19.5257 26.3163 20.2502L30.4 20.2517C31.28 20.2517 32 19.5327 32 18.6527V10.6717C32 9.7867 31.285 9.0717 30.4 9.0717Z" fill="white"/>
</svg>
