<svg width="80" height="80" viewBox="0 0 80 80" fill="none" xmlns="http://www.w3.org/2000/svg">
<path d="M63.8125 1.25H16.1875C12.0625 1.25 8.75 4.5625 8.75 8.6875V71.375C8.75 75.5 12.0625 78.8125 16.1875 78.8125H63.875C68 78.8125 71.3125 75.5 71.3125 71.375V8.6875C71.25 4.5625 67.9375 1.25 63.8125 1.25ZM23.125 67.9375V50.3125L31.9375 59.125L23.125 67.9375ZM56.25 68.125H48.0625L48.125 68V37.125C48.125 37.125 50.0625 29.75 23.3125 40.125C23.25 40.25 23.1875 11.5625 23.1875 11.5625L31.875 11.5V29.875C31.875 29.875 56.25 20.25 56.25 37.1875V68.125ZM53 22.5H43.75C47.0625 18.75 50.125 11.875 50.125 11.875H59.6875C59.6875 11.875 58.0625 16.25 53 22.5Z" fill="#9CA3AF"/>
</svg>
