<svg width="24" height="24" viewBox="0 0 24 24" fill="none" xmlns="http://www.w3.org/2000/svg">
<path d="M15.6 11.6063V4.3678C15.6 3.07883 14.5238 2 13.2 2H2.4C1.07812 2 0 3.07883 0 4.3678V11.5725C0 12.9271 1.07812 14.0079 2.4 14.0079L3.6 14.0083V16.044C3.6 16.3441 3.94219 16.5175 4.18125 16.3395L7.28438 14.0084L13.2 14.0041C14.5238 14.0079 15.6 12.9271 15.6 11.6063ZM21.6 6.80314H16.8V11.6063C16.8 13.5902 15.1826 15.2083 13.2 15.2083L9.6 15.2083V16.4084C9.6 17.7311 10.6781 18.7761 11.9663 18.7761L16.6838 18.7759L19.7869 21.1069C20.0588 21.3176 20.4 21.145 20.4 20.8448V18.8095H21.6C22.9219 18.8095 24 17.7307 24 16.4417V9.17094C24 7.8801 22.9238 6.80314 21.6 6.80314Z" fill="black"/>
</svg>
