<svg width="24" height="24" viewBox="0 0 24 24" fill="none" xmlns="http://www.w3.org/2000/svg">
<g clip-path="url(#clip0)">
<path d="M10.5005 23.25C10.5005 23.6672 10.8333 24 11.2505 24H12.7505C13.1665 24 13.5005 23.666 13.5005 23.25V18H10.5005V23.25ZM21.3333 10.5H13.5005L13.499 9H10.499L10.5005 10.5H3.30843C2.91 10.5 2.5289 10.6582 2.24765 10.9395L0.220215 12.975C-0.0727539 13.268 -0.0727539 13.7428 0.220215 14.0353L2.24756 16.0627C2.5289 16.3406 2.90953 16.5 3.30796 16.5H21.3736C21.9947 16.5 22.4986 15.9961 22.4986 15.375V11.625C22.4958 11.0063 21.9942 10.5 21.3333 10.5ZM23.7802 3.97266L21.7528 1.93922C21.4739 1.65844 21.0895 1.5 20.6911 1.5H13.5005V0.75C13.5005 0.333984 13.1665 0 12.7505 0H11.2505C10.8344 0 10.5005 0.333984 10.5005 0.75V1.5H2.62265C2.00156 1.5 1.49765 2.00391 1.49765 2.625V6.375C1.49765 6.99609 2.00156 7.5 2.62265 7.5H20.693C21.0914 7.5 21.472 7.3418 21.7533 7.06055L23.7806 5.0332C24.0755 4.73438 24.0755 4.26562 23.7802 3.97266Z" fill="black"/>
</g>
<defs>
<clipPath id="clip0">
<rect width="24" height="24" fill="white"/>
</clipPath>
</defs>
</svg>
