<svg width="24" height="24" viewBox="0 0 24 24" fill="none" xmlns="http://www.w3.org/2000/svg">
<path d="M2.04999 13H7.52699C7.6981 16.1669 8.70754 19.2314 10.452 21.88C8.26692 21.5368 6.25718 20.4792 4.737 18.8725C3.21683 17.2658 2.27191 15.2007 2.04999 13V13ZM2.04999 11C2.27191 8.79931 3.21683 6.73418 4.737 5.12752C6.25718 3.52085 8.26692 2.46323 10.452 2.12C8.70754 4.76861 7.6981 7.83315 7.52699 11H2.04999ZM21.95 11H16.473C16.3019 7.83315 15.2924 4.76861 13.548 2.12C15.7331 2.46323 17.7428 3.52085 19.263 5.12752C20.7832 6.73418 21.7281 8.79931 21.95 11V11ZM21.95 13C21.7281 15.2007 20.7832 17.2658 19.263 18.8725C17.7428 20.4792 15.7331 21.5368 13.548 21.88C15.2924 19.2314 16.3019 16.1669 16.473 13H21.951H21.95ZM9.52999 13H14.47C14.3054 15.6995 13.4553 18.3124 12 20.592C10.5447 18.3124 9.69458 15.6995 9.52999 13V13ZM9.52999 11C9.69458 8.30052 10.5447 5.68757 12 3.408C13.4553 5.68757 14.3054 8.30052 14.47 11H9.52999Z" fill="black"/>
</svg>
