<svg width="24" height="24" viewBox="0 0 24 24" fill="none" xmlns="http://www.w3.org/2000/svg">
<path d="M6.94 5C6.93974 5.53043 6.72877 6.03904 6.35351 6.41392C5.97825 6.78881 5.46944 6.99927 4.939 6.999C4.40857 6.99874 3.89997 6.78777 3.52508 6.41251C3.1502 6.03725 2.93974 5.52843 2.94 4.998C2.94027 4.46757 3.15124 3.95897 3.5265 3.58408C3.90176 3.20919 4.41057 2.99874 4.941 2.999C5.47144 2.99927 5.98004 3.21023 6.35492 3.58549C6.72981 3.96075 6.94027 4.46957 6.94 5V5ZM7 8.48H3V21H7V8.48ZM13.32 8.48H9.34V21H13.28V14.43C13.28 10.77 18.05 10.43 18.05 14.43V21H22V13.07C22 6.9 14.94 7.13 13.28 10.16L13.32 8.48V8.48Z" fill="black"/>
</svg>
