<svg width="24" height="24" viewBox="0 0 24 24" fill="none" xmlns="http://www.w3.org/2000/svg">
<path d="M8.498 20H15.502C14.8404 21.5823 13.5823 22.8404 12 23.502C10.4177 22.8404 9.15956 21.5823 8.498 20V20ZM18 14.805L20 17.073V19H4V17.073L6 14.805V9C6 5.517 8.504 2.553 12 1.455C15.496 2.553 18 5.517 18 9V14.805ZM12 11C12.5304 11 13.0391 10.7893 13.4142 10.4142C13.7893 10.0391 14 9.53043 14 9C14 8.46957 13.7893 7.96086 13.4142 7.58579C13.0391 7.21072 12.5304 7 12 7C11.4696 7 10.9609 7.21072 10.5858 7.58579C10.2107 7.96086 10 8.46957 10 9C10 9.53043 10.2107 10.0391 10.5858 10.4142C10.9609 10.7893 11.4696 11 12 11Z" fill="black"/>
</svg>
