<svg width="24" height="24" viewBox="0 0 24 24" fill="none" xmlns="http://www.w3.org/2000/svg">
<path d="M15.2062 4.83281L18 6L19.1663 8.79516C19.2281 8.92031 19.3594 9 19.5 9C19.6406 9 19.7695 8.91797 19.834 8.79492L21 6L23.7952 4.83375C23.9203 4.77187 24 4.64062 24 4.5C24 4.35938 23.918 4.23047 23.7949 4.16602L21 3L19.8337 0.205313C19.7719 0.0820312 19.6406 0 19.5 0C19.3594 0 19.2305 0.0820312 19.166 0.205078L18 3L15.2048 4.16625C15.0844 4.23047 15 4.35938 15 4.5C15 4.64062 15.0844 4.77187 15.2062 4.83281ZM23.7938 19.1672L21 18L19.8337 15.2048C19.7719 15.0844 19.6406 15 19.5 15C19.3594 15 19.2305 15.082 19.166 15.2051L18 18L15.2048 19.1663C15.0844 19.2281 15 19.3594 15 19.5C15 19.6406 15.082 19.7695 15.2051 19.834L18 21L19.1663 23.7952C19.2281 23.9156 19.3594 24 19.5 24C19.6406 24 19.7695 23.918 19.834 23.7949L21 21L23.7952 19.8337C23.9203 19.7719 24 19.6406 24 19.5C24 19.3594 23.9203 19.2281 23.7938 19.1672ZM18 11.9813C18 11.7 17.8418 11.4366 17.584 11.3072L12.3105 8.66766L9.67031 3.38391C9.41836 2.87391 8.58609 2.87391 8.33438 3.38391L5.69063 8.66719L0.416016 11.3062C0.158203 11.4375 0 11.7 0 11.9813C0 12.2684 0.158203 12.5259 0.416016 12.6553L5.68945 15.2977L8.33227 20.5805C8.45625 20.8312 8.67656 20.9953 9 20.9953C9.2812 20.9953 9.54469 20.8307 9.66797 20.5787L12.3108 15.2959L17.5842 12.6536C17.8406 12.525 18 12.2719 18 11.9813Z" fill="black"/>
</svg>
