<svg width="24" height="24" viewBox="0 0 24 24" fill="none" xmlns="http://www.w3.org/2000/svg">
<path d="M23.5594 8.55938L21.4383 6.43828C21.1594 6.15938 20.7797 6 20.3812 6H18V3.75C18 2.50781 16.9922 1.5 15.75 1.5H8.25C7.00781 1.5 6 2.50781 6 3.75V6H3.62109C3.22266 6 2.84203 6.1582 2.56078 6.43945L0.439453 8.55938C0.158203 8.84063 0 9.225 0 9.62344V14.25H6V12.75C6 12.3328 6.33281 12 6.75 12H8.25C8.66719 12 9 12.3328 9 12.75V14.25H15V12.75C15 12.3328 15.3328 12 15.75 12H17.25C17.6672 12 18 12.3328 18 12.75V14.25H24V9.62344C24 9.225 23.8406 8.84063 23.5594 8.55938ZM15.75 6H8.25V3.75H15.75V6ZM18 17.25C18 17.666 17.666 18 17.25 18H15.75C15.334 18 15 17.666 15 17.25V15.75H9V17.25C9 17.6672 8.66719 18 8.25 18H6.75C6.33281 18 6 17.6672 6 17.25V15.75H0V21C0 21.8259 0.674062 22.5 1.5 22.5H22.5C23.3259 22.5 24 21.8259 24 21V15.75H18V17.25Z" fill="black"/>
</svg>
