<svg width="24" height="24" viewBox="0 0 24 24" fill="none" xmlns="http://www.w3.org/2000/svg">
<path d="M8.4 12.2C11.0531 12.2 13.2 10.0531 13.2 7.4V2L10.8 3.2L8.4 2L6 3.2L3.6 2V7.4C3.6 10.055 5.74875 12.2 8.4 12.2ZM5.4 6.8H11.4V7.4C11.4 9.05375 10.0538 10.4 8.4 10.4C6.74625 10.4 5.4 9.05375 5.4 7.4V6.8ZM10.3013 13.4H6.49875C2.91038 13.4 0 16.31 0 19.8988C0 20.6187 0.582 21.2 1.29975 21.2H15.4987C16.2188 21.2 16.8 20.6187 16.8 19.8988C16.8 16.31 13.89 13.4 10.3013 13.4ZM20.4 7.4C20.4 5.08025 18.5213 3.2 16.2 3.2C15.5513 3.2 14.9456 3.36069 14.4 3.62675V7.4C14.4 8.56588 14.0518 9.64588 13.4741 10.5676C14.2088 11.2025 15.1538 11.6 16.2 11.6C18.5213 11.6 20.4 9.72125 20.4 7.4ZM17.9663 14H15.1969C16.92 15.4138 18 17.5288 18 19.8988C18 20.3787 17.8575 20.8213 17.625 21.2H22.7663C23.4638 21.2 24 20.66 24 19.9663C24 16.685 21.315 14 17.9663 14Z" fill="black"/>
</svg>
