<svg width="24" height="24" viewBox="0 0 24 24" fill="none" xmlns="http://www.w3.org/2000/svg">
<path d="M11.5 12C14.8164 12 17.5 9.31641 17.5 6C17.5 2.68359 14.8164 0 11.5 0C8.18359 0 5.5 2.68359 5.5 6C5.5 9.31641 8.18594 12 11.5 12ZM15.7516 14.475L13.7491 22.4953L12.25 16.125L13.75 13.5H9.25L10.75 16.125L9.25047 22.4578L7.24844 14.475C3.66766 15.3234 1 18.5344 1 22.3734C1 23.2734 1.7275 24 2.62469 24H20.3734C21.2734 24 22 23.2734 22 22.3734C22 18.5344 19.3328 15.3234 15.7516 14.475Z" fill="black"/>
</svg>
