<svg width="32" height="32" viewBox="0 0 32 32" fill="none" xmlns="http://www.w3.org/2000/svg">
<path d="M15.995 19.2C18.8655 19.2 21.15 16.872 21.15 14C21.15 11.128 18.823 8.79995 15.995 8.79995C13.1245 8.79995 10.84 11.128 10.84 14C10.795 16.87 13.125 19.2 15.995 19.2ZM18.495 20.8H13.505C9.58 20.8 6.4 23.785 6.4 27.465C6.4 28.205 7.035 28.8 7.82 28.8H24.18C24.965 28.8 25.6 28.205 25.6 27.465C25.6 23.785 22.42 20.8 18.495 20.8ZM25.6 11.2C27.809 11.2 29.6 9.40895 29.6 7.19995C29.6 4.99095 27.81 3.19995 25.6 3.19995C23.391 3.19995 21.6 4.99095 21.6 7.19995C21.6 9.40895 23.39 11.2 25.6 11.2ZM9.195 14C9.195 13.7275 9.24412 13.4685 9.27545 13.2045C8.73 12.905 8.13 12.8 7.495 12.8H4.404C1.972 12.8 0 14.89 0 17.465C0 17.98 0.39435 18.4 0.881 18.4H10.856C9.835 17.21 9.195 15.685 9.195 14ZM6.4 11.2C8.609 11.2 10.4 9.40895 10.4 7.19995C10.4 4.99095 8.61 3.19995 6.4 3.19995C4.191 3.19995 2.4 4.99095 2.4 7.19995C2.4 9.40895 4.191 11.2 6.4 11.2ZM27.595 12.8H24.503C23.863 12.8 23.259 12.9518 22.71 13.212C22.74 13.475 22.79 13.73 22.79 14C22.79 15.6855 22.151 17.2105 21.132 18.4H31.117C31.605 18.4 32 17.98 32 17.465C32 14.89 30.03 12.8 27.595 12.8Z" fill="white"/>
</svg>
