<svg width="32" height="32" viewBox="0 0 32 32" fill="none" xmlns="http://www.w3.org/2000/svg">
<path d="M15.3334 16C19.7552 16 23.3334 12.4219 23.3334 8C23.3334 3.57812 19.7552 0 15.3334 0C10.9115 0 7.33337 3.57812 7.33337 8C7.33337 12.4219 10.9146 16 15.3334 16ZM21.0021 19.3L18.3321 29.9937L16.3334 21.5L18.3334 18H12.3334L14.3334 21.5L12.334 29.9438L9.66462 19.3C4.89025 20.4312 1.33337 24.7125 1.33337 29.8312C1.33337 31.0312 2.30337 32 3.49962 32H27.1646C28.3646 32 29.3334 31.0312 29.3334 29.8312C29.3334 24.7125 25.7771 20.4312 21.0021 19.3Z" fill="white"/>
</svg>
