<svg width="24" height="24" viewBox="0 0 24 24" fill="none" xmlns="http://www.w3.org/2000/svg">
<path d="M11.9963 14.4C14.1491 14.4 15.8625 12.654 15.8625 10.5C15.8625 8.34599 14.1173 6.59999 11.9963 6.59999C9.84338 6.59999 8.13 8.34599 8.13 10.5C8.09625 12.6525 9.84375 14.4 11.9963 14.4ZM13.8713 15.6H10.1288C7.185 15.6 4.8 17.8387 4.8 20.5987C4.8 21.1537 5.27625 21.6 5.865 21.6H18.135C18.7238 21.6 19.2 21.1537 19.2 20.5987C19.2 17.8387 16.815 15.6 13.8713 15.6ZM19.2 8.39999C20.8568 8.39999 22.2 7.05674 22.2 5.39999C22.2 3.74324 20.8575 2.39999 19.2 2.39999C17.5433 2.39999 16.2 3.74324 16.2 5.39999C16.2 7.05674 17.5425 8.39999 19.2 8.39999ZM6.89625 10.5C6.89625 10.2957 6.93309 10.1014 6.95659 9.90337C6.5475 9.67874 6.0975 9.59999 5.62125 9.59999H3.303C1.479 9.59999 0 11.1675 0 13.0987C0 13.485 0.295763 13.8 0.66075 13.8H8.142C7.37625 12.9075 6.89625 11.7637 6.89625 10.5ZM4.8 8.39999C6.45675 8.39999 7.8 7.05674 7.8 5.39999C7.8 3.74324 6.4575 2.39999 4.8 2.39999C3.14325 2.39999 1.8 3.74324 1.8 5.39999C1.8 7.05674 3.14325 8.39999 4.8 8.39999ZM20.6963 9.59999H18.3773C17.8973 9.59999 17.4443 9.71388 17.0325 9.90899C17.055 10.1062 17.0925 10.2975 17.0925 10.5C17.0925 11.7641 16.6133 12.9079 15.849 13.8H23.3378C23.7038 13.8 24 13.485 24 13.0987C24 11.1675 22.5225 9.59999 20.6963 9.59999Z" fill="black"/>
</svg>
