<svg width="324" height="40" viewBox="0 0 324 40" fill="none" xmlns="http://www.w3.org/2000/svg">
<path d="M2.33449 25.3231H5.44715C6.73112 25.3231 7.78164 26.3653 7.78164 27.6392V30.7273C7.78164 32.0012 6.73112 33.0435 5.44715 33.0435H2.33449C1.05052 33.0435 0 32.0012 0 30.7273V27.6392C0 26.3653 1.05052 25.3231 2.33449 25.3231Z" fill="#FFC53D"/>
<path d="M174.601 28.5462V24.0105C174.601 23.3928 174.503 22.9682 174.309 22.7752C174.114 22.5822 173.706 22.4857 173.103 22.4857H162.228C159.679 22.4857 158.415 21.1925 158.415 18.5869V12.951C158.415 10.3646 159.679 9.07144 162.228 9.05214H176.779C179.328 9.05214 180.592 10.3453 180.592 12.951V15.9619H174.503V13.4528C174.503 12.7965 174.406 12.3719 174.212 12.1982C174.017 12.0245 173.608 11.928 173.005 11.928H166.138C165.516 11.928 165.126 12.0245 164.932 12.1982C164.737 12.3719 164.64 12.7965 164.64 13.4528V18.085C164.64 18.7413 164.737 19.1659 164.932 19.3396C165.126 19.5133 165.535 19.6098 166.138 19.6098H176.974C179.522 19.6098 180.787 20.903 180.787 23.4893V29.0481C180.787 31.6344 179.522 32.9276 176.974 32.9276H162.383C159.835 32.9276 158.57 31.6344 158.57 29.0481V26.0371H164.66V28.5462C164.66 29.1639 164.757 29.5885 164.951 29.7815C165.146 29.9745 165.554 30.071 166.158 30.071H173.122C173.725 30.071 174.134 29.9745 174.328 29.7815C174.523 29.5885 174.601 29.1639 174.601 28.5462Z" fill="#292929"/>
<path d="M150.575 9.01363H154.777V12.2176H149.466C147.248 12.2176 146.139 13.4529 146.139 15.9041V32.9276H139.914V9.05223H146.139V12.0053C146.742 10.0173 148.221 9.01363 150.575 9.01363Z" fill="#292929"/>
<path d="M112.639 9.05214H129.175C131.724 9.05214 132.988 10.3453 132.988 12.951V22.1576H115.052V28.5076C115.052 29.1639 115.149 29.5885 115.324 29.7622C115.499 29.9359 115.908 30.0324 116.55 30.0324H125.304C125.926 30.0324 126.316 29.9359 126.51 29.7622C126.705 29.5885 126.802 29.1639 126.802 28.5076V25.8055H132.891V29.0481C132.891 31.6344 131.627 32.9276 129.078 32.9276H112.639C110.091 32.9276 108.826 31.6344 108.826 29.0481V12.951C108.826 10.3453 110.091 9.05214 112.639 9.05214ZM115.052 19.2431H126.899V13.4914C126.899 12.8738 126.802 12.4491 126.607 12.2561C126.413 12.0631 126.004 11.9666 125.401 11.9666H116.55C115.908 11.9666 115.499 12.0631 115.324 12.2561C115.149 12.4491 115.052 12.8545 115.052 13.4914V19.2431Z" fill="#292929"/>
<path d="M95.2278 0H101.473V32.9276H95.2278V31.4028C94.8387 32.4258 93.9438 32.9276 92.5237 32.9276H81.61C79.0615 32.9276 77.797 31.6344 77.797 29.0481V12.951C77.797 10.3647 79.0615 9.07149 81.61 9.05219H92.5237C93.9438 9.05219 94.8387 9.55402 95.2278 10.577V0ZM85.5202 30.0324H93.5353C94.1578 30.0324 94.5858 29.9166 94.8387 29.6657C95.0916 29.4148 95.2278 29.0095 95.2278 28.4111V13.5879C95.2278 12.9896 95.0916 12.5843 94.8387 12.3334C94.5858 12.0825 94.1384 11.9667 93.5353 11.9667H85.5202C84.8782 11.9667 84.4697 12.0632 84.2946 12.2562C84.1195 12.4492 84.0223 12.8545 84.0223 13.4914V28.5077C84.0223 29.1639 84.1195 29.5885 84.2946 29.7622C84.4697 29.9359 84.8782 30.0324 85.5202 30.0324Z" fill="#292929"/>
<path d="M50.8141 9.05214H66.9999C69.5483 9.05214 70.8129 10.3453 70.8129 12.951V29.0481C70.8129 31.6344 69.5483 32.9276 66.9999 32.9276H50.8141C48.2656 32.9276 47.0011 31.6344 47.0011 29.0481V12.951C47.0011 10.3453 48.2656 9.05214 50.8141 9.05214ZM64.6459 28.4883V13.4914C64.6459 12.8738 64.5486 12.4491 64.3736 12.2561C64.1985 12.0631 63.7899 11.9666 63.148 11.9666H54.6854C54.0824 11.9666 53.6738 12.0631 53.4793 12.2561C53.2847 12.4491 53.1875 12.8545 53.1875 13.4914V28.5076C53.1875 29.1639 53.2847 29.5885 53.4793 29.7622C53.6738 29.9359 54.0824 30.0324 54.6854 30.0324H63.148C63.7899 30.0324 64.1985 29.9359 64.3736 29.7622C64.5486 29.5692 64.6459 29.1639 64.6459 28.4883Z" fill="#292929"/>
<path d="M40.8147 12.8932H34.2976V6.73617C34.2976 6.07994 34.2003 5.65531 34.0252 5.4816C33.8501 5.30789 33.4416 5.21139 32.7996 5.21139H23.3254C22.6835 5.21139 22.2749 5.30789 22.0998 5.4816C21.9247 5.65531 21.8275 6.07994 21.8275 6.73617V28.4884C21.8275 29.1447 21.9053 29.5693 22.0998 29.743C22.2944 29.9167 22.6835 30.0132 23.3254 30.0132H32.7996C33.4416 30.0132 33.8501 29.9167 34.0252 29.743C34.2003 29.5693 34.2976 29.1447 34.2976 28.4884V22.3314H40.8147V29.0288C40.8147 31.6152 39.5502 32.9083 37.0017 32.9083H19.1039C16.5554 32.9083 15.2909 31.6152 15.2909 29.0288V6.19574C15.2909 3.6094 16.5554 2.31624 19.1039 2.31624H36.9822C39.5307 2.31624 40.7952 3.6094 40.7952 6.19574V12.8932H40.8147Z" fill="#292929"/>
<path d="M214.188 13.2244H207.617V7.1374C207.617 6.48812 207.52 6.08233 207.325 5.92001C207.163 5.72523 206.757 5.62784 206.109 5.62784H196.569C195.92 5.62784 195.499 5.72523 195.304 5.92001C195.142 6.08233 195.061 6.48812 195.061 7.1374V28.6609C195.061 29.3102 195.142 29.7322 195.304 29.927C195.499 30.0893 195.92 30.1704 196.569 30.1704H206.109C206.757 30.1704 207.163 30.0893 207.325 29.927C207.52 29.7322 207.617 29.3102 207.617 28.6609V22.5739H214.188V29.1965C214.188 31.7612 212.906 33.0435 210.343 33.0435H192.335C189.772 33.0435 188.49 31.7612 188.49 29.1965V6.60175C188.49 4.03711 189.772 2.75479 192.335 2.75479H210.343C212.906 2.75479 214.188 4.03711 214.188 6.60175V13.2244Z" fill="#FFC53D"/>
<path d="M228.208 30.1704H236.287C236.903 30.1704 237.341 30.0568 237.601 29.8296C237.86 29.5699 237.99 29.1478 237.99 28.5635V13.9061C237.99 13.3217 237.86 12.916 237.601 12.6887C237.341 12.429 236.903 12.2991 236.287 12.2991H228.208C227.559 12.2991 227.137 12.3965 226.942 12.5913C226.78 12.7861 226.699 13.1919 226.699 13.8087V28.6609C226.699 29.3102 226.78 29.7322 226.942 29.927C227.137 30.0893 227.559 30.1704 228.208 30.1704ZM237.99 9.4261H244.268V33.0435H237.99V31.5339C237.601 32.5403 236.692 33.0435 235.265 33.0435H224.265C221.702 33.0435 220.42 31.7612 220.42 29.1965V13.2731C220.42 10.7084 221.702 9.4261 224.265 9.4261H235.265C236.692 9.4261 237.601 9.92929 237.99 10.9357V9.4261Z" fill="#FFC53D"/>
<path d="M278.415 9.4261H288.49C291.053 9.4261 292.335 10.7084 292.335 13.2731V33.0435H286.056V13.8087C286.056 13.1919 285.959 12.7861 285.764 12.5913C285.602 12.3965 285.196 12.2991 284.547 12.2991H277.344C276.176 12.2991 275.592 12.8997 275.592 14.1009V33.0435H269.265V13.8087C269.265 13.1919 269.168 12.7861 268.973 12.5913C268.779 12.3965 268.373 12.2991 267.756 12.2991H260.018C258.882 12.2991 258.315 12.8348 258.315 13.9061V33.0435H252.036V9.4261H258.315V10.9357C258.704 9.92929 259.612 9.4261 261.04 9.4261H271.747C273.629 9.4261 274.814 10.1078 275.3 11.4713C275.69 10.1078 276.728 9.4261 278.415 9.4261Z" fill="#FFC53D"/>
<path d="M317.619 28.6609V13.8087C317.619 13.1919 317.522 12.7861 317.327 12.5913C317.165 12.3965 316.759 12.2991 316.11 12.2991H307.642C306.506 12.2991 305.938 12.851 305.938 13.9548V28.5635C305.938 29.6348 306.506 30.1704 307.642 30.1704H316.11C316.759 30.1704 317.165 30.0893 317.327 29.927C317.522 29.7322 317.619 29.3102 317.619 28.6609ZM308.664 9.4261H320.053C322.616 9.4261 323.897 10.7084 323.897 13.2731V29.1965C323.897 31.7612 322.616 33.0435 320.053 33.0435H308.664C307.236 33.0435 306.328 32.5403 305.938 31.5339V39.9096H299.66V9.4261H305.89V11.1304C306.279 9.99421 307.204 9.4261 308.664 9.4261Z" fill="#FFC53D"/>
</svg>
