<svg width="849" height="184" viewBox="0 0 849 184" fill="none" xmlns="http://www.w3.org/2000/svg">
<path d="M44.0271 135.3C19.1061 135.3 10.3838 120.451 10.3838 93.1422C10.3838 66.4559 19.1061 49.9458 44.0271 49.9458C51.5034 49.9458 56.903 50.7765 60.1219 52.0225C60.6411 52.1264 60.745 52.4379 60.745 53.0609L60.1219 62.4063C60.1219 62.8216 59.8104 63.237 59.0836 62.9255C56.1761 61.8871 50.6727 61.0564 45.5847 61.0564C30.3206 61.0564 26.1671 69.3634 26.1671 93.246C26.1671 115.883 30.7359 123.774 45.5847 123.774C49.9459 123.774 55.3454 123.047 58.5644 122.321C59.0836 122.113 59.9143 121.905 60.1219 122.736L61.0565 131.77C61.1603 132.6 60.9526 132.808 60.5373 133.12C56.3838 134.262 50.1535 135.196 43.9233 135.196L44.0271 135.3ZM95.842 120.036C98.3341 122.632 101.657 123.774 109.964 123.774C118.479 123.774 121.698 122.632 124.086 120.036C128.032 115.883 130.005 104.46 130.005 91.8961C130.005 79.1241 128.032 69.1557 124.086 65.0022C121.698 62.3024 118.479 61.2641 110.172 61.2641C101.657 61.2641 98.3341 62.4063 95.842 65.0022C91.8962 69.1557 90.0271 79.1241 90.0271 91.8961C90.0271 104.357 91.8962 115.779 95.842 119.932V120.036ZM135.819 126.889C130.42 132.704 122.321 135.196 109.86 135.196C97.1919 135.196 89.8195 132.704 84.4199 126.889C77.3214 116.647 73.816 104.342 74.4515 91.8961C74.4515 76.3205 78.605 64.1715 84.4199 57.8374C89.8195 51.9187 97.9188 49.9458 110.172 49.9458C122.84 49.9458 130.42 52.0225 135.819 57.8374C142.774 67.7825 146.176 79.7806 145.476 91.8961C145.476 107.16 141.323 120.451 135.819 126.889ZM217.228 64.483C217.228 63.7562 216.813 63.1331 215.982 62.7178C213.801 61.8871 208.506 61.2641 204.041 61.2641C186.596 61.2641 181.093 65.8329 181.093 91.5846C181.196 116.921 184 123.878 204.768 123.878C208.09 123.878 213.075 123.774 215.878 122.84C217.228 122.321 217.228 121.697 217.228 121.074V64.483ZM165.309 91.5846C165.309 62.4063 176.731 49.9458 203.729 49.9458C209.233 49.9458 214.113 50.9842 216.19 50.9842C216.917 50.9842 217.124 50.3611 217.124 49.6343V22.2212C217.124 21.2866 217.747 20.7675 218.786 20.7675H230.623C231.661 20.7675 232.284 21.2866 232.284 22.2212V130.212C232.284 131.043 231.661 131.666 230.623 131.874C222.073 134.067 213.283 135.183 204.456 135.196C173.201 135.196 165.309 123.047 165.309 91.5846ZM271.639 86.6004H306.632C308.086 86.6004 308.605 86.3927 308.605 81.2009C308.605 67.3905 304.451 61.0564 290.641 61.0564C274.546 61.0564 270.704 71.4401 270.704 85.562C270.704 86.1851 270.808 86.6004 271.639 86.6004ZM293.756 135.093C262.501 135.093 255.025 115.986 255.025 92.5191C255.025 68.2212 264.163 49.9458 290.641 49.9458C316.6 49.9458 322.623 65.2099 322.623 85.562V89.8194C322.623 96.0496 321.169 97.3995 318.47 97.3995H271.639C270.808 97.3995 270.6 97.711 270.6 98.5417C270.6 118.894 280.361 123.878 296.975 123.878C304.452 123.878 312.551 121.801 317.431 119.725H318.262C318.989 119.725 319.508 120.036 319.716 120.555L320.339 128.862V129.174C320.339 129.797 320.131 130.524 319.404 130.835C311.278 133.892 302.644 135.372 293.964 135.196L293.756 135.093ZM437.883 133.535H417.427C416.7 133.535 416.388 133.327 416.077 132.497C410.698 110.169 405.61 87.7731 400.813 65.3137C400.501 64.483 400.293 64.2754 399.151 64.2754C397.801 64.2754 397.49 64.483 397.178 65.3137C392.817 85.562 384.095 119.309 380.357 132.497C380.045 133.327 379.526 133.743 378.488 133.743H358.447C357.928 133.743 357.409 133.016 357.201 132.289C349.564 105.994 342.604 79.5064 336.33 52.8532C336.33 51.8149 336.537 51.5033 337.368 51.5033H351.282C352.113 51.5033 352.217 52.0225 352.321 52.8532C356.866 75.4707 361.955 97.9753 367.585 120.348C367.585 121.282 368.312 121.386 369.35 121.386C370.804 121.386 371.219 121.282 371.323 120.348C376.743 97.926 381.832 75.4254 386.587 52.8532C386.795 51.8149 387.21 51.5033 387.937 51.5033H409.743C410.47 51.5033 411.093 52.0225 411.093 52.8532C415.038 72.2708 422.826 105.499 426.253 120.348C426.564 121.282 427.291 121.386 428.33 121.386C429.576 121.386 429.887 121.282 430.199 120.348C434.352 105.291 442.659 72.3747 446.605 52.8532C446.917 51.8149 447.436 51.5033 448.163 51.5033H461.142C461.765 51.5033 462.181 52.1264 462.181 52.9571C460.104 62.9255 445.151 116.402 439.856 132.497C439.544 133.327 439.129 133.743 438.09 133.743L437.883 133.535ZM521.264 97.1918C521.264 96.465 520.849 96.1535 520.226 96.1535H505.896C492.605 96.1535 489.178 98.9571 489.178 111.314C489.178 123.359 491.878 124.813 507.558 124.813C511.624 124.886 515.688 124.608 519.707 123.982C521.16 123.774 521.16 123.359 521.16 122.944L521.264 97.1918ZM484.298 62.9255C483.26 63.1331 482.117 63.1331 481.91 62.3024L480.871 54.6185C480.56 53.7878 480.871 52.8532 481.702 52.5417C489.713 50.5514 497.955 49.6434 506.208 49.8419C525.833 49.8419 535.905 56.6952 535.905 74.7629V130.108C535.905 131.147 535.49 131.77 533.828 132.497C525.664 134.407 517.291 135.279 508.907 135.093C481.494 135.093 473.603 129.589 473.603 112.975C473.603 98.1264 477.237 90.2347 500.497 87.4311L520.433 85.1467C520.953 84.939 521.472 84.8352 521.472 84.1083V76.4243C521.472 64.483 516.28 61.5756 502.781 61.5756C497.07 61.5756 489.386 62.3024 484.402 62.9255H484.298ZM563.318 53.2686C576.232 50.195 589.571 49.3175 602.777 50.6726C603.607 50.7765 603.815 51.1918 603.815 52.0225L603.088 61.6794C603.088 62.3024 602.673 62.5101 602.05 62.4063C597.896 61.6794 593.743 61.3679 588.551 61.3679C585.747 61.3679 580.244 61.6794 577.856 62.9255C576.921 63.3408 576.817 64.0677 576.817 64.7945V132.185C576.817 133.223 576.09 133.846 574.948 133.535H563.214C562.176 133.535 561.657 133.016 561.657 132.185V54.6185C561.657 53.7878 562.28 53.2686 563.214 53.2686H563.318ZM611.084 133.535C610.564 133.535 610.149 133.327 610.149 132.6L610.876 122.736C610.876 122.321 611.395 121.905 612.122 122.113C617.771 123.181 623.506 123.737 629.255 123.774C642.754 123.774 645.038 122.321 645.038 112.664C645.038 106.953 641.716 103.941 628.84 95.0113C615.86 85.7697 610.876 82.0316 610.876 72.167C610.876 56.176 618.144 49.9458 638.912 49.9458C646.284 49.9458 652.619 50.3611 656.98 51.1918C657.395 51.1918 657.81 51.5033 657.81 52.2302L657.187 61.9909C657.187 62.5101 656.564 62.8216 655.837 62.7178C651.788 61.9909 645.869 61.2641 640.573 61.2641C628.944 61.2641 624.998 61.9909 624.998 70.6094C624.998 77.255 628.424 79.5395 641.404 87.8465C655.007 96.5688 659.472 102.591 659.472 111.833C659.472 130.004 651.165 135.196 631.747 135.196C624.797 135.273 617.852 134.787 610.98 133.743" fill="#231F20"/>
<path d="M764.244 142.05C764.786 141.681 765.399 141.43 766.045 141.314C766.69 141.198 767.352 141.219 767.989 141.376C768.625 141.533 769.222 141.822 769.74 142.224C770.257 142.626 770.684 143.133 770.993 143.711C771.958 142.704 773.275 142.108 774.669 142.05C776.062 141.992 777.424 142.476 778.47 143.4C778.695 142.579 779.095 141.817 779.642 141.166C780.189 140.514 780.87 139.988 781.639 139.623C782.408 139.259 783.246 139.064 784.097 139.053C784.948 139.041 785.791 139.214 786.569 139.558C786.569 136.027 789.476 133.327 792.903 133.12C792.001 131.23 791.877 129.062 792.556 127.082C793.236 125.101 794.665 123.466 796.537 122.528C795.454 121.376 794.817 119.875 794.741 118.296C794.665 116.716 795.154 115.161 796.122 113.91C794.814 113.202 793.809 112.042 793.293 110.648C792.777 109.253 792.786 107.718 793.318 106.33C792.563 106.255 791.832 106.026 791.17 105.655C790.508 105.285 789.929 104.782 789.471 104.177C789.013 103.573 788.684 102.88 788.507 102.142C788.329 101.405 788.305 100.639 788.438 99.8917H787.607C785.53 99.8917 783.765 98.5418 783.454 96.5689V96.465C782.913 96.8369 782.289 97.0716 781.637 97.1489C780.985 97.2262 780.324 97.1438 779.711 96.9088C779.098 96.6737 778.551 96.2931 778.118 95.7998C777.684 95.3064 777.377 94.7151 777.223 94.0768C776.87 94.2589 776.479 94.354 776.081 94.354C775.684 94.354 775.292 94.2589 774.939 94.0768C774.591 95.455 773.873 96.7119 772.862 97.7111C773.188 97.8613 773.478 98.0801 773.712 98.3526C773.945 98.6251 774.117 98.9448 774.216 99.2899C774.314 99.635 774.337 99.9973 774.283 100.352C774.228 100.707 774.098 101.046 773.901 101.345C774.575 101.521 775.193 101.868 775.694 102.353C776.196 102.837 776.563 103.443 776.762 104.112C776.96 104.78 776.983 105.488 776.827 106.168C776.671 106.848 776.343 107.476 775.874 107.991C776.607 108.342 777.23 108.886 777.677 109.564C778.124 110.243 778.377 111.031 778.409 111.843C778.441 112.655 778.251 113.46 777.859 114.172C777.467 114.884 776.888 115.475 776.185 115.883C776.6 116.402 777.016 116.817 777.223 117.544C777.609 118.295 777.816 119.125 777.829 119.969C777.843 120.813 777.662 121.649 777.3 122.412C776.939 123.174 776.407 123.844 775.745 124.368C775.084 124.893 774.311 125.258 773.485 125.436C773.963 126.402 774.177 127.478 774.106 128.553C774.035 129.629 773.682 130.667 773.081 131.562C772.481 132.458 771.655 133.179 770.687 133.653C769.718 134.127 768.642 134.337 767.567 134.262C767.67 135.614 767.358 136.966 766.671 138.135C765.984 139.304 764.956 140.236 763.725 140.804L764.244 142.154" fill="#B1361E"/>
<path d="M826.027 107.991C825.196 109.341 823.95 110.275 822.393 110.691C823.011 111.541 823.373 112.551 823.435 113.601C823.497 114.651 823.257 115.696 822.744 116.614C822.23 117.531 821.465 118.283 820.538 118.779C819.611 119.275 818.561 119.495 817.512 119.413V119.205C817.712 120.043 817.676 120.92 817.409 121.738C817.142 122.557 816.654 123.286 815.998 123.844C815.343 124.403 814.546 124.769 813.695 124.904C812.845 125.038 811.974 124.935 811.178 124.605C811.081 125.419 810.727 126.18 810.166 126.778C809.606 127.376 808.869 127.779 808.063 127.928C808.261 128.817 808.261 129.738 808.063 130.628C807.803 132.676 806.76 134.543 805.154 135.84C803.547 137.137 801.502 137.762 799.445 137.585C799.858 138.837 799.89 140.184 799.535 141.454C799.181 142.724 798.456 143.86 797.454 144.718C796.452 145.575 795.218 146.115 793.908 146.268C792.598 146.422 791.273 146.182 790.099 145.58C789.977 146.689 789.543 147.741 788.849 148.614C788.154 149.487 787.227 150.146 786.174 150.515C785.121 150.884 783.986 150.948 782.898 150.7C781.81 150.451 780.815 149.9 780.027 149.111C779.65 150.112 778.988 150.982 778.124 151.613C777.259 152.245 776.23 152.61 775.161 152.665C774.092 152.72 773.03 152.463 772.105 151.923C771.181 151.384 770.433 150.587 769.955 149.63C769.318 150.18 768.544 150.548 767.716 150.694C766.887 150.841 766.034 150.761 765.247 150.463C764.46 150.166 763.768 149.661 763.244 149.002C762.721 148.344 762.384 147.556 762.271 146.722L760.506 147.034C759.556 147.011 758.649 146.638 757.959 145.986C757.269 145.334 756.844 144.45 756.767 143.503C755.937 144.957 754.691 145.995 753.029 146.619C748.876 148.28 744.411 146.307 742.749 142.465C741.845 143.402 740.684 144.053 739.413 144.336C738.141 144.619 736.815 144.523 735.598 144.058C734.381 143.593 733.327 142.781 732.568 141.723C731.809 140.664 731.377 139.406 731.327 138.104C730.285 138.533 729.143 138.655 728.033 138.456C726.924 138.258 725.895 137.747 725.066 136.984C724.237 136.22 723.643 135.236 723.355 134.147C723.066 133.058 723.094 131.909 723.436 130.835C722.37 130.992 721.283 130.832 720.307 130.376C719.331 129.921 718.511 129.189 717.947 128.271C717.384 127.354 717.101 126.291 717.136 125.215C717.17 124.139 717.519 123.096 718.14 122.217C717.343 121.918 716.643 121.407 716.115 120.739C715.588 120.072 715.252 119.273 715.145 118.428C715.038 117.584 715.164 116.727 715.509 115.949C715.854 115.171 716.404 114.502 717.102 114.014C716.333 113.468 715.792 112.658 715.581 111.739C715.37 110.82 715.505 109.856 715.959 109.029H716.063C714.993 108.841 713.991 108.375 713.156 107.679C711.496 106.402 710.395 104.531 710.086 102.459C709.776 100.387 710.281 98.2762 711.494 96.5689C710.228 96.2683 709.077 95.6023 708.185 94.6535C707.294 93.7047 706.701 92.5149 706.48 91.2319C706.258 89.9489 706.419 88.6291 706.941 87.4366C707.464 86.244 708.325 85.2311 709.418 84.5237C708.519 83.8343 707.838 82.9017 707.454 81.8366C707.07 80.7714 706.999 79.6185 707.251 78.5145C707.502 77.4105 708.065 76.4018 708.872 75.608C709.68 74.8142 710.698 74.2687 711.806 74.0361C711.163 73.1934 710.777 72.1829 710.695 71.1262C710.613 70.0695 710.837 69.0115 711.342 68.0794C711.846 67.1472 712.609 66.3806 713.539 65.8716C714.468 65.3625 715.525 65.1328 716.582 65.2099V65.3138C716.418 64.4784 716.485 63.6141 716.776 62.814C717.067 62.0139 717.571 61.3086 718.234 60.7741C718.897 60.2397 719.693 59.8964 720.536 59.7815C721.38 59.6665 722.239 59.7843 723.02 60.1219C723.096 59.2897 723.441 58.5049 724.004 57.8865C724.566 57.2681 725.314 56.8499 726.135 56.6953L726.343 57.0068C726.007 55.7726 725.973 54.4759 726.242 53.2255C726.511 51.9751 727.076 50.8076 727.89 49.8209C728.704 48.8341 729.742 48.057 730.919 47.5548C732.095 47.0526 733.375 46.8399 734.65 46.9345L734.339 44.6501C734.391 43.5407 734.721 42.462 735.297 41.5128C735.874 40.5636 736.679 39.774 737.64 39.2163C738.6 38.6586 739.685 38.3505 740.796 38.3202C741.906 38.2899 743.006 38.5384 743.995 39.0429C744.102 37.9125 744.531 36.8366 745.232 35.9434C745.933 35.0502 746.876 34.3774 747.948 34.0053C749.021 33.6332 750.178 33.5774 751.281 33.8446C752.385 34.1118 753.388 34.6908 754.172 35.5124C754.549 34.5109 755.211 33.6412 756.075 33.0098C756.939 32.3785 757.969 32.0129 759.038 31.9578C760.107 31.9027 761.169 32.1605 762.093 32.6996C763.018 33.2388 763.765 34.0358 764.244 34.9932C764.896 34.4667 765.677 34.1251 766.506 34.0042C767.335 33.8833 768.181 33.9875 768.956 34.306C769.731 34.6245 770.406 35.1455 770.911 35.8145C771.415 36.4834 771.731 37.2757 771.824 38.1084C772.38 37.8165 772.999 37.6655 773.628 37.6685C774.256 37.6715 774.873 37.8285 775.427 38.1257C775.98 38.4228 776.452 38.8512 776.802 39.3731C777.151 39.8951 777.367 40.4948 777.431 41.1196C778.262 39.6659 779.508 38.6275 781.169 37.9007C785.323 36.3431 789.684 38.316 791.345 42.158C792.244 41.1852 793.412 40.503 794.701 40.1989C795.99 39.8948 797.341 39.9827 798.579 40.4514C799.818 40.92 800.888 41.748 801.653 42.8292C802.418 43.9103 802.842 45.1952 802.871 46.5192C803.913 46.0905 805.056 45.9682 806.165 46.1667C807.274 46.3651 808.304 46.876 809.133 47.6394C809.962 48.4028 810.555 49.3869 810.844 50.476C811.133 51.5652 811.105 52.7141 810.763 53.7878C811.82 53.6553 812.893 53.8324 813.851 54.2976C814.809 54.7628 815.612 55.4962 816.162 56.4086C816.711 57.3211 816.984 58.3735 816.948 59.4382C816.911 60.5028 816.566 61.5339 815.955 62.4063C817.097 62.8217 818.032 63.6524 818.551 64.5869C819.485 66.6637 818.966 69.1558 817.097 70.6095C817.866 71.1554 818.407 71.9649 818.618 72.884C818.828 73.8031 818.694 74.7675 818.239 75.5937C819.504 75.9188 820.67 76.5488 821.635 77.4285C822.6 78.3082 823.335 79.4109 823.775 80.6402C824.216 81.8695 824.348 83.188 824.162 84.4804C823.975 85.7728 823.475 86.9998 822.704 88.0542C823.457 88.2082 824.166 88.5274 824.781 88.9887C825.702 89.5935 826.459 90.4179 826.982 91.3876C827.505 92.3574 827.779 93.4421 827.779 94.544C827.779 95.646 827.505 96.7307 826.982 97.7004C826.459 98.6702 825.702 99.4945 824.781 100.099C825.953 101.007 826.743 102.321 826.993 103.782C827.243 105.244 826.935 106.746 826.131 107.991H826.027ZM831.946 20.8713H700.799C699.119 20.8713 697.508 21.5387 696.32 22.7265C695.132 23.9144 694.465 25.5255 694.465 27.2054V156.691C694.465 160.325 697.269 163.233 700.799 163.233H831.946C835.58 163.233 838.488 160.325 838.488 156.691V27.2054C838.488 23.7788 835.58 20.8713 831.946 20.8713Z" fill="#B1361E"/>
<path d="M763.102 40.912C762.137 41.9195 760.82 42.5147 759.426 42.5728C758.032 42.6308 756.67 42.1473 755.625 41.2235C755.397 42.0306 755 42.7799 754.46 43.4218C753.92 44.0637 753.25 44.5836 752.494 44.9469C751.738 45.3101 750.913 45.5086 750.074 45.529C749.236 45.5495 748.403 45.3915 747.63 45.0655C747.579 46.7392 746.899 48.3321 745.724 49.5258C744.55 50.7194 742.968 51.4257 741.296 51.5034C742.197 53.3931 742.322 55.5611 741.642 57.5416C740.963 59.522 739.533 61.1568 737.661 62.0948C738.745 63.247 739.382 64.7478 739.458 66.3275C739.534 67.9072 739.044 69.4623 738.077 70.7133C739.384 71.4214 740.39 72.5808 740.906 73.9755C741.422 75.3702 741.413 76.9049 740.88 78.2935C741.626 78.3809 742.346 78.6199 742.996 78.996C743.646 79.3721 744.212 79.8772 744.66 80.4803C745.107 81.0834 745.427 81.7716 745.598 82.5027C745.769 83.2338 745.789 83.9923 745.657 84.7314H746.488C748.564 84.7314 750.433 86.0813 750.641 88.0542C751.189 87.6825 751.82 87.4509 752.479 87.3797C753.137 87.3085 753.803 87.3999 754.418 87.6459C755.033 87.8918 755.578 88.2849 756.006 88.7906C756.434 89.2962 756.731 89.8991 756.871 90.5463C757.208 90.3313 757.591 90.2001 757.988 90.164C758.386 90.1279 758.786 90.1878 759.156 90.3386C759.42 88.9637 760.027 87.6779 760.921 86.6005L760.194 85.6659C759.779 84.9391 759.986 84.0045 760.194 83.2777C759.528 83.0888 758.921 82.7323 758.432 82.2421C757.943 81.752 757.587 81.1445 757.4 80.4779C757.213 79.8113 757.199 79.1077 757.361 78.4344C757.523 77.7611 757.855 77.1405 758.325 76.6321C757.571 76.2818 756.93 75.728 756.474 75.0331C756.018 74.3382 755.765 73.5297 755.743 72.6987C755.721 71.8677 755.932 71.0472 756.352 70.3295C756.771 69.6118 757.383 69.0255 758.117 68.6366C757.398 67.9556 756.876 67.0933 756.607 66.1404C756.337 65.1876 756.329 64.1796 756.584 63.2227C756.839 62.2659 757.348 61.3956 758.056 60.7036C758.765 60.0117 759.647 59.5237 760.609 59.2912C760.1 58.313 759.863 57.2152 759.925 56.1138C759.988 55.0124 760.346 53.9482 760.963 53.0336C761.58 52.119 762.432 51.3879 763.43 50.9175C764.428 50.4472 765.534 50.2549 766.632 50.3612C766.528 49.009 766.841 47.6576 767.528 46.4882C768.215 45.3189 769.243 44.3876 770.474 43.8194L769.955 42.4695C769.182 43.1517 768.182 43.5218 767.151 43.5079C765.386 43.5079 764.036 42.3657 763.102 40.912ZM811.178 89.7156C810.121 88.9069 809.282 87.8471 808.738 86.6322C808.194 85.4173 807.962 84.0858 808.063 82.7585C806.512 83.0838 804.896 82.8441 803.506 82.0824C802.116 81.3208 801.044 80.0875 800.483 78.605C799.222 79.2846 797.763 79.5009 796.359 79.2163C794.956 78.9318 793.696 78.1643 792.799 77.0474C792.344 77.6641 791.765 78.1788 791.099 78.5587C790.433 78.9386 789.696 79.1752 788.933 79.2534C788.171 79.3316 787.4 79.2497 786.671 79.0128C785.942 78.776 785.271 78.3895 784.7 77.8781L784.284 78.7088C783.759 79.5353 782.976 80.166 782.057 80.5038C781.137 80.8415 780.132 80.8676 779.196 80.5779C779.196 81.4086 778.885 82.2393 778.47 82.8623C778.003 83.6096 777.299 84.1791 776.471 84.4802C775.643 84.7813 774.738 84.7966 773.901 84.5237C773.902 84.8763 773.829 85.2252 773.686 85.5474C773.543 85.8696 773.333 86.1577 773.07 86.3928C773.901 87.3273 774.628 88.4696 775.043 89.7156L776.081 89.4041C777.016 89.4041 777.847 89.9233 778.158 90.6501C778.626 90.1219 779.225 89.7252 779.893 89.4994C780.562 89.2737 781.278 89.2267 781.971 89.3631C782.664 89.4995 783.309 89.8146 783.842 90.2772C784.375 90.7397 784.778 91.3336 785.011 92C785.814 91.3924 786.811 91.0972 787.815 91.1693C788.963 91.2228 790.046 91.7167 790.839 92.5483C791.632 93.3799 792.073 94.4853 792.072 95.6343C793.058 95.2295 794.139 95.1193 795.186 95.3172C796.233 95.5151 797.199 96.0125 797.969 96.7491C798.739 97.4857 799.278 98.4298 799.521 99.4668C799.765 100.504 799.702 101.589 799.341 102.591C800.403 102.648 801.433 102.981 802.327 103.556C803.222 104.132 803.952 104.93 804.444 105.873C804.937 106.816 805.175 107.871 805.136 108.935C805.097 109.998 804.782 111.033 804.221 111.937C805.71 112.659 806.875 113.911 807.49 115.447C808.104 116.984 808.124 118.694 807.544 120.244H808.271C808.257 119.622 808.368 119.003 808.596 118.424C808.825 117.845 809.167 117.317 809.602 116.872C810.037 116.427 810.557 116.074 811.131 115.833C811.705 115.591 812.321 115.467 812.944 115.467C812.591 114.105 812.785 112.659 813.483 111.437C814.181 110.215 815.329 109.314 816.682 108.926C816.073 108.312 815.605 107.572 815.313 106.758C815.021 105.944 814.91 105.076 814.989 104.215C815.069 103.354 815.335 102.52 815.771 101.773C816.207 101.026 816.802 100.384 817.512 99.8917C816.14 98.9594 815.166 97.5475 814.781 95.9335C814.397 94.3195 814.631 92.62 815.436 91.1693C813.934 91.1256 812.483 90.6177 811.282 89.7156" fill="#B1361E"/>
<path d="M811.594 71.544L812.113 71.0249C811.532 70.7333 811.019 70.3238 810.606 69.8227C810.192 69.3216 809.888 68.7398 809.712 68.1144C809.536 67.4891 809.493 66.8339 809.584 66.1908C809.676 65.5477 809.9 64.9307 810.244 64.3793C808.906 63.9687 807.774 63.0637 807.08 61.8484C806.385 60.6331 806.18 59.1988 806.506 57.8375C805.675 58.0517 804.808 58.0829 803.964 57.9289C803.121 57.7749 802.321 57.4394 801.619 56.9455C800.918 56.4517 800.333 55.8115 799.903 55.069C799.474 54.3266 799.211 53.4997 799.133 52.6456C796.018 54.0993 792.176 52.9571 790.515 50.0497C789.302 51.7519 787.471 52.9116 785.414 53.2803C783.356 53.6491 781.236 53.1976 779.508 52.0226C779.01 53.5215 777.995 54.7942 776.644 55.6124C775.293 56.4306 773.694 56.7409 772.135 56.4876C772.128 57.9449 771.601 59.3518 770.649 60.4556C769.698 61.5594 768.384 62.2879 766.944 62.5102C767.239 63.216 767.383 63.9756 767.368 64.7404C767.353 65.5053 767.179 66.2586 766.857 66.9523C766.534 67.6461 766.071 68.2649 765.496 68.7695C764.921 69.274 764.247 69.6532 763.517 69.8826L763.932 70.6095C764.971 72.4786 764.555 74.763 762.998 76.009H762.894C763.451 76.3089 763.929 76.7349 764.292 77.2531C764.654 77.7712 764.891 78.367 764.981 78.9928C765.072 79.6186 765.015 80.257 764.815 80.8568C764.615 81.4566 764.277 82.0012 763.828 82.447C764.364 82.8115 764.736 83.3701 764.867 84.0045C766.227 83.6386 767.66 83.6386 769.02 84.0045C769.112 83.452 769.388 82.9466 769.802 82.5698C770.217 82.193 770.746 81.9669 771.305 81.9278C771.074 81.2348 771.036 80.4925 771.193 79.7794C771.35 79.0662 771.697 78.4088 772.197 77.8768C772.697 77.3447 773.332 76.9578 774.034 76.757C774.736 76.5561 775.479 76.5488 776.185 76.7359C775.977 75.8014 776.185 74.8668 776.808 74.0361C778.262 71.9594 780.858 71.2325 782.935 72.6863C783.139 71.707 783.606 70.802 784.286 70.0685C784.966 69.335 785.834 68.8007 786.795 68.5231C787.756 68.2455 788.774 68.235 789.74 68.4929C790.707 68.7507 791.585 69.2671 792.28 69.9865C792.874 69.0674 793.702 68.324 794.681 67.8336C795.659 67.3432 796.75 67.1237 797.842 67.1979C798.933 67.2721 799.985 67.6372 800.888 68.2554C801.791 68.8737 802.511 69.7224 802.975 70.7133C804.274 69.799 805.857 69.3801 807.438 69.5325C809.019 69.6849 810.493 70.3985 811.594 71.544ZM769.332 101.138C769.228 100.722 769.124 100.203 769.228 99.7878C767.899 100.126 766.507 100.126 765.178 99.7878C765.178 100.307 765.178 101.034 764.763 101.553C764.348 102.28 763.517 102.695 762.894 102.695C763.124 103.388 763.163 104.131 763.006 104.844C762.849 105.557 762.502 106.214 762.002 106.746C761.502 107.278 760.867 107.665 760.165 107.866C759.463 108.067 758.719 108.074 758.014 107.887C758.073 108.703 757.907 109.519 757.535 110.246C757.162 110.974 756.597 111.586 755.9 112.014C755.204 112.442 754.404 112.672 753.586 112.676C752.768 112.681 751.965 112.461 751.264 112.041C751.264 112.664 750.849 113.391 750.537 113.806C750.09 114.527 749.483 115.135 748.762 115.582C748.041 116.029 747.226 116.304 746.382 116.384C745.538 116.464 744.686 116.348 743.894 116.045C743.102 115.742 742.39 115.26 741.815 114.637C741.221 115.556 740.392 116.299 739.414 116.789C738.436 117.28 737.345 117.499 736.253 117.425C735.161 117.351 734.11 116.986 733.207 116.368C732.304 115.749 731.583 114.901 731.12 113.91C729.83 114.796 728.268 115.199 726.711 115.047C725.153 114.895 723.699 114.198 722.605 113.079C722.415 113.272 722.206 113.446 721.982 113.598C722.813 114.014 723.643 114.74 724.059 115.675C724.889 117.129 724.786 118.894 723.955 120.244C725.293 120.654 726.424 121.559 727.119 122.775C727.813 123.99 728.019 125.424 727.693 126.786C728.516 126.589 729.373 126.571 730.204 126.733C731.035 126.895 731.821 127.234 732.51 127.726C733.199 128.218 733.774 128.852 734.197 129.585C734.62 130.319 734.881 131.135 734.962 131.977C738.077 130.524 741.919 131.666 743.58 134.573C744.172 133.705 744.932 132.964 745.815 132.393C746.698 131.822 747.685 131.433 748.72 131.249C749.755 131.066 750.817 131.09 751.842 131.322C752.867 131.554 753.836 131.989 754.691 132.6C755.186 131.122 756.185 129.864 757.514 129.048C758.843 128.232 760.416 127.909 761.959 128.135C761.971 126.663 762.512 125.243 763.485 124.137C764.457 123.031 765.796 122.313 767.255 122.113C766.958 121.414 766.809 120.661 766.817 119.901C766.825 119.142 766.991 118.392 767.303 117.699C767.615 117.007 768.067 116.386 768.631 115.877C769.194 115.368 769.857 114.981 770.578 114.74L770.163 114.014C769.228 112.144 769.643 109.86 771.201 108.614C770.474 108.199 769.747 107.679 769.539 106.953C769.16 106.17 769.037 105.288 769.186 104.431C769.335 103.574 769.749 102.785 770.37 102.176C769.955 101.968 769.643 101.553 769.332 101.138Z" fill="#B1361E"/>
<path d="M759.571 94.8036C759.284 95.0084 758.958 95.1501 758.612 95.2193C758.267 95.2885 757.911 95.2837 757.567 95.2052C757.224 95.1268 756.901 94.9763 756.62 94.7639C756.339 94.5515 756.106 94.2819 755.937 93.9729C755.466 94.4761 754.874 94.8506 754.218 95.0612C753.561 95.2717 752.862 95.3113 752.186 95.1761C751.511 95.0409 750.88 94.7355 750.356 94.2887C749.831 93.842 749.429 93.2687 749.187 92.6231C748.461 93.1422 747.318 93.5576 746.384 93.4538C745.236 93.4003 744.153 92.9064 743.36 92.0748C742.567 91.2431 742.125 90.1378 742.126 88.9887C741.173 89.3142 740.148 89.3717 739.164 89.1548C738.18 88.9378 737.274 88.4549 736.546 87.7586C735.817 87.0624 735.294 86.1795 735.033 85.2062C734.772 84.2329 734.783 83.2067 735.065 82.2393C733.944 82.2602 732.838 81.9729 731.869 81.4086C730.9 80.8444 730.104 80.0248 729.569 79.0394C729.033 78.054 728.778 76.9404 728.832 75.8202C728.886 74.6999 729.246 73.6159 729.874 72.6863C728.385 71.9638 727.219 70.712 726.605 69.1757C725.99 67.6394 725.971 65.9291 726.551 64.3793C726.343 64.3949 726.135 64.3949 725.928 64.3793C725.942 65.0104 725.828 65.6379 725.593 66.2238C725.358 66.8098 725.007 67.342 724.56 67.7884C724.114 68.2348 723.582 68.5861 722.996 68.8211C722.41 69.0561 721.782 69.17 721.151 69.1558C721.477 70.5171 721.272 71.9514 720.577 73.1667C719.883 74.382 718.751 75.287 717.413 75.6976C718.022 76.3114 718.489 77.0514 718.782 77.8652C719.074 78.6791 719.185 79.5471 719.105 80.4083C719.026 81.2695 718.759 82.1028 718.323 82.8497C717.887 83.5966 717.293 84.2389 716.582 84.7314C717.955 85.6636 718.929 87.0755 719.313 88.6896C719.698 90.3036 719.464 92.003 718.659 93.4538C720.113 93.4538 721.567 93.9729 722.813 94.9075C723.889 95.7047 724.748 96.7595 725.31 97.9751C725.873 99.1907 726.121 100.528 726.032 101.865C727.583 101.539 729.199 101.779 730.589 102.541C731.979 103.302 733.051 104.536 733.612 106.018C734.883 105.31 736.365 105.079 737.792 105.364C739.219 105.649 740.498 106.433 741.4 107.576C741.855 106.975 742.428 106.474 743.085 106.104C743.742 105.735 744.467 105.503 745.217 105.426C745.967 105.348 746.724 105.425 747.443 105.652C748.162 105.879 748.826 106.251 749.395 106.745L749.81 105.914C750.341 105.066 751.142 104.421 752.083 104.082C753.025 103.743 754.053 103.73 755.002 104.045C755.002 103.214 755.21 102.384 755.625 101.761C756.664 100.203 758.429 99.4763 760.194 100.099C760.19 99.619 760.326 99.1478 760.584 98.7425C760.842 98.3372 761.211 98.0151 761.648 97.8149C760.733 96.9435 760.024 95.8794 759.571 94.6998" fill="#B1361E"/>
</svg>
