<svg width="1536" height="184" viewBox="0 0 1536 184" fill="none" xmlns="http://www.w3.org/2000/svg">
<path d="M21.7223 57.7556H8.43339C3.83339 57.7556 1.27783 55.7111 1.27783 51.6222C1.27783 47.5333 3.57783 45.4888 8.43339 45.4888H21.7223V33.4778C21.7223 12.7778 32.2001 2.55554 52.9001 2.55554C61.3334 2.55554 68.4889 4.34442 74.1112 7.41108C81.2667 11.7555 84.8445 18.4 84.8445 26.3222C84.8445 31.6888 82.8001 33.9888 78.7112 33.9888C75.9001 33.9888 73.8556 32.2 72.3223 29.1333C70.5334 23.7666 69.0001 20.7 67.9778 19.4222C65.6778 16.3556 60.5667 14.5667 53.1556 14.5667C40.3778 14.5667 34.5001 20.9556 34.5001 33.4778V44.9778H58.7778C64.1445 44.9778 66.9556 47.0222 66.9556 51.1111C66.9556 55.2 64.1445 57.2444 58.7778 57.2444H34.5001V134.933C34.5001 139.789 32.4556 142.089 28.3667 142.089C24.2778 142.089 22.2334 139.533 22.2334 134.933V57.5H21.7223V57.7556Z" fill="#006400"/>
<path d="M130.589 128.8V58.0113H112.444C107.589 58.0113 105.033 55.9668 105.033 51.8779C105.033 47.789 107.333 45.7446 112.444 45.7446H136.467C140.556 45.7446 142.856 49.578 142.856 56.2224C150.267 48.0446 158.444 43.7002 166.622 43.7002C173.778 43.7002 178.889 45.7446 182.978 50.0891C187.067 54.4335 189.111 60.3113 189.111 66.9558C189.111 71.8113 187.067 74.1113 182.978 74.1113C180.678 74.1113 178.889 72.3224 178.122 69.2558C176.333 63.6335 175.311 60.5668 175.056 60.0557C173.267 56.9891 170.2 55.2002 165.6 55.2002C161 55.2002 156.4 56.9891 152.567 60.3113C150.267 62.1002 146.945 65.6779 142.6 71.3002V127.778H165.344C170.2 127.778 172.756 129.822 172.756 133.4C172.756 137.489 170.456 139.789 165.344 139.789H112.189C107.333 139.789 104.778 137.745 104.778 133.656C104.778 129.567 107.078 127.522 112.189 127.522H130.589V128.8Z" fill="#006400"/>
<path d="M222.078 95.3227V108.867C222.078 123.434 232.044 130.589 252.489 130.589C259.9 130.589 265.778 129.823 270.633 128.034C272.933 127.267 277.278 124.967 282.9 120.878C286.478 117.556 289.289 115.767 290.311 115.767C293.633 115.767 295.166 117.556 295.166 121.134C295.166 124.712 292.866 128.545 287.755 132.634C279.578 139.023 267.566 142.345 251.466 142.345C223.355 142.345 209.3 131.1 209.3 108.867V75.1338C209.3 67.4671 212.366 60.5672 217.989 55.2005C225.655 47.7894 237.155 44.2115 252.489 44.2115C280.089 44.2115 293.633 58.0116 293.633 85.6116C293.633 92.256 290.822 95.8338 285.966 95.8338H221.822L222.078 95.3227ZM222.078 83.3116H282.133C282.133 64.9116 272.166 55.9671 251.722 55.9671C244.311 55.9671 237.666 57.756 231.533 61.0782C225.4 65.4227 222.078 70.5338 222.078 76.156V83.3116Z" fill="#006400"/>
<path d="M327.111 95.3227V108.867C327.111 123.434 337.078 130.589 357.522 130.589C364.933 130.589 370.811 129.823 375.667 128.034C377.967 127.267 382.311 124.967 387.933 120.878C391.511 117.556 394.322 115.767 395.345 115.767C398.667 115.767 400.2 117.556 400.2 121.134C400.2 124.712 397.9 128.545 392.789 132.634C384.611 139.023 372.6 142.345 356.5 142.345C328.389 142.345 314.333 131.1 314.333 108.867V75.1338C314.333 67.4671 317.4 60.5672 323.022 55.2005C330.689 47.7894 342.189 44.2115 357.522 44.2115C385.122 44.2115 398.667 58.0116 398.667 85.6116C398.667 92.256 395.856 95.8338 391 95.8338H326.856L327.111 95.3227ZM327.111 83.3116H387.167C387.167 64.9116 377.2 55.9671 356.756 55.9671C349.345 55.9671 342.7 57.756 336.567 61.0782C330.178 65.4227 327.111 70.5338 327.111 76.156V83.3116Z" fill="#006400"/>
<path d="M421.411 103.244V50.3445C421.411 22.4889 435.978 8.94446 464.856 8.94446C476.611 8.94446 486.067 11.7556 493.478 16.6111C501.911 23 505.744 31.6889 505.744 42.6778C505.744 47.7889 503.7 50.3445 499.356 50.3445C496.289 50.3445 494.5 47.7889 492.967 42.9333C492.2 38.8444 490.667 34.7556 488.367 30.9223C484.789 24.2778 476.611 21.2111 464.089 21.2111C453.356 21.2111 445.689 24.0222 441.089 29.3889C436.744 34.5 434.444 42.4222 434.444 53.4111V97.3667C434.444 108.867 436.744 117.044 441.6 122.156C446.456 127.522 454.378 130.589 465.111 130.589C481.467 130.589 490.922 124.967 493.222 113.467C494.244 109.122 494.5 107.078 494.5 106.822C495.522 104.267 497.311 102.989 499.356 102.989C503.444 102.989 505.744 105.8 505.744 110.656C505.744 121.133 501.4 129.311 492.711 135.7C485.556 140.556 476.611 142.856 465.111 142.856C451.822 142.856 441.344 139.789 433.678 133.4C425.244 126.756 421.411 116.533 421.411 103.244Z" fill="#006400"/>
<path d="M525.167 110.656V75.9003C525.167 54.4336 539.222 43.9558 567.333 43.9558C595.445 43.9558 609.5 54.4336 609.5 75.9003V110.656C609.5 132.122 595.7 142.6 567.845 142.6C539.222 142.6 525.167 131.867 525.167 110.656ZM597.233 110.656V75.9003C597.233 62.6114 587.267 55.9669 566.822 55.9669C547.4 55.9669 537.433 62.6114 537.433 75.9003V110.656C537.433 123.945 547.4 130.589 567.589 130.334C587.522 130.334 597.233 123.945 597.233 110.656Z" fill="#006400"/>
<path d="M701.756 131.1C696.133 135.445 691.022 138.256 686.678 139.789C682.078 141.578 676.2 142.6 669.556 142.6C658.311 142.6 649.111 140.045 641.956 135.445C633.778 130.078 629.945 121.9 629.945 110.656V75.1338C629.945 64.656 634.033 56.4782 641.7 51.1116C648.345 46.256 657.545 43.956 668.278 43.956C675.433 43.956 681.311 44.7227 685.911 46.5116C690.511 48.3005 695.622 51.3671 700.989 55.7115V12.0116C700.989 6.38936 703.033 3.32263 706.611 3.32263C710.7 3.32263 713 6.38936 713 12.0116V136.467C713 140.812 710.956 142.856 707.378 142.856C705.078 142.856 703.289 141.578 702.778 138.767C702.011 136.467 701.756 134.167 701.756 131.1ZM700.989 116.789V67.9782C694.856 63.6338 690.256 60.5671 686.422 59.2894C681.567 57.2449 675.945 56.2227 670.067 56.2227C662.4 56.2227 656.011 57.5005 651.411 60.5671C645.278 64.4005 642.211 69.7671 642.211 76.4115V109.889C642.211 117.045 645.278 122.412 651.667 125.989C656.522 128.8 662.911 130.334 670.833 130.334C677.222 130.334 682.845 129.312 687.7 127.267C691.789 124.967 696.133 121.389 700.989 116.789Z" fill="#006400"/>
<path d="M747.244 95.3227V108.867C747.244 123.434 757.211 130.589 777.655 130.589C785.066 130.589 790.944 129.823 795.8 128.034C798.1 127.267 802.444 124.967 808.067 120.878C811.644 117.556 814.455 115.767 815.478 115.767C818.8 115.767 820.333 117.556 820.333 121.134C820.333 124.712 818.033 128.545 812.922 132.634C804.744 139.023 792.733 142.345 776.633 142.345C748.522 142.345 734.467 131.1 734.467 108.867V75.1338C734.467 67.4671 737.533 60.5672 743.155 55.2005C750.822 47.7894 762.322 44.2115 777.655 44.2115C805.255 44.2115 818.8 58.0116 818.8 85.6116C818.8 92.256 815.989 95.8338 811.133 95.8338H746.989L747.244 95.3227ZM747.244 83.3116H807.3C807.3 64.9116 797.333 55.9671 776.889 55.9671C769.478 55.9671 762.833 57.756 756.7 61.0782C750.311 65.4227 747.244 70.5338 747.244 76.156V83.3116Z" fill="#006400"/>
<path d="M841.545 103.244V50.3445C841.545 22.4889 856.111 8.94446 884.989 8.94446C896.745 8.94446 906.2 11.7556 913.611 16.6111C922.045 23 925.878 31.6889 925.878 42.6778C925.878 47.7889 923.833 50.3445 919.489 50.3445C916.422 50.3445 914.633 47.7889 913.1 42.9333C912.334 38.8444 910.8 34.7556 908.5 30.9223C904.922 24.2778 896.745 21.2111 884.222 21.2111C873.489 21.2111 865.822 24.0222 861.222 29.3889C856.878 34.5 854.578 42.4222 854.578 53.4111V97.3667C854.578 108.867 856.878 117.044 861.734 122.156C866.589 127.522 874.511 130.589 885.245 130.589C901.6 130.589 911.056 124.967 913.356 113.467C914.378 109.122 914.634 107.078 914.634 106.822C915.656 104.267 917.445 102.989 919.489 102.989C923.578 102.989 925.878 105.8 925.878 110.656C925.878 121.133 921.534 129.311 912.845 135.7C905.689 140.556 896.745 142.856 885.245 142.856C871.956 142.856 861.478 139.789 853.811 133.4C845.634 126.756 841.545 116.533 841.545 103.244Z" fill="#006400"/>
<path d="M1013.02 131.1C1006.89 135.445 1002.29 138.511 998.967 139.789C994.622 141.578 989.255 142.6 982.611 142.6C972.644 142.6 964.211 140.556 957.822 136.211C950.411 131.1 946.578 123.689 946.578 113.722C946.578 104.011 950.667 96.0891 958.333 90.7224C964.978 85.6113 973.922 83.3113 983.633 83.3113C992.067 83.3113 1001.27 85.3557 1012.26 88.9335V74.1113C1012.26 66.9557 1008.93 61.8446 1002.29 59.0335C997.689 56.9891 991.811 55.9668 985.167 55.9668C969.322 55.9668 961.144 60.3113 959.355 69.2558C958.589 73.3446 958.078 75.3891 958.078 75.6446C957.055 77.6891 955.267 78.7113 953.222 78.7113C948.878 78.7113 946.578 76.1557 946.578 71.5557C946.578 65.1668 948.878 59.2891 953.989 53.9224C960.122 47.278 971.111 43.7002 986.444 43.7002C998.711 43.7002 1007.91 45.7446 1014.04 49.8335C1021.2 54.9446 1024.78 63.3779 1024.78 75.1335V118.578C1024.78 123.689 1025.8 127.011 1027.84 128.8C1028.1 129.056 1030.14 130.078 1033.47 131.611C1035.51 132.634 1036.53 134.422 1036.53 137.234C1036.53 140.556 1034.74 142.345 1031.17 142.345C1030.14 142.345 1028.36 142.089 1025.8 141.067C1021.2 139.278 1018.13 138.256 1017.37 138C1015.07 136.722 1013.53 134.422 1013.02 131.1ZM1012.26 118.322V100.433C1002.8 97.3668 993.856 95.5779 985.678 95.5779C967.533 95.5779 958.589 101.2 958.589 113.211C958.589 119.345 961.4 124.2 966.767 126.756C971.111 129.311 976.478 130.589 983.122 130.589C988.744 130.589 994.111 129.567 998.967 127.267C1002.54 125.733 1006.89 122.411 1012.26 118.322Z" fill="#006400"/>
<path d="M1059.79 54.178C1062.86 50.3447 1065.41 47.789 1067.46 46.7668C1070.27 44.9779 1073.59 43.9558 1077.93 43.9558C1084.58 43.9558 1090.2 47.2779 1095.31 54.4335C1098.63 50.3446 1101.7 47.7891 1104.51 46.2558C1107.58 44.4669 1111.67 43.7002 1116.27 43.7002C1130.83 43.7002 1137.99 50.8557 1137.99 65.1668V133.911C1137.99 139.534 1135.94 142.345 1131.6 142.345C1127.51 142.345 1125.47 139.534 1125.47 133.911V69.2558C1125.47 60.5669 1121.89 55.7113 1114.73 55.7113C1109.37 55.7113 1104 59.0335 1099.14 65.4224V133.911C1099.14 139.534 1097.1 142.345 1093.01 142.345C1088.92 142.345 1086.88 139.534 1086.88 133.911V70.5335C1086.88 60.8224 1082.79 55.9668 1075.12 55.9668C1070.27 55.9668 1065.41 59.2891 1060.3 65.678V133.911C1060.3 139.534 1058.26 142.345 1053.91 142.345C1049.82 142.345 1047.78 139.534 1047.78 133.911V49.8335C1047.78 45.7446 1049.57 43.7002 1052.63 43.7002C1054.42 43.7002 1055.96 44.978 1056.98 47.5335C1059.28 49.3224 1059.79 51.878 1059.79 54.178Z" fill="#006400"/>
<path d="M1168.66 54.178C1178.11 47.5336 1189.1 43.9558 1201.11 43.9558C1226.41 43.9558 1239.19 54.9446 1239.19 76.1558V111.422C1239.19 121.645 1235.61 129.311 1228.46 135.189C1222.07 140.3 1213.38 142.856 1202.39 142.856C1189.36 142.856 1178.37 139.534 1168.4 132.378V172.5C1168.4 178.634 1166.36 181.7 1162.27 181.7C1158.18 181.7 1156.13 178.634 1156.13 172.5V53.4113C1156.13 47.278 1157.92 44.2113 1160.99 44.2113C1162.78 44.2113 1164.31 45.4891 1165.59 48.0446C1167.12 49.578 1168.14 52.1336 1168.66 54.178ZM1168.66 118.578C1177.34 126.245 1188.08 130.589 1200.34 130.589C1208.01 130.589 1214.14 129.311 1218.74 126.245C1224.37 122.922 1227.18 117.811 1227.18 111.422V76.1558C1227.18 68.7446 1224.11 63.6336 1217.98 60.3113C1213.38 57.7558 1206.99 56.478 1199.32 56.478C1192.17 56.478 1186.54 57.5002 1182.2 59.5446C1178.11 61.3335 1173.77 64.9114 1168.4 70.5336V118.578H1168.66Z" fill="#006400"/>
<path d="M1280.84 84.8447C1280.84 58.0114 1290.04 34.2447 1308.44 13.2892C1315.09 5.62252 1320.46 1.78918 1324.29 1.78918C1325.57 1.78918 1327.1 2.04474 1327.87 3.06696C1328.63 4.08918 1329.66 5.11138 1329.66 6.38915C1329.66 8.4336 1327.36 11.5002 1322.5 16.1002C1303.33 34.7558 1293.62 57.7558 1293.62 85.3558C1293.62 116.022 1303.59 140.556 1323.52 159.467C1327.61 163.3 1329.66 166.111 1329.66 168.667C1329.66 169.945 1328.89 171.478 1327.87 172.5C1326.84 173.522 1325.57 174.289 1324.29 174.289C1319.69 174.289 1313.3 168.922 1304.87 158.189C1288.51 138.256 1280.84 113.723 1280.84 84.8447Z" fill="#006400"/>
<path d="M1534.61 91.7449C1534.61 118.578 1525.41 142.345 1507.01 163.3C1500.37 170.967 1495 174.8 1491.17 174.8C1489.89 174.8 1488.36 174.545 1487.59 173.523C1486.57 172.5 1485.8 170.967 1485.8 169.689C1485.8 167.645 1488.1 164.578 1492.96 160.234C1512.12 141.578 1521.83 118.578 1521.83 90.9783C1521.83 60.3116 1511.87 35.7783 1491.93 16.8672C1487.84 13.0339 1485.8 10.2227 1485.8 7.66718C1485.8 6.3894 1486.57 4.85606 1487.59 3.83384C1488.61 2.81162 1489.89 2.04492 1491.17 2.04492C1495.51 2.04492 1502.16 7.41164 1510.59 18.145C1526.43 38.845 1534.61 63.3783 1534.61 91.7449Z" fill="#006400"/>
<path d="M1465.61 168.667H1349.33C1345.76 168.667 1342.18 165.856 1342.18 161.512C1342.18 157.678 1344.99 154.356 1349.33 154.356H1465.36C1468.93 154.356 1472.51 157.167 1472.51 161.512C1472.51 165.856 1469.7 168.667 1465.61 168.667Z" fill="#006400"/>
<path d="M1383.32 16.6113C1383.32 16.6113 1393.03 23.2557 1393.03 35.5224C1393.03 56.7335 1364.67 80.2446 1364.67 101.967C1364.67 125.733 1382.56 141.067 1399.93 145.667C1402.23 146.178 1403.51 143.367 1400.44 142.6C1393.54 140.811 1385.62 131.611 1385.62 117.045C1385.62 103.5 1398.4 98.6446 1403.51 92.0002C1408.88 85.3557 1407.6 76.9224 1404.53 74.3668C1401.47 71.8113 1403.51 68.7446 1409.13 72.5779C1414.76 76.4113 1419.36 83.8224 1417.57 90.7224C1415.52 99.6668 1418.33 104.778 1422.93 105.289C1427.53 105.8 1432.64 103.5 1432.13 99.1557C1431.62 94.8112 1429.07 90.2113 1430.6 90.2113C1433.92 90.2113 1440.82 98.3891 1440.82 111.422C1440.82 124.456 1430.09 133.4 1427.02 136.722C1424.98 138.767 1427.53 141.578 1430.34 140.045C1431.62 139.533 1434.43 137.745 1436.22 136.467C1444.66 130.333 1457.69 118.322 1457.69 95.5779C1457.69 71.8113 1448.74 61.3335 1439.8 52.6446C1430.86 43.7002 1428.56 46.0002 1431.11 50.3446C1438.78 63.6335 1434.18 67.978 1428.56 67.978C1421.91 67.978 1421.66 53.1557 1419.1 41.6557C1413.48 16.3557 1390.73 12.0113 1386.39 11.7557C1382.04 11.7557 1378.21 14.3113 1383.32 16.6113Z" fill="#006400"/>
</svg>
