<svg width="1143" height="184" viewBox="0 0 1143 184" fill="none" xmlns="http://www.w3.org/2000/svg">
<g clip-path="url(#clip0)">
<path d="M53.5778 62.7934H6.86765V104.025H41.9634V109.832H6.82978V161.516H0V56.9862H53.5778V62.7934Z" fill="#3E3E3E"/>
<path d="M66.2021 161.516H59.3345V108.38L56.6202 83.851H63.1218L65.735 105.628C70.7848 95.0235 78.8012 83.1188 92.0189 83.1188C104.782 83.1188 108.165 95.9451 108.165 106.348H101.336C101.197 99.2401 100.755 88.926 91.4635 88.926C83.6237 88.926 66.2148 101.121 66.2148 130.309L66.2021 161.516Z" fill="#3E3E3E"/>
<path d="M116.573 123.05C116.573 93.1425 131.962 83.1188 145.9 83.1188C158.676 83.1188 175.378 91.6907 175.378 123.05C175.378 154.409 158.827 163.119 145.9 163.119C132.972 163.119 116.573 154.409 116.573 123.05ZM168.548 123.05C168.548 108.09 164.761 88.9639 145.9 88.9639C127.039 88.9639 123.391 108.128 123.391 123.05C123.391 137.972 127.178 157.312 145.9 157.312C164.622 157.312 168.548 137.997 168.548 123.05Z" fill="#3E3E3E"/>
<path d="M194.251 161.516H187.421V123.05C187.421 109.983 186.992 96.9172 184.366 83.851H190.754L193.519 105.918H193.809C196.713 94.4428 208.958 83.1188 221.103 83.1188C234.99 83.1188 238.966 95.1624 238.966 106.789V161.529H232.137V109.983C232.137 101.146 232.137 88.926 220.232 88.926C209.198 88.926 194.238 99.9597 194.238 129.867L194.251 161.516Z" fill="#3E3E3E"/>
<path d="M301.394 90.5293H273.229V142.946C273.229 150.356 275.994 157.325 285.424 157.325C293.996 157.325 299.942 150.937 303.288 143.678L309.814 145.269C305.03 155.141 296.597 163.132 285.134 163.132C275.211 163.119 266.374 158.322 266.374 138.868V90.5293H249.129V84.7221H266.374V60.0415H273.204V84.7221H301.369L301.394 90.5293Z" fill="#3E3E3E"/>
<path d="M374.943 156.151C366.106 160.064 357.37 163.119 347.498 163.119C324.989 163.119 316.72 142.92 316.72 123.479C316.72 104.037 325.292 83.0809 347.94 83.0809C360.867 83.0809 376.105 92.3725 376.105 124.173H323.6C324.863 151.177 336.086 157.274 347.852 157.274C356.562 157.274 364.844 154.08 372.103 149.7L374.943 156.151ZM369.275 118.404C370.007 105.186 362.168 88.926 347.056 88.926C331.945 88.926 323.07 104.896 323.537 118.404H369.275Z" fill="#3E3E3E"/>
<path d="M394.587 161.516H387.757V123.05C387.757 109.983 387.315 96.9172 384.702 83.851H391.09L393.88 105.918H394.17C397.074 94.4428 409.32 83.1188 421.464 83.1188C435.351 83.1188 439.328 95.1624 439.328 106.789V161.529H432.498V109.983C432.498 101.146 432.498 88.926 420.593 88.926C409.559 88.926 394.6 99.9597 394.6 129.867L394.587 161.516Z" fill="#3E3E3E"/>
<path d="M506.956 134.513C506.956 143.943 507.688 153.234 510.441 162.286L504.053 163.157L501.301 150.533C499.451 154.374 496.539 157.604 492.91 159.842C489.281 162.079 485.087 163.23 480.824 163.157C467.897 163.157 451.056 152.565 451.056 122.646C451.056 91.8674 470.661 83.1566 481.253 83.1566C488.121 83.1295 494.796 85.4302 500.19 89.6834V53.7924H507.019L506.956 134.513ZM500.127 96.4753C495.342 92.2714 489.383 88.9007 482.995 88.9007C474.284 88.9007 457.873 94.8594 457.873 122.986C457.873 149.498 472.239 157.249 480.963 157.249C490.696 157.249 496.933 150.129 500.127 141.86V96.4753Z" fill="#3E3E3E"/>
<path d="M863.683 119.085C863.784 119.616 863.864 120.146 863.923 120.676C863.982 121.206 864.007 121.737 863.998 122.267C863.981 126.05 862.641 129.707 860.211 132.606C856.633 137.381 852.753 141.922 848.597 146.203C845.409 149.496 842.01 152.579 838.421 155.431C835.891 157.461 833.173 159.245 830.304 160.758C828.598 161.741 826.698 162.339 824.737 162.513C822.204 162.489 819.718 161.834 817.503 160.607C815.165 159.385 813.293 157.429 812.175 155.04C812.184 153.7 812.345 152.366 812.655 151.063C813.073 149.346 813.605 147.66 814.246 146.013C814.986 144.052 816.022 141.666 817.351 138.855C818.681 136.044 820.402 132.518 822.515 128.276C820.832 128.276 819.716 128.697 819.169 129.538C814.187 136.221 809.92 141.691 806.368 145.95C802.817 150.209 799.766 153.575 797.216 156.05C795.345 158.006 793.222 159.704 790.903 161.099C789.548 161.901 788.019 162.364 786.447 162.45C784.087 162.228 781.804 161.493 779.757 160.299C777.709 159.104 775.947 157.477 774.593 155.532C771.644 151.087 770.169 145.827 770.376 140.496C770.305 132.706 771.79 124.981 774.744 117.773C777.419 111.17 781.131 105.038 785.74 99.6061C789.863 94.7351 794.822 90.6395 800.384 87.5119C804.982 84.7942 810.195 83.291 815.533 83.1439C818.794 83.0486 822.032 83.7006 825.002 85.0502C828.127 86.7433 830.906 89.0087 833.195 91.7285C836.477 89.3768 840.028 87.4271 843.774 85.9213C845.923 85.0112 848.203 84.4487 850.528 84.2548C851.492 84.241 852.442 84.484 853.28 84.9588C854.119 85.4336 854.816 86.1231 855.3 86.9565C854.77 88.9763 854.029 91.5012 853.078 94.5311C852.127 97.5609 851.092 100.742 849.973 104.075C848.862 107.442 847.721 110.808 846.552 114.175C845.382 117.541 844.3 120.722 843.307 123.719C842.356 126.69 841.514 129.286 840.782 131.508C840.251 133.063 839.85 134.659 839.583 136.28C839.583 137.34 840.273 137.87 841.653 137.87C842.438 137.75 843.192 137.48 843.875 137.075C845.396 136.233 846.833 135.248 848.167 134.134C849.969 132.703 852.144 130.767 854.694 128.326C857.244 125.886 860.241 122.805 863.683 119.085ZM826.895 101.752C823.924 99.0001 821.113 97.6198 818.462 97.6114C816.131 97.6114 813.535 98.8318 810.673 101.272C807.548 104.01 804.816 107.166 802.556 110.652C799.982 114.56 797.864 118.749 796.243 123.138C794.625 127.272 793.77 131.664 793.719 136.103C793.641 137.319 793.979 138.526 794.678 139.524C794.954 139.896 795.314 140.197 795.729 140.403C796.144 140.61 796.601 140.715 797.064 140.711C798.015 140.711 799.631 139.596 801.912 137.366C804.671 134.59 807.248 131.638 809.625 128.528C812.487 124.867 815.458 120.706 818.538 116.043C821.564 111.424 824.354 106.654 826.895 101.752Z" fill="#C02D28"/>
<path d="M874.338 101.752C874.849 98.7332 875.815 95.809 877.203 93.0794C878.476 90.528 880.109 88.1727 882.051 86.0855C883.789 84.2151 885.834 82.6565 888.098 81.4777C890.133 80.4002 892.398 79.8286 894.701 79.8112C896.815 79.7673 898.867 80.5353 900.432 81.9574C902.118 83.5863 903.185 85.7509 903.45 88.0802C902.63 89.6833 901.616 91.1799 900.432 92.5366C899.161 94.0263 897.781 95.5117 896.291 96.993C896.604 99.4723 897.303 101.887 898.362 104.151C899.523 106.802 900.744 109.638 902.023 112.66C903.33 115.779 904.472 118.965 905.444 122.204C906.458 125.582 906.968 129.092 906.959 132.619C906.884 136.467 905.667 140.207 903.462 143.362C901.037 147.011 898.055 150.257 894.625 152.982C891.082 155.838 887.144 158.169 882.935 159.9C879.115 161.561 875.005 162.453 870.841 162.526C867.263 162.576 863.698 162.095 860.262 161.099C857.421 160.277 854.716 159.044 852.232 157.438C850.175 156.133 848.412 154.413 847.056 152.389C845.904 150.696 845.269 148.705 845.226 146.657C845.209 144.084 845.614 141.525 846.425 139.083C847.385 136.445 848.753 133.974 850.478 131.76C851.319 130.7 852.7 129.084 854.619 126.913C856.537 124.741 858.641 122.275 860.931 119.515C863.211 116.763 865.572 113.846 868.013 110.766C870.283 107.878 872.394 104.869 874.338 101.752ZM877.393 115.273C876.332 116.763 874.982 118.446 873.34 120.323C871.699 122.2 869.923 124.19 868.013 126.294C866.102 128.365 864.116 130.469 862.054 132.606C859.992 134.744 858.057 136.76 856.247 138.653C858.548 141.694 861.411 144.266 864.68 146.228C867.403 147.928 870.535 148.861 873.744 148.93C874.976 148.942 876.198 148.703 877.333 148.225C878.469 147.747 879.495 147.042 880.347 146.152C882.199 144.301 883.128 141.515 883.137 137.795C883.125 135.868 882.913 133.947 882.506 132.063C882.08 130.051 881.549 128.062 880.915 126.105C880.275 124.144 879.64 122.233 879.009 120.373C878.378 118.513 877.839 116.813 877.393 115.273Z" fill="#C02D28"/>
<path d="M968.654 119.414C968.755 119.944 968.835 120.474 968.894 121.004C968.894 121.535 968.97 122.065 968.97 122.595C969.025 126.39 967.676 130.072 965.183 132.934C961.355 138.157 957.098 143.051 952.457 147.566C949.03 150.89 945.331 153.922 941.398 156.63C938.665 158.543 935.694 160.092 932.561 161.238C930.572 161.974 928.481 162.4 926.363 162.501C922.703 162.51 919.131 161.383 916.139 159.275C913.148 157.168 910.884 154.184 909.661 150.735L924.141 104.025L920.316 104.782C919.714 102.986 919.391 101.109 919.356 99.2148C919.422 96.7554 920.044 94.3429 921.174 92.1578C922.024 90.3312 923.377 88.7851 925.075 87.7014L929.367 87.2216L936.046 66.3788C938.593 65.7408 941.209 65.4185 943.835 65.4194C946.916 65.3248 949.975 65.9789 952.748 67.3257C953.813 67.7923 954.764 68.4859 955.534 69.3581C956.303 70.2303 956.873 71.2601 957.204 72.3754L953.417 84.7852L968.566 83.1945C968.414 85.5022 967.849 87.764 966.9 89.8728C965.893 92.1787 964.525 94.3095 962.847 96.1849L948.96 99.2022L938.457 134.677C938.457 138.287 939.572 140.088 941.802 140.08C943.486 140.08 946.507 138.594 950.867 135.623C955.226 132.653 961.155 127.249 968.654 119.414Z" fill="#C02D28"/>
<path d="M1036.26 117.343C1036.48 118.496 1036.58 119.667 1036.57 120.84C1036.41 122.886 1035.96 124.897 1035.22 126.812C1034.51 128.821 1033.52 130.721 1032.28 132.455C1024.86 142.428 1017.33 149.931 1009.7 154.964C1002.78 159.781 994.58 162.419 986.152 162.539C977.458 162.539 970.935 160.312 966.584 155.86C962.233 151.408 960.057 145.47 960.057 138.047C960.077 135.239 960.399 132.442 961.017 129.703C961.595 126.972 962.337 124.278 963.238 121.636C965.178 116.058 967.853 110.764 971.192 105.893C974.259 101.364 977.924 97.2706 982.087 93.7232C985.878 90.5052 990.134 87.8791 994.711 85.934C998.852 84.1359 1003.31 83.1913 1007.83 83.1566C1014.4 83.1566 1019.41 84.5621 1022.86 87.3731C1024.57 88.786 1025.93 90.5784 1026.83 92.6077C1027.72 94.637 1028.13 96.8474 1028.03 99.0633C1027.99 100.83 1027.67 102.579 1027.07 104.239C1026.48 106.037 1025.63 107.738 1024.54 109.289C1023.29 110.716 1021.88 111.987 1020.33 113.076C1017.62 115.068 1014.81 116.901 1011.89 118.568C1008.44 120.588 1004.41 122.692 999.799 124.88C994.883 127.202 989.842 129.25 984.7 131.016C984.58 131.645 984.5 132.282 984.46 132.922C984.46 133.667 984.384 134.462 984.384 135.308C984.338 136.609 984.553 137.906 985.017 139.123C985.481 140.339 986.185 141.45 987.086 142.39C988.887 144.25 991.803 145.18 995.835 145.18C1000.4 145.18 1006.07 143.076 1012.85 138.868C1019.64 134.66 1027.44 127.485 1036.26 117.343ZM1002.37 95.8693C1001.36 96.0403 1000.42 96.5058 999.672 97.2075C998.199 98.466 996.922 99.9384 995.885 101.576C994.271 103.992 992.836 106.524 991.593 109.15C989.928 112.693 988.543 116.361 987.452 120.121C991.719 118.284 995.864 116.176 999.862 113.809C1002.15 112.483 1004.27 110.88 1006.17 109.037C1007.7 107.113 1008.5 104.711 1008.42 102.257C1008.42 97.9986 1006.41 95.8693 1002.37 95.8693Z" fill="#C02D28"/>
<path d="M1099.58 119.086C1099.81 119.584 1099.92 120.129 1099.9 120.676V122.267C1099.89 124.116 1099.54 125.948 1098.86 127.67C1098.19 129.447 1097.25 131.112 1096.07 132.606C1092.38 137.579 1088.37 142.306 1084.07 146.758C1080.87 150.071 1077.44 153.155 1073.8 155.987C1071.29 157.997 1068.54 159.693 1065.61 161.036C1063.79 161.906 1061.82 162.42 1059.8 162.551C1056.74 162.555 1053.75 161.64 1051.22 159.925C1048.27 157.829 1045.91 155.007 1044.38 151.732C1044.81 148.571 1045.69 145.488 1047 142.579C1048.55 139.01 1050.3 135.532 1052.25 132.164C1054.32 128.562 1056.5 124.985 1058.78 121.434C1061.06 117.882 1063.16 114.516 1065.09 111.334C1065.08 110.672 1064.86 110.03 1064.46 109.504C1063.77 108.743 1062.91 108.169 1061.94 107.837C1060.56 107.307 1059.07 106.777 1057.48 106.247C1055.89 105.716 1054.63 105.241 1053.69 104.82C1051.17 108.851 1048.25 113.06 1044.94 117.444C1041.64 121.829 1038.21 126.126 1034.68 130.334C1031.13 134.542 1027.55 138.519 1023.95 142.264C1020.74 145.658 1017.34 148.869 1013.77 151.884C1012.94 151.159 1012.31 150.227 1011.94 149.182C1011.56 148.056 1011.37 146.874 1011.39 145.685C1011.39 144.31 1011.6 142.943 1012.02 141.633C1012.43 140.335 1013.08 139.124 1013.93 138.06C1017.28 135.477 1020.37 132.572 1023.15 129.387C1026.31 125.872 1029.26 122.18 1031.99 118.328C1034.69 114.507 1037.1 110.876 1039.22 107.433C1041.35 103.991 1042.88 101.315 1043.83 99.4042C1042.04 96.7814 1041.09 93.6693 1041.13 90.4914C1041.19 86.285 1042.55 82.2007 1045.03 78.8012C1046.14 77.1738 1047.58 75.8098 1049.28 74.806C1050.97 73.8023 1052.86 73.1836 1054.82 72.994C1054.91 74.441 1055.24 75.8638 1055.78 77.2106C1056.53 78.7919 1057.71 80.1303 1059.18 81.0736C1061.63 82.6884 1064.24 84.0463 1066.97 85.126C1070.34 86.5568 1074.9 88.1727 1080.66 89.9738C1083.34 90.731 1085.89 91.8932 1088.22 93.4202C1089.97 94.6911 1090.85 96.8667 1090.85 99.947C1089.78 103.202 1088.39 106.344 1086.7 109.327C1084.79 112.87 1082.77 116.405 1080.65 119.931C1078.52 123.458 1076.56 126.824 1074.76 130.031C1073.24 132.595 1072.06 135.35 1071.27 138.224C1071.25 138.559 1071.31 138.892 1071.45 139.198C1071.59 139.503 1071.8 139.771 1072.06 139.979C1072.55 140.389 1073.17 140.612 1073.82 140.61C1075.02 140.388 1076.16 139.9 1077.16 139.184C1079.2 137.915 1081.16 136.533 1083.04 135.043C1085.73 132.93 1088.31 130.675 1090.76 128.289C1093.55 125.553 1096.49 122.486 1099.58 119.086Z" fill="#C02D28"/>
<path d="M1110.22 101.752C1110.74 98.7332 1111.7 95.809 1113.09 93.0794C1114.36 90.528 1115.99 88.1727 1117.94 86.0855C1119.67 84.2151 1121.72 82.6565 1123.98 81.4777C1126.02 80.4002 1128.28 79.8286 1130.59 79.8112C1132.7 79.7673 1134.75 80.5353 1136.32 81.9574C1138 83.5863 1139.07 85.7509 1139.34 88.0802C1138.52 89.6833 1137.5 91.1799 1136.32 92.5366C1135.05 94.0263 1133.67 95.5117 1132.18 96.993C1132.49 99.4723 1133.19 101.887 1134.25 104.151C1135.41 106.802 1136.63 109.638 1137.91 112.66C1139.22 115.779 1140.36 118.965 1141.33 122.204C1142.34 125.582 1142.85 129.092 1142.85 132.619C1142.77 136.467 1141.55 140.207 1139.35 143.362C1136.92 147.011 1133.94 150.257 1130.51 152.982C1126.97 155.838 1123.03 158.169 1118.82 159.9C1115 161.561 1110.89 162.453 1106.73 162.526C1103.15 162.576 1099.58 162.095 1096.15 161.099C1093.31 160.277 1090.6 159.044 1088.12 157.438C1086.06 156.133 1084.3 154.413 1082.94 152.389C1081.79 150.696 1081.15 148.705 1081.11 146.657C1081.09 144.084 1081.5 141.525 1082.31 139.083C1083.27 136.445 1084.64 133.974 1086.36 131.76C1087.21 130.7 1088.59 129.084 1090.5 126.913C1092.42 124.741 1094.53 122.275 1096.82 119.515C1099.1 116.763 1101.46 113.846 1103.9 110.766C1106.17 107.878 1108.28 104.869 1110.22 101.752ZM1113.24 115.273C1112.18 116.763 1110.83 118.446 1109.19 120.323C1107.55 122.2 1105.77 124.19 1103.86 126.294C1101.95 128.365 1099.96 130.469 1097.9 132.606C1095.84 134.744 1093.9 136.76 1092.1 138.653C1094.4 141.694 1097.26 144.266 1100.53 146.228C1103.25 147.928 1106.38 148.861 1109.59 148.93C1110.82 148.942 1112.05 148.703 1113.18 148.225C1114.32 147.747 1115.34 147.042 1116.2 146.152C1118.05 144.301 1118.98 141.515 1118.99 137.795C1118.97 135.868 1118.76 133.947 1118.35 132.063C1117.93 130.051 1117.4 128.062 1116.76 126.105C1116.12 124.144 1115.49 122.233 1114.86 120.373C1114.23 118.513 1113.69 116.813 1113.25 115.273H1113.24Z" fill="#C02D28"/>
<path d="M786.712 28.2912C783.076 37.7931 779.638 47.9936 776.398 58.8926C773.158 69.7917 770.38 80.5139 768.066 91.0595C765.693 101.613 763.769 111.671 762.297 121.232C760.961 129.305 760.227 137.466 760.1 145.647C760.046 148.48 760.433 151.304 761.249 154.017C761.809 156.09 763.022 157.927 764.708 159.256C762.405 162.239 759.32 164.525 755.795 165.859C752.302 167.282 748.571 168.028 744.799 168.055C739.882 168.195 735.094 166.473 731.392 163.233C727.731 160.035 725.901 154.594 725.901 146.91C725.994 143.015 726.344 139.131 726.948 135.283C727.647 130.325 728.661 124.703 729.991 118.416C731.321 112.13 732.903 105.279 734.738 97.864C736.555 90.4577 738.512 82.9841 740.608 75.4432C740.007 75.4141 739.405 75.4867 738.828 75.6578C738.361 75.9026 737.966 76.2635 737.679 76.7056L686.336 155.078C681.093 157.005 675.571 158.067 669.987 158.221C666.922 158.296 663.886 157.611 661.15 156.226C658.513 154.758 656.556 152.316 655.697 149.422C656.117 145.651 656.5 141.443 656.845 136.798C657.19 132.152 657.54 127.333 657.893 122.343C658.238 117.385 658.554 112.39 658.84 107.358C659.126 102.325 659.337 97.4348 659.471 92.688C659.606 89.8938 659.677 87.3101 659.686 84.9367V77.5388C659.656 76.8126 659.48 76.0998 659.168 75.4432C658.986 75.2772 658.769 75.1537 658.533 75.0817C658.298 75.0097 658.049 74.9908 657.805 75.0266C646.485 95.4275 636.672 112.576 628.365 126.471C621.583 138.056 614.205 149.282 606.26 160.102C599.83 168.619 594.031 174.734 588.863 178.445C583.696 182.157 578.646 184.008 573.714 184C571.107 184.056 568.518 183.552 566.122 182.522C563.727 181.491 561.58 179.959 559.827 178.029C556.124 174.048 553.574 168.632 552.177 161.781C553.119 162.099 554.112 162.24 555.106 162.198C560.997 162.198 566.762 159.719 572.401 154.762C578.854 148.912 584.649 142.376 589.684 135.27C595.575 127.241 601.618 118.088 607.812 107.812C614.007 97.5358 620.609 87.0912 627.62 76.4784C630.303 72.1577 633.504 68.181 637.151 64.6367C639.917 62.0903 643.555 60.703 647.314 60.761C649.792 60.8144 652.255 61.1662 654.649 61.8089C654.984 61.8615 655.326 61.8413 655.653 61.7496C655.979 61.658 656.282 61.4971 656.541 61.2779C656.8 61.0587 657.008 60.7863 657.152 60.4792C657.296 60.1722 657.372 59.8377 657.376 59.4986C656.399 48.1788 652.978 39.5184 647.112 33.5177C641.246 27.5169 632.935 24.5123 622.179 24.5039C613.547 24.4626 605.043 26.5896 597.448 30.6898C589.785 34.7966 582.99 40.3483 577.438 47.0384C565.586 61.4854 559.108 79.594 559.108 98.2806C559.108 104.711 561.064 108.919 564.978 110.905C562.711 114.038 559.774 116.626 556.381 118.48C553.104 120.278 549.425 121.217 545.688 121.206C543.086 121.272 540.497 120.824 538.069 119.888C535.641 118.952 533.421 117.547 531.536 115.753C527.69 112.125 525.771 106.327 525.779 98.3564C525.749 89.5831 527.201 80.8677 530.072 72.5774C532.948 64.3091 536.895 56.4531 541.812 49.2097C546.799 41.8449 552.676 35.1242 559.31 29.2001C565.921 23.264 573.16 18.0657 580.897 13.6974C588.468 9.40016 596.519 6.01028 604.883 3.59794C612.965 1.24231 621.336 0.0312127 629.753 0C650.289 0 665.729 6.35847 676.072 19.0754C686.416 31.7923 691.583 51.6294 691.575 78.5866C691.575 80.5476 691.541 83.1314 691.474 86.338C691.407 89.5446 691.301 92.8269 691.158 96.185C691.015 99.5515 690.876 102.661 690.742 105.514C690.607 108.367 690.468 110.429 690.325 111.7C690.926 111.731 691.528 111.658 692.105 111.486C692.537 111.262 692.873 110.89 693.052 110.438L748.17 29.9702C749.853 27.176 751.389 25.7789 752.778 25.7789C753.194 25.7789 753.788 25.7789 754.558 25.6779C755.161 25.6387 755.758 25.5329 756.338 25.3623C758.433 22.989 761.649 21.8023 765.983 21.8023C769.178 21.8631 772.35 22.3557 775.413 23.2667C779.377 24.4563 783.174 26.1447 786.712 28.2912Z" fill="#C02D28"/>
<path opacity="0.4" d="M659.711 77.5388C659.681 76.8125 659.505 76.0997 659.193 75.4431C659.011 75.2771 658.794 75.1537 658.558 75.0817C658.323 75.0096 658.074 74.9908 657.83 75.0265C646.51 95.4275 636.697 112.576 628.39 126.471C621.609 138.056 614.23 149.282 606.285 160.102C599.859 168.623 583.864 143.299 589.734 135.27C595.605 127.241 601.639 118.088 607.863 107.812C614.087 97.5357 620.664 87.108 627.658 76.4909C630.341 72.1703 633.542 68.1936 637.189 64.6493C639.955 62.1029 643.593 60.7156 647.352 60.7736C649.83 60.827 652.293 61.1788 654.687 61.8214C655.022 61.8741 655.364 61.8539 655.691 61.7622C656.017 61.6706 656.32 61.5097 656.579 61.2905C656.837 61.0713 657.046 60.7989 657.19 60.4918C657.334 60.1848 657.41 59.8503 657.413 59.5112C657.089 55.2223 656.267 50.9858 654.964 46.8868C654.371 45.0689 653.879 43.9706 653.702 43.453C657.805 51.8103 659.383 63.1849 659.711 70.6964C659.762 72.6784 659.711 77.5388 659.711 77.5388Z" fill="url(#paint0_linear)"/>
<path opacity="0.41" d="M756.325 25.3623C754.381 28.7709 744.774 62.9829 740.608 75.4431C739.899 75.3647 739.182 75.469 738.525 75.7461C732.213 80.1646 714.614 83.8636 711.837 82.841C718.326 73.6631 741.832 39.1355 748.157 29.9702C748.561 29.3137 750.468 25.8168 752.765 25.7789C752.917 25.7789 753.308 25.7789 754.267 25.7032C754.964 25.6658 755.654 25.5515 756.325 25.3623Z" fill="url(#paint1_linear)"/>
</g>
<defs>
<linearGradient id="paint0_linear" x1="588.447" y1="102.649" x2="659.724" y2="102.649" gradientUnits="userSpaceOnUse">
<stop offset="0.67" stop-opacity="0"/>
<stop offset="1"/>
</linearGradient>
<linearGradient id="paint1_linear" x1="714.412" y1="99.6314" x2="752.235" y2="34.1236" gradientUnits="userSpaceOnUse">
<stop offset="0.4" stop-opacity="0"/>
<stop offset="1" stop-color="#3D3D3D"/>
</linearGradient>
<clipPath id="clip0">
<rect width="1142.83" height="184" fill="white"/>
</clipPath>
</defs>
</svg>
