<svg width="880" height="241" viewBox="0 0 880 241" fill="none" xmlns="http://www.w3.org/2000/svg">
<path fill-rule="evenodd" clip-rule="evenodd" d="M318 12V228H105V12H318ZM330 0H317.798H104.183H92V11.707V228.373V241H104.183H317.798H330V228.373V11.707V0Z" fill="#83D8D8"/>
<path fill-rule="evenodd" clip-rule="evenodd" d="M193 161V63.271V57H186.093H175.42H165V61.82V63.271V167.332V174.642V177.598V182H175.42H186.627H213.842H220V174.642V167.871V161H213.842H193Z" fill="#514762"/>
<path fill-rule="evenodd" clip-rule="evenodd" d="M274.637 94H260V83.71V79H258.079H256.564H247.279H242.87H236V83.71V94H226.849H220V103.096V110.238V118H226.849H236V130.67V133H242.87H247.279H256.564H258.079H260V130.67V118H274.637H275V110.238V103.096V94H274.637Z" fill="#83D8D8"/>
<path fill-rule="evenodd" clip-rule="evenodd" d="M591.688 37H584V44.644V116.867L564 103.27V44.644V37H557.686H548.814H541V44.644V111.265V113.836L544.261 115.438L588.2 146.252L590.277 149H592.133H600.561H604V140.486V44.644V37H600.561H591.688Z" fill="#514762"/>
<path fill-rule="evenodd" clip-rule="evenodd" d="M437 126V44.644V37H435.267H426.395H419V43.438V44.644V131.164V137.24V139.699V146H426.395H435.712H458.34H462V137.24V131.61V126H458.34H437Z" fill="#514762"/>
<path fill-rule="evenodd" clip-rule="evenodd" d="M705 126V44.644V37H699.916H691.044H684V43.438V44.644V131.164V137.24V139.699V146H691.044H700.361H722.988H727V137.24V131.61V126H722.988H705Z" fill="#514762"/>
<path fill-rule="evenodd" clip-rule="evenodd" d="M623 37V146H667V126H640V96H660V79H640V59H667V37H623Z" fill="#514762"/>
<path fill-rule="evenodd" clip-rule="evenodd" d="M495.58 37H486.26H482V44.644V53.072V92.121V100.997V131.164V137.24V146H486.26H495.58H521.451H527V137.24V131.61V126H521.451H501V96H514.96H521V88.457V82.824V79H514.96H501V59H521.451H524.797H527V53.52V44.644V37H521.451H495.58Z" fill="#514762"/>
<path fill-rule="evenodd" clip-rule="evenodd" d="M752.924 65.9209V86.3199C752.924 87.9609 752.672 89.4839 752.176 90.8979C751.682 92.3039 750.928 93.5269 749.912 94.5589C748.898 95.5949 747.631 96.4099 746.105 96.9979C744.579 97.5869 742.793 97.8839 740.734 97.8839C738.795 97.8839 737.082 97.6069 735.589 97.0519C734.103 96.4999 732.861 95.7099 731.86 94.6889C730.858 93.6709 730.099 92.4459 729.585 91.0169C729.065 89.5809 728.808 87.9899 728.808 86.2379V65.9209H735.472V85.7399C735.472 86.9039 735.589 87.9019 735.816 88.7279C736.048 89.5519 736.389 90.2299 736.843 90.7539C737.296 91.2799 737.861 91.6609 738.533 91.9049C739.21 92.1509 740.001 92.2749 740.909 92.2749C742.792 92.2749 744.153 91.7289 744.993 90.6329C745.831 89.5409 746.257 87.8949 746.257 85.6939V65.9199H752.924V65.9209Z" fill="#83D8D8"/>
<path fill-rule="evenodd" clip-rule="evenodd" d="M784.012 75.7539C784.012 77.1329 783.803 78.4569 783.383 79.7229C782.97 80.9879 782.283 82.1019 781.324 83.0649C780.369 84.0289 779.111 84.7989 777.553 85.3729C775.991 85.9509 774.062 86.2389 771.761 86.2389H770.23V97.4519H763.542V65.9219H772.3C774.323 65.9219 776.077 66.1459 777.553 66.5989C779.027 67.0539 780.24 67.6999 781.197 68.5379C782.152 69.3829 782.862 70.4119 783.322 71.6259C783.779 72.8379 784.012 74.2169 784.012 75.7539ZM770.23 80.7579H771.545C773.43 80.7579 774.847 80.3849 775.804 79.6379C776.761 78.8879 777.242 77.6739 777.242 75.9909C777.242 74.4279 776.81 73.2679 775.953 72.5219C775.099 71.7719 773.758 71.3959 771.932 71.3959H770.23V80.7579Z" fill="#83D8D8"/>
<path fill-rule="evenodd" clip-rule="evenodd" d="M764.522 196.639L779.589 190.053L764.522 182.625V176.998L786.832 188.623V191.973L764.522 202.239V196.639Z" fill="#514762"/>
<path fill-rule="evenodd" clip-rule="evenodd" d="M441.715 202.238L419.407 191.972V188.622L441.715 176.997V182.624L426.649 190.052L441.715 196.638V202.238Z" fill="#514762"/>
<path fill-rule="evenodd" clip-rule="evenodd" d="M474.566 207.738H467.475V180.107H459.053V174.187H482.966V180.107H474.566V207.738ZM518.957 174.187V195.896C518.957 197.641 518.693 199.262 518.165 200.762C517.638 202.261 516.834 203.562 515.756 204.663C514.677 205.765 513.327 206.629 511.705 207.256C510.083 207.884 508.179 208.197 505.991 208.197C503.925 208.197 502.101 207.903 500.517 207.314C498.934 206.725 497.611 205.887 496.547 204.801C495.484 203.715 494.677 202.41 494.126 200.888C493.575 199.366 493.3 197.671 493.3 195.805V174.187H500.391V195.277C500.391 196.516 500.514 197.576 500.758 198.455C501.003 199.335 501.367 200.054 501.848 200.613C502.33 201.171 502.931 201.58 503.65 201.84C504.369 202.1 505.211 202.23 506.174 202.23C508.179 202.23 509.628 201.649 510.523 200.486C511.418 199.324 511.866 197.572 511.866 195.231V174.187H518.957ZM544.805 207.738H537.714V180.107H529.291V174.187H553.204V180.107H544.805V207.738ZM590.963 190.917C590.963 193.502 590.661 195.858 590.056 197.985C589.452 200.112 588.53 201.932 587.291 203.447C586.052 204.961 584.487 206.132 582.598 206.958C580.708 207.784 578.478 208.197 575.908 208.197C573.338 208.197 571.108 207.784 569.218 206.958C567.329 206.132 565.768 204.961 564.537 203.447C563.305 201.932 562.387 200.108 561.783 197.973C561.178 195.839 560.876 193.472 560.876 190.871C560.876 188.27 561.178 185.91 561.783 183.791C562.387 181.672 563.309 179.863 564.548 178.363C565.787 176.864 567.352 175.705 569.241 174.886C571.131 174.068 573.368 173.659 575.954 173.659C578.524 173.659 580.75 174.068 582.632 174.886C584.514 175.705 586.071 176.868 587.302 178.375C588.534 179.882 589.452 181.695 590.056 183.814C590.661 185.933 590.963 188.3 590.963 190.917ZM568.197 190.917C568.197 192.676 568.35 194.256 568.656 195.656C568.962 197.055 569.433 198.241 570.067 199.213C570.702 200.184 571.502 200.93 572.466 201.45C573.43 201.97 574.577 202.23 575.908 202.23C577.27 202.23 578.436 201.97 579.408 201.45C580.379 200.93 581.175 200.184 581.794 199.213C582.414 198.241 582.873 197.055 583.171 195.656C583.47 194.256 583.619 192.676 583.619 190.917C583.619 189.157 583.47 187.577 583.171 186.177C582.873 184.778 582.414 183.588 581.794 182.609C581.175 181.63 580.383 180.88 579.419 180.36C578.455 179.84 577.3 179.58 575.954 179.58C574.623 179.58 573.468 179.84 572.489 180.36C571.509 180.88 570.702 181.63 570.067 182.609C569.433 183.588 568.962 184.778 568.656 186.177C568.35 187.577 568.197 189.157 568.197 190.917ZM610.408 189.081H612.335C614.309 189.081 615.724 188.687 616.581 187.899C617.438 187.111 617.866 185.952 617.866 184.422C617.866 182.831 617.407 181.699 616.489 181.025C615.571 180.352 614.148 180.016 612.221 180.016H610.408V189.081ZM610.408 194.864V207.738H603.293V174.187H612.473C616.772 174.187 619.947 175.017 621.997 176.677C624.047 178.337 625.072 180.857 625.072 184.238C625.072 185.386 624.919 186.426 624.613 187.359C624.307 188.293 623.898 189.123 623.385 189.849C622.873 190.576 622.284 191.211 621.618 191.754C620.953 192.297 620.253 192.752 619.518 193.12C621.217 195.843 622.739 198.276 624.085 200.417C624.667 201.335 625.229 202.23 625.772 203.103C626.315 203.975 626.801 204.755 627.229 205.443C627.658 206.132 628.01 206.683 628.285 207.096L628.675 207.738H620.781L613.506 194.864H610.408ZM650.851 207.738H635.59V203.699L639.675 201.817V180.107L635.59 178.226V174.187H650.851V178.226L646.766 180.107V201.817L650.851 203.699V207.738ZM681.128 207.738L678.833 199.752H667.267L664.949 207.738H657.766L668.667 174.049H677.364L688.311 207.738H681.128ZM677.181 193.785L675.024 186.441C674.932 186.166 674.794 185.715 674.61 185.087C674.427 184.46 674.232 183.768 674.025 183.01C673.819 182.253 673.624 181.492 673.44 180.727C673.256 179.962 673.126 179.312 673.05 178.776C672.989 179.113 672.908 179.511 672.809 179.97C672.709 180.429 672.595 180.914 672.465 181.427C672.335 181.94 672.201 182.456 672.063 182.976C671.925 183.496 671.795 183.986 671.673 184.445C671.551 184.904 671.44 185.309 671.34 185.661C671.241 186.013 671.168 186.273 671.122 186.441L668.988 193.785H677.181ZM697.934 207.738V174.187H705.048V201.863H717.257V207.738H697.934ZM746.868 198.421C746.868 199.92 746.612 201.27 746.1 202.471C745.587 203.672 744.837 204.698 743.851 205.547C742.864 206.396 741.655 207.05 740.225 207.509C738.794 207.968 737.153 208.197 735.302 208.197C733.68 208.197 732.116 208.029 730.609 207.692C729.102 207.356 727.706 206.851 726.421 206.178V199.568C727.155 199.92 727.897 200.261 728.647 200.59C729.396 200.919 730.158 201.213 730.93 201.473C731.703 201.733 732.475 201.94 733.248 202.093C734.021 202.246 734.789 202.322 735.554 202.322C736.335 202.322 737.004 202.234 737.563 202.058C738.121 201.882 738.572 201.638 738.917 201.324C739.261 201.01 739.513 200.635 739.674 200.199C739.835 199.763 739.915 199.285 739.915 198.765C739.915 198.138 739.781 197.583 739.513 197.101C739.245 196.619 738.871 196.168 738.389 195.747C737.907 195.327 737.325 194.917 736.645 194.52C735.964 194.122 735.203 193.701 734.361 193.257C733.657 192.89 732.869 192.446 731.997 191.926C731.125 191.406 730.303 190.76 729.53 189.987C728.758 189.214 728.111 188.281 727.591 187.187C727.071 186.093 726.811 184.781 726.811 183.251C726.811 181.752 727.059 180.41 727.557 179.224C728.054 178.038 728.762 177.036 729.679 176.218C730.597 175.399 731.71 174.776 733.019 174.347C734.327 173.919 735.792 173.705 737.413 173.705C738.224 173.705 739.016 173.758 739.789 173.865C740.561 173.972 741.326 174.125 742.084 174.324C742.841 174.523 743.602 174.768 744.367 175.059C745.132 175.349 745.92 175.686 746.731 176.068L744.436 181.599C743.747 181.278 743.105 180.995 742.508 180.75C741.911 180.505 741.33 180.299 740.764 180.13C740.198 179.962 739.643 179.836 739.1 179.752C738.557 179.668 738.01 179.625 737.459 179.625C736.266 179.625 735.352 179.943 734.717 180.578C734.082 181.213 733.764 182.058 733.764 183.114C733.764 183.68 733.86 184.181 734.051 184.617C734.243 185.053 734.549 185.462 734.969 185.845C735.39 186.227 735.933 186.617 736.599 187.015C737.264 187.413 738.071 187.864 739.02 188.369C740.167 188.981 741.223 189.605 742.187 190.24C743.151 190.874 743.981 191.578 744.677 192.351C745.373 193.123 745.912 193.999 746.295 194.979C746.677 195.958 746.868 197.105 746.868 198.421Z" fill="#514762"/>
</svg>
