<svg width="40" height="40" viewBox="0 0 40 40" fill="none" xmlns="http://www.w3.org/2000/svg">
<path d="M22.5681 8.4191H17.2764V3.65155C17.2764 3.14459 17.2038 2.82007 17.0619 2.6795C16.92 2.53892 16.5833 2.47013 16.0619 2.47013H8.3792C7.85613 2.47013 7.52446 2.54042 7.38916 2.6795C7.25385 2.81858 7.173 3.14459 7.173 3.65155V20.507C7.173 21.0169 7.24395 21.3399 7.38916 21.4805C7.53436 21.6211 7.86438 21.6899 8.3792 21.6899H16.0636C16.585 21.6899 16.9183 21.6201 17.0635 21.4805C17.2054 21.3399 17.278 21.0169 17.278 20.507V18.8971L22.5698 15.8683V20.9332C22.5698 22.9421 21.5374 23.9461 19.4726 23.9451H4.97016C2.90648 23.9451 1.87409 22.9411 1.87299 20.9332V3.23282C1.87299 1.2249 2.90538 0.220449 4.97016 0.219452H19.471C21.5346 0.219452 22.567 1.22391 22.5681 3.23282V8.4191Z" fill="#292929"/>
<path d="M38.217 24.0679H32.9252V19.3004C32.9252 18.7934 32.8526 18.4689 32.7107 18.3283C32.5688 18.1877 32.2322 18.1189 31.7107 18.1189H24.028C23.505 18.1189 22.9575 18.1892 22.8222 18.3283C22.6869 18.4674 22.5698 18.8949 22.5698 19.4019V36.1558C22.5698 36.6657 22.8928 36.9887 23.038 37.1293C23.1832 37.2699 23.5132 37.3387 24.028 37.3387H31.7124C32.2338 37.3387 32.5671 37.2689 32.7123 37.1293C32.8542 36.9887 32.9268 36.6657 32.9268 36.1558V31.3957H38.2186V36.582C38.2186 38.5909 37.1862 39.5948 35.1214 39.5938H20.619C18.5553 39.5938 17.2705 38.573 17.2694 36.5651V18.8971C17.2694 16.8891 18.5542 15.8693 20.619 15.8683H35.1198C37.1835 15.8683 38.2159 16.8727 38.217 18.8816V24.0679Z" fill="#FFC53D"/>
</svg>
