<svg width="28" height="40" viewBox="0 0 28 40" fill="none" xmlns="http://www.w3.org/2000/svg">
<path d="M9.99641 4.18H11.2204L9.22841 10H7.54841L6.16841 5.176L4.82441 10H3.14441L1.12841 4.18H2.35241L4.00841 9.16L5.47241 4.18H6.90041L8.32841 9.16L9.99641 4.18ZM13.9393 10H12.6553V4.18H13.9393V10ZM12.6313 3.064V1.96H13.9753V3.064H12.6313ZM19.1104 4.888H17.7064V8.872C17.7064 9.032 17.7304 9.136 17.7784 9.184C17.8264 9.224 17.9264 9.244 18.0784 9.244H19.0984V10H17.3704C16.7384 10 16.4224 9.684 16.4224 9.052V4.888H15.4864V4.18H16.4224V3.1H17.7064V4.18H19.1104V4.888ZM22.5424 4.18H25.3264C25.9584 4.18 26.2744 4.496 26.2744 5.128V10H25.0024V5.26C25.0024 5.108 24.9784 5.008 24.9304 4.96C24.8904 4.912 24.7904 4.888 24.6304 4.888H22.2904C22.1464 4.888 22.0424 4.92 21.9784 4.984C21.9144 5.04 21.8824 5.144 21.8824 5.296V5.668H21.8704V10H20.5864V1.972H21.8704V4.576C21.9584 4.312 22.1824 4.18 22.5424 4.18Z" fill="#292929"/>
<path d="M23.8748 30.425C23.6748 32.875 21.5998 34.775 19.1248 34.75H16.4998L11.4998 38V34.75L16.4998 31.5H19.1248C19.8998 31.525 20.5498 30.95 20.6498 30.175C20.7998 27.675 20.7998 25.175 20.5998 22.675C20.5498 21.975 19.9748 21.45 19.2998 21.4C17.5998 21.325 15.7998 21.25 13.9998 21.25C12.1998 21.25 10.3998 21.3 8.69984 21.425C7.99984 21.475 7.44984 22 7.39984 22.7C7.22484 25.2 7.19984 27.7 7.34984 30.2C7.42484 30.975 8.09984 31.525 8.87484 31.5H11.4998V34.75H8.87484C6.39984 34.775 4.32484 32.9 4.12484 30.425C3.94984 27.75 3.97484 25.1 4.17484 22.425C4.37484 20.125 6.19984 18.325 8.49984 18.175C10.2498 18.05 12.1248 18 13.9998 18C15.8748 18 17.7498 18.05 19.5248 18.2C21.8248 18.35 23.6498 20.15 23.8498 22.45C24.0248 25.1 24.0498 27.775 23.8748 30.425Z" fill="#FF5100"/>
</svg>
