<svg width="177" height="20" viewBox="0 0 177 20" fill="none" xmlns="http://www.w3.org/2000/svg">
<path d="M6.65357 13.74V9.47C6.65357 9.29267 6.62557 9.176 6.56957 9.12C6.5229 9.064 6.40624 9.036 6.21957 9.036H2.99957C2.83157 9.036 2.71024 9.07333 2.63557 9.148C2.5609 9.22267 2.52357 9.34867 2.52357 9.526V13.684C2.52357 13.8613 2.5609 13.9873 2.63557 14.062C2.71024 14.1367 2.83157 14.174 2.99957 14.174H6.21957C6.40624 14.174 6.5229 14.1507 6.56957 14.104C6.62557 14.048 6.65357 13.9267 6.65357 13.74ZM3.29357 8.21H6.75157C7.4889 8.21 7.85757 8.57867 7.85757 9.316V13.894C7.85757 14.6313 7.4889 15 6.75157 15H3.29357C2.90157 15 2.6449 14.8507 2.52357 14.552V16.974H1.31957V8.21H2.52357V8.658C2.6449 8.35933 2.90157 8.21 3.29357 8.21ZM15.3436 13.74V9.47C15.3436 9.29267 15.3156 9.176 15.2596 9.12C15.213 9.064 15.0963 9.036 14.9096 9.036H11.7176C11.531 9.036 11.4096 9.064 11.3536 9.12C11.307 9.176 11.2836 9.29267 11.2836 9.47V13.74C11.2836 13.9267 11.307 14.048 11.3536 14.104C11.4096 14.1507 11.531 14.174 11.7176 14.174H14.9096C15.0963 14.174 15.213 14.1507 15.2596 14.104C15.3156 14.048 15.3436 13.9267 15.3436 13.74ZM11.1996 8.21H15.4276C16.165 8.21 16.5336 8.57867 16.5336 9.316V13.894C16.5336 14.6313 16.165 15 15.4276 15H11.1996C10.4623 15 10.0936 14.6313 10.0936 13.894V9.316C10.0936 8.57867 10.4623 8.21 11.1996 8.21ZM28.4633 8.21H29.6113L27.2453 15H25.5513L23.8433 9.218L22.1633 15H20.4693L18.0753 8.21H19.2233L21.3233 14.188L23.1153 8.21H24.5993L26.3633 14.188L28.4633 8.21ZM32.3523 11.108H36.4963V9.47C36.4963 9.29267 36.4683 9.176 36.4123 9.12C36.3563 9.064 36.2397 9.036 36.0623 9.036H32.7863C32.609 9.036 32.4923 9.064 32.4363 9.12C32.3803 9.176 32.3523 9.29267 32.3523 9.47V11.108ZM32.2543 8.21H36.5803C37.3177 8.21 37.6863 8.57867 37.6863 9.316V11.934H32.3523V13.74C32.3523 13.9267 32.3803 14.048 32.4363 14.104C32.4923 14.1507 32.609 14.174 32.7863 14.174H36.0203C36.207 14.174 36.3237 14.1507 36.3703 14.104C36.4263 14.048 36.4543 13.9267 36.4543 13.74V13.082H37.6443V13.894C37.6443 14.6313 37.2757 15 36.5383 15H32.2543C31.517 15 31.1483 14.6313 31.1483 13.894V9.316C31.1483 8.57867 31.517 8.21 32.2543 8.21ZM42.2249 8.21H43.6809V9.064H42.0429C41.4363 9.064 41.1329 9.414 41.1329 10.114V15H39.9289V8.21H41.1329V9.064C41.2823 8.49467 41.6463 8.21 42.2249 8.21ZM46.1472 11.108H50.2912V9.47C50.2912 9.29267 50.2632 9.176 50.2072 9.12C50.1512 9.064 50.0346 9.036 49.8572 9.036H46.5812C46.4039 9.036 46.2872 9.064 46.2312 9.12C46.1752 9.176 46.1472 9.29267 46.1472 9.47V11.108ZM46.0492 8.21H50.3752C51.1126 8.21 51.4812 8.57867 51.4812 9.316V11.934H46.1472V13.74C46.1472 13.9267 46.1752 14.048 46.2312 14.104C46.2872 14.1507 46.4039 14.174 46.5812 14.174H49.8152C50.0019 14.174 50.1186 14.1507 50.1652 14.104C50.2212 14.048 50.2492 13.9267 50.2492 13.74V13.082H51.4392V13.894C51.4392 14.6313 51.0706 15 50.3332 15H46.0492C45.3119 15 44.9432 14.6313 44.9432 13.894V9.316C44.9432 8.57867 45.3119 8.21 46.0492 8.21ZM55.2219 14.174H58.3019C58.4699 14.174 58.5912 14.1367 58.6659 14.062C58.7405 13.9873 58.7779 13.8613 58.7779 13.684V9.526C58.7779 9.34867 58.7405 9.22267 58.6659 9.148C58.5912 9.07333 58.4699 9.036 58.3019 9.036H55.2219C55.0445 9.036 54.9279 9.064 54.8719 9.12C54.8159 9.176 54.7879 9.29267 54.7879 9.47V13.74C54.7879 13.9267 54.8159 14.048 54.8719 14.104C54.9279 14.1507 55.0445 14.174 55.2219 14.174ZM58.7779 5.634H59.9819V15H58.7779V14.552C58.6565 14.8507 58.3999 15 58.0079 15H54.6899C53.9525 15 53.5839 14.6313 53.5839 13.894V9.316C53.5839 8.57867 53.9525 8.21 54.6899 8.21H58.0079C58.3999 8.21 58.6565 8.35933 58.7779 8.658V5.634ZM71.537 13.74V9.47C71.537 9.29267 71.509 9.176 71.453 9.12C71.4063 9.064 71.2897 9.036 71.103 9.036H68.037C67.869 9.036 67.7477 9.07333 67.673 9.148C67.5983 9.22267 67.561 9.34867 67.561 9.526V10.002H67.547V13.348H67.561V13.684C67.561 13.8613 67.5983 13.9873 67.673 14.062C67.7477 14.1367 67.869 14.174 68.037 14.174H71.103C71.2897 14.174 71.4063 14.1507 71.453 14.104C71.509 14.048 71.537 13.9267 71.537 13.74ZM68.331 8.21H71.635C72.3723 8.21 72.741 8.57867 72.741 9.316V13.894C72.741 14.6313 72.3723 15 71.635 15H68.331C67.911 15 67.6497 14.8367 67.547 14.51V15H66.343V5.634H67.547V8.7C67.6497 8.37333 67.911 8.21 68.331 8.21ZM76.8564 16.974H75.5264V16.148H76.4504C76.945 16.148 77.281 15.9753 77.4584 15.63L77.7664 15H77.3464L74.3644 8.21H75.5824L78.1304 14.174L80.6224 8.21H81.8404L78.4944 15.77C78.317 16.1807 78.1117 16.484 77.8784 16.68C77.645 16.876 77.3044 16.974 76.8564 16.974Z" fill="#292929"/>
<path d="M107.9 12.425C107.7 14.875 105.625 16.775 103.15 16.75H100.525L95.5252 20V16.75L100.525 13.5H103.15C103.925 13.525 104.575 12.95 104.675 12.175C104.825 9.675 104.825 7.175 104.625 4.675C104.575 3.975 104 3.45 103.325 3.4C101.625 3.3 99.8252 3.225 98.0252 3.225C96.2252 3.225 94.4252 3.275 92.7252 3.4C92.0252 3.45 91.4752 3.975 91.4252 4.675C91.2502 7.175 91.2252 9.675 91.3752 12.175C91.4502 12.95 92.1252 13.5 92.9002 13.475H95.5252V16.725H92.9002C90.4252 16.75 88.3502 14.875 88.1502 12.4C87.9752 9.725 88.0002 7.075 88.2002 4.4C88.3752 2.15 90.2002 0.325 92.5002 0.175C94.2752 0.05 96.1502 0 98.0252 0C99.9002 0 101.775 0.05 103.55 0.2C105.85 0.35 107.675 2.15 107.875 4.45C108.05 7.1 108.075 9.775 107.9 12.425Z" fill="#FF5100"/>
<path d="M113.025 14.275H120.875V12.3H115.4V2.375H113.025V14.275Z" fill="#1B1B20"/>
<path d="M122.026 14.275H124.326V5.42499H122.026V14.275ZM121.826 3.12499C121.826 3.87499 122.426 4.47499 123.176 4.47499C123.926 4.47499 124.526 3.87499 124.526 3.12499C124.526 2.37499 123.926 1.77499 123.176 1.77499C122.451 1.74999 121.851 2.32499 121.826 3.02499C121.826 3.04999 121.826 3.07499 121.826 3.12499Z" fill="#1B1B20"/>
<path d="M133.4 5.42499H131.1L129.2 11.9L127.3 5.42499H125L128 14.275H130.4L133.4 5.42499Z" fill="#1B1B20"/>
<path d="M137.525 14.475C139.475 14.475 141.05 13.3 141.375 11.675H139.35C139.125 12.275 138.525 12.8 137.525 12.8C136.175 12.8 135.65 11.9 135.65 10.85V10.625H141.425V9.07498C141.425 6.94998 140.1 5.19998 137.475 5.19998C134.85 5.19998 133.4 6.89998 133.4 9.29998V10.5C133.4 13 135.025 14.475 137.525 14.475ZM135.65 8.92498C135.65 7.72498 136.15 6.84998 137.5 6.84998C138.75 6.84998 139.325 7.67498 139.325 8.79998V8.99998H135.675V8.92498H135.65Z" fill="#1B1B20"/>
<path d="M147.575 14.5C150.575 14.5 152.45 12.45 152.55 10.025H150.35C150.2 11.375 149.35 12.55 147.575 12.55C145.575 12.55 144.725 11.2 144.725 9.275V7.35C144.725 5.45 145.575 4.075 147.575 4.075C149.35 4.075 150.2 5.25 150.35 6.6H152.55C152.425 4.175 150.575 2.125 147.575 2.125C143.975 2.125 142.375 4.425 142.375 7.45V9.15C142.375 12.2 143.975 14.5 147.575 14.5Z" fill="#1B1B20"/>
<path d="M153.801 14.275H156.101V9.02501C156.101 7.82501 156.751 7.22501 157.801 7.22501C158.926 7.22501 159.426 7.95001 159.426 8.97501V14.25H161.726V8.60001C161.726 6.50001 160.526 5.22501 158.601 5.22501C157.451 5.22501 156.551 5.72501 156.101 6.47501V1.85001H153.801V14.275Z" fill="#1B1B20"/>
<path d="M166.15 14.475C167.175 14.475 168.3 14.05 168.7 13.45V14.275H170.925V8.62501C170.925 6.57501 169.425 5.22501 167.2 5.22501C165.3 5.22501 163.925 6.15001 163.4 7.85001H165.55C165.8 7.37501 166.275 7.02501 167.075 7.02501C168.025 7.02501 168.6 7.62501 168.6 8.45001V9.65001C167.95 9.15001 167.175 8.87501 166.35 8.90001C164.225 8.90001 162.775 9.77501 162.775 11.7C162.8 13.425 164.175 14.475 166.15 14.475ZM166.75 12.95C165.775 12.95 165.05 12.475 165.05 11.65C165.05 10.825 165.725 10.4 166.825 10.4C167.85 10.4 168.625 10.85 168.625 11.65C168.625 12.45 167.775 12.95 166.75 12.95Z" fill="#1B1B20"/>
<path d="M175.275 14.275H176.875V12.4H175.925C175.3 12.4 175.1 12.15 175.1 11.575V7.3H176.975V5.425H175.1V3H172.775V5.425H171.525V7.3H172.775V11.75C172.775 13.325 173.55 14.275 175.275 14.275Z" fill="#1B1B20"/>
</svg>
