<svg width="80" height="80" viewBox="0 0 80 80" fill="none" xmlns="http://www.w3.org/2000/svg">
<path d="M56.3625 31.5625V31.6563H56.5563C56.5581 31.5639 56.5771 31.4728 56.6126 31.3875V31.2188C56.5313 31.2188 56.4501 31.35 56.375 31.5812L56.3625 31.5625ZM54.525 27.1375V26.9688H54.2501V27.1375H54.525ZM49.1875 37.1375C48.7853 36.4488 48.2911 35.818 47.7188 35.2625C47.7188 35.0625 48.0313 34.7688 48.7126 34.375L50.625 32.7125C51.1542 31.9074 51.4326 30.9634 51.425 30V29.7125C51.35 28.85 50.725 28.1563 49.55 27.625C48.85 27.1542 47.6 26.8938 45.8 26.8438C43.7749 27.1086 41.7959 27.6512 39.9188 28.4562C39.1896 28.975 38.4322 29.4528 37.65 29.8875V30.0312C37.7317 30.0156 37.8087 29.9813 37.875 29.9313C37.8947 29.9264 37.9152 29.9262 37.9349 29.9306C37.9546 29.935 37.9731 29.9439 37.9888 29.9566C38.0046 29.9693 38.0171 29.9855 38.0256 30.0038C38.034 30.0222 38.0381 30.0423 38.0375 30.0625L38.125 30H38.1938V30.0625C37.7235 30.5438 37.1943 30.9638 36.6188 31.3125L36.7001 31.4625H36.6313L36.4563 31.4C36.4563 31.45 36.3876 31.4875 36.2438 31.5V31.5625L36.4125 31.775C36.3283 31.7729 36.2454 31.7537 36.1688 31.7188C35.8875 31.7581 35.6299 31.8979 35.4438 32.1125L35.5438 31.6812C35.8648 30.3424 36.1069 28.9859 36.2688 27.6187L36.25 27.5C35.9916 27.3287 35.7617 27.1178 35.5688 26.875C35.5755 26.773 35.5755 26.6707 35.5688 26.5687V26.5063H35.5C34.7292 27.6604 33.248 29.6292 31.0563 32.4125C29.3896 34.3917 28.5271 35.4917 28.4688 35.7125C27.7875 36.4187 27.4625 36.8437 27.4938 36.9625C27.3125 37.0812 27.2375 37.1938 27.2688 37.325C27.2586 37.3288 27.2476 37.3304 27.2367 37.3295C27.2258 37.3287 27.2152 37.3255 27.2057 37.3201C27.1962 37.3148 27.1879 37.3074 27.1816 37.2985C27.1752 37.2896 27.1708 37.2795 27.1688 37.2688C27.0261 37.5011 26.837 37.7016 26.6134 37.8575C26.3897 38.0134 26.1362 38.1215 25.8688 38.175L25.2438 38.3125C25.2241 38.3154 25.2053 38.3224 25.1885 38.333C25.1717 38.3436 25.1572 38.3575 25.1461 38.374C25.1349 38.3904 25.1273 38.409 25.1236 38.4285C25.12 38.4481 25.1205 38.4682 25.125 38.4875V38.5625L25.35 38.5125V38.575L24.8375 38.775L23.9313 38.9875H23.4563C23.3875 39.0563 23.8375 38.9875 23.6625 39.025L23.0375 39.1625C22.675 39.2437 22.4813 39.2125 22.4125 39.0687H22.3438C22.355 39.1181 22.355 39.1694 22.3438 39.2188L22.3063 39.075L21.8313 39.1875C21.8605 39.0167 21.25 38.2458 20 36.875C20 36.6062 20.4188 36.2187 21.325 35.7125L23.875 33.4688C24.4459 32.7354 24.7855 31.5583 24.8938 29.9375L24.8563 29.5563C24.7563 28.4125 23.9313 27.4937 22.3563 26.7812C21.4375 26.1562 19.7813 25.825 17.3938 25.775C14.7299 26.1238 12.1252 26.8301 9.65005 27.875C8.69235 28.5588 7.69475 29.1849 6.66255 29.75V29.95C6.76972 29.9317 6.8719 29.8913 6.96255 29.8313C6.98752 29.8245 7.01369 29.8237 7.03905 29.8287C7.0644 29.8337 7.08827 29.8445 7.10881 29.8602C7.12934 29.8759 7.14599 29.8961 7.15748 29.9193C7.16896 29.9424 7.17497 29.9679 7.17505 29.9938L7.37505 29.8813H7.50005V30C6.86817 30.6192 6.16782 31.1643 5.41255 31.625L5.52505 31.8H5.43755L5.22505 31.725C5.22505 31.7812 5.1313 31.825 4.92505 31.8438V31.95L5.1563 32.2062C5.04912 32.2053 4.94309 32.1841 4.8438 32.1438C4.56544 32.2026 4.30302 32.3207 4.07438 32.49C3.84574 32.6593 3.65625 32.8759 3.5188 33.125L3.6313 33.3C3.82377 33.0902 4.04718 32.911 4.2938 32.7688V33.0562C4.18779 33.0786 4.08635 33.1187 3.9938 33.175L4.2313 33.5375C4.68345 33.0591 5.19366 32.6392 5.75005 32.2875C6.02505 32.3563 6.1688 32.4438 6.17505 32.5375H6.38755C7.73958 31.5047 9.24543 30.6906 10.85 30.125V30.325C10.575 30.7417 10.3896 30.95 10.2938 30.95C10.3005 31.0852 10.351 31.2147 10.4375 31.3188C10.4625 31.5688 9.7938 33.2562 8.4313 36.3812C5.3813 43.5854 2.8063 48.925 0.706299 52.4C0.725751 52.5021 0.76853 52.5984 0.831299 52.6812C1.18044 52.6241 1.51431 52.4966 1.81255 52.3062H1.92505V52.5063H2.1188L2.3188 52.3937C2.3188 52.45 2.38755 52.4812 2.52505 52.4687V52.6687C2.49922 52.9886 2.38688 53.2954 2.20005 53.5562C1.90168 53.9964 1.68176 54.4848 1.55005 55V55.0937H1.7438C2.50499 54.2673 3.14856 53.3398 3.6563 52.3375C5.5962 51.82 7.48032 51.1124 9.2813 50.225C10.3495 50.1952 11.3832 49.8398 12.2438 49.2063V49.1L11.7563 49.2437H11.6438V49.1375C12.3445 49.0896 13.0237 48.8753 13.625 48.5125C15.4834 47.0792 16.8876 46.0646 17.8375 45.4687C19.7875 44.0354 21.0542 42.6396 21.6375 41.2813L21.9625 41.2062C22.1187 41.2149 22.2752 41.2149 22.4313 41.2062C22.4313 41.1562 22.4313 41.125 22.4938 41.1125C22.9313 41.0687 22.7188 41.1125 23 41.075L23.7313 40.9062H23.8563L23.8 40.9438C23.8888 40.9608 23.98 40.9608 24.0688 40.9438L24.1188 41.1562L20.7813 46.4625L20 47.3187L19.6376 48.5312H19.7063L20.0688 48.3813L19.9501 48.85L19.9875 48.9875L20.0875 49.1125C20.0438 49.1125 20.0251 49.1562 20.0375 49.2063V49.2812L20.1875 49.2437C20.4084 49.0521 20.5021 48.8771 20.4688 48.7187C20.6238 48.7587 20.7845 48.7714 20.9438 48.7563V48.8312C20.8 48.8687 20.725 48.9813 20.7125 49.1812V49.2562H20.7938C22.0063 47.9312 24.975 43.4125 27.3563 40.3375C27.2813 40.0042 28.5313 39.5417 31.1063 38.95H31.1875C31.2792 39.3667 31.0709 40.3396 30.5625 41.8687C30.3635 42.3608 30.2149 42.8717 30.1188 43.3937C29.8673 44.046 29.6749 44.7196 29.5438 45.4062L28.6875 48.3375C28.0921 49.8887 27.6402 51.4912 27.3375 53.125C27.42 53.1082 27.5051 53.1082 27.5875 53.125L27.7188 53.0125C27.7208 53.0232 27.7252 53.0334 27.7316 53.0423C27.7379 53.0512 27.7462 53.0585 27.7557 53.0639C27.7652 53.0692 27.7758 53.0725 27.7867 53.0733C27.7976 53.0741 27.8086 53.0726 27.8188 53.0688L27.7688 52.8562H28.1625C28.2813 52.8562 28.375 52.6812 28.4625 52.4125C28.4625 52.0125 28.525 51.7875 28.7063 51.75C28.7985 51.2506 28.9496 50.7639 29.1563 50.3C29.2523 49.7383 29.4226 49.1918 29.6625 48.675C30.0063 47.425 30.2875 46.8 30.4188 46.7625L30.4563 46.9125L30.2063 47.5375C29.881 49.0999 29.4381 50.6356 28.8813 52.1313L29.0125 52.6875H29.0938C30.1771 50.3583 31.7355 45.7458 33.7688 38.85C33.7984 38.5744 33.891 38.3092 34.0394 38.0751C34.1879 37.841 34.3883 37.6442 34.625 37.5L34.5063 37.375V37.3125C34.6968 37.2831 34.8701 37.1853 34.9938 37.0375C34.9938 36.9875 34.7813 36.9062 34.3688 36.8062L35.3813 32.4312C35.4932 32.3108 35.6241 32.2094 35.7688 32.1313V32.35C35.6871 32.3657 35.6102 32.3999 35.5438 32.45L35.7375 32.725C36.0773 32.3621 36.4592 32.0411 36.875 31.7688C37.0875 31.825 37.1875 31.9 37.2001 31.9688H37.35C38.3792 31.1887 39.5244 30.575 40.7438 30.15V30.2938C40.5396 30.6021 40.4 30.7583 40.325 30.7625C40.3333 30.8624 40.3654 30.9589 40.4188 31.0437C40.0175 32.3643 39.5139 33.6515 38.9125 34.8938C37.2123 39.09 35.2415 43.1715 33.0125 47.1125C33.0319 47.1903 33.0682 47.2629 33.1188 47.325C33.3823 47.2827 33.6337 47.1847 33.8563 47.0375H33.925V47.1812H34.0875L34.2313 47.1063C34.2313 47.1479 34.2834 47.1646 34.3876 47.1562V47.3125C34.3659 47.5519 34.2794 47.7809 34.1375 47.975C33.8897 48.3169 33.7094 48.703 33.6063 49.1125V49.1875H33.7563C34.3344 48.5602 34.8224 47.8555 35.2063 47.0937C36.6714 46.6991 38.0947 46.1632 39.4563 45.4937C40.2719 45.4726 41.0615 45.2021 41.7188 44.7188V44.6437L41.3376 44.7563H41.2563V44.6812C41.7874 44.6423 42.3017 44.4774 42.7563 44.2C44.1626 43.1187 45.2563 42.325 45.9563 41.8875C48.2063 40.25 49.25 38.6813 49.125 37.1688L49.1875 37.1375ZM48.8001 37.2375L48.8501 37.825C48.7813 37.9688 48.7063 38.0438 48.6376 38.05L48.55 37.05C48.7126 37.1062 48.7938 37.1688 48.8001 37.2375ZM4.70005 32.5H4.60005V32.3187L5.00005 32.2875V32.3813C4.895 32.4002 4.79499 32.4406 4.7063 32.5H4.70005ZM2.73755 52.125C2.54409 52.0279 2.32873 51.9826 2.11255 51.9937V51.7063C2.11255 51.5938 2.16255 51.5187 2.3063 51.4937C2.45005 51.4687 2.51255 51.575 2.5188 51.7625C2.68314 51.5363 2.86947 51.327 3.07505 51.1375L3.28755 51.225C3.2188 51.8062 3.03755 52.1062 2.75005 52.125H2.73755ZM23.7063 30.1875C23.6063 30.1875 23.4063 29.8875 23.125 29.2812V29.1C23.3125 29.1 23.5063 29.3875 23.7063 30.0062V30.1875ZM23.425 28.0125L23.3438 28.2063L20.4938 27.0188C22.3938 27.0813 23.3709 27.4125 23.425 28.0125ZM11.4063 38.3437L11.0063 38.3812V38.2L11.4063 38.1625V38.3437ZM11.0813 32.1438H11.1813V32.4312C11.0875 32.4312 10.9688 32.575 10.8125 32.8437V32.6437C10.9938 32.4313 11.0875 32.2625 11.075 32.15L11.0813 32.1438ZM10.2375 34.1375L10.275 34.5188H10.175L10.1375 34.1375H10.2375ZM9.7938 34.85H9.98755C9.98755 35.1625 9.8813 35.3312 9.72505 35.3437H9.62505C9.72589 35.2026 9.78443 35.0357 9.7938 34.8625V34.85ZM9.46255 35.8375H9.57505V35.9313L9.3938 36.2313H9.20005V36.1375C9.23922 36.1405 9.27855 36.1342 9.31484 36.1192C9.35114 36.1041 9.38338 36.0808 9.40894 36.0509C9.43451 36.0211 9.45269 35.9857 9.462 35.9475C9.47132 35.9093 9.4715 35.8695 9.46255 35.8313V35.8375ZM9.13755 36.7312L9.0813 37.2062H8.9813L8.93755 36.7375H9.13755V36.7312ZM5.86255 46.0125C5.7313 46.6375 5.5938 46.9937 5.45005 47.0062V46.9125C5.43965 46.7395 5.47248 46.5667 5.54558 46.4095C5.61869 46.2524 5.72977 46.116 5.8688 46.0125H5.86255ZM5.23755 47.3125V47.4062C5.24461 47.4323 5.24533 47.4596 5.23966 47.4859C5.23399 47.5123 5.22209 47.5369 5.20495 47.5577C5.18781 47.5785 5.16594 47.5949 5.14117 47.6055C5.11639 47.6162 5.08943 47.6207 5.06255 47.6187V47.5C5.06255 47.3875 5.12088 47.3167 5.23755 47.2875V47.3125ZM5.0938 50H5.3938V50.1062C5.28663 50.1245 5.18445 50.165 5.0938 50.225H4.90005C4.90005 50.125 4.95005 50.05 5.07505 50.0125L5.0938 50ZM13.7125 47.3375C12.6539 47.7962 11.648 48.3683 10.7125 49.0437C8.87088 49.6812 7.95838 50.0812 7.97505 50.2437C6.87106 50.6528 5.79211 51.1266 4.7438 51.6625C4.55828 51.6597 4.37612 51.6126 4.21255 51.525C4.20086 51.3613 4.23647 51.1977 4.31515 51.0536C4.39382 50.9096 4.51224 50.7912 4.6563 50.7125C4.93584 50.6888 5.21693 50.7338 5.47505 50.8437C5.98263 50.6162 6.51259 50.4424 7.0563 50.325V50.125L6.4313 50.175C6.98332 49.8404 7.57279 49.5719 8.18755 49.375H8.48755V49.4688C7.9688 49.5125 7.6813 49.6687 7.6188 49.9375C7.6188 50.0625 7.70005 50.1125 7.8313 50.1C8.2188 49.8563 8.41255 49.7125 8.4063 49.6687C9.1438 49.5271 11.1875 48.4583 14.5375 46.4625V46.6437C14.5375 46.7312 14.2563 46.975 13.6813 47.3937L13.7125 47.3375ZM8.57505 49.025C9.04786 48.9871 9.49139 48.7809 9.82505 48.4438C9.96255 48.4438 10.0375 48.4875 10.0438 48.6062C9.55558 48.7359 9.09281 48.9473 8.67505 49.2312H8.57505V49.0375V49.025ZM16.875 42.6687L14.3063 44.7062C13.3229 45.4037 12.2911 46.0302 11.2188 46.5812C8.17713 48.2479 6.28755 49.1167 5.55005 49.1875H5.43755C5.52922 48.8458 6.88338 46.0729 9.50005 40.8687C11.3762 40.5668 13.2058 40.0249 14.9438 39.2563L15.5688 39.2062C16.0607 39.1184 16.5658 39.1371 17.0499 39.2611C17.534 39.3851 17.9859 39.6115 18.375 39.925L18.4125 40.3062C17.95 41.6375 17.4375 42.4187 16.8876 42.65L16.875 42.6687ZM11.875 39.8438L12.2875 39.8062V39.9L11.875 39.9375V39.8438ZM17.6813 38.8625H17.9813C18.2626 38.9937 18.4063 39.1125 18.4188 39.2188V39.3125C18.2689 39.3145 18.1212 39.2768 17.9906 39.2032C17.8599 39.1297 17.7511 39.0229 17.675 38.8937L17.6813 38.8625ZM18.5 34.1875C17.8165 34.8174 17.0613 35.3649 16.25 35.8188C15.8563 35.8563 14.375 36.4437 11.8313 37.5437C11.7057 37.4966 11.5704 37.4816 11.4375 37.5V37.3187C11.4514 36.8157 11.6242 36.33 11.9313 35.9313C12.1313 34.8813 12.3438 34.2812 12.5563 34.1375L14.6813 29.3563C14.6563 29.0604 15.1105 28.8333 16.0438 28.675H16.3438V28.95C17.2563 28.8125 17.8313 28.7312 18.05 28.7125C19.7375 28.5687 20.6188 28.9125 20.6875 29.7313H20.8813L20.8375 29.25H21.05C21.2504 29.3235 21.43 29.4442 21.5736 29.602C21.7173 29.7598 21.8207 29.9499 21.875 30.1563C21.8555 30.5286 21.7024 30.8814 21.4438 31.15C21.3125 31.15 21.2375 31.0688 21.2313 30.8813H21.0188L20.975 31.4625C20.1209 32.7417 19.4959 33.4 19.1 33.4375C18.75 33.9187 18.5375 34.1625 18.475 34.1625L18.5 34.1875ZM19.8063 37.5375C19.6866 37.4418 19.5405 37.3851 19.3876 37.375V37.0875H19.5813L20.0063 37.3375C20.0134 37.3635 20.0141 37.3908 20.0084 37.4172C20.0027 37.4435 19.9908 37.4682 19.9737 37.489C19.9566 37.5098 19.9347 37.5262 19.9099 37.5368C19.8851 37.5474 19.8582 37.5519 19.8313 37.55L19.8063 37.5375ZM21.1563 39.1375C21.3438 39.2125 21.4563 39.2938 21.475 39.3688H21.325L21.1875 39.4812L21.15 39.0937L21.1563 39.1375ZM21.25 39.9375V39.8625L21.4938 39.8062V39.8813L21.25 39.9375ZM21.8375 40.625C22.0875 40.5812 22.2125 40.5687 22.675 40.4625V40.5375L21.7875 40.7438C21.7896 40.7042 21.7896 40.6646 21.7875 40.625H21.8375ZM22.7 40.9937C22.4003 41.0001 22.1024 41.0421 21.8125 41.1187V41.0437L22.5563 40.8062L22.9125 40.725L22.95 40.8625C22.7875 40.9 22.9063 40.9 22.7188 40.9937H22.7ZM23.4875 40.8062C23.4666 40.8119 23.4448 40.8132 23.4233 40.8103C23.4018 40.8073 23.3812 40.8001 23.3625 40.789C23.3439 40.7779 23.3277 40.7633 23.3148 40.7458C23.3019 40.7284 23.2926 40.7086 23.2875 40.6875L23.5125 40.6375C23.5327 40.6296 23.5544 40.6265 23.5759 40.6286C23.5974 40.6306 23.6182 40.6377 23.6364 40.6493C23.6547 40.6609 23.67 40.6766 23.681 40.6952C23.6921 40.7137 23.6986 40.7347 23.7 40.7562L23.4875 40.8062ZM25.625 38.4812V38.4062L25.9938 38.3188L26.0313 38.4562H25.6438L25.625 38.4812ZM27.9 52.4438C27.9157 52.3675 27.9157 52.2888 27.9 52.2125H27.9813C28.0001 52.2046 28.0205 52.2012 28.0408 52.2025C28.0612 52.2039 28.0809 52.21 28.0985 52.2203C28.1161 52.2306 28.131 52.2449 28.1422 52.2619C28.1533 52.279 28.1603 52.2985 28.1625 52.3187V52.3937L27.8625 52.4625L27.9 52.4438ZM29.4938 39.0812H29.3313C29.1163 39.1708 28.8948 39.2439 28.6688 39.3L28.5188 39.3375C28.4991 39.3442 28.4783 39.3467 28.4576 39.3448C28.4369 39.343 28.4168 39.3369 28.3986 39.3269C28.3804 39.317 28.3644 39.3033 28.3518 39.2868C28.3391 39.2703 28.33 39.2514 28.325 39.2312L29.375 38.9625L29.725 38.8L29.8438 38.9313C29.7122 38.9496 29.5874 39.0012 29.4813 39.0812H29.4938ZM30.3125 38.8188V38.7438C30.39 38.7191 30.4592 38.6737 30.5125 38.6125L31.25 38.4437V38.5188C30.9233 38.5912 30.6034 38.6916 30.2938 38.8188H30.3125ZM30.4313 37.2875C30.3524 37.3165 30.2801 37.3611 30.2188 37.4187C30.2188 37.3687 30.1 37.3687 29.9063 37.4187C29.8688 37.275 30.4313 37.0687 31.5875 36.7937L31.75 36.7563L31.7875 36.8937C30.975 37.1312 30.5375 37.2688 30.4313 37.2813V37.2875ZM32.4688 35.0875C32.3875 36.0125 32.0625 36.5375 31.4875 36.6687V36.5937L30.975 36.7937L30.75 36.8438C30.6479 36.8729 30.5397 36.8729 30.4375 36.8438L30.3938 36.6375C31.0718 35.5699 31.8149 34.5451 32.6188 33.5687H32.7938C32.8163 34.0836 32.7133 34.5962 32.4938 35.0625L32.4688 35.0875ZM36.0751 32H36V31.8563H36.3V31.9313C36.2214 31.953 36.1459 31.9845 36.0751 32.025V32ZM34.5875 46.9125C34.4433 46.8367 34.2817 46.8 34.1188 46.8062V46.5875C34.1188 46.5125 34.1646 46.4604 34.2563 46.4312C34.3563 46.4312 34.4125 46.4875 34.425 46.6437C34.544 46.4665 34.6847 46.3048 34.8438 46.1625L35 46.25C34.9438 46.6937 34.8063 46.925 34.6 46.9437L34.5875 46.9125ZM50.5063 30.2625C50.4313 30.2625 50.2875 30.0375 50.0563 29.5625V29.4188C50.2 29.4188 50.3563 29.6313 50.5063 30.1V30.2625ZM50.2938 28.6L50.2251 28.75L48.0688 27.85C49.5063 27.8938 50.25 28.15 50.2938 28.6ZM41.1626 36.4375H40.8625V36.2937H41.1626V36.4375ZM40.9126 31.725H40.9938V31.9438C40.9188 31.9438 40.8251 32.0479 40.7126 32.2563V32.1125C40.818 32.0081 40.886 31.8719 40.9063 31.725H40.9126ZM40.2875 33.2375V33.525H40.2063V33.2375H40.2875ZM39.9438 33.7812H40.0938C40.0938 34.0271 40.0292 34.1542 39.9 34.1625H39.8125C39.8864 34.0483 39.9295 33.917 39.9375 33.7812H39.9438ZM39.7001 34.525H39.7688V34.6L39.6375 34.8313H39.4875V34.7563C39.6438 34.7563 39.7125 34.6625 39.7001 34.5188V34.525ZM39.4563 35.2L39.4063 35.575H39.3375V35.2063H39.4875L39.4563 35.2ZM36.9563 42.2625C36.8563 42.75 36.7521 43 36.6438 43.0125V42.95C36.6386 42.8183 36.6649 42.6873 36.7203 42.5678C36.7757 42.4483 36.8587 42.3436 36.9625 42.2625H36.9563ZM36.5 43.25V43.3125C36.5063 43.3331 36.5074 43.3549 36.5032 43.3759C36.499 43.397 36.4898 43.4168 36.4762 43.4334C36.4626 43.4501 36.4451 43.4632 36.4253 43.4715C36.4055 43.4799 36.384 43.4832 36.3625 43.4812V43.4062C36.3625 43.3312 36.4084 43.2792 36.5 43.25ZM36.3688 45.3H36.6V45.375C36.5204 45.3903 36.4441 45.4199 36.375 45.4625H36.225C36.225 45.3792 36.2709 45.3271 36.3625 45.3062L36.3688 45.3ZM42.9063 43.2812C42.1062 43.636 41.3422 44.0671 40.625 44.5687C39.225 45.0562 38.5375 45.3625 38.5438 45.4812C37.7104 45.7902 36.8964 46.1492 36.1063 46.5562C35.9661 46.5502 35.8291 46.5117 35.7063 46.4437C35.6925 46.3176 35.7173 46.1903 35.7776 46.0786C35.8379 45.967 35.9308 45.8764 36.0438 45.8187C36.2567 45.7986 36.4712 45.8308 36.6688 45.9125C37.0579 45.7459 37.4617 45.6162 37.875 45.525V45.3812L37.4063 45.425C37.8259 45.1646 38.2748 44.9548 38.7438 44.8H38.975V44.8625C38.5813 44.9 38.35 45.0125 38.3125 45.225C38.312 45.2452 38.3161 45.2653 38.3245 45.2836C38.333 45.302 38.3455 45.3182 38.3613 45.3309C38.377 45.3436 38.3955 45.3525 38.4152 45.3569C38.4349 45.3613 38.4554 45.3611 38.475 45.3562C38.7688 45.1625 38.9063 45.0562 38.9063 45.0187C39.4646 44.9187 41.0146 44.1062 43.5563 42.5812V42.725C43.5563 42.7812 43.3438 42.9688 42.9313 43.2875L42.9063 43.2812ZM39.0063 44.5312C39.3751 44.5175 39.7272 44.3735 40 44.125C40.1 44.125 40.1563 44.1625 40.1625 44.2562C39.7961 44.3502 39.4462 44.4999 39.125 44.7H39.0438V44.5625L39.0063 44.5312ZM45.3063 39.6937L43.3688 41.2563C42.6196 41.7924 41.832 42.2728 41.0126 42.6937C38.7084 43.9437 37.273 44.6021 36.7063 44.6688H36.625C36.6959 44.4062 37.7271 42.3021 39.7188 38.3562C41.1433 38.1164 42.5315 37.6964 43.8501 37.1062L44.3188 37.0625C44.6922 36.9962 45.0754 37.0116 45.4423 37.1077C45.8091 37.2037 46.1508 37.378 46.4438 37.6187V37.9063C46.0875 38.9063 45.7063 39.4937 45.2876 39.675L45.3063 39.6937ZM41.5001 37.5813H41.8V37.6562H41.5001V37.5813ZM45.9063 36.8313H46.1376C46.3501 36.9375 46.4626 37.0312 46.4688 37.1062V37.1688C46.3538 37.1731 46.2399 37.1457 46.1396 37.0894C46.0392 37.0332 45.9563 36.9503 45.9001 36.85L45.9063 36.8313ZM46.5313 33.2875C46.0278 33.7676 45.4699 34.1871 44.8688 34.5375C43.7168 34.8796 42.5944 35.3144 41.5126 35.8375C41.4145 35.8023 41.3103 35.7874 41.2063 35.7937V35.65C41.2156 35.268 41.3446 34.8985 41.5751 34.5937C41.725 33.7875 41.8938 33.3438 42.0688 33.2375L43.6938 29.6062C43.6938 29.3937 44.0188 29.2188 44.7188 29.0812H44.9501V29.3C45.6376 29.1875 46.0688 29.1229 46.2438 29.1063C47.4938 28.9938 48.1938 29.25 48.25 29.8813H48.4001V29.5313H48.55C48.7097 29.5887 48.8514 29.687 48.9611 29.8165C49.0708 29.9459 49.1446 30.1019 49.175 30.2688C49.1654 30.5509 49.057 30.8208 48.8688 31.0313C48.7688 31.0313 48.7126 30.975 48.7001 30.8188H48.55L48.5063 31.2562C47.8813 32.2375 47.3876 32.75 47.0938 32.7688C46.8313 33.125 46.6688 33.3062 46.5938 33.3125L46.5313 33.2875ZM47.2126 35.7125V35.4938H47.3625L47.6876 35.6938C47.6902 35.7133 47.6887 35.7332 47.683 35.7521C47.6773 35.7711 47.6676 35.7885 47.6546 35.8033C47.6415 35.8182 47.6254 35.83 47.6074 35.8381C47.5894 35.8461 47.5698 35.8502 47.5501 35.85C47.4575 35.7795 47.3471 35.7362 47.2313 35.725L47.2126 35.7125ZM20.0938 49.85L19.9438 49.8875L19.8125 50C19.8148 50.0203 19.8218 50.0397 19.8329 50.0568C19.8441 50.0739 19.859 50.0882 19.8766 50.0985C19.8942 50.1088 19.9139 50.1149 19.9343 50.1162C19.9546 50.1176 19.975 50.1141 19.9938 50.1062C20.0938 50.1062 20.1313 50.025 20.1125 49.9312V49.8562L20.0938 49.85ZM19.5188 48.7V48.775C19.6188 48.775 19.6563 48.6938 19.6376 48.6V48.525C19.6175 48.527 19.598 48.5333 19.5807 48.5436C19.5633 48.5539 19.5485 48.5679 19.5371 48.5846C19.5258 48.6013 19.5183 48.6203 19.5151 48.6403C19.5119 48.6602 19.5132 48.6806 19.5188 48.7ZM23.6438 40.9562L23.7563 40.8875H23.7C23.6828 40.8919 23.668 40.9029 23.6587 40.918C23.6493 40.9332 23.6462 40.9514 23.65 40.9688L23.6438 40.9562ZM23.6438 38.95L23.8188 38.9062L23.75 38.75L23.575 38.7937L23.6125 38.9438L23.6438 38.95ZM64.8 44.8313L64.4063 44.7875L64.3376 44.9375V45L66.6938 44.8V44.6562L64.8188 44.8187L64.8 44.8313ZM66.9563 44.65V44.7937V44.65ZM76.8501 43.3563V43.5L77.1063 43.5437V43.4L76.8501 43.3563ZM76.4875 43.3563C75.7175 43.5707 74.9241 43.6903 74.125 43.7125V43.8562H74.3751L74.5688 43.7813C76.3188 43.5875 76.5251 43.6562 76.5063 43.4625V43.3937L76.4875 43.3563ZM65.8625 40.7812L65.7063 40.7312C65.618 40.931 65.5551 41.1409 65.5188 41.3562V41.4187C65.6438 41.4187 65.7501 41.2062 65.8563 40.7937L65.8625 40.7812ZM63.7313 39.6312V39.5563H63.65L63.5063 39.65L63.5875 39.7875C63.7001 39.7875 63.7501 39.725 63.7376 39.625L63.7313 39.6312ZM68.3625 44.4187V44.275H68.3188V44.4187H68.3625ZM77.9688 42.25H78.0813C78.1438 42.25 78.175 42.1938 78.1688 42.1L78.1063 41.9625C77.7874 41.9607 77.4734 42.0403 77.1938 42.1938V42.1187L76.7125 42.1625C76.7125 42.0187 76.6626 41.9438 76.5938 41.95H76.3438C76.05 41.95 75.9126 41.95 75.7688 42.075C75.7688 42.025 75.7688 42 75.7188 42H75.4375L75.2751 42.0937C75.2751 42.0437 75.275 42.0188 75.2251 42.0188L75.125 42.1063V42.0312H74.6438V42.175L74.8438 42.225H75.0313C75.0954 42.2626 75.1701 42.2779 75.2438 42.2687L75.4063 42.1875V42.25C74.9008 42.3815 74.3872 42.4796 73.8688 42.5437C73.8248 42.5067 73.77 42.4848 73.7126 42.4813C73.6961 42.4804 73.68 42.4764 73.6652 42.4694C73.6503 42.4623 73.637 42.4525 73.6259 42.4403C73.6149 42.4281 73.6064 42.4138 73.6009 42.3983C73.5954 42.3828 73.593 42.3664 73.5938 42.35L73.9188 42.3063C73.9906 42.3291 74.0636 42.3479 74.1376 42.3625C74.4001 42.2312 74.4126 42.1812 74.55 42.1688V42.025C74.0015 42.1258 73.4452 42.1781 72.8876 42.1812H72.8376V42.0375C74.2813 41.8625 73.8 41.9625 74.2938 41.825C74.2938 41.875 74.2938 41.9 74.3438 41.9C74.3972 41.8449 74.4677 41.8096 74.5438 41.8H74.6438C75.185 41.8243 75.7268 41.7653 76.2501 41.625V41.6875L76.4126 41.6062H76.5626C76.5626 41.4625 76.775 41.4375 76.8501 41.4312V41.275C75.0938 41.6313 74.6313 41.5312 74.1438 41.6687V41.6062C73.9391 41.6536 73.7285 41.6705 73.5188 41.6562C73.4629 41.6732 73.4131 41.7057 73.3751 41.75C73.3751 41.7 73.375 41.675 73.3188 41.675L71.8251 41.9187C71.8251 41.875 71.8251 41.8563 71.7688 41.8625C71.2473 42.0152 70.7109 42.1116 70.1688 42.15C70.0991 42.1627 70.033 42.1904 69.9751 42.2312C69.9751 42.1875 69.9751 42.1688 69.8938 42.175L69.2688 42.225L68.8438 42.3313C68.8438 42.2875 68.8438 42.2687 68.7626 42.275C68.5584 42.3341 68.3492 42.3739 68.1376 42.3938C68.0313 42.3938 68.1875 42.3938 68.1376 42.3313L68.0063 42.4062H67.2813C66.1563 42.5437 66.2813 42.5625 66.1563 42.5688H65.7375C65.7397 42.5777 65.7396 42.5869 65.7373 42.5958C65.735 42.6047 65.7306 42.6129 65.7245 42.6196C65.7183 42.6264 65.7106 42.6316 65.702 42.6347C65.6934 42.6378 65.6841 42.6388 65.675 42.6375C65.2001 42.575 64.9501 42.5 64.9501 42.4125C65.0126 41.9583 65.123 41.725 65.2813 41.7125H65.3625L65.2938 41.8625H65.375C65.525 41.7813 65.5938 41.7063 65.5876 41.6375V41.4813H65.4375V41.3375C65.4236 41.2374 65.4387 41.1354 65.4813 41.0437L65.8251 40.4875V40.6313H65.9875V40.4875L65.8938 40.3562C65.9743 40.274 66.076 40.2156 66.1876 40.1875V40.1125H65.9688V39.8938C66.2503 39.3898 66.4606 38.8492 66.5938 38.2875L66.7501 38.35C66.8501 38.35 66.8938 38.2875 66.8876 38.1812H66.7375V38.1188C66.7268 38.0134 66.7463 37.9071 66.7938 37.8125C66.9007 37.7171 66.9852 37.5993 67.0414 37.4675C67.0975 37.3357 67.124 37.1932 67.1188 37.05C67.1626 37.05 67.1876 37.05 67.1938 37.1187C67.4001 37 67.5563 36.6937 67.6688 36.1812C68.2762 34.9178 68.7921 33.6123 69.2125 32.275C70.4938 28.825 70.4625 28.4625 70.6188 27.6438H70.4688C70.4802 27.7471 70.4606 27.8515 70.4126 27.9438C70.3359 27.9088 70.253 27.8896 70.1688 27.8875V27.825C70.1751 27.4365 70.309 27.061 70.55 26.7563H70.6188L70.75 27.2563H70.9001C70.925 27.0454 70.9647 26.8366 71.0188 26.6313C71.0188 26.5563 70.9563 26.5063 70.8375 26.5L70.6938 26.5938V25.7813H70.6188C70.5179 25.7008 70.4474 25.5884 70.4188 25.4625L69.5875 25.5438C69.572 25.4534 69.5402 25.3666 69.4938 25.2875C69.4938 25.2125 69.675 25.1375 70.0563 25.0625L70.2251 25.125L70.3813 25.0313C70.3813 25.0813 70.4188 25.1063 70.4751 25.1L70.6313 25.0062C70.6313 25.0562 70.6688 25.0813 70.7251 25.075H70.8V24.9062H69.8876L69.7313 25.0125V24.9188C65.823 25.2396 63.6042 25.425 63.0751 25.475H62.25C62.25 25.5375 62.2001 25.575 62.0813 25.5875L61.9125 25.5125L61.25 25.625C61.0255 25.6451 60.7996 25.6451 60.5751 25.625C60.4838 25.6977 60.3727 25.7413 60.2563 25.75L61.9125 25.625C61.7924 25.7065 61.6515 25.7521 61.5063 25.7563C61.3927 25.7717 61.2772 25.7521 61.175 25.7C60.7655 25.8261 60.3479 25.9242 59.925 25.9938L59.7563 25.9313L57.0313 26.35C56.916 26.2973 56.7883 26.2778 56.6626 26.2938C56.417 26.3259 56.1745 26.3782 55.9375 26.45L54.6188 27L54.7188 27.1625C54.8146 27.1453 54.9059 27.1092 54.9876 27.0563L55.4563 27.1L55.4001 27.5375C55.215 27.6033 55.0494 27.7144 54.9184 27.8607C54.7874 28.007 54.6951 28.1838 54.6501 28.375C54.0251 28.6625 53.6813 28.8625 53.6813 29V29.075H53.7813L53.9563 28.9812L54.1626 29.225V29.5625C54.1626 29.6667 53.0771 31.9583 50.9063 36.4375C49.0313 40.75 48.0313 43.1063 47.9375 43.5312C47.3125 43.7125 46.9188 43.975 46.8063 44.325C46.8063 44.4375 47.0126 44.5125 47.3813 44.5375V44.7062L47.2126 44.9875V45.325C47.2126 45.5 47.6834 45.6333 48.6251 45.725C48.6251 45.6688 48.6251 45.6312 48.7126 45.625C48.7062 46.0473 48.6474 46.4672 48.5376 46.875H48.75C49.0325 46.5742 49.2233 46.1991 49.3 45.7937H49.375C49.4688 45.7937 49.5688 45.8937 49.6813 46.1187C49.5646 46.1646 49.148 47.0917 48.4313 48.9L48.5313 49.0625H48.6313C49.4855 46.8958 50.023 45.6979 50.2438 45.4687C51.3688 45.3687 53.3125 45.1604 56.0751 44.8438L56.25 44.7375C56.2494 44.7506 56.252 44.7637 56.2575 44.7757C56.263 44.7876 56.2714 44.798 56.2818 44.806C56.2923 44.814 56.3045 44.8193 56.3175 44.8216C56.3305 44.8238 56.3438 44.8228 56.3563 44.8187H56.5376L56.7125 44.7125C56.7119 44.7256 56.7145 44.7387 56.72 44.7507C56.7255 44.7626 56.7339 44.773 56.7444 44.781C56.7548 44.789 56.767 44.7943 56.78 44.7966C56.793 44.7988 56.8063 44.7978 56.8188 44.7937L58.9126 44.6125C59.4688 44.5687 59.725 44.4 59.7063 44.1125C59.7063 44.0375 60.0251 43.95 60.6875 43.8562C60.7856 43.8551 60.8831 43.8721 60.975 43.9062C60.975 43.8562 61.3 43.8 61.9626 43.7437C61.9626 43.3937 62.0876 43.2062 62.2876 43.1875V43.0188C62.0745 43.0434 61.8649 43.0916 61.6626 43.1625C61.3827 43.159 61.104 43.1255 60.8313 43.0625C60.7492 43.1146 60.658 43.1506 60.5626 43.1687L59.0688 43.125L58.8938 43.2188C58.8938 43.1646 58.8584 43.1417 58.7875 43.15H58.7063L58.5188 43.2438C58.5188 43.1938 58.3625 43.15 58.0563 43.1125L57.8688 43.225H57.5063V43.1313C59.3813 42.9271 60.3063 42.6729 60.2813 42.3687C60.3061 42.3628 60.3319 42.3628 60.3567 42.3687C60.3814 42.3745 60.4045 42.3862 60.4239 42.4026C60.4434 42.419 60.4587 42.4398 60.4687 42.4632C60.4787 42.4866 60.483 42.5121 60.4813 42.5375L61.0313 42.4V42.2312L56.5438 42.3562C56.5438 42.4125 56.5438 42.45 56.4563 42.4562L55.9063 42.4125C55.7801 42.4199 55.6586 42.4633 55.5563 42.5375L55.3376 42.5C54.915 42.5262 54.4962 42.5953 54.0876 42.7063C53.6715 42.6735 53.2536 42.6735 52.8376 42.7063L51.8313 42.7938L51.3625 42.7437C51.3625 42.4437 51.9188 40.9875 53.1063 38.3687C53.2822 37.7461 53.6134 37.1783 54.0688 36.7188C54.1685 36.7201 54.2667 36.7436 54.3563 36.7875L55 36.5438L55.3688 36.6C56.1079 36.5191 56.833 36.3404 57.5251 36.0687C57.6826 36.0463 57.8432 36.0613 57.9938 36.1125L58.5438 35.9812L60.175 35.8437C60.9436 35.7708 61.7021 35.6157 62.4376 35.3813V35.2125C62.1376 35.2125 61.9751 35.2125 61.9688 35.0688C61.9688 34.8438 61.7313 34.75 61.3063 34.7813V34.6125L61.7563 34.4812L62.9313 34.3812V34.2125H62.2063V34.0313L62.6626 33.9875C62.7876 33.9875 62.8375 33.9188 62.8251 33.8C62.2001 33.8 61.9063 33.8 61.9001 33.7063C57.6376 33.9146 55.5 33.9542 55.4875 33.825C55.3909 33.846 55.2994 33.8864 55.2188 33.9438L55.0375 33.75C56.1667 31.35 56.8292 30.1417 57.025 30.125C57.0136 30.2834 56.9666 30.4372 56.8876 30.575V30.625H57.0688C57.5188 29.5563 57.8938 29 58.2126 28.975C59.55 28.8563 58.0251 28.7688 60.8938 28.35C60.9724 28.3933 61.0603 28.4168 61.15 28.4188C62.275 28.1896 63.8417 27.9521 65.8501 27.7063V27.5375L64.7813 27.6375V27.4688C64.8977 27.46 65.0088 27.4165 65.1001 27.3438V27.4375C65.189 27.4162 65.2722 27.3757 65.3438 27.3188C65.4873 27.2949 65.6347 27.3122 65.7688 27.3688C66.0639 27.2862 66.3647 27.2256 66.6688 27.1875L67.3375 27.125C67.5 27.0188 67.5751 26.925 67.5688 26.8375V26.7625C67.3722 26.7775 67.1744 26.7649 66.9813 26.725C66.9787 26.7028 66.9805 26.6803 66.9867 26.6589C66.9928 26.6374 67.0032 26.6174 67.0171 26.5999C67.0311 26.5825 67.0484 26.568 67.068 26.5573C67.0876 26.5465 67.1091 26.5398 67.1313 26.5375L68.3813 26.4188L68.9501 26.275C68.9501 26.3375 68.9875 26.3625 69.0313 26.3625C69.1203 26.3412 69.2035 26.3007 69.275 26.2438H69.3688C69.2679 26.464 69.1843 26.6918 69.1188 26.925H68.9563C68.9478 26.8193 68.9157 26.7168 68.8625 26.625H68.7501C67.2375 30.8437 66.5626 32.8062 65.1626 36.0437C64.9063 36.8687 64.6938 37.3312 64.5063 37.4312C64.5057 37.4515 64.5098 37.4715 64.5183 37.4899C64.5267 37.5083 64.5393 37.5244 64.555 37.5371C64.5708 37.5498 64.5892 37.5587 64.6089 37.5631C64.6287 37.5675 64.6492 37.5673 64.6688 37.5625C64.701 37.9847 64.6005 38.4065 64.3813 38.7687C63.7563 40.6437 63.3063 41.65 63.0813 41.8375L63.2251 42.7187C63.2277 42.7383 63.2262 42.7582 63.2205 42.7771C63.2148 42.7961 63.2051 42.8135 63.1921 42.8283C63.179 42.8432 63.1629 42.855 63.1449 42.8631C63.1269 42.8711 63.1073 42.8752 63.0876 42.875H62.9375C62.9375 42.6312 62.8251 42.5125 62.6688 42.5313H62.5876C62.3779 42.8616 62.2257 43.2251 62.1376 43.6062H62.2876C62.3744 43.5632 62.447 43.4962 62.4969 43.4131C62.5467 43.33 62.5717 43.2344 62.5688 43.1375H62.8688L63.0438 43.2C62.9257 43.3527 62.858 43.5384 62.85 43.7313L62.9313 43.8688L62.7313 44.3375V44.4125C62.9334 44.4043 63.1328 44.4613 63.3 44.575C63.4641 44.5461 63.6187 44.4775 63.75 44.375H65.7001L66.2626 44.1813C66.7276 44.1915 67.1928 44.1769 67.6563 44.1375H67.9L68.0313 44.05V44.125C68.4146 44.0814 68.8024 44.0962 69.1813 44.1687V44.2437H68.8375V44.3875C68.9379 44.3809 69.0338 44.3438 69.1125 44.2812C69.2001 44.2812 69.25 44.325 69.2563 44.425C69.0964 44.4419 68.9391 44.4776 68.7876 44.5312L68.6376 44.4812C68.4 44.5437 68.4501 44.5625 68.2876 44.575L68.05 44.5312C68.052 44.5396 68.0519 44.5483 68.05 44.5566C68.048 44.565 68.0442 44.5728 68.0387 44.5794C68.0333 44.586 68.0265 44.5913 68.0187 44.5949C68.0109 44.5985 68.0024 44.6002 67.9938 44.6C67.9927 44.6186 67.9957 44.6373 68.0027 44.6546C68.0097 44.6719 68.0205 44.6874 68.0343 44.7C68.0481 44.7126 68.0645 44.7219 68.0824 44.7273C68.1002 44.7327 68.1191 44.7341 68.1376 44.7312H68.3813L69.6313 44.6187L70.1125 44.5125C70.1125 44.5562 70.1125 44.575 70.175 44.5687L70.4063 44.4812L70.8438 44.4438C71.1813 44.4438 71.175 44.3937 71.9126 44.275C71.9126 44.2312 71.9126 44.2125 71.9563 44.2063V44.2688C72.4497 44.2089 72.9384 44.1149 73.4188 43.9875V44.025C73.7188 43.9563 73.55 43.975 73.6313 43.9125C73.6313 43.9625 73.6313 43.9875 73.6813 43.9875H73.8938V43.8312H73.3688C73.2122 43.8606 73.053 43.8731 72.8938 43.8688L71.8251 43.925V43.85L72.4501 43.7687H72.6626L72.7876 43.6812V43.75C73.6251 43.6812 73.925 43.8875 77.7876 43.0625C78.0001 43.0625 77.9813 42.8687 78.1125 42.5063C78.041 42.5124 77.9692 42.4972 77.9063 42.4625C77.5433 42.5506 77.173 42.605 76.8 42.625C76.75 42.625 76.7063 42.5812 76.6875 42.4937V42.4312H77.3125C77.5341 42.4077 77.7476 42.3351 77.9375 42.2188C77.9375 42.2688 77.8126 42.3 77.8876 42.2937L77.9688 42.25ZM49.2938 42.7125H49.0188C49.1104 42.2788 49.2574 41.8587 49.4563 41.4625H49.6376C49.5805 41.8929 49.4648 42.3134 49.2938 42.7125ZM49.6251 41.3875V41.3125C49.6251 41.2187 49.6751 41.1563 49.8063 41.125V41.25C49.8063 41.3625 49.7563 41.425 49.6251 41.4375V41.3875ZM53.2626 44.2V44.275L52.8063 44.3188V44.2437L53.2626 44.2ZM52.7125 44.1562C52.7125 44.25 52.5813 44.3562 52.2751 44.4562L51.7188 44.4125H51.5376V44.2437L52.7313 44.1313L52.7125 44.1562ZM56.3938 27.2125H56.1188V27.1188C56.1188 27.025 56.1626 26.9625 56.2813 26.9313H56.3813L56.5688 27.0063C56.5726 27.0301 56.5709 27.0545 56.5641 27.0777C56.5572 27.1009 56.5452 27.1222 56.5291 27.1402C56.5129 27.1581 56.4929 27.1723 56.4706 27.1815C56.4483 27.1908 56.4242 27.195 56.4 27.1937L56.3938 27.2125ZM60.5563 26.4H60.625V26.5687H60.375C60.3724 26.5466 60.3743 26.5241 60.3804 26.5026C60.3866 26.4811 60.3969 26.4611 60.4109 26.4437C60.4248 26.4262 60.4421 26.4117 60.4617 26.401C60.4813 26.3903 60.5028 26.3836 60.525 26.3813L60.5563 26.4ZM59.5063 26.7688L59.0938 26.725V26.65C59.4527 26.6261 59.8073 26.5589 60.15 26.45C60.15 26.5125 60.2126 26.5375 60.3188 26.525V26.6938H60.1563C60.0427 26.7092 59.9272 26.6896 59.8251 26.6375C59.7299 26.7022 59.6206 26.743 59.5063 26.7563V26.7688ZM60 28.3063V28.2312L60.6688 28.1688V28.2437L60 28.3063ZM60.7188 27.725V27.625H61.0438V27.7187H60.7188V27.725ZM60.7938 26.5813H60.7063L60.7813 26.4L61.5251 26.3313V26.425C61.2755 26.4543 61.0288 26.5045 60.7876 26.575L60.7938 26.5813ZM61.175 28.1875V28.0188H61.5001C61.6126 28.0188 61.6709 28.0708 61.675 28.175L61.1876 28.2188L61.175 28.1875ZM63.1501 25.5L62.7313 25.6188H62.6563C62.3966 25.6446 62.1351 25.6467 61.875 25.625C62.4188 25.5875 62.9375 25.55 63.125 25.5188L63.1501 25.5ZM62.7001 27.375V27.45L62.1251 27.5V27.425L62.7001 27.375ZM63.6438 27.825C63.6438 27.7563 63.5251 27.7063 63.3 27.6875L62.7251 27.85H62.2813C62.1813 27.7813 62.1313 27.7313 62.1251 27.7H62.6376L63.7875 27.5125H64.375V27.6062C64.1243 27.628 63.8769 27.6783 63.6376 27.7563L63.6438 27.825ZM69.5751 26.25H69.7063C69.9059 26.0514 70.1413 25.8923 70.4 25.7813C70.2719 26.5413 69.9318 27.2497 69.4188 27.825L69.0938 27.625C69.286 27.1742 69.4468 26.7105 69.5751 26.2375V26.25ZM68.5751 27.9688H68.6563C68.5438 28.1813 68.4438 28.2875 68.3625 28.2938V28.075C68.4448 28.0612 68.5222 28.0268 68.5875 27.975L68.5751 27.9688ZM67.9501 29.5125C68.0001 29.1201 68.1556 28.7486 68.4001 28.4375V28.5125C68.3188 29.0938 68.1876 29.4063 68.0188 29.425V29.7937C67.9043 29.925 67.8343 30.0891 67.8188 30.2625H67.7375L67.6938 29.7563C67.7876 29.7563 67.8626 29.6625 67.9126 29.5125H67.9501ZM67.7001 30.35C67.676 30.5657 67.619 30.7765 67.5313 30.975H67.4501V30.7562C67.5625 30.5 67.6563 30.3688 67.7188 30.3688L67.7001 30.35ZM63.0001 43.9875V43.925H63.1501V44.1437C63.0688 44.1437 63.0126 44.1 62.9875 44L63.0001 43.9875ZM69.7126 44.1625C69.7126 44.1125 69.7126 44.0875 69.6313 44.0938L69.2501 44.1313V44.0562H69.2876L70.1813 43.9813V44.0562C70.0171 44.0438 69.8532 44.0832 69.7126 44.1687V44.1625ZM69.2626 43.975C69.3 43.975 69.2626 44.0125 69.2626 44.0187C69.2626 44.025 69.2188 44.0187 69.2626 43.975ZM69.3063 42.925L68.8063 42.9688V42.8937L69.2626 42.85L69.6563 42.75C69.6563 42.7938 69.6563 42.8125 69.7375 42.8062C70.2063 42.725 70.1626 42.7 70.3625 42.6812C70.4376 42.6812 70.4875 42.725 70.4938 42.8125L69.2876 42.9187L69.3063 42.925ZM71.0563 42.775C70.8939 42.742 70.7281 42.7294 70.5626 42.7375V42.675L71.0126 42.6312V42.6937C70.9688 42.6937 71.1376 42.6938 71.0563 42.7687V42.775ZM71.0938 42.6937V42.6312H71.3375V42.6937H71.0938ZM71.6376 42.65V42.5875C71.7025 42.5705 71.7624 42.5384 71.8126 42.4937C71.8365 42.4902 71.861 42.4918 71.8843 42.4982C71.9077 42.5046 71.9294 42.5158 71.9482 42.5311C71.967 42.5464 71.9825 42.5654 71.9935 42.5869C72.0046 42.6085 72.0111 42.6321 72.0126 42.6562L71.6376 42.65ZM72.3313 42.5625V42.5H72.6313V42.575H72.3313V42.5625ZM72.7438 42.525C72.7438 42.4375 72.7438 42.3875 72.8501 42.375L72.9501 42.5063C72.9482 42.4989 72.9479 42.4912 72.9491 42.4836C72.9504 42.4761 72.9531 42.4689 72.9572 42.4625C72.9613 42.4561 72.9666 42.4505 72.9729 42.4462C72.9792 42.4419 72.9863 42.439 72.9938 42.4375L73.0688 42.575L72.7438 42.5313V42.525ZM78.5625 41.8C78.6063 41.8 78.6313 41.7438 78.5188 41.725C78.4063 41.7063 78.5751 41.8 78.4626 41.8062V41.875L78.525 41.8312L78.4626 41.8813L78.3375 42.0375L78.5813 41.95V41.8062L78.5625 41.8ZM78.9875 42.1313H78.9438V42.275H79.2876C79.2876 42.1812 79.0563 42.15 78.9813 42.15L78.9875 42.1313Z" fill="#9CA3AF"/>
</svg>
