<svg width="80" height="80" viewBox="0 0 80 80" fill="none" xmlns="http://www.w3.org/2000/svg">
<path d="M47.3131 41.0019C45.8544 40.5219 43.7544 40.625 41.0131 40.625H30V55H41.7775C43.6175 55 44.91 54.8031 45.6544 54.6656C46.9662 54.4306 48.0631 53.9756 48.9444 53.4269C49.825 52.8794 50.5494 52.0487 51.1181 51.0012C51.6856 49.9537 51.97 48.7281 51.97 47.3575C51.97 45.7525 51.5588 44.52 50.7356 43.335C49.9131 42.15 48.7725 41.4819 47.3131 41.0019ZM45.8012 34.4294C47.2494 33.9994 48.3413 33.2481 49.0756 32.25C49.8106 31.2512 50.1775 29.9806 50.1775 28.4725C50.1775 27.0438 49.8344 25.7762 49.1488 24.6887C48.4631 23.6012 47.485 23.1806 46.2119 22.7787C44.9388 22.3781 42.7556 22.5 39.6619 22.5H30V35H40.3669C42.8931 35 44.7037 34.7625 45.8012 34.4294ZM78.75 11.6406C78.75 5.90188 74.0981 1.25 68.3594 1.25H11.0156C5.27688 1.25 0.625 5.90188 0.625 11.6406V68.9844C0.625 74.7231 5.27688 79.375 11.0156 79.375H68.3594C74.0981 79.375 78.75 74.7231 78.75 68.9844V11.6406ZM56.5956 52.9656C55.7444 54.6988 54.6912 56.035 53.4381 56.975C52.1844 57.915 50.6125 58.7125 48.7231 59.1925C46.8344 59.6731 44.5181 60 41.7775 60H24.375V16.875H41.5125C44.8025 16.875 47.4406 17.2556 49.4281 18.1263C51.4162 18.9981 52.9725 20.3119 54.0994 22.1231C55.225 23.9344 55.7881 25.815 55.7881 27.7925C55.7881 29.6331 55.2881 31.36 54.29 32.985C53.2912 34.6113 51.7831 35.9188 49.7669 36.9175C52.3706 37.6813 54.3731 38.9825 55.7731 40.8225C57.1731 42.6631 57.8731 44.8363 57.8731 47.3425C57.8731 49.3594 57.4475 51.2331 56.5956 52.9656Z" fill="#9CA3AF"/>
</svg>
