<svg width="80" height="80" viewBox="0 0 80 80" fill="none" xmlns="http://www.w3.org/2000/svg">
<path d="M5.47498 0.625L11.7594 71.1769L39.9581 79.0394L68.2356 71.1481L74.525 0.625H5.47498ZM61.4693 16.7887L59.3775 40.2919L59.3837 40.4187L59.375 40.7106V40.7081L57.8887 57.1419L57.725 58.6019L40 63.5044V63.505L39.9862 63.5169L22.2919 58.5869L21.0937 45H29.7706L30.3862 51.9088L40.0025 54.515L40 54.52V54.5188L49.6518 51.8756L50.6718 40.625H30.495L30.3218 38.7231L29.9275 34.2675L29.7206 31.875H51.4387L52.2287 23.125H19.15L18.9769 21.2244L18.5831 16.7675L18.3756 14.375H61.6762L61.4693 16.7887Z" fill="#9CA3AF"/>
</svg>
