<svg width="80" height="80" viewBox="0 0 80 80" fill="none" xmlns="http://www.w3.org/2000/svg">
<path d="M24.3658 30.0063L39.5421 21.2443C39.7287 21.1365 39.9405 21.0797 40.156 21.0797C40.3716 21.0797 40.5834 21.1365 40.77 21.2443L55.9463 30.0063C56.1329 30.1142 56.2878 30.2692 56.3956 30.4558C56.5034 30.6424 56.5602 30.8541 56.5602 31.0697V48.5938C56.5602 49.0322 56.3259 49.4374 55.9463 49.6571L40.77 58.4192C40.5834 58.527 40.3716 58.5837 40.156 58.5837C39.9405 58.5837 39.7287 58.527 39.5421 58.4192L24.3658 49.6571C24.1792 49.5493 24.0242 49.3943 23.9164 49.2077C23.8087 49.021 23.7519 48.8093 23.7518 48.5938V31.0693C23.7521 30.6306 23.9862 30.2257 24.3658 30.006" fill="#9CA3AF"/>
<path d="M79.5003 38.3958L61.3481 6.81617C60.6888 5.67443 59.4709 4.83203 58.1523 4.83203H21.8476C20.529 4.83203 19.3104 5.67443 18.6511 6.81617L0.499232 38.3261C-0.160063 39.4682 -0.160063 40.9095 0.499232 42.0516L18.6511 73.3725C19.3104 74.5142 20.529 75.0979 21.8476 75.0979H58.152C59.4705 75.0979 60.6888 74.5317 61.3478 73.3897L79.5 42.0178C80.1599 40.8764 80.1599 39.5375 79.5 38.3958H79.5003ZM64.4693 53.5815C64.4693 54.0455 64.19 54.4751 63.7875 54.7076L40.6656 68.0475C40.4665 68.1616 40.2411 68.2216 40.0116 68.2216C39.7822 68.2216 39.5567 68.1616 39.3577 68.0475L16.218 54.7076C15.8158 54.4751 15.5343 54.0458 15.5343 53.5811V26.9006C15.5343 26.436 15.8118 26.007 16.2142 25.7745L39.3349 12.4342C39.5338 12.32 39.7592 12.2599 39.9887 12.2599C40.2181 12.2599 40.4435 12.32 40.6425 12.4342L63.7835 25.7745C64.1862 26.007 64.4693 26.436 64.4693 26.9006V53.5811V53.5815Z" fill="#9CA3AF"/>
</svg>
