<svg width="80" height="80" viewBox="0 0 80 80" fill="none" xmlns="http://www.w3.org/2000/svg">
<path d="M79.1687 61.5249C76.3187 62.2499 74.5563 61.5562 72.975 59.1812C69.425 53.8624 65.5062 48.7874 61.725 43.6187C61.2375 42.9499 60.7313 42.2937 60.1 41.4624C55.625 47.4999 51.1562 53.2499 46.9625 59.2312C45.4625 61.3687 43.8875 62.2999 41.0875 61.5437L57.9125 38.9624L42.25 18.5687C44.9437 18.0437 46.8062 18.3124 48.4562 20.7249C52.1 26.0499 56.1187 31.1187 60.125 36.4812C64.1562 31.1374 68.125 26.0624 71.875 20.7874C73.3812 18.6499 75 17.8374 77.7063 18.6249C75.6562 21.3437 73.65 24.0187 71.6312 26.6749C68.9062 30.2562 66.2312 33.8812 63.4062 37.3874C62.4 38.6374 62.5625 39.4499 63.4625 40.6312C68.6875 47.4999 73.85 54.4374 79.1687 61.5249ZM0.83125 38.5874C1.28125 36.3312 1.58125 34.0312 2.20625 31.8187C5.95625 18.4249 21.3312 12.8562 31.8937 21.1562C38.0812 26.0249 39.6188 32.8874 39.3125 40.6249H4.4375C3.9125 54.5062 13.9063 62.8874 26.6438 58.6124C31.1125 57.1124 33.7437 53.6124 35.0625 49.2374C35.7313 47.0437 36.8375 46.6999 38.9 47.3249C37.8438 52.7999 35.45 57.3749 30.45 60.2374C22.95 64.5249 12.2437 63.1374 6.6125 57.1812C3.2875 53.6812 1.875 49.3249 1.25 44.6187C1.15625 43.8687 0.9625 43.1312 0.8125 42.3874C0.825 41.1208 0.83125 39.8541 0.83125 38.5874ZM4.5 37.6562H36.0188C35.8125 27.6187 29.5625 20.4874 21.0188 20.4249C11.6438 20.3499 4.90625 27.3124 4.5 37.6562Z" fill="#9CA3AF"/>
</svg>
