<svg width="80" height="80" viewBox="0 0 80 80" fill="none" xmlns="http://www.w3.org/2000/svg">
<path d="M77.9638 36.4862L43.5157 2.03994C41.5332 0.0561866 38.3157 0.0561866 36.3301 2.03994L29.1782 9.19369L38.2519 18.2674C40.3613 17.5556 42.7788 18.0331 44.4594 19.7137C45.2604 20.5153 45.8195 21.5262 46.073 22.6307C46.3264 23.7352 46.2639 24.8887 45.8926 25.9593L54.6376 34.7056C56.7532 33.9762 59.1951 34.4474 60.8838 36.1399C63.2463 38.5006 63.2463 42.3274 60.8838 44.6893C60.3224 45.251 59.6558 45.6966 58.9221 46.0006C58.1884 46.3046 57.402 46.4611 56.6079 46.4611C55.8137 46.4611 55.0273 46.3046 54.2936 46.0006C53.5599 45.6966 52.8934 45.251 52.3319 44.6893C51.4884 43.8453 50.9134 42.7706 50.6793 41.6005C50.4452 40.4305 50.5625 39.2173 51.0163 38.1137L42.8613 29.9581L42.8601 51.4212C43.4517 51.7126 43.9919 52.0985 44.4594 52.5637C46.8213 54.9243 46.8213 58.7499 44.4594 61.1156C42.0976 63.4762 38.2694 63.4762 35.9101 61.1156C33.5488 58.7506 33.3551 54.9249 35.7157 52.5637C36.2994 51.9806 36.8751 51.5399 37.5001 51.2449V29.5831C36.8751 29.2881 36.3001 28.8506 35.7151 28.2637C33.9269 26.4762 33.5926 23.8512 34.5101 21.6537L25.6144 12.7081L2.01818 36.3268C0.0338038 38.3124 0.0463038 41.5299 2.03068 43.5143L36.4844 77.9606C38.4676 79.9443 41.6876 79.9443 43.6738 77.9606L77.9613 43.6743C79.9457 41.6893 79.9475 38.4699 77.9638 36.4862Z" fill="#9CA3AF"/>
</svg>
