<svg width="80" height="80" viewBox="0 0 80 80" fill="none" xmlns="http://www.w3.org/2000/svg">
<path fill-rule="evenodd" clip-rule="evenodd" d="M39.9999 3.18945C19.1581 3.18945 2.25745 20.0863 2.25745 40.932C2.25745 57.6082 13.0718 71.7551 28.0681 76.7463C29.9537 77.0963 30.6462 75.9276 30.6462 74.9307C30.6462 74.0307 30.6112 71.0576 30.5949 67.9038C20.0949 70.187 17.8793 63.4507 17.8793 63.4507C16.1624 59.0882 13.6887 57.9282 13.6887 57.9282C10.2637 55.5857 13.9468 55.6345 13.9468 55.6345C17.7362 55.9001 19.7324 59.5238 19.7324 59.5238C23.0987 65.2926 28.5618 63.6251 30.7156 62.6613C31.0543 60.222 32.0324 58.5563 33.1118 57.6138C24.7287 56.6607 15.9156 53.4238 15.9156 38.962C15.9156 34.8413 17.3906 31.4745 19.8049 28.8307C19.4124 27.8807 18.1206 24.042 20.1699 18.8432C20.1699 18.8432 23.3387 17.8288 30.5512 22.712C33.5624 21.8751 36.7918 21.4545 39.9999 21.4401C43.2062 21.4545 46.4374 21.8738 49.4543 22.7107C56.6581 17.8276 59.8231 18.842 59.8231 18.842C61.8774 24.0401 60.5856 27.8795 60.1937 28.8295C62.6137 31.4732 64.0781 34.8401 64.0781 38.9607C64.0781 53.457 55.2487 56.6482 46.8443 57.5832C48.1987 58.7545 49.4049 61.052 49.4049 64.5726C49.4049 69.6226 49.3612 73.687 49.3612 74.9301C49.3612 75.9345 50.0412 77.1113 51.9537 76.7407C66.9412 71.7445 77.7431 57.602 77.7431 40.932C77.7424 20.0876 60.8437 3.19008 39.9999 3.19008V3.18945Z" fill="#9CA3AF"/>
<path d="M16.5524 57.3789C16.4693 57.5664 16.1743 57.6226 15.9055 57.4945C15.6305 57.372 15.4774 57.1164 15.5662 56.9283C15.6474 56.7345 15.943 56.6814 16.2162 56.8108C16.4912 56.9339 16.6474 57.192 16.5518 57.3795L16.5524 57.3789ZM18.0812 59.0845C17.9018 59.2514 17.5499 59.1739 17.3112 58.9095C17.0637 58.647 17.0174 58.2951 17.2005 58.1258C17.3868 57.9595 17.728 58.0383 17.9755 58.3008C18.2218 58.567 18.2705 58.9158 18.0818 59.0851L18.0812 59.0845ZM19.5699 61.2576C19.3387 61.4189 18.9599 61.2683 18.7262 60.9326C18.4949 60.5964 18.4949 60.1933 18.7324 60.0326C18.9655 59.8714 19.3387 60.017 19.5762 60.3495C19.8062 60.6901 19.8062 61.0933 19.5699 61.257V61.2576ZM21.6081 63.3583C21.4018 63.5864 20.9605 63.5251 20.6381 63.2145C20.3087 62.9101 20.2168 62.477 20.4237 62.2495C20.6337 62.0208 21.0768 62.0845 21.4012 62.3933C21.7306 62.697 21.8299 63.1308 21.6093 63.3576L21.6081 63.3583ZM24.4206 64.5776C24.3287 64.8733 23.9049 65.0076 23.4768 64.8814C23.0499 64.752 22.7706 64.4064 22.8581 64.1076C22.9456 63.8095 23.3724 63.6701 23.803 63.8045C24.2299 63.9333 24.5093 64.277 24.4206 64.5776ZM27.5099 64.8033C27.5205 65.1145 27.158 65.372 26.7099 65.3783C26.258 65.3889 25.8924 65.1364 25.8881 64.8301C25.8881 64.5158 26.243 64.2614 26.6943 64.2526C27.1424 64.2445 27.5105 64.4945 27.5105 64.8026L27.5099 64.8033ZM30.3837 64.3145C30.4374 64.6176 30.1255 64.9295 29.6799 65.0126C29.2424 65.0939 28.8362 64.9051 28.7799 64.6045C28.7262 64.2933 29.0437 63.9814 29.4812 63.9008C29.9274 63.8239 30.3274 64.007 30.3837 64.3151V64.3145Z" fill="#9CA3AF"/>
</svg>
