<svg width="80" height="80" viewBox="0 0 80 80" fill="none" xmlns="http://www.w3.org/2000/svg">
<path d="M1.25 0.625V78.75H79.375V0.625H1.25ZM42.5744 67.1956C41.4213 69.5387 39.22 71.0781 36.6694 71.8213C32.75 72.7213 29.0012 72.2081 26.2125 70.5344C24.3462 69.3894 22.8888 67.6269 21.8994 65.5963L27.8494 61.9525C27.9012 61.9744 28.0575 62.2569 28.2663 62.6219C29.025 63.8931 29.6794 64.7931 30.9656 65.425C32.2294 65.8562 35.0037 66.1319 36.075 63.9081C36.7294 62.7769 36.5212 59.1406 36.5212 55.1175C36.5206 48.7956 36.55 42.5 36.55 36.25H43.8681C43.8681 43.125 43.9056 49.6362 43.8681 56.345C43.8838 60.4575 44.2406 64.1237 42.5744 67.1956ZM72.9331 65.1281C70.3894 73.8294 56.2069 74.1119 50.5394 68.3631C49.3419 67.01 48.5912 66.3031 47.8769 64.7412C50.8887 63.0088 50.8887 63.0087 53.8194 61.3131C55.4113 63.76 56.8831 65.1056 59.5312 65.6562C63.1237 66.095 66.7381 64.8606 65.9275 61.045C65.0944 57.9287 58.5713 57.1706 54.1319 53.8381C49.625 50.8112 48.5688 43.4562 52.2725 39.2537C53.5069 37.6994 55.6119 36.5394 57.8206 35.9819L60.1256 35.6838C64.5512 35.5944 67.3175 36.7631 69.3481 39.0306C69.9131 39.6031 70.3744 40.2206 71.2369 41.5588C68.8794 43.0613 68.8869 43.0469 65.51 45.2331C64.7887 43.6794 63.5919 42.7044 62.3269 42.2806C60.3631 41.6856 57.8869 42.3325 57.3731 44.4075C57.195 45.0469 57.2319 45.6419 57.515 46.6981C58.3106 48.5125 60.9806 49.3013 63.3756 50.4019C70.27 53.1981 72.5981 56.1963 73.1706 59.765C73.7219 62.8375 73.0375 64.8306 72.9331 65.1281Z" fill="#9CA3AF"/>
</svg>
