<svg width="80" height="80" viewBox="0 0 80 80" fill="none" xmlns="http://www.w3.org/2000/svg">
<g clip-path="url(#clip0)">
<path d="M77.5807 39.3874C77.5807 34.5799 73.9382 30.5343 69.0482 29.3799L80.0001 0.0705566H25.7251L36.702 29.4724C31.9657 30.7199 28.4744 34.6949 28.4744 39.4118C28.4744 42.8781 30.3857 45.9518 33.2888 47.8468C32.1438 49.3262 30.8182 50.6906 29.3163 51.9843C26.4894 54.3893 23.3544 56.2374 19.9682 57.4631C16.9119 55.5906 15.5882 52.2849 16.7844 49.3256C21.4451 48.0318 24.8344 44.0793 24.8344 39.4337C24.8344 33.7256 19.7144 29.1012 13.4469 29.1012C7.1557 29.1012 2.03882 33.7474 2.03882 39.4574C2.03882 42.2781 3.3107 44.8656 5.34945 46.7137C5.1707 47.0387 4.9932 47.3606 4.81445 47.7074C3.1082 50.8987 1.17195 54.5043 0.431949 58.5499C-1.04493 66.6381 1.37445 73.1349 7.20695 76.8093C10.4932 78.8674 14.1113 79.9074 18.0082 79.9074C24.7044 79.9074 31.5063 76.8556 38.0763 73.8962C42.7638 71.7943 47.6026 69.5968 52.3657 68.5349C54.1238 68.1418 55.9569 67.9099 57.8932 67.6562C61.8138 67.1481 65.8644 66.6162 69.507 64.6974C73.7601 62.4562 76.6632 58.7106 77.5051 54.4118C78.1395 51.1056 77.5051 47.7781 75.8738 44.8656C76.9881 43.2563 77.5835 41.3448 77.5801 39.3874H77.5807ZM72.6151 39.3874C72.6151 42.5999 69.7363 45.2124 66.1963 45.2124C62.6563 45.2124 59.7776 42.5999 59.7776 39.3874C59.7776 38.3468 60.0832 37.3537 60.6176 36.4987C60.8207 36.1737 61.077 35.8518 61.3301 35.5737C61.5984 35.2876 61.8975 35.0321 62.222 34.8118L62.2488 34.7874C62.4513 34.6487 62.6807 34.5093 62.9101 34.3724C62.9101 34.3724 62.9351 34.3724 62.9351 34.3481C63.0369 34.3018 63.1395 34.2331 63.2426 34.1868C63.267 34.1868 63.2913 34.1624 63.3176 34.1624C63.4207 34.1187 63.5476 34.0724 63.6738 34.0256C63.7944 33.9835 63.9134 33.9372 64.0307 33.8868C64.0557 33.8868 64.0819 33.8618 64.1063 33.8618C64.2088 33.8406 64.3113 33.7937 64.4119 33.7718C64.4388 33.7718 64.4901 33.7474 64.5145 33.7474C64.6413 33.7256 64.7438 33.7012 64.8707 33.6787H64.8976L65.2788 33.6081C65.3051 33.6081 65.3538 33.6081 65.3807 33.5862C65.4832 33.5862 65.5838 33.5618 65.6863 33.5618H65.8132C65.9401 33.5618 66.0695 33.5399 66.2207 33.5399H66.5526C66.6526 33.5399 66.7313 33.5399 66.8313 33.5618H66.8826C67.0876 33.5868 67.2901 33.6081 67.4951 33.6549C70.3982 34.2087 72.6151 36.5674 72.6151 39.3874ZM32.8294 4.69243H72.8932L63.6988 29.3093C63.3176 29.3799 62.9344 29.4943 62.5538 29.6093L52.8763 11.6968L43.1713 29.4937C42.7882 29.3793 42.3807 29.3087 41.9751 29.2399L32.8294 4.69243ZM51.0401 37.3749C50.5569 35.2018 49.3338 33.2612 47.6026 31.8281L52.8763 22.1674L58.1982 32.0356C56.6188 33.4687 55.4732 35.2949 55.0145 37.3749H51.0401ZM38.2813 33.7249C38.4082 33.6999 38.5107 33.6787 38.6376 33.6543H38.7132C38.8157 33.6324 38.9188 33.6324 39.0188 33.6074H39.1213C39.2238 33.6074 39.2994 33.5856 39.4019 33.5856H40.3957C40.4957 33.5856 40.5738 33.6074 40.6495 33.6074C40.7007 33.6074 40.7251 33.6074 40.7763 33.6324C40.8788 33.6543 40.9544 33.6543 41.0576 33.6787C41.0813 33.6787 41.1082 33.6787 41.1595 33.7006C41.287 33.7249 41.4138 33.7468 41.5157 33.7712H41.5407C41.6432 33.7931 41.7457 33.8149 41.8457 33.8618C41.8726 33.8618 41.8969 33.8862 41.9482 33.8862C42.0238 33.9081 42.1263 33.9324 42.202 33.9787C42.2288 33.9787 42.2532 34.0006 42.2801 34.0006C42.3801 34.0474 42.4832 34.0718 42.5857 34.1181H42.6101C42.7369 34.1618 42.8395 34.2081 42.9419 34.2793H42.9669C43.0688 34.3256 43.1713 34.3937 43.2738 34.4399C43.2988 34.4399 43.2988 34.4649 43.3226 34.4649C43.4251 34.5087 43.5013 34.5793 43.6038 34.6256L43.6307 34.6474C43.9357 34.8556 44.2163 35.0874 44.4944 35.3193L44.5213 35.3412C44.7757 35.5949 45.0294 35.8731 45.2345 36.1737C45.8963 37.0987 46.2794 38.1856 46.2794 39.3643C46.2794 42.5774 43.4007 45.1874 39.8607 45.1874C36.3207 45.1874 33.4419 42.5774 33.4419 39.3643C33.4157 36.6593 35.4788 34.3718 38.2813 33.7249ZM13.2176 33.5612C16.7582 33.5612 19.6363 36.1737 19.6363 39.3862C19.6363 42.5993 16.7582 45.2112 13.2176 45.2112C9.67758 45.2112 6.79882 42.5993 6.79882 39.3862C6.79882 36.1737 9.67758 33.5612 13.2176 33.5612ZM72.4613 53.6031C71.902 56.5593 69.8876 59.1499 66.9338 60.6974C64.1576 62.1549 60.7444 62.6162 57.1532 63.0781C55.1932 63.3318 53.1301 63.6099 51.1426 64.0493C45.8451 65.2287 40.7519 67.5406 35.8107 69.7574C29.4944 72.6018 23.5326 75.2824 18.0082 75.2824C15.1294 75.2824 12.5563 74.5431 10.1126 72.9949C4.50945 69.4818 4.78757 62.8949 5.45195 59.2887C6.06195 55.9124 7.76882 52.7462 9.39945 49.7187C9.49945 49.5331 9.57757 49.3718 9.67757 49.1862C10.2394 49.3718 10.8251 49.5112 11.4357 49.6037C10.4688 54.5037 13.2176 59.5649 18.5669 62.0624L19.5357 62.5237L20.5788 62.1768C25.0369 60.7437 29.1626 58.4099 32.8051 55.2893C34.8682 53.5318 36.6263 51.6374 38.1032 49.5793C38.6888 49.6724 39.2751 49.6968 39.8607 49.6968C45.1588 49.6968 49.6144 46.3906 50.8888 41.9524H55.1663C56.4407 46.4131 60.8982 49.6962 66.1963 49.6962C68.3107 49.6962 70.2713 49.1649 71.9507 48.2637C72.6151 49.9968 72.8176 51.7987 72.4613 53.6031Z" fill="#9CA3AF"/>
</g>
<defs>
<clipPath id="clip0">
<rect width="80" height="80" fill="white"/>
</clipPath>
</defs>
</svg>
