<svg width="80" height="80" viewBox="0 0 80 80" fill="none" xmlns="http://www.w3.org/2000/svg">
<path fill-rule="evenodd" clip-rule="evenodd" d="M56.5568 35.8012C56.3256 32.8074 55.6218 29.9206 54.6431 27.0924C52.6156 20.7774 49.3618 15.1887 44.7787 10.3799C43.6199 9.16368 42.3312 8.0493 41.5231 6.53555C41.0118 5.57805 40.5249 4.60743 40.0268 3.64243L39.7112 2.8468C39.6581 3.0293 39.6243 3.0943 39.6224 3.15993C39.5818 4.73305 38.6906 5.79993 37.5806 6.79555C36.3324 7.91618 35.1706 9.13243 33.9712 10.3068L30.2831 15.1587C29.2881 16.9868 28.2943 18.8149 27.3006 20.6431L25.3068 26.0287L25.2468 26.1124C24.1493 29.7174 23.6081 33.4237 23.3418 37.1674C23.2418 38.5743 23.3556 40.0018 23.4349 41.4162C23.5481 43.438 23.8993 45.4255 24.4262 47.3818C26.3399 54.4893 30.2237 60.3849 35.5331 65.3937C36.5199 66.3243 37.5324 67.1705 38.5624 68.0562C38.7387 67.453 38.8793 66.8499 39.0393 66.2468C39.1993 65.6462 39.3612 65.0487 39.4693 64.4462C39.3606 65.0487 39.2387 65.6462 39.1181 66.2468L38.6018 68.0562L39.0631 69.6193L39.4906 72.0468L39.6943 74.5799C39.6924 75.0943 39.6718 75.6099 39.7031 76.1237C39.7106 76.2549 39.8831 76.3762 39.9793 76.5024L40.8393 76.8043L41.7356 77.1531L41.5818 74.9012L41.5749 72.6837L41.8843 69.3055L42.1087 68.5699L42.7506 67.4324C43.5431 66.7949 44.3937 66.2162 45.1156 65.5068C46.4218 64.223 47.7249 62.9231 48.8937 61.5174C50.4149 59.6955 51.7139 57.699 52.7631 55.5699C53.4643 54.1424 54.1243 52.6862 54.6706 51.1943C55.1518 49.8793 55.4499 48.4974 55.8293 47.1449C55.8631 47.0474 55.9081 46.9518 55.9293 46.8524C56.7131 43.2018 56.8449 39.5143 56.5568 35.8012ZM41.8074 66.6605L41.3043 65.5587L41.8074 66.6605L42.5468 67.2918L41.8074 66.6605Z" fill="#9CA3AF"/>
</svg>
