<svg width="80" height="80" viewBox="0 0 80 80" fill="none" xmlns="http://www.w3.org/2000/svg">
<g clip-path="url(#clip0)">
<path d="M47.125 0.1875C46.5625 0.1875 46 0.3125 45.5 0.5C46.5625 1.1875 47.125 2.125 47.4375 3.1875C47.4375 3.3125 47.5 3.4375 47.5 3.5625C47.5 3.6875 47.5625 3.8125 47.5625 3.9375C47.625 5.75 47.0625 6 46.6875 7.0625C46.0625 8.4375 46.25 9.9375 47 11.125C47.0625 11.25 47.125 11.4375 47.25 11.5625C46.4375 6.3125 50.8125 5.5625 51.625 3.9375C51.6875 2.5 50.5 1.5625 49.5625 0.875C48.625 0.3125 47.875 0.1875 47.125 0.1875ZM53.6875 1.3125C53.625 1.8125 53.6875 1.6875 53.625 1.9375C53.625 2.125 53.625 2.3125 53.5625 2.5C53.5 2.6875 53.5 2.8125 53.4375 3C53.375 3.1875 53.3125 3.3125 53.25 3.5C53.1875 3.625 53.125 3.75 53.0625 3.9375C53 4 52.9375 4.125 52.875 4.1875C52.8125 4.25 52.8125 4.3125 52.75 4.375C52.625 4.5 52.5625 4.6875 52.4375 4.8125L52.0625 5.1875C51.9375 5.3125 51.8125 5.4375 51.6875 5.5C51.25 5.8125 50.75 6.0625 50.3125 6.375C50.1875 6.5 50 6.5625 49.875 6.6875C49.75 6.8125 49.625 6.875 49.5 7L49.125 7.375C49 7.5 48.875 7.625 48.8125 7.8125C48.6875 7.9375 48.625 8.125 48.5 8.25C48.4375 8.4375 48.375 8.5625 48.25 8.75C48.1875 8.9375 48.125 9.0625 48.0625 9.25C48 9.4375 47.9375 9.625 47.9375 9.75C47.9375 9.8125 47.9375 9.9375 47.875 10C47.875 10.0625 47.875 10.1875 47.8125 10.25V11.125C47.8125 11.3125 47.8125 11.4375 47.875 11.625C47.875 11.8125 47.9375 11.9375 48 12.125C48.0625 12.3125 48.125 12.4375 48.1875 12.625C48.25 12.75 48.3125 12.8125 48.3125 12.9375L43.5625 11.125C42.75 10.875 42 10.6875 41.1875 10.5C40.75 10.375 40.3125 10.3125 39.875 10.1875C38.625 9.9375 37.375 9.75 36.125 9.625H36C34.75 9.5 33.5625 9.4375 32.3125 9.4375C31.375 9.4375 30.5 9.5 29.625 9.5625C28.375 9.625 27.125 9.8125 25.875 10L24.9375 10.1875C24.3125 10.3125 23.6875 10.4375 23.0625 10.625C22.75 10.6875 22.4375 10.8125 22.125 10.875C21.8125 11 21.5 11.125 21.25 11.25C21 11.375 20.8125 11.4375 20.5625 11.5625C20.5 11.5625 20.5 11.5625 20.4375 11.625C20.25 11.75 20.0625 11.8125 19.875 11.9375C19.8125 11.9375 19.75 12 19.75 12C19.5 12.125 19.3125 12.25 19.125 12.3125C19 12.375 18.8125 12.4375 18.6875 12.5C18.625 12.5625 18.5625 12.5625 18.5 12.625C18.3125 12.75 18.125 12.8125 17.9375 12.9375C17.75 13.0625 17.5625 13.125 17.4375 13.25C17.3125 13.375 17.125 13.4375 17 13.5625C17 13.5625 16.9375 13.5625 16.9375 13.625C16.8125 13.6875 16.6875 13.8125 16.5625 13.9375L16.5 14C16.375 14.0625 16.3125 14.1875 16.1875 14.25C16.125 14.25 16.125 14.3125 16.0625 14.3125C15.9375 14.375 15.875 14.5 15.75 14.5625C15.75 14.625 15.6875 14.625 15.6875 14.625L15.3125 15L15.25 15.0625L14.875 15.4375C14.875 15.4375 14.875 15.5 14.8125 15.5L14.5 15.8125C14.4375 15.875 14.375 15.875 14.375 15.9375L14 16.3125C14 16.375 13.9375 16.375 13.9375 16.4375L13.4375 16.9375L13.375 17C13.0625 17.375 12.6875 17.6875 12.3125 18C11.9375 18.3125 11.5625 18.625 11.125 18.9375C10.6875 19.25 10.3125 19.5 9.875 19.75C9.4375 20 9 20.1875 8.5625 20.375C8.125 20.5625 7.6875 20.75 7.25 20.875C6.375 21.0625 5.5 21.4375 4.75 21.5C4.75 21.1875 4.5625 21.25 4.375 21.25C4.1875 21.3125 4 21.3125 3.875 21.375C3.6875 21.4375 3.5625 21.5 3.375 21.5625C3.1875 21.625 3.0625 21.6875 2.875 21.8125C2.75 21.9375 2.5625 22 2.4375 22.125C2.3125 22.25 2.125 22.375 2 22.5C1.875 22.625 1.6875 22.75 1.5625 22.875C1.4375 23 1.3125 23.125 1.1875 23.3125C1.0625 23.5 0.9375 23.625 0.875 23.8125C0.75 23.9375 0.6875 24.125 0.5625 24.3125C0.5 24.5 0.375 24.6875 0.3125 24.875L0.125 25.4375C0.0625 25.625 0.0625 25.75 0 25.9375V26C-0.0625 26.1875 -0.0625 26.4375 -0.0625 26.5625C0 26.5 0 26.625 0 26.75V27C0 27.125 0.0625 27.25 0.0625 27.375C0.125 27.5 0.125 27.625 0.1875 27.75C0.25 27.875 0.3125 28 0.4375 28.125C0.5 28.25 0.625 28.375 0.6875 28.5C0.8125 28.625 0.9375 28.75 1.0625 28.8125C1.1875 28.9375 1.3125 29.0625 1.4375 29.125C1.9375 29.5625 2.0625 29.6875 2.6875 30.0625C2.8125 30.125 2.875 30.1875 3 30.25H3.0625V30.375C3.0625 30.5625 3.125 30.6875 3.1875 30.875C3.25 31.0625 3.3125 31.25 3.375 31.375L3.5625 31.75C3.5625 31.8125 3.625 31.8125 3.625 31.875C3.6875 32.0625 3.8125 32.1875 3.875 32.3125C4 32.4375 4.0625 32.625 4.1875 32.75L4.5625 33.125L4.9375 33.5H5C5.125 33.625 5.25 33.6875 5.375 33.8125C5.5 33.9375 5.6875 34 5.8125 34.0625C5.9375 34.125 6.125 34.25 6.3125 34.3125C6.4375 34.375 6.5625 34.4375 6.75 34.4375C6.75 34.4375 6.8125 34.4375 6.8125 34.5C6.875 34.5 7 34.5625 7.0625 34.5625C7 35.6875 7 36.75 7.125 37.125C7.3125 37.5625 8.25 36.25 9.125 34.8125C9 36.25 8.9375 37.9375 9.125 38.4375C9.375 38.9375 10.5625 37.3125 11.6875 35.5625C26.3125 32.1875 39.6875 42.3125 41.125 56.625C40.875 54.375 38.125 53.125 36.8125 53.4375C36.1875 54.9375 35.125 56.9375 33.4375 58.125C33.5625 56.75 33.5 55.375 33.25 54C32.8125 55.875 31.9375 57.6875 30.6875 59.1875C28.75 59.3125 26.75 58.375 25.75 56.9375C25.6875 56.875 25.625 56.75 25.5625 56.6875C25.5 56.5625 25.4375 56.375 25.375 56.25C25.3125 56.125 25.25 55.9375 25.25 55.8125V55.375V55.0625C25.25 54.9375 25.3125 54.75 25.375 54.625C25.4375 54.5 25.4375 54.3125 25.5 54.1875C25.5625 54.0625 25.625 53.875 25.75 53.75C26.125 52.75 26.125 51.9375 25.4375 51.5L25.0625 51.3125C25 51.3125 24.875 51.25 24.8125 51.25C24.75 51.25 24.6875 51.1875 24.625 51.1875C24.5 51.125 24.3125 51.125 24.1875 51.0625C24.0625 51 23.875 51 23.75 51C23.625 51 23.4375 50.9375 23.3125 50.9375H23C22.8125 50.9375 22.6875 50.9375 22.5625 51C22.4375 51 22.25 51.0625 22.125 51.0625C22 51.125 21.8125 51.125 21.6875 51.1875C21.5625 51.25 21.4375 51.3125 21.25 51.375L20.875 51.5625C16.0625 54.6875 18.9375 62.0625 22.1875 64.1875C20.9375 64.4375 19.6875 64.6875 19.3125 64.9375L19.25 65C20.125 65.5625 21.0625 66 22.0625 66.375C23.375 66.8125 24.8125 67.1875 25.4375 67.375C27.125 67.75 28.875 67.875 30.625 67.75C39.75 67.125 47.25 60.125 48.625 51C48.6875 51.1875 48.6875 51.375 48.75 51.5625C48.8125 51.9375 48.875 52.3125 48.9375 52.75C49 52.9375 49 53.125 49 53.3125V53.375C49 53.5625 49.0625 53.75 49.0625 53.9375C49.0625 54.1875 49.125 54.375 49.125 54.625V57.25C49.125 57.4375 49.0625 57.5625 49.0625 57.75V57.9375C49.0625 58.125 49 58.3125 49 58.5625C48.9375 58.75 48.9375 58.9375 48.875 59.125V59.1875C48.8125 59.375 48.8125 59.5625 48.75 59.75V59.8125C48.6875 60 48.6875 60.1875 48.625 60.375V60.4375L48.4375 61V61.0625C48.375 61.25 48.3125 61.5 48.25 61.6875C48.1875 61.875 48.125 62.0625 48 62.3125C47.9375 62.5 47.875 62.75 47.75 62.9375C47.6875 63.125 47.5625 63.3125 47.5 63.5625C47.4375 63.75 47.3125 63.9375 47.25 64.125C47.25 64.1875 47.1875 64.25 47.1875 64.25C47.1875 64.25 47.1875 64.3125 47.125 64.3125C45.8125 67 43.8125 69.375 41.3125 71.25C41.125 71.375 41 71.5 40.8125 71.625C40.75 71.6875 40.6875 71.6875 40.6875 71.75C40.5625 71.875 40.375 71.9375 40.25 72.0625L40.3125 72.1875C40.625 72.125 40.875 72.125 41.1875 72.0625C41.75 72 42.25 71.875 42.8125 71.75C42.9375 71.75 43.125 71.6875 43.25 71.625C43.375 71.625 43.4375 71.5625 43.5625 71.5625C43.6875 71.5625 43.875 71.5 44 71.5C44.125 71.4375 44.25 71.4375 44.375 71.375C46.4375 70.875 48.4375 70.1875 50.375 69.375C47.0625 73.875 42.6875 77.5 37.5625 79.875C39.9375 79.6875 42.3125 79.3125 44.625 78.625C52.9375 76.1875 59.9375 70.5625 64.125 63C63.25 67.75 61.375 72.3125 58.5625 76.3125C60.5625 75 62.375 73.4375 64.0625 71.75C68.6875 66.9375 71.75 60.75 72.75 54.1875C73.4375 57.4375 73.6875 60.8125 73.375 64.125C88.3125 43.3125 74.625 21.75 68.875 16.0625C68.875 16 68.8125 16 68.8125 15.9375C68.8125 16.1875 68.8125 16.4375 68.75 16.6875C68.6875 17.1875 68.625 17.625 68.5625 18.0625C68.4375 18.5 68.3125 19 68.1875 19.4375C68.0625 19.875 67.875 20.3125 67.6875 20.75C67.5 21.1875 67.3125 21.625 67.0625 22C66.8125 22.375 66.5625 22.8125 66.3125 23.1875C66.0625 23.5625 65.75 23.9375 65.4375 24.3125C65.125 24.6875 64.8125 25 64.4375 25.375C64.25 25.5625 64.0625 25.75 63.8125 25.875C63.625 26 63.5 26.125 63.3125 26.3125C62.9375 26.625 62.5625 26.875 62.125 27.125C61.75 27.375 61.3125 27.625 60.875 27.8125L59.5625 28.375C59.125 28.5625 58.6875 28.6875 58.25 28.8125C57.8125 28.9375 57.3125 29.0625 56.875 29.125C56.375 29.1875 55.9375 29.25 55.5 29.3125C55.1875 29.3125 54.8125 29.375 54.5 29.375C54 29.375 53.5625 29.3125 53.125 29.3125C52.625 29.25 52.1875 29.1875 51.75 29.125C51.25 29.0625 50.8125 28.9375 50.375 28.75C50.8125 28.6875 51.3125 28.6875 51.75 28.5625C52.25 28.5 52.6875 28.375 53.125 28.25C53.5625 28.125 54.0625 28 54.4375 27.8125L55.75 27.25C56.1875 27.0625 56.5625 26.8125 57 26.5625C57.375 26.3125 57.8125 26 58.1875 25.75C58.5625 25.4375 58.9375 25.125 59.25 24.8125C59.625 24.5 59.9375 24.125 60.25 23.8125C60.5625 23.4375 60.875 23.0625 61.125 22.6875C61.1875 22.625 61.1875 22.5625 61.25 22.5C61.4375 22.1875 61.6875 21.8125 61.875 21.5C62.125 21.0625 62.3125 20.6875 62.5 20.25C62.6875 19.8125 62.875 19.375 63 18.9375L63.375 17.625C63.4375 17.125 63.5625 16.6875 63.5625 16.25C63.625 15.75 63.625 15.3125 63.625 14.875C63.625 14.5625 63.625 14.1875 63.5625 13.875C63.5 13.375 63.4375 12.9375 63.375 12.5C63.3125 12 63.1875 11.5625 63.0625 11.125C62.9375 10.6875 62.75 10.25 62.625 9.8125C62.4375 9.375 62.25 8.9375 62.0625 8.5625C61.8125 8.125 61.625 7.75 61.375 7.3125C61.125 6.9375 60.8125 6.5625 60.5625 6.1875C60.25 5.8125 59.9375 5.5 59.625 5.125C59.4375 4.9375 59.25 4.75 59.0625 4.625C58.125 3.875 57.1875 3.25 56.1875 2.625C56.0625 2.5625 55.9375 2.5 55.75 2.4375C54.9375 1.75 54.3125 1.5625 53.6875 1.3125Z" fill="#9CA3AF"/>
</g>
<defs>
<clipPath id="clip0">
<rect width="80" height="80" fill="white"/>
</clipPath>
</defs>
</svg>
