<svg width="80" height="80" viewBox="0 0 80 80" fill="none" xmlns="http://www.w3.org/2000/svg">
<g clip-path="url(#clip0)">
<path d="M47.842 51.7746L28.2217 47.6745C28.1379 47.8345 28.0479 47.9895 27.9479 48.1358L45.8095 74.1912L46.887 73.1149L49.9258 54.2183C48.892 53.7846 48.1145 52.8783 47.842 51.7746ZM40.6844 26.1267C39.9494 27.2542 38.6806 28.0004 37.2356 28.0004C37.0131 28.0004 36.7968 27.9779 36.5843 27.9442L27.6367 41.9444L51.5421 31.6567C51.5346 31.5605 51.5133 31.4705 51.5133 31.3717C51.5133 31.1705 51.5408 30.9755 51.5733 30.783L40.6844 26.1267ZM41.3344 23.5754L52.9171 28.5279C53.2833 28.2417 53.7008 28.0292 54.1596 27.9004L56.0634 16.0628L48.8108 8.81014L40.6469 21.5841C41.0381 22.1616 41.2806 22.8416 41.3344 23.5754ZM65.6048 25.6042L58.3359 18.334L56.7559 28.1492C57.1584 28.3529 57.5172 28.6242 57.8172 28.9567L65.6048 25.6042ZM48.1895 49.1895C48.7558 48.1658 49.8008 47.4582 51.0295 47.3632L53.1171 34.3793C52.9533 34.2705 52.8071 34.1405 52.6633 34.0068L28.6204 44.3544C28.6817 44.6057 28.7242 44.862 28.7442 45.1282L48.1895 49.1895ZM67.5848 27.5854L59.1747 31.2042L79.925 40.0756L80 40.0006L67.5848 27.5854ZM52.5558 54.2571L50.0283 69.9711L64.7048 55.2946L54.1333 53.0871C53.7296 53.6133 53.1883 54.0208 52.5558 54.2571ZM24.0291 50.217C23.4979 50.217 22.9891 50.1258 22.5129 49.9645L17.6378 57.5934L15.754 55.7109L20.3716 48.4858C20.2566 48.3445 20.1516 48.1958 20.0528 48.0433L11.6877 51.6446L9.70515 49.662L18.8615 45.7207L2.30754 42.2657L0.0437507 40.0006L0.760012 39.2844L19.8491 43.2694C20.0703 42.8519 20.3516 42.4682 20.6828 42.1394L11.4177 28.6254L13.289 26.7542L22.9691 40.8744C23.3104 40.7969 23.6641 40.7506 24.0291 40.7506C24.4379 40.7506 24.8341 40.8081 25.2129 40.9056L34.2705 26.7329C33.5605 25.9929 33.1218 24.9904 33.1218 23.8841C33.1218 23.5591 33.163 23.2441 33.2343 22.9416L21.9341 18.1103L23.9166 16.1278L34.623 20.7066C35.3343 20.1216 36.2443 19.7703 37.2368 19.7703C37.7056 19.7703 38.1556 19.8528 38.5769 19.9978L46.9282 6.92761L40.0006 0L0 40.0006L40.0006 80.0013L43.9369 76.0649L25.9417 49.812C25.3554 50.0708 24.7091 50.217 24.0291 50.217ZM55.6634 34.9393L53.5396 48.1383C54.2708 48.7283 54.7584 49.592 54.8509 50.5795L66.9048 53.0958L77.9425 42.0582L58.0197 33.5405C57.4609 34.283 56.6259 34.798 55.6634 34.9393Z" fill="#9CA3AF"/>
</g>
<defs>
<clipPath id="clip0">
<rect width="80" height="80" fill="white"/>
</clipPath>
</defs>
</svg>
