<svg width="80" height="80" viewBox="0 0 80 80" fill="none" xmlns="http://www.w3.org/2000/svg">
<path d="M70.4238 18.9588L42.8344 2.95563C41.0963 1.96563 38.8194 1.96563 37.0675 2.95563L9.2625 18.9588C7.46937 19.9906 6.25 21.93 6.25 24.0044V55.9681C6.25 58.0425 7.495 59.9825 9.28875 61.02L16.6194 65.2C20.1362 66.9325 21.1106 66.9325 22.7106 66.9325C27.9194 66.9325 30.6244 63.7831 30.6244 58.29V26.7338C30.625 26.2881 30.9031 25.625 30.465 25.625H26.9513C26.5063 25.625 25.625 26.2881 25.625 26.7331V58.2894C25.625 60.7244 23.365 63.1475 19.2488 61.0894L11.6725 56.7063C11.4088 56.5625 11.25 56.2731 11.25 55.9681V24.0044C11.25 23.7031 11.5394 23.4006 11.8069 23.2463L39.5431 7.27063C39.6793 7.1983 39.8311 7.16047 39.9853 7.16047C40.1395 7.16047 40.2913 7.1983 40.4275 7.27063L67.9044 23.2425C68.1675 23.4006 68.1256 23.6938 68.1256 24.0044V55.9681C68.1256 56.2731 68.1831 56.57 67.9238 56.7169L40.3406 72.7019C40.1044 72.8438 39.7969 72.8438 39.5375 72.7019L32.4644 68.4838C32.2513 68.36 31.9944 68.3156 31.7894 68.43C29.8237 69.5444 29.4587 69.6925 27.615 70.3319C27.1606 70.49 26.4906 70.7644 27.87 71.5375L37.1187 77.0088C38.0017 77.5189 39.0034 77.7875 40.0231 77.7875C41.0468 77.7892 42.0528 77.5205 42.9394 77.0088L70.4244 61.02C72.2188 59.975 73.1256 58.0425 73.1256 55.9681V24.0044C73.125 21.93 72.2181 19.9956 70.4238 18.9588ZM48.5794 50.9031C41.25 50.9031 39.6362 48.8813 39.0981 45.2369C39.0344 44.8444 38.7019 44.375 38.3019 44.375H34.7206C34.2775 44.375 33.9206 44.9125 33.9206 45.3538C33.9206 50.02 36.4581 55.6738 48.5794 55.6738C57.3531 55.6738 62.3844 52.2644 62.3844 46.2306C62.3844 40.2481 58.3425 38.6781 49.8331 37.5519C41.2319 36.415 40.3581 35.8406 40.3581 33.8256C40.3581 32.1644 41.0981 29.9488 47.4669 29.9488C53.1569 29.9488 55.2544 31.17 56.1175 35.0056C56.1919 35.3663 56.5212 35.625 56.8931 35.625H60.4894C60.7106 35.625 60.9212 35.5356 61.0762 35.3775C61.2269 35.2075 61.3056 34.9944 61.2862 34.7656C60.7281 28.16 56.3406 25.0819 47.4662 25.0819C39.5713 25.0819 34.8625 28.4156 34.8625 34.0038C34.8625 40.065 39.5481 41.74 47.1263 42.4894C56.1919 43.3781 56.8969 44.7031 56.8969 46.4863C56.8969 49.5838 54.4106 50.9031 48.5794 50.9031Z" fill="#9CA3AF"/>
</svg>
