<svg width="80" height="80" viewBox="0 0 80 80" fill="none" xmlns="http://www.w3.org/2000/svg">
<path fill-rule="evenodd" clip-rule="evenodd" d="M77.0363 47.99C76.755 46.1662 75.2231 44.9719 73.4412 44.8912C72.7962 44.8619 72.1413 44.9294 71.4981 45.0112C70.7213 45.11 69.9538 45.285 69.1787 45.4006C68.6431 45.4806 68.1 45.5175 67.565 45.5725L67.5519 45.5031C68.5506 43.6169 69.5912 41.7513 70.5363 39.8381C71.2606 38.3706 71.8806 36.85 72.5212 35.3419C73.5812 32.8431 74.4281 30.2669 75.1294 27.6488C75.8013 25.1419 76.3763 22.6075 76.5569 20.0069C76.6294 18.9681 76.6794 17.925 76.6738 16.885C76.6688 16.0556 76.5794 15.225 76.4962 14.3981C76.4025 13.4506 76.1162 12.5525 75.72 11.6881C75.1975 10.5494 74.3875 9.615 73.535 8.7275C72.8525 8.01687 72.1019 7.36937 71.3575 6.7225C70.2962 5.79937 69.1031 5.0625 67.8638 4.40812C66.4598 3.66208 64.9723 3.08514 63.4325 2.68937C62.4994 2.45125 61.545 2.27437 60.6 2.08562C60.26 2.01687 59.9194 1.875 59.5794 1.875H53.1787C52.9475 1.875 52.7181 1.99438 52.485 2.02063C50.9525 2.19125 49.4381 2.48 47.9675 2.93563C47.4175 3.10625 46.915 2.99875 46.3925 2.95063C45.9919 2.91375 45.5981 2.80625 45.1975 2.78625C43.6712 2.71 42.1431 2.59813 40.6175 2.61438C39.1556 2.62938 37.7087 2.87 36.2938 3.27188C35.1094 3.60813 33.9506 4.01875 32.8894 4.64125C32.435 4.9075 32.075 4.8575 31.605 4.72187C30.0256 4.26625 28.435 3.83812 26.8306 3.47875C25.8306 3.255 24.8025 3.14375 23.7812 3.03688C22.8013 2.93503 21.8175 2.87373 20.8325 2.85313C19.8713 2.8325 18.9031 2.83313 17.9463 2.91813C16.4222 3.05062 14.9199 3.36817 13.4725 3.86375C11.8695 4.41108 10.3718 5.22802 9.04375 6.27938C7.68937 7.35125 6.60312 8.66 5.72937 10.1544C4.80875 11.7312 4.1775 13.4194 3.785 15.1925C3.5725 16.1531 3.43813 17.1406 3.2925 18.1162C3.24688 18.42 3.75 18.7237 3.125 19.0262V23.2725C3.75 23.555 3.255 23.8369 3.29125 24.12C3.37812 24.8006 3.455 25.4869 3.57 26.1625C3.75187 27.2319 3.9675 28.2981 4.1875 29.3606C4.49298 30.8456 4.81508 32.3272 5.15375 33.805C5.40125 34.88 5.68312 35.9487 5.97812 37.0119C6.42875 38.6356 6.8725 40.2625 7.38188 41.8681C7.855 43.36 8.39687 44.8306 8.93437 46.3013C9.67875 48.3356 10.57 50.3044 11.6388 52.1912C12.5631 53.825 13.6194 55.355 15.0363 56.6138C15.97 57.4431 17.0094 58.0806 18.2194 58.3994C19.17 58.6494 20.1363 58.6794 21.1094 58.48C22.2181 58.2545 23.2538 57.7583 24.1244 57.0356C24.2262 56.9519 24.3381 56.8881 24.4587 57.0419C24.9181 57.6237 25.5331 58.0119 26.1763 58.3475C27.9119 59.2525 29.8031 59.5238 31.7244 59.6344C32.1894 59.6613 32.6594 59.5944 33.1281 59.5813C34.0413 59.5563 34.9288 59.3781 35.8019 59.1256C36.2594 58.9931 36.7062 58.825 37.1719 58.6681C37.1963 59.1638 37.2275 59.6413 37.2419 60.1188L37.3069 62.7225C37.3188 63.1188 37.3344 63.5163 37.3713 63.9106C37.4656 64.9275 37.5581 65.945 37.6794 66.9588C37.7637 67.6575 37.8512 68.3619 38.0156 69.0437C38.3452 70.4203 38.7965 71.7647 39.3644 73.0612C39.908 74.3197 40.7436 75.4306 41.8019 76.3019C43.1894 77.4494 44.8156 77.9388 46.5719 78.0294C47.2981 78.0675 48.045 78.0319 48.76 77.9019C49.8964 77.6999 51.0205 77.4338 52.1269 77.105C54.3713 76.4275 56.3112 75.2575 57.7606 73.3669C58.5856 72.2894 59.2631 71.1237 59.6981 69.8369C60.0569 68.7738 60.395 67.7 60.6637 66.6119C60.8762 65.7544 60.9813 64.87 61.1106 63.9944C61.1963 63.415 61.2475 62.83 61.3013 62.2463C61.3888 61.2981 61.4781 60.3506 61.5413 59.4006C61.585 58.7394 61.5831 58.075 61.6094 57.4125C61.6175 57.2106 61.65 57.01 61.6687 56.8087C61.6862 56.6225 61.78 56.5581 61.97 56.5612C62.6394 56.5713 63.31 56.5888 63.9775 56.5588C64.7256 56.525 65.4806 56.4931 66.2169 56.3694C67.266 56.1941 68.3066 55.9716 69.3356 55.7025C70.55 55.385 71.6637 54.8162 72.7356 54.1681C73.9844 53.4137 75.1225 52.5288 76.0462 51.3887C76.8494 50.3944 77.23 49.245 77.0363 47.99ZM74.9037 48.6037C74.8625 49.1756 74.6006 49.6656 74.2206 50.0844C72.4275 52.0613 70.1781 53.2606 67.605 53.8512C66.6275 54.075 65.6188 54.1912 64.6181 54.2837C63.7632 54.3589 62.9044 54.3792 62.0469 54.3444C61.4181 54.3206 60.7944 54.1769 60.1519 54.0844C60.0875 54.6719 60.0262 55.2837 59.9519 55.8944L59.6525 58.235C59.5619 58.9769 59.4913 59.7212 59.3981 60.4625C59.3069 61.1819 59.1931 61.8988 59.0975 62.6181C59.0081 63.2881 58.9425 63.9612 58.8431 64.63C58.69 65.655 58.5438 66.6825 58.3438 67.6994C58.1037 68.915 57.7356 70.0925 57.135 71.1888C56.4025 72.5269 55.3638 73.5462 54.0419 74.3013C52.6794 75.08 51.19 75.485 49.68 75.8238C48.6112 76.0638 47.51 76.1031 46.4275 76.0056C44.55 75.8356 42.9475 75.0325 41.7363 73.5769C40.58 72.1875 39.7975 70.595 39.5175 68.7925C39.3868 67.9344 39.2844 67.0723 39.2106 66.2075C39.1277 65.2464 39.0654 64.2837 39.0238 63.32C38.9683 62.0974 38.9273 60.8742 38.9006 59.6506C38.8675 58.1469 38.8569 56.6431 38.8356 55.1394L38.8319 55.0819C38.0669 55.5406 37.315 56.0431 36.5175 56.4569C35.5855 56.939 34.5653 57.2267 33.5188 57.3025C32.695 57.365 31.8606 57.4219 31.0406 57.3562C29.6963 57.2481 28.3531 57.0375 27.1494 56.3756C26.6612 56.1069 26.1519 55.78 25.8156 55.3506C25.0094 54.3219 25.3956 53.0219 26.6112 52.3962C27.4513 51.9631 28.3681 51.7825 29.2788 51.5719C30.0713 51.3921 30.8556 51.1775 31.6294 50.9287C32.3931 50.6787 32.875 50.0594 33.3506 49.4519L34.1044 48.4825C33.79 48.4494 33.4938 48.4156 33.1975 48.3881C32.2981 48.3031 31.44 48.0556 30.6194 47.6919C29.9169 47.3812 29.9062 47.3475 29.3913 47.9062C28.5312 48.84 27.695 49.7956 26.8525 50.745C26.2325 51.4431 25.6163 52.1456 24.9994 52.8456C24.3881 53.5381 23.8156 54.27 23.1575 54.9144C22.18 55.8713 21.0019 56.4469 19.5963 56.3819C18.6944 56.3406 17.8688 56.0244 17.1263 55.5075C15.5938 54.44 14.5613 52.9469 13.6213 51.3787C12.4169 49.3694 11.4925 47.2287 10.7013 45.0294C10.1537 43.5094 9.60375 41.9881 9.12562 40.4462C8.60625 38.7706 8.15063 37.0737 7.7025 35.3775C7.36777 34.096 7.05895 32.8078 6.77625 31.5138C6.4466 30.0442 6.14156 28.5692 5.86125 27.0894C5.675 26.09 5.56688 25.0763 5.41625 24.07C5.21313 22.7138 5.17563 21.345 5.24938 19.9831C5.315 18.7563 5.49125 17.5325 5.66625 16.3137C5.90875 14.6275 6.46437 13.0363 7.26375 11.5338C7.75312 10.6131 8.36063 9.77625 9.06313 8.99875C10.2163 7.7225 11.6119 6.8 13.1644 6.1075C14.2494 5.62375 15.3956 5.3325 16.5638 5.105C18.2975 4.7675 20.0469 4.78062 21.7969 4.81687C22.5619 4.8325 23.3237 4.97188 24.0881 5.0475C25.7337 5.21125 27.3469 5.5575 28.9394 5.985C30.1 6.29625 31.2369 6.69938 32.3881 7.04938C32.5037 7.08438 32.6731 7.08125 32.7675 7.01937C34.3275 6.00125 36.0325 5.32938 37.8456 4.945C38.5338 4.79938 39.2438 4.73563 39.9475 4.69063C40.8031 4.63625 41.6656 4.58625 42.5194 4.63562C43.5456 4.69437 44.5669 4.84563 45.5869 4.98563C46.0819 5.05313 46.565 5.225 47.0612 5.27188C47.2987 5.29438 47.5506 5.12063 47.8019 5.0625C49.0825 4.76688 50.3575 4.4375 51.6494 4.20375C52.6113 4.03 53.5938 3.94813 54.5719 3.89188C55.6625 3.82938 56.7612 3.78375 57.8512 3.83625C59.2315 3.9046 60.6027 4.09768 61.9481 4.41313C63.6212 4.8025 65.2262 5.36813 66.7519 6.15313C67.8919 6.73938 68.9756 7.41937 69.9512 8.25562C70.5906 8.80437 71.245 9.34625 71.8225 9.9575C72.535 10.7113 73.2619 11.4656 73.7087 12.4312C74.045 13.1594 74.285 13.9131 74.3512 14.7106C74.4337 15.7019 74.5338 16.6969 74.5244 17.6894C74.5156 18.6388 74.3863 19.5875 74.2944 20.5344C74.0856 22.6931 73.6162 24.805 73.0462 26.8888C72.5694 28.61 72.0297 30.3133 71.4281 31.995C70.8788 33.5456 70.245 35.0681 69.6044 36.5844C69.1328 37.7075 68.6204 38.813 68.0681 39.8988C67.02 41.9525 65.93 43.985 64.6694 45.9194C64.4519 46.2537 64.2456 46.5962 64.0331 46.9375C64.5831 47.3088 65.2062 47.4394 65.8337 47.5069C66.4306 47.5719 67.0394 47.6106 67.6356 47.5663C68.59 47.4956 69.5412 47.3594 70.49 47.2262C71.43 47.095 72.3512 46.8275 73.3163 46.8981C74.28 46.9681 74.9694 47.7006 74.9037 48.6037ZM61.1456 46.5081C60.7363 45.9794 60.3188 45.4569 59.9181 44.9219C59.2894 44.0819 58.8375 43.1438 58.3838 42.2013C57.9538 41.3081 57.4263 40.4625 56.9731 39.5794C56.1825 38.0387 55.3775 36.5031 54.6494 34.9325C53.7338 32.9594 53.0119 30.9163 52.7844 28.7306C52.6881 27.8056 52.6637 26.8819 52.8506 25.9656C53.15 24.5025 53.9144 23.3581 55.1994 22.5731C56.3913 21.845 57.7194 21.61 59.08 21.5363C59.9244 21.4906 60.7725 21.5281 61.6488 21.5281L61.6194 21.38C61.0744 20.2406 60.565 19.0819 59.9688 17.9694C59.1275 16.3994 58.0512 14.9838 56.8525 13.6713C55.9644 12.6994 55.0025 11.7975 53.9487 11.0006C52.9125 10.2162 51.8206 9.51562 50.6556 8.9425C49.2663 8.25937 47.8194 7.73125 46.3013 7.39438C44.8425 7.07063 43.3744 6.8725 41.8781 6.85625C40.6019 6.8425 39.3338 6.9 38.0906 7.18813C36.2144 7.6225 34.4981 8.395 33.005 9.64625C32.1789 10.3391 31.4407 11.1304 30.8069 12.0025C30.0594 13.0294 29.4562 14.1381 28.9406 15.3006C28.2331 16.8956 27.7475 18.5556 27.4156 20.2619C27.2494 21.1125 27.1194 21.9706 26.9869 22.8281C26.9406 23.1281 26.9369 23.435 26.91 23.7788C27.1406 23.6588 27.3069 23.5663 27.4769 23.4838L28.03 23.2356C29.9006 22.38 31.8388 21.8294 33.9219 21.8925C34.8069 21.9194 35.6538 22.0944 36.4406 22.4819C37.95 23.2262 38.8331 24.4919 39.2169 26.0938C39.4819 27.1994 39.6631 28.3269 39.8394 29.4513C39.9775 30.3294 40.1188 31.2169 40.135 32.1025C40.1581 33.3969 40.0925 34.6938 40.0219 35.9875C39.9612 37.0876 39.7336 38.1721 39.3469 39.2038C38.6469 41.0744 37.8669 42.9144 37.1381 44.7744C36.8975 45.3887 36.7125 46.025 36.485 46.7006C36.8363 46.7006 37.1213 46.6981 37.4062 46.7019C37.5175 46.7038 37.6312 46.7069 37.7388 46.7325C38.5762 46.93 39.3025 47.3094 39.8981 47.9538C40.6925 48.8112 41.1094 49.8119 41.1306 50.97C41.1425 51.6119 41.075 52.2556 41.0781 52.8975C41.0912 55.8888 41.1138 58.88 41.1387 61.8706C41.1431 62.3594 41.1675 62.8487 41.2025 63.3369C41.2756 64.3587 41.3494 65.3812 41.4494 66.4006C41.5194 67.1237 41.6169 67.8456 41.7312 68.5638C41.8931 69.5813 42.3563 70.4869 42.8819 71.3525C43.3344 72.0969 43.9225 72.7294 44.6975 73.1656C46.0144 73.9069 47.4325 73.9688 48.8619 73.6956C49.8275 73.5113 50.7756 73.215 51.7131 72.9094C52.6351 72.6136 53.4769 72.1103 54.1738 71.4381C54.8306 70.8013 55.2969 70.025 55.6112 69.1681C56.2212 67.5062 56.4113 65.7562 56.6637 64.02C56.7581 63.37 56.84 62.7181 56.9263 62.0669C57.0244 61.3256 57.1238 60.585 57.2188 59.8444C57.2888 59.2925 57.3525 58.7394 57.42 58.1875C57.5163 57.395 57.6181 56.6031 57.71 55.81C57.7806 55.1969 57.8406 54.5812 57.9031 53.9669C57.9837 53.1819 58.0706 52.3969 58.14 51.6106C58.1938 51.0138 58.1719 50.4062 58.2775 49.8206C58.4719 48.7469 58.9794 47.8331 59.9313 47.2425C60.3294 46.9956 60.7788 46.8331 61.2206 46.6244L61.1456 46.5081ZM25.1475 42.1006C24.6728 40.9843 24.3868 39.7969 24.3013 38.5869C24.2213 37.4462 24.3569 36.31 24.4738 35.1744C24.5875 34.0744 24.6819 32.9694 24.715 31.8644C24.77 30.0481 24.6475 28.2344 24.5606 26.4194C24.5081 25.3388 24.6338 24.245 24.73 23.1619C24.8169 22.1862 24.925 21.2081 25.1094 20.2469C25.4187 18.6338 25.8294 17.0438 26.4131 15.5025C26.9675 14.0413 27.6044 12.6181 28.5037 11.3369C29.12 10.4581 29.8194 9.63688 30.4912 8.77812L30.2919 8.7075C28.1056 8.01312 25.8837 7.47063 23.5987 7.23375C22.5181 7.12188 21.4338 7.05625 20.35 6.99188C20.0175 6.97188 19.68 7.01687 19.3463 7.04875C18.52 7.1275 17.6838 7.15875 16.8706 7.31375C15.4869 7.57687 14.1594 8.01938 12.93 8.74C11.8263 9.38688 10.8994 10.2231 10.1231 11.2262C9.26563 12.3337 8.68875 13.5863 8.27437 14.9219C7.785 16.4975 7.55188 18.1187 7.48875 19.755C7.43375 21.1894 7.40625 22.6319 7.65375 24.0606C7.83813 25.1244 7.96125 26.1994 8.16437 27.2587C8.44125 28.7031 8.73812 30.1444 9.08125 31.5738C9.57187 33.62 10.0619 35.6694 10.6431 37.6906C11.1994 39.6275 11.8269 41.5469 12.5069 43.4431C13.0631 44.9906 13.7063 46.5094 14.3837 48.0081C14.825 48.9844 15.3594 49.9238 15.9194 50.8381C16.515 51.8088 17.1925 52.73 18.1119 53.4344C19.2719 54.3238 20.17 54.4619 21.3488 53.4863C21.8538 53.0681 22.2806 52.5519 22.72 52.06C23.4181 51.2787 24.0919 50.4763 24.7869 49.6925C25.6719 48.6938 26.5681 47.7056 27.4575 46.7119C27.6456 46.5019 27.8263 46.2856 28.0094 46.0731L27.7069 45.8075C26.6085 44.7605 25.7373 43.4987 25.1475 42.1006ZM58.7025 12.37C59.4297 13.2154 60.1197 14.0921 60.7706 14.9975C62.0206 16.7531 63.0194 18.6488 63.755 20.6769C64.0806 21.5706 64.3406 22.4731 64.2244 23.4513C64.1438 24.1362 64.1506 24.8313 64.09 25.52C64.0394 26.0931 63.9487 26.6631 63.8744 27.2344C63.7631 28.0956 63.6019 28.9544 63.5537 29.8194C63.5081 30.6425 63.5556 31.4744 63.6075 32.2994C63.66 33.1375 63.7731 33.9719 63.85 34.8088C63.9369 35.7575 64.0537 36.7062 64.0806 37.6569C64.1025 38.4375 64.0331 39.2231 63.965 40.0025C63.8838 40.9412 63.6456 41.85 63.2906 42.7219C63.0412 43.3356 62.7431 43.9306 62.4613 44.545L62.5744 44.665L62.7462 44.7981L62.9194 44.4881C64.3814 42.1873 65.6808 39.787 66.8081 37.305C67.5294 35.7028 68.2144 34.0845 68.8625 32.4513C69.8775 29.9113 70.6806 27.3 71.3019 24.6369C71.5806 23.4412 71.7937 22.2275 71.9831 21.0138C72.1306 20.065 72.2538 19.105 72.2812 18.1475C72.3106 17.1319 72.2544 16.1081 72.1606 15.095C72.0906 14.33 71.9019 13.56 71.4225 12.9381C70.6519 11.9369 69.82 10.9794 68.7969 10.2219C67.9356 9.58375 67.0775 8.92938 66.1531 8.3925C64.6875 7.5425 63.1012 6.97625 61.4437 6.59062C59.8262 6.21375 58.1875 6.05125 56.5381 6.01687C55.5656 5.99625 54.5888 6.10062 53.6181 6.19187C52.7388 6.27437 51.865 6.415 50.9794 6.53125C51.9294 7.06562 52.8662 7.54063 53.75 8.10063C55.6081 9.2775 57.2731 10.6938 58.7025 12.37ZM34.5619 45.3213C35.1625 43.4006 35.9806 41.5669 36.7731 39.7219C37.4156 38.2256 37.7669 36.6494 37.8838 35.0306C37.9419 34.2325 37.9256 33.4244 37.8862 32.6238C37.8472 31.7331 37.7654 30.8447 37.6413 29.9619C37.475 28.8363 37.2856 27.71 37.0194 26.605C36.7306 25.4094 36.0025 24.5769 34.755 24.27C33.995 24.0831 33.24 24.0906 32.4719 24.2119C30.5956 24.5075 28.8781 25.1987 27.2781 26.2113C26.9563 26.415 26.7794 26.5794 26.835 27.0412C26.9525 28.0194 26.9781 29.0131 26.9738 30.0006C26.9675 31.3981 26.9081 32.7956 26.855 34.1925C26.8375 34.6475 26.7719 35.1 26.7231 35.5531C26.6481 36.2469 26.5037 36.94 26.5081 37.6325C26.5125 38.3463 26.5856 39.0769 26.7587 39.7681C27.3088 41.96 28.4737 43.7537 30.3831 45.0194C31.5575 45.7975 32.8569 46.19 34.2831 46.2644C34.38 45.9369 34.4662 45.6275 34.5619 45.3213ZM32.3206 26.5169C32.0694 25.9894 32.2131 25.5525 32.7956 25.35C32.9375 25.3 33.0837 25.2469 33.2312 25.2325C33.4337 25.2125 33.64 25.2275 33.845 25.2275C34.5837 25.2312 35.2944 25.3344 35.9044 25.8044C36.2956 26.1056 36.4006 26.5056 36.1475 26.9163C35.7881 27.4988 35.24 27.7913 34.5669 27.8475C33.5063 27.9356 32.7619 27.4412 32.3206 26.5169ZM61.7206 26.3244C61.8056 25.6219 61.8737 24.9175 61.9606 24.215C61.9956 23.9325 61.8469 23.8563 61.61 23.8494C60.865 23.8288 60.12 23.8025 59.375 23.7887C58.535 23.7738 57.7175 23.9088 56.94 24.2281C56.0775 24.5831 55.4206 25.1519 55.1525 26.0906C54.9563 26.7829 54.8942 27.5063 54.9694 28.2219C55.0738 29.3284 55.3245 30.4163 55.715 31.4569C56.2362 32.845 56.7819 34.2325 57.4337 35.5625C58.3169 37.3631 59.3162 39.1062 60.2544 40.8794C60.505 41.3525 60.7156 41.8462 60.9769 42.3988C61.5036 41.3004 61.7914 40.1028 61.8213 38.885C61.8469 37.8787 61.7663 36.8681 61.7075 35.8612C61.6706 35.245 61.5838 34.6325 61.5238 34.0175C61.44 33.1606 61.3131 32.3044 61.2938 31.4456C61.2744 30.5725 61.3363 29.6944 61.4113 28.8225C61.4819 27.9862 61.62 27.1569 61.7206 26.3244ZM60.04 25.6481C59.7631 26.4125 59.1712 26.8438 58.4037 26.9706C57.6881 27.0881 57.0613 26.8238 56.595 26.2531C56.2631 25.8469 56.39 25.3656 56.8875 25.0912C57.4587 24.775 58.0869 24.695 58.8275 24.6469C59.0288 24.6838 59.3319 24.7144 59.62 24.7969C60.0381 24.915 60.1925 25.2294 60.04 25.6481ZM37.9012 49.1856C37.4919 48.8512 36.9506 48.8319 36.5612 49.1988C36.0781 49.655 35.6531 50.1769 35.2281 50.6913C34.7375 51.2856 34.2775 51.9037 33.6444 52.3644C32.7231 53.0337 31.6494 53.3113 30.57 53.5738C29.7119 53.7825 28.85 53.9762 27.9894 54.1769L27.9787 54.2881C28.2344 54.4062 28.4819 54.5537 28.7481 54.6381C30.0606 55.0537 31.3956 55.2606 32.7825 55.1431C33.7838 55.0581 34.7375 54.84 35.6413 54.4112C36.885 53.8219 37.8419 52.8881 38.6556 51.8019C38.7919 51.6206 38.8538 51.3525 38.87 51.1188C38.9256 50.2931 38.5062 49.6794 37.9012 49.1856ZM70.2456 49.5144C69.1894 49.6275 68.1319 49.7475 67.0725 49.8081C66.5613 49.8375 66.0425 49.74 65.5263 49.6981C64.6606 49.6281 63.8156 49.4356 63.0837 48.9731C62.66 48.7063 62.3081 48.6763 61.8581 48.8275C61.2156 49.0438 60.6912 49.3725 60.5363 50.0687C60.4306 50.5394 60.3925 51.0269 60.35 51.5088C60.3419 51.5938 60.4481 51.75 60.5294 51.7712C61.025 51.9019 61.5231 52.0562 62.03 52.1019C62.6525 52.1581 63.2863 52.14 63.9131 52.1087C64.59 52.075 65.2712 52.0312 65.9381 51.9188C67.51 51.655 69.0306 51.225 70.3812 50.3337C70.8681 50.0119 71.3506 49.6831 71.8344 49.3575L71.7944 49.2887C71.2781 49.3656 70.7644 49.4594 70.2456 49.5144Z" fill="#9CA3AF"/>
</svg>
