<svg width="80" height="80" viewBox="0 0 80 80" fill="none" xmlns="http://www.w3.org/2000/svg">
<g clip-path="url(#clip0)">
<path d="M64.7756 15.238H68.5852C69.6518 15.238 70.4899 16.0761 70.4899 17.1428C70.4899 18.2095 69.6518 19.0476 68.5852 19.0476H64.7756C63.7089 19.0476 62.8708 18.2095 62.8708 17.1428C62.8708 16.0761 63.7089 15.238 64.7756 15.238Z" fill="#9CA3AF"/>
<path d="M7.63279 76.1907H26.6804C27.7471 76.1907 28.5852 77.0288 28.5852 78.0954C28.5852 79.1621 27.7471 80.0002 26.6804 80.0002H7.63279C6.56612 80.0002 5.72803 79.1621 5.72803 78.0954C5.72803 77.0288 6.56612 76.1907 7.63279 76.1907Z" fill="#9CA3AF"/>
<path d="M53.3471 45.7144H64.7756C65.8422 45.7144 66.6803 46.5525 66.6803 47.6191C66.6803 48.6858 65.8422 49.5239 64.7756 49.5239H53.3471C52.2805 49.5239 51.4424 48.6858 51.4424 47.6191C51.4424 46.5525 52.2805 45.7144 53.3471 45.7144Z" fill="#9CA3AF"/>
<path d="M30.49 45.7144H45.728C46.7947 45.7144 47.6328 46.5525 47.6328 47.6191C47.6328 48.6858 46.7947 49.5239 45.728 49.5239H30.49C29.4233 49.5239 28.5852 48.6858 28.5852 47.6191C28.5852 46.5525 29.4233 45.7144 30.49 45.7144Z" fill="#9CA3AF"/>
<path d="M7.63279 45.7144H22.8709C23.9376 45.7144 24.7756 46.5525 24.7756 47.6191C24.7756 48.6858 23.9376 49.5239 22.8709 49.5239H7.63279C6.56612 49.5239 5.72803 48.6858 5.72803 47.6191C5.72803 46.5525 6.56612 45.7144 7.63279 45.7144Z" fill="#9CA3AF"/>
<path d="M7.63279 60.9525H26.6804C27.7471 60.9525 28.5852 61.7906 28.5852 62.8573C28.5852 63.924 27.7471 64.7621 26.6804 64.7621H7.63279C6.56612 64.7621 5.72803 63.924 5.72803 62.8573C5.72803 61.7906 6.56612 60.9525 7.63279 60.9525Z" fill="#9CA3AF"/>
<path d="M7.63279 30.4762H26.6804C27.7471 30.4762 28.5852 31.3143 28.5852 32.381C28.5852 33.4477 27.7471 34.2858 26.6804 34.2858H7.63279C6.56612 34.2858 5.72803 33.4477 5.72803 32.381C5.72803 31.3143 6.56612 30.4762 7.63279 30.4762Z" fill="#9CA3AF"/>
<path d="M26.6803 7.61902H64.7754C65.8421 7.61902 66.6802 8.45712 66.6802 9.5238C66.6802 10.5905 65.8421 11.4286 64.7754 11.4286H26.6803C25.6136 11.4286 24.7755 10.5905 24.7755 9.5238C24.7755 8.45712 25.6136 7.61902 26.6803 7.61902Z" fill="#9CA3AF"/>
<path d="M7.63279 7.61902H19.0614C20.128 7.61902 20.9661 8.45712 20.9661 9.5238C20.9661 10.5905 20.128 11.4286 19.0614 11.4286H7.63279C6.56612 11.4286 5.72803 10.5905 5.72803 9.5238C5.72803 8.45712 6.56612 7.61902 7.63279 7.61902Z" fill="#9CA3AF"/>
<path d="M22.871 68.5712H26.6805C27.7472 68.5712 28.5853 69.4093 28.5853 70.4759C28.5853 71.5426 27.7472 72.3807 26.6805 72.3807H22.871C21.8043 72.3807 20.9662 71.5426 20.9662 70.4759C20.9662 69.4093 21.8043 68.5712 22.871 68.5712Z" fill="#9CA3AF"/>
<path d="M22.871 22.8572H26.6805C27.7472 22.8572 28.5853 23.6953 28.5853 24.7619C28.5853 25.8286 27.7472 26.6667 26.6805 26.6667H22.871C21.8043 26.6667 20.9662 25.8286 20.9662 24.7619C20.9662 23.6953 21.8043 22.8572 22.871 22.8572Z" fill="#9CA3AF"/>
<path d="M7.63279 68.5712H15.2518C16.3185 68.5712 17.1566 69.4093 17.1566 70.4759C17.1566 71.5426 16.3185 72.3807 15.2518 72.3807H7.63279C6.56612 72.3807 5.72803 71.5426 5.72803 70.4759C5.72803 69.4093 6.56612 68.5712 7.63279 68.5712Z" fill="#9CA3AF"/>
<path d="M7.63279 22.8572H15.2518C16.3185 22.8572 17.1566 23.6953 17.1566 24.7619C17.1566 25.8286 16.3185 26.6667 15.2518 26.6667H7.63279C6.56612 26.6667 5.72803 25.8286 5.72803 24.7619C5.72803 23.6953 6.56612 22.8572 7.63279 22.8572Z" fill="#9CA3AF"/>
<path d="M38.109 38.0953H68.5851C69.6517 38.0953 70.4898 38.9334 70.4898 40.0001C70.4898 41.0668 69.6517 41.9049 68.5851 41.9049H38.109C37.0423 41.9049 36.2042 41.0668 36.2042 40.0001C36.2042 38.9334 37.0423 38.0953 38.109 38.0953Z" fill="#9CA3AF"/>
<path d="M19.0614 38.0953H30.49C31.5566 38.0953 32.3947 38.9334 32.3947 40.0001C32.3947 41.0668 31.5566 41.9049 30.49 41.9049H19.0614C17.9947 41.9049 17.1566 41.0668 17.1566 40.0001C17.1566 38.9334 17.9947 38.0953 19.0614 38.0953Z" fill="#9CA3AF"/>
<path d="M7.63279 38.0953H11.4423C12.509 38.0953 13.3471 38.9334 13.3471 40.0001C13.3471 41.0668 12.509 41.9049 11.4423 41.9049H7.63279C6.56612 41.9049 5.72803 41.0668 5.72803 40.0001C5.72803 38.9334 6.56612 38.0953 7.63279 38.0953Z" fill="#9CA3AF"/>
<path d="M41.9184 15.238H57.1566C58.2233 15.238 59.0614 16.0761 59.0614 17.1428C59.0614 18.2095 58.2233 19.0476 57.1566 19.0476H41.9184C40.8518 19.0476 40.0137 18.2095 40.0137 17.1428C40.0137 16.0761 40.8518 15.238 41.9184 15.238Z" fill="#9CA3AF"/>
<path d="M7.63279 15.238H34.2995C35.3661 15.238 36.2042 16.0761 36.2042 17.1428C36.2042 18.2095 35.3661 19.0476 34.2995 19.0476H7.63279C6.56612 19.0476 5.72803 18.2095 5.72803 17.1428C5.72803 16.0761 6.56612 15.238 7.63279 15.238Z" fill="#9CA3AF"/>
<path d="M19.0614 53.3334H53.3471C54.4138 53.3334 55.2519 54.1715 55.2519 55.2381C55.2519 56.3048 54.4138 57.1429 53.3471 57.1429H19.0614C17.9947 57.1429 17.1566 56.3048 17.1566 55.2381C17.1566 54.1715 17.9947 53.3334 19.0614 53.3334Z" fill="#9CA3AF"/>
<path d="M7.63279 53.3334H11.4423C12.509 53.3334 13.3471 54.1715 13.3471 55.2381C13.3471 56.3048 12.509 57.1429 11.4423 57.1429H7.63279C6.56612 57.1429 5.72803 56.3048 5.72803 55.2381C5.72803 54.1715 6.56612 53.3334 7.63279 53.3334Z" fill="#9CA3AF"/>
<path d="M53.3471 22.8572H72.3947C73.4613 22.8572 74.2994 23.6953 74.2994 24.7619C74.2994 25.8286 73.4613 26.6667 72.3947 26.6667H53.3471C52.2805 26.6667 51.4424 25.8286 51.4424 24.7619C51.4424 23.6953 52.2805 22.8572 53.3471 22.8572Z" fill="#9CA3AF"/>
<path d="M53.3471 30.4762H72.3947C73.4613 30.4762 74.2994 31.3143 74.2994 32.381C74.2994 33.4477 73.4613 34.2858 72.3947 34.2858H53.3471C52.2805 34.2858 51.4424 33.4477 51.4424 32.381C51.4424 31.3143 52.2805 30.4762 53.3471 30.4762Z" fill="#9CA3AF"/>
<path d="M7.63279 0H53.3471C54.4137 0 55.2518 0.838095 55.2518 1.90476C55.2518 2.97143 54.4137 3.80952 53.3471 3.80952H7.63279C6.56612 3.80952 5.72803 2.97143 5.72803 1.90476C5.72803 0.838095 6.56612 0 7.63279 0Z" fill="#9CA3AF"/>
</g>
<defs>
<clipPath id="clip0">
<rect width="80" height="80" fill="white"/>
</clipPath>
</defs>
</svg>
