<svg width="80" height="80" viewBox="0 0 80 80" fill="none" xmlns="http://www.w3.org/2000/svg">
<path d="M39.9999 47.125C43.9349 47.125 47.1249 43.935 47.1249 40C47.1249 36.065 43.9349 32.875 39.9999 32.875C36.0648 32.875 32.8749 36.065 32.8749 40C32.8749 43.935 36.0648 47.125 39.9999 47.125Z" fill="#9CA3AF"/>
<path d="M67.0625 28.25C65.6875 27.75 64.25 27.25 62.75 26.8125C63.125 25.3125 63.4375 23.8125 63.6875 22.375C65 14.125 63.5625 8.3125 59.5625 6.0625C58.375 5.375 57.0625 5.0625 55.5625 5.0625C51.1875 5.0625 45.625 8.3125 40 13.75C34.375 8.3125 28.8125 5.0625 24.4375 5.0625C22.9375 5.0625 21.625 5.375 20.4375 6.0625C16.4375 8.375 15 14.1875 16.3125 22.375C16.5625 23.8125 16.875 25.3125 17.25 26.8125C15.75 27.25 14.3125 27.6875 12.9375 28.25C5.125 31.25 0.875 35.375 0.875 40C0.875 44.625 5.1875 48.75 12.9375 51.75C14.3125 52.25 15.75 52.75 17.25 53.1875C16.875 54.6875 16.5625 56.1875 16.3125 57.625C15 65.875 16.4375 71.6875 20.4375 73.9375C21.625 74.625 22.9375 74.9375 24.4375 74.9375C28.875 74.9375 34.4375 71.6875 40 66.25C45.625 71.6875 51.1875 74.9375 55.5625 74.9375C57.0625 74.9375 58.375 74.625 59.5625 73.9375C63.5625 71.625 65 65.8125 63.6875 57.625C63.4375 56.1875 63.125 54.6875 62.75 53.1875C64.25 52.75 65.6875 52.3125 67.0625 51.75C74.875 48.75 79.125 44.625 79.125 40C79.125 35.375 74.875 31.25 67.0625 28.25ZM57.8125 9.1875C60.375 10.6875 61.25 15.3125 60.1875 21.875C60 23.1875 59.6875 24.5625 59.3125 26C56.0625 25.25 52.625 24.75 49 24.4375C46.875 21.4375 44.6875 18.75 42.5 16.3125C47.125 11.75 51.8125 8.625 55.625 8.625C56.4375 8.625 57.1875 8.8125 57.8125 9.1875ZM50.8125 46.25C49.6875 48.25 48.375 50.25 47 52.25C44.6875 52.4375 42.375 52.5 40 52.5C37.5625 52.5 35.25 52.4375 33 52.25C31.625 50.25 30.375 48.25 29.25 46.25C28.0625 44.1875 26.9375 42.0625 25.9375 40C26.9375 37.9375 28.0625 35.8125 29.25 33.75C30.375 31.75 31.6875 29.75 33.0625 27.75C35.375 27.5625 37.6875 27.5 40.0625 27.5C42.5 27.5 44.8125 27.5625 47.0625 27.75C48.4375 29.75 49.6875 31.75 50.8125 33.75C52 35.8125 53.125 37.9375 54.125 40C53.0625 42.0625 52 44.125 50.8125 46.25ZM56 44.1875C56.9375 46.375 57.6875 48.5 58.375 50.625C56.25 51.125 54 51.5 51.625 51.8125C52.375 50.625 53.1875 49.375 53.875 48.0625C54.625 46.75 55.3125 45.4375 56 44.1875ZM40 61.125C38.5 59.5 37.0625 57.75 35.6875 55.9375C37.125 56 38.5625 56.0625 40 56.0625C41.4375 56.0625 42.875 56 44.3125 55.9375C42.9375 57.75 41.5 59.5 40 61.125ZM28.375 51.75C26 51.4375 23.75 51.0625 21.625 50.5625C22.3125 48.5 23.0625 46.3125 24 44.125C24.6875 45.375 25.375 46.6875 26.125 47.9375C26.875 49.3125 27.625 50.5 28.375 51.75ZM24 35.8125C23.0625 33.625 22.3125 31.5 21.625 29.375C23.75 28.875 26 28.5 28.375 28.1875C27.625 29.375 26.8125 30.625 26.125 31.9375C25.375 33.25 24.6875 34.5625 24 35.8125ZM40 18.875C41.5 20.5 42.9375 22.25 44.3125 24.0625C42.875 24 41.4375 23.9375 40 23.9375C38.5625 23.9375 37.125 24 35.6875 24.0625C37.0625 22.25 38.5 20.5 40 18.875ZM53.875 32L51.625 28.25C54 28.5625 56.25 28.9375 58.375 29.4375C57.6875 31.5 56.9375 33.6875 56 35.875C55.3125 34.5625 54.625 33.25 53.875 32ZM19.8125 21.875C18.75 15.3125 19.625 10.6875 22.1875 9.1875C22.8125 8.8125 23.5625 8.625 24.375 8.625C28.125 8.625 32.8125 11.6875 37.5 16.3125C35.3125 18.6875 33.125 21.4375 31 24.4375C27.375 24.75 23.9375 25.3125 20.6875 26C20.3125 24.5625 20.0625 23.1875 19.8125 21.875ZM4.375 40C4.375 37.0625 7.9375 33.9375 14.1875 31.625C15.4375 31.125 16.8125 30.6875 18.1875 30.3125C19.1875 33.4375 20.4375 36.75 21.9375 40.0625C20.4375 43.375 19.125 46.625 18.1875 49.75C9.5625 47.25 4.375 43.5 4.375 40ZM22.1875 70.8125C19.625 69.3125 18.75 64.6875 19.8125 58.125C20 56.8125 20.3125 55.4375 20.6875 54C23.9375 54.75 27.375 55.25 31 55.5625C33.125 58.5625 35.3125 61.25 37.5 63.6875C32.875 68.25 28.1875 71.375 24.375 71.375C23.5625 71.375 22.8125 71.1875 22.1875 70.8125ZM60.1875 58.125C61.25 64.6875 60.375 69.3125 57.8125 70.8125C57.1875 71.1875 56.4375 71.375 55.625 71.375C51.875 71.375 47.1875 68.3125 42.5 63.6875C44.6875 61.3125 46.875 58.5625 49 55.5625C52.625 55.25 56.0625 54.6875 59.3125 54C59.6875 55.4375 59.9375 56.8125 60.1875 58.125ZM65.8125 48.375C64.5625 48.875 63.1875 49.3125 61.8125 49.6875C60.8125 46.5625 59.5625 43.25 58.0625 39.9375C59.5625 36.625 60.875 33.375 61.8125 30.25C70.4375 32.75 75.625 36.5 75.625 40C75.625 42.9375 72 46.0625 65.8125 48.375Z" fill="#9CA3AF"/>
</svg>
