<svg width="80" height="80" viewBox="0 0 80 80" fill="none" xmlns="http://www.w3.org/2000/svg">
<path d="M24.3956 47.0587C28.4012 47.0587 31.6484 43.8116 31.6484 39.806C31.6484 35.8004 28.4012 32.5532 24.3956 32.5532C20.39 32.5532 17.1429 35.8004 17.1429 39.806C17.1429 43.8116 20.39 47.0587 24.3956 47.0587ZM7.25275 61.5642C11.2583 61.5642 14.5055 58.317 14.5055 54.3115C14.5055 50.3059 11.2583 47.0587 7.25275 47.0587C3.24717 47.0587 0 50.3059 0 54.3115C0 58.317 3.24717 61.5642 7.25275 61.5642ZM72.7473 61.5642C76.7528 61.5642 80 58.317 80 54.3115C80 50.3059 76.7528 47.0587 72.7473 47.0587C68.7417 47.0587 65.4945 50.3059 65.4945 54.3115C65.4945 58.317 68.7417 61.5642 72.7473 61.5642Z" fill="#9CA3AF"/>
<path d="M48.9267 40.1115C48.6948 37.6884 48.5767 35.6716 46.7205 34.2541C44.3696 32.459 41.7066 33.6238 38.4264 32.4398C35.2032 31.66 32.8125 28.7983 32.8125 25.3873C32.8125 21.3765 36.1181 18.125 40.1957 18.125C43.2158 18.125 45.8124 19.9086 46.9561 22.4633C48.7066 25.7882 47.5689 29.1719 49.7682 30.8763C52.3723 32.8944 55.8832 31.4165 59.8007 33.3287C61.0594 33.9071 62.1249 34.8245 62.8756 35.9615C63.6264 37.0986 64.0625 38.4552 64.0625 39.912C64.0625 43.323 61.6718 46.1847 58.4486 46.9644C55.1684 48.1484 52.5054 46.9836 50.1545 48.7788C47.5109 50.7974 48.9262 54.1746 46.7717 57.742C45.5488 60.0911 43.0632 61.6989 40.1957 61.6989C36.1181 61.6989 32.8125 58.4475 32.8125 54.4366C32.8125 51.523 34.5568 49.0102 37.0743 47.8533C40.9918 45.9412 44.5027 47.4191 47.1068 45.4009C48.6091 44.2367 48.9267 42.4407 48.9267 40.1115Z" fill="#9CA3AF"/>
</svg>
