<svg width="80" height="80" viewBox="0 0 80 80" fill="none" xmlns="http://www.w3.org/2000/svg">
<path d="M55.4312 55.0687C49.8062 66.5687 39.9562 74.3062 26.925 76.8499C24.9269 77.3394 22.8758 77.5788 20.8187 77.5624C13.3187 77.5624 6.44374 74.4374 3.10624 69.3187C-1.37501 62.4999 -2.90001 48.0437 11.875 37.3499C12.175 38.9812 12.7875 41.2187 13.1937 42.5437C10.2933 44.6985 7.91922 47.4828 6.24999 50.6874C3.49999 56.0874 3.80624 61.4812 7.06249 66.4687C9.31249 69.8312 12.875 71.8749 17.4562 72.4999C23.1783 73.2242 28.9833 72.131 34.05 69.3749C41.9937 65.1999 47.2875 60.2124 50.75 53.3937C49.7709 52.3819 49.1914 51.0497 49.1187 49.6437C49.0664 48.1348 49.6148 46.6669 50.6436 45.5619C51.6724 44.4569 53.0975 43.8053 54.6062 43.7499H54.8187C56.2862 43.7425 57.7004 44.2996 58.7686 45.3058C59.8368 46.312 60.4773 47.6904 60.5576 49.1557C60.6379 50.621 60.1518 52.0611 59.1999 53.178C58.2481 54.2949 56.9032 55.0031 55.4437 55.1562L55.4312 55.0687ZM73.35 42.4437C80.9812 51.0937 81.1875 61.2749 78.2375 67.1812C75.4875 72.5749 68.2375 77.9749 58.4875 77.9749C53.936 77.8821 49.4585 76.8053 45.3625 74.8186C46.7937 73.7999 48.825 72.1686 49.9437 71.1499C53.1024 72.5183 56.5017 73.2449 59.9437 73.2874C66.2562 73.2874 71.0375 70.3374 73.8875 64.9437C75.7187 61.3812 75.825 57.2062 74.0937 52.9312C71.9694 47.5523 68.1893 42.9886 63.3 39.8999C56.8854 35.5758 49.3234 33.2706 41.5875 33.2812H39.7562C39.3292 34.2676 38.6345 35.1147 37.7509 35.7267C36.8672 36.3386 35.8298 36.6909 34.7562 36.7437H34.5625C33.0776 36.7254 31.6583 36.129 30.6061 35.0811C29.5538 34.0332 28.9516 32.6164 28.9271 31.1316C28.9027 29.6468 29.4581 28.211 30.4754 27.1291C31.4926 26.0472 32.8915 25.4044 34.375 25.3374H34.5812C35.615 25.3382 36.6286 25.6238 37.5107 26.163C38.3927 26.7021 39.1091 27.474 39.5812 28.3937H41.2125C54.2125 28.3937 65.625 33.3812 73.35 42.4437ZM21.6312 56.8187C21.5242 55.7808 21.7756 54.7376 22.3437 53.8624C16.6437 43.9874 13.5937 31.4687 18.275 18.4374C21.6312 8.64365 30.0812 2.0249 39.2437 2.0249C49.0187 2.0249 59.2 10.5812 60.4187 27.0687C58.8937 26.5624 56.6687 25.8187 55.3312 25.5437C55 20.1499 50.4437 6.7124 39.65 6.9124C35.7812 7.01865 30.0812 8.8499 27.15 12.6124C23.5241 17.1038 21.4148 22.6286 21.125 28.3937C20.4379 36.2985 22.2926 44.2162 26.4187 50.9937C26.6465 50.9104 26.8893 50.8763 27.1312 50.8937H27.3312C28.843 50.8663 30.3037 51.4406 31.392 52.4902C32.4803 53.5398 33.107 54.9788 33.1344 56.4905C33.1617 58.0023 32.5874 59.4629 31.5378 60.5512C30.4882 61.6395 29.0492 62.2663 27.5375 62.2937H27.3312C25.8564 62.2884 24.4405 61.7142 23.3786 60.6908C22.3168 59.6673 21.6908 58.2735 21.6312 56.7999V56.8187Z" fill="#9CA3AF"/>
</svg>
