<svg width="80" height="80" viewBox="0 0 80 80" fill="none" xmlns="http://www.w3.org/2000/svg">
<path d="M1.25 39.9437V79.0062H79.375V0.881226H1.25V39.9437ZM64.2063 36.8187C66.0774 37.253 67.7781 38.2316 69.0938 39.6312C69.818 40.3853 70.4477 41.2248 70.9688 42.1312C70.9688 42.2312 67.5938 44.5125 65.5375 45.7875C65.4625 45.8375 65.1625 45.5125 64.8313 45.0187C64.4559 44.371 63.9225 43.829 63.281 43.4432C62.6394 43.0574 61.9106 42.8404 61.1625 42.8125C58.7938 42.65 57.2687 43.8937 57.2812 45.9375C57.2617 46.4463 57.3782 46.9512 57.6188 47.4C58.1375 48.4812 59.1063 49.125 62.1437 50.4375C67.7375 52.8437 70.1312 54.4312 71.6187 56.6875C73.2812 59.1875 73.65 63.225 72.525 66.2125C71.275 69.4625 68.2125 71.6687 63.8812 72.4C61.903 72.6266 59.9043 72.6056 57.9313 72.3375C54.9201 71.849 52.1424 70.4153 50 68.2437C49.2812 67.45 47.8812 65.3812 47.9688 65.2312C48.1969 65.0619 48.4371 64.9094 48.6875 64.775L51.5625 63.125L53.8062 61.825L54.275 62.5187C55.0661 63.6503 56.0728 64.6146 57.2375 65.3562C59.7375 66.6687 63.15 66.4875 64.8375 64.9687C65.4041 64.4122 65.7575 63.6746 65.8363 62.8843C65.9151 62.094 65.7143 61.3012 65.2688 60.6437C64.6437 59.775 63.3937 59.0437 59.9 57.5187C55.8687 55.7812 54.1312 54.7062 52.5438 52.9937C51.5527 51.8637 50.821 50.5304 50.4 49.0875C50.086 47.439 50.0395 45.7507 50.2625 44.0875C51.0938 40.1937 54.0125 37.475 58.275 36.6687C60.249 36.4245 62.2486 36.4793 64.2063 36.8312V36.8187ZM45.8688 40.0937V43.2937H35.725V72.1875H28.5312V43.2875H18.3625V40.1625C18.3352 39.0867 18.3644 38.0102 18.45 36.9375C18.4875 36.8875 24.7 36.8625 32.2 36.875H45.8313L45.8688 40.0937Z" fill="#9CA3AF"/>
</svg>
