<svg width="80" height="80" viewBox="0 0 80 80" fill="none" xmlns="http://www.w3.org/2000/svg">
<path d="M2.28494 28.1519C2.28494 28.1519 0.393068 26.7825 2.66619 24.9563L7.95869 20.21C7.95869 20.21 9.47494 18.6107 11.0768 20.005L59.9362 57.085V74.8663C59.9362 74.8663 59.9118 77.6588 56.3381 77.3513L2.28494 28.1519Z" fill="#9CA3AF"/>
<path d="M14.8806 39.612L2.28496 51.0888C2.28496 51.0888 0.991211 52.0532 2.28496 53.7795L8.13246 59.1088C8.13246 59.1088 9.52121 60.6057 11.575 58.9038L24.9243 48.7551L14.8806 39.612ZM36.99 39.707L60.0856 22.0288L59.9362 4.34321C59.9362 4.34321 58.95 0.483206 55.6593 2.49383L24.9243 30.532L36.99 39.707Z" fill="#9CA3AF"/>
<path d="M56.3375 77.3732C57.6782 78.7501 59.3044 78.2982 59.3044 78.2982L77.3026 69.4095C79.6069 67.8345 79.2844 65.8813 79.2844 65.8813V12.7907C79.2844 10.4563 76.9019 9.65071 76.9019 9.65071L61.3013 2.11258C57.8932 0.000707269 55.6594 2.49383 55.6594 2.49383C55.6594 2.49383 58.5301 0.420707 59.9363 4.34383V74.542C59.9363 75.0251 59.8338 75.4982 59.6288 75.9257C59.2188 76.7582 58.325 77.532 56.1888 77.2076L56.3375 77.3732Z" fill="#9CA3AF"/>
</svg>
