<svg width="80" height="80" viewBox="0 0 80 80" fill="none" xmlns="http://www.w3.org/2000/svg">
<path d="M73.3064 61.3125L41.4001 79.375V65.3063L61.2501 54.375L73.3064 61.3125ZM75.4939 59.3375V21.5938L63.8188 28.3438V52.6L75.4876 59.3312L75.4939 59.3375ZM6.69385 61.3125L38.5688 79.3625V65.3063L18.7126 54.375L6.69385 61.3125ZM4.50635 59.3375V21.5938L16.1813 28.3438V52.6L4.50635 59.3375ZM5.8751 19.15L38.6001 0.625V14.225L17.6313 25.7562L17.4626 25.85L5.8751 19.15ZM74.1126 19.15L41.4001 0.625V14.225L62.3689 25.75L62.5376 25.8438L74.1251 19.15H74.1126ZM38.6001 62.1063L18.9813 51.3125V29.95L38.6001 41.25V62.1063ZM41.4001 62.1063L61.0188 51.325V29.95L41.4001 41.25V62.1063ZM20.3126 27.5L40.0001 16.6625L59.6876 27.5L40.0001 38.85L20.3126 27.5Z" fill="#9CA3AF"/>
</svg>
