<svg width="80" height="80" viewBox="0 0 80 80" fill="none" xmlns="http://www.w3.org/2000/svg">
<path d="M62.025 50.4438C59.3125 50.475 56.9375 51.875 54.9313 53.125C51.1813 55.4438 49.3063 55.2938 49.3063 55.2938L49.2438 55.1875C48.9875 54.7688 50.4438 51.0125 48.8125 46.5375C47.05 41.6438 44.25 40.4625 44.475 40.0875C45.4313 38.4688 47.825 35.9 48.7813 31.1125C49.35 28.2125 49.2 23.4375 47.9125 20.9375C47.675 20.475 45.55 21.7125 45.55 21.7125C45.55 21.7125 43.5625 17.2813 43.0063 16.925C41.2125 15.775 39.2563 21.6813 39.2563 21.6813C37.9017 21.5485 36.5348 21.7336 35.2643 22.2219C33.9937 22.7101 32.8546 23.488 31.9375 24.4938C31.2577 25.1486 30.4334 25.6346 29.5313 25.9125C29.275 26 28.9625 25.9875 28.1875 28.0813C27 31.25 30.2125 34.8375 30.2125 34.8375C30.2125 34.8375 26.3813 37.5438 24.9625 40.9125C24.0149 43.2221 23.6397 45.7266 23.8688 48.2125C23.8688 48.2125 21.1438 50.575 20.9688 53.0125C20.8063 54.72 21.194 56.4347 22.075 57.9062C22.1438 58.0531 22.2413 58.1847 22.3618 58.2933C22.4824 58.4018 22.6234 58.485 22.7767 58.538C22.93 58.5911 23.0923 58.6128 23.2541 58.602C23.4159 58.5912 23.5739 58.548 23.7188 58.475C23.7188 58.475 21.9063 60.5875 23.6 61.4813C25.1438 62.2875 27.7438 62.7313 29.1188 61.3625C30.1188 60.3625 30.3188 58.1313 30.6875 57.2188C30.775 57.0063 31.075 57.575 31.3625 57.8438C31.6277 58.0757 31.9121 58.2847 32.2125 58.4688C32.2125 58.4688 29.775 59.5187 30.775 61.9125C31.1063 62.7062 32.2875 63.2125 34.2188 63.2C34.9375 63.2 42.8188 62.75 44.9188 62.2437C45.5536 62.143 46.1319 61.8195 46.55 61.3312C49.9599 60.317 53.2167 58.8452 56.2313 56.9562C59.1938 55.025 60.4063 54.5 62.8 53.9313C64.775 53.4625 64.6438 50.4 62.025 50.4438Z" fill="#9CA3AF"/>
<path d="M40 1.25C32.336 1.25 24.8441 3.52265 18.4717 7.78055C12.0993 12.0385 7.13258 18.0904 4.19969 25.171C1.26679 32.2517 0.499411 40.043 1.99459 47.5597C3.48976 55.0765 7.18035 61.9811 12.5996 67.4004C18.0189 72.8197 24.9235 76.5102 32.4403 78.0054C39.957 79.5006 47.7484 78.7332 54.829 75.8003C61.9096 72.8674 67.9616 67.9007 72.2195 61.5283C76.4774 55.1559 78.75 47.664 78.75 40C78.75 29.7229 74.6674 19.8666 67.4004 12.5996C60.1334 5.33258 50.2771 1.25 40 1.25ZM63.3125 56.1437C61.2188 56.65 60.2438 57.0437 57.4313 58.8687C54.395 60.7747 51.1267 62.2829 47.7063 63.3562C47.0453 63.8985 46.2659 64.2775 45.4313 64.4625C43.05 65.0437 34.8813 65.4812 34.2375 65.4812H34.0875C31.5875 65.4812 30.1688 64.7062 29.4063 63.8937C27.2813 64.9562 24.5313 64.5187 22.5313 63.4625C22.0524 63.2277 21.6341 62.8856 21.3089 62.4629C20.9837 62.0401 20.7604 61.5481 20.6563 61.025C20.582 60.599 20.582 60.1635 20.6563 59.7375C20.4721 59.5454 20.3067 59.3361 20.1625 59.1125C19.0271 57.2234 18.5317 55.0182 18.75 52.825C18.9313 50.4937 20.5438 48.4125 21.5938 47.3062C21.5065 44.8075 21.9451 42.3184 22.8813 40C23.8868 37.8437 25.3398 35.9263 27.1438 34.375C26.1125 32.6375 25.0625 29.9625 26.0813 27.2375C26.8125 25.2937 27.4125 24.2125 28.7313 23.75C29.3071 23.5839 29.8416 23.2985 30.3 22.9125C32.2234 20.8232 34.8784 19.5561 37.7125 19.375C37.8313 19.075 37.9688 18.75 38.1188 18.4625C39.1188 16.3375 40.1813 15.1437 41.425 14.7125C41.8756 14.544 42.3596 14.4845 42.8375 14.5389C43.3154 14.5932 43.7738 14.7598 44.175 15.025C44.5813 15.2937 45.1 15.65 46.6125 18.775C47.1854 18.5698 47.8079 18.5479 48.3938 18.7125C48.7134 18.7996 49.0113 18.9524 49.2685 19.1612C49.5257 19.37 49.7366 19.6301 49.8875 19.925C51.4313 22.8875 51.6375 28.1687 50.9625 31.5625C50.3635 34.5673 49.118 37.4058 47.3125 39.8812C48.9274 41.5613 50.1579 43.5723 50.9188 45.775C51.6623 47.8587 51.9625 50.0748 51.8 52.2812C52.472 51.9596 53.1232 51.5964 53.75 51.1937C55.6625 50.0125 58.55 48.2312 61.9938 48.1875C63.0384 48.1176 64.0708 48.4463 64.8827 49.1074C65.6945 49.7685 66.2256 50.7128 66.3688 51.75C66.4993 52.7316 66.2582 53.7266 65.6927 54.5396C65.1272 55.3525 64.2783 55.9247 63.3125 56.1437Z" fill="#9CA3AF"/>
</svg>
